<svg xmlns="http://www.w3.org/2000/svg" xmlns:xlink="http://www.w3.org/1999/xlink" width="957" zoomAndPan="magnify" viewBox="0 0 717.75 363.749991" height="485" preserveAspectRatio="xMidYMid meet" version="1.0"><defs><g/><clipPath id="412abac28d"><path d="M 97.082031 173.550781 L 620.972656 173.550781 L 620.972656 345.496094 L 97.082031 345.496094 Z M 97.082031 173.550781 " clip-rule="nonzero"/></clipPath><clipPath id="ace6494929"><path d="M 108.324219 173.550781 L 609.175781 173.550781 C 612.160156 173.550781 615.019531 174.738281 617.125 176.84375 C 619.234375 178.953125 620.417969 181.8125 620.417969 184.792969 L 620.417969 334.253906 C 620.417969 337.234375 619.234375 340.09375 617.125 342.203125 C 615.019531 344.3125 612.160156 345.496094 609.175781 345.496094 L 108.324219 345.496094 C 105.339844 345.496094 102.480469 344.3125 100.375 342.203125 C 98.265625 340.09375 97.082031 337.234375 97.082031 334.253906 L 97.082031 184.792969 C 97.082031 181.8125 98.265625 178.953125 100.375 176.84375 C 102.480469 174.738281 105.339844 173.550781 108.324219 173.550781 Z M 108.324219 173.550781 " clip-rule="nonzero"/></clipPath><clipPath id="5074e73552"><path d="M 97.082031 109.386719 L 620.417969 109.386719 L 620.417969 173.550781 L 97.082031 173.550781 Z M 97.082031 109.386719 " clip-rule="nonzero"/></clipPath><clipPath id="023ca95390"><path d="M 312.410156 10.253906 L 405.089844 10.253906 L 405.089844 102.9375 L 312.410156 102.9375 Z M 312.410156 10.253906 " clip-rule="nonzero"/></clipPath><clipPath id="345d0acd50"><path d="M 358.75 10.253906 C 333.15625 10.253906 312.410156 31.003906 312.410156 56.597656 C 312.410156 82.191406 333.15625 102.9375 358.75 102.9375 C 384.34375 102.9375 405.089844 82.191406 405.089844 56.597656 C 405.089844 31.003906 384.34375 10.253906 358.75 10.253906 Z M 358.75 10.253906 " clip-rule="nonzero"/></clipPath><clipPath id="184b9a4465"><path d="M 312.410156 10.253906 L 405.085938 10.253906 L 405.085938 102.933594 L 312.410156 102.933594 Z M 312.410156 10.253906 " clip-rule="nonzero"/></clipPath><clipPath id="05315dee1e"><path d="M 358.746094 10.253906 C 333.15625 10.253906 312.410156 31 312.410156 56.59375 C 312.410156 82.1875 333.15625 102.933594 358.746094 102.933594 C 384.339844 102.933594 405.085938 82.1875 405.085938 56.59375 C 405.085938 31 384.339844 10.253906 358.746094 10.253906 Z M 358.746094 10.253906 " clip-rule="nonzero"/></clipPath><clipPath id="1e0ab31ad5"><path d="M 369 35.125 L 381 35.125 L 381 42 L 369 42 Z M 369 35.125 " clip-rule="nonzero"/></clipPath><clipPath id="40fcc3edb7"><path d="M 337 35.125 L 349 35.125 L 349 42 L 337 42 Z M 337 35.125 " clip-rule="nonzero"/></clipPath><clipPath id="061ebb23e4"><path d="M 327 51 L 354 51 L 354 77.847656 L 327 77.847656 Z M 327 51 " clip-rule="nonzero"/></clipPath><clipPath id="0bf44db903"><path d="M 363 51 L 390.707031 51 L 390.707031 77.847656 L 363 77.847656 Z M 363 51 " clip-rule="nonzero"/></clipPath></defs><g clip-path="url(#412abac28d)"><g clip-path="url(#ace6494929)"><path fill="#00bf63" d="M 97.082031 173.550781 L 620.300781 173.550781 L 620.300781 345.496094 L 97.082031 345.496094 Z M 97.082031 173.550781 " fill-opacity="1" fill-rule="nonzero"/></g></g><g clip-path="url(#5074e73552)"><path fill="#ffffff" d="M 97.082031 109.386719 L 620.441406 109.386719 L 620.441406 173.550781 L 97.082031 173.550781 Z M 97.082031 109.386719 " fill-opacity="1" fill-rule="nonzero"/></g><g fill="#000000" fill-opacity="1"><g transform="translate(299.593852, 149.712875)"><g><path d="M 6.59375 -8.015625 C 3.132812 -8.816406 1.40625 -10.300781 1.40625 -12.46875 C 1.40625 -14.0625 1.960938 -15.257812 3.078125 -16.0625 C 4.191406 -16.84375 5.5 -17.234375 7 -17.234375 C 10.3125 -17.234375 12.273438 -16.003906 12.890625 -13.546875 L 11 -13.546875 C 10.664062 -15.003906 9.332031 -15.734375 7 -15.734375 C 5.363281 -15.734375 4.222656 -15.253906 3.578125 -14.296875 C 3.328125 -13.921875 3.203125 -13.460938 3.203125 -12.921875 C 3.203125 -11.867188 3.765625 -11.0625 4.890625 -10.5 C 5.429688 -10.207031 6.566406 -9.835938 8.296875 -9.390625 C 10.023438 -8.941406 11.28125 -8.441406 12.0625 -7.890625 C 13.144531 -7.128906 13.6875 -6.054688 13.6875 -4.671875 C 13.6875 -2.953125 13.015625 -1.65625 11.671875 -0.78125 C 10.535156 -0.0390625 9.132812 0.328125 7.46875 0.328125 C 3.707031 0.328125 1.523438 -1.101562 0.921875 -3.96875 L 3 -3.96875 C 3.3125 -2.175781 4.800781 -1.28125 7.46875 -1.28125 C 9.363281 -1.28125 10.6875 -1.800781 11.4375 -2.84375 C 11.738281 -3.257812 11.890625 -3.828125 11.890625 -4.546875 C 11.890625 -5.242188 11.613281 -5.816406 11.0625 -6.265625 C 10.28125 -6.898438 8.789062 -7.484375 6.59375 -8.015625 Z M 6.59375 -8.015625 "/></g></g></g><g fill="#000000" fill-opacity="1"><g transform="translate(313.931729, 149.712875)"><g><path d="M 3.640625 -14.796875 C 3.859375 -14.578125 3.96875 -14.316406 3.96875 -14.015625 C 3.96875 -13.703125 3.859375 -13.4375 3.640625 -13.21875 C 3.429688 -13 3.175781 -12.890625 2.875 -12.890625 C 2.5625 -12.890625 2.296875 -13 2.078125 -13.21875 C 1.859375 -13.4375 1.75 -13.703125 1.75 -14.015625 C 1.75 -14.316406 1.859375 -14.578125 2.078125 -14.796875 C 2.296875 -15.003906 2.5625 -15.109375 2.875 -15.109375 C 3.175781 -15.109375 3.429688 -15.003906 3.640625 -14.796875 Z M 3.75 0 L 2 0 L 2 -11 L 3.75 -11 Z M 3.75 0 "/></g></g></g><g fill="#000000" fill-opacity="1"><g transform="translate(319.651892, 149.712875)"><g><path d="M 0.5 -9.375 L 0.5 -11 L 3.25 -11 L 3.25 -15.265625 L 5 -15.265625 L 5 -11 L 7.71875 -11 L 7.71875 -9.375 L 5 -9.375 L 5 0 L 3.25 0 L 3.25 -9.375 Z M 0.5 -9.375 "/></g></g></g><g fill="#000000" fill-opacity="1"><g transform="translate(327.869944, 149.712875)"><g><path d="M 12.609375 -5.75 L 12.609375 -4.828125 L 2.953125 -4.828125 C 3.117188 -3.867188 3.578125 -3.09375 4.328125 -2.5 C 5.085938 -1.882812 5.9375 -1.578125 6.875 -1.578125 C 7.5 -1.578125 8.101562 -1.726562 8.6875 -2.03125 C 9.257812 -2.3125 9.738281 -2.707031 10.125 -3.21875 L 12.125 -3.21875 C 11.65625 -2.175781 10.953125 -1.351562 10.015625 -0.75 C 9.066406 -0.132812 8.109375 0.171875 7.140625 0.171875 C 6.160156 0.171875 5.328125 0.0195312 4.640625 -0.28125 C 3.941406 -0.570312 3.335938 -0.976562 2.828125 -1.5 C 1.691406 -2.59375 1.125 -3.941406 1.125 -5.546875 C 1.125 -7.128906 1.691406 -8.488281 2.828125 -9.625 C 3.941406 -10.738281 5.289062 -11.296875 6.875 -11.296875 C 8.40625 -11.296875 9.742188 -10.753906 10.890625 -9.671875 C 12.035156 -8.566406 12.609375 -7.257812 12.609375 -5.75 Z M 10.765625 -6.328125 C 10.566406 -7.253906 10.101562 -8.023438 9.375 -8.640625 C 8.632812 -9.242188 7.800781 -9.546875 6.875 -9.546875 C 5.4375 -9.546875 4.3125 -8.90625 3.5 -7.625 C 3.25 -7.21875 3.070312 -6.785156 2.96875 -6.328125 Z M 10.765625 -6.328125 "/></g></g></g><g fill="#000000" fill-opacity="1"><g transform="translate(341.483428, 149.712875)"><g/></g></g><g fill="#000000" fill-opacity="1"><g transform="translate(348.227728, 149.712875)"><g><path d="M 6.59375 -8.015625 C 3.132812 -8.816406 1.40625 -10.300781 1.40625 -12.46875 C 1.40625 -14.0625 1.960938 -15.257812 3.078125 -16.0625 C 4.191406 -16.84375 5.5 -17.234375 7 -17.234375 C 10.3125 -17.234375 12.273438 -16.003906 12.890625 -13.546875 L 11 -13.546875 C 10.664062 -15.003906 9.332031 -15.734375 7 -15.734375 C 5.363281 -15.734375 4.222656 -15.253906 3.578125 -14.296875 C 3.328125 -13.921875 3.203125 -13.460938 3.203125 -12.921875 C 3.203125 -11.867188 3.765625 -11.0625 4.890625 -10.5 C 5.429688 -10.207031 6.566406 -9.835938 8.296875 -9.390625 C 10.023438 -8.941406 11.28125 -8.441406 12.0625 -7.890625 C 13.144531 -7.128906 13.6875 -6.054688 13.6875 -4.671875 C 13.6875 -2.953125 13.015625 -1.65625 11.671875 -0.78125 C 10.535156 -0.0390625 9.132812 0.328125 7.46875 0.328125 C 3.707031 0.328125 1.523438 -1.101562 0.921875 -3.96875 L 3 -3.96875 C 3.3125 -2.175781 4.800781 -1.28125 7.46875 -1.28125 C 9.363281 -1.28125 10.6875 -1.800781 11.4375 -2.84375 C 11.738281 -3.257812 11.890625 -3.828125 11.890625 -4.546875 C 11.890625 -5.242188 11.613281 -5.816406 11.0625 -6.265625 C 10.28125 -6.898438 8.789062 -7.484375 6.59375 -8.015625 Z M 6.59375 -8.015625 "/></g></g></g><g fill="#000000" fill-opacity="1"><g transform="translate(362.565605, 149.712875)"><g><path d="M 9.46875 -1.875 C 8.65625 -0.476562 7.429688 0.21875 5.796875 0.21875 C 4.566406 0.21875 3.597656 -0.1875 2.890625 -1 C 2.210938 -1.8125 1.875 -2.851562 1.875 -4.125 L 1.875 -11 L 3.625 -11 L 3.625 -4.125 C 3.625 -3.40625 3.789062 -2.796875 4.125 -2.296875 C 4.4375 -1.785156 4.96875 -1.53125 5.71875 -1.53125 C 7.082031 -1.53125 8.050781 -1.960938 8.625 -2.828125 C 9.1875 -3.671875 9.46875 -4.859375 9.46875 -6.390625 L 9.46875 -11 L 11.21875 -11 L 11.21875 0 L 9.46875 0 Z M 9.46875 -1.875 "/></g></g></g><g fill="#000000" fill-opacity="1"><g transform="translate(375.279847, 149.712875)"><g><path d="M 7.515625 -8.71875 C 7.117188 -9.082031 6.6875 -9.265625 6.21875 -9.265625 C 5.769531 -9.265625 5.390625 -9.140625 5.078125 -8.890625 C 4.742188 -8.628906 4.46875 -8.3125 4.25 -7.9375 C 3.832031 -7.207031 3.625 -6.394531 3.625 -5.5 L 3.625 0 L 1.875 0 L 1.875 -11 L 3.625 -11 L 3.625 -8.71875 L 3.703125 -9.171875 C 4.285156 -10.535156 5.191406 -11.21875 6.421875 -11.21875 C 6.804688 -11.21875 7.171875 -11.144531 7.515625 -11 Z M 7.515625 -8.71875 "/></g></g></g><g fill="#000000" fill-opacity="1"><g transform="translate(383.048273, 149.712875)"><g><path d="M 5.328125 1.046875 L 0.25 -11 L 2.15625 -11 L 5.328125 -2.828125 L 8.46875 -11 L 10.375 -11 Z M 5.328125 1.046875 "/></g></g></g><g fill="#000000" fill-opacity="1"><g transform="translate(393.664297, 149.712875)"><g><path d="M 12.609375 -5.75 L 12.609375 -4.828125 L 2.953125 -4.828125 C 3.117188 -3.867188 3.578125 -3.09375 4.328125 -2.5 C 5.085938 -1.882812 5.9375 -1.578125 6.875 -1.578125 C 7.5 -1.578125 8.101562 -1.726562 8.6875 -2.03125 C 9.257812 -2.3125 9.738281 -2.707031 10.125 -3.21875 L 12.125 -3.21875 C 11.65625 -2.175781 10.953125 -1.351562 10.015625 -0.75 C 9.066406 -0.132812 8.109375 0.171875 7.140625 0.171875 C 6.160156 0.171875 5.328125 0.0195312 4.640625 -0.28125 C 3.941406 -0.570312 3.335938 -0.976562 2.828125 -1.5 C 1.691406 -2.59375 1.125 -3.941406 1.125 -5.546875 C 1.125 -7.128906 1.691406 -8.488281 2.828125 -9.625 C 3.941406 -10.738281 5.289062 -11.296875 6.875 -11.296875 C 8.40625 -11.296875 9.742188 -10.753906 10.890625 -9.671875 C 12.035156 -8.566406 12.609375 -7.257812 12.609375 -5.75 Z M 10.765625 -6.328125 C 10.566406 -7.253906 10.101562 -8.023438 9.375 -8.640625 C 8.632812 -9.242188 7.800781 -9.546875 6.875 -9.546875 C 5.4375 -9.546875 4.3125 -8.90625 3.5 -7.625 C 3.25 -7.21875 3.070312 -6.785156 2.96875 -6.328125 Z M 10.765625 -6.328125 "/></g></g></g><g fill="#000000" fill-opacity="1"><g transform="translate(407.277781, 149.712875)"><g><path d="M 3.265625 6.25 L 1.15625 6.25 L 4.84375 -1.796875 L 0.25 -11 L 2.25 -11 L 5.765625 -3.625 L 8.921875 -11 L 10.875 -11 Z M 3.265625 6.25 "/></g></g></g><g clip-path="url(#023ca95390)"><g clip-path="url(#345d0acd50)"><path fill="#ffffff" d="M 312.410156 10.253906 L 405.089844 10.253906 L 405.089844 102.9375 L 312.410156 102.9375 Z M 312.410156 10.253906 " fill-opacity="1" fill-rule="nonzero"/></g></g><g clip-path="url(#184b9a4465)"><g clip-path="url(#05315dee1e)"><path stroke-linecap="butt" transform="matrix(0.749485, 0, 0, 0.749485, 312.408574, 10.255061)" fill="none" stroke-linejoin="miter" d="M 61.825826 -0.00154009 C 27.682582 -0.00154009 0.00211083 27.678931 0.00211083 61.827387 C 0.00211083 95.975843 27.682582 123.656315 61.825826 123.656315 C 95.974282 123.656315 123.654754 95.975843 123.654754 61.827387 C 123.654754 27.678931 95.974282 -0.00154009 61.825826 -0.00154009 Z M 61.825826 -0.00154009 " stroke="#00bf63" stroke-width="8" stroke-opacity="1" stroke-miterlimit="4"/></g></g><g clip-path="url(#1e0ab31ad5)"><path fill="#00bf63" d="M 375.675781 39.453125 C 377.671875 39.332031 379.1875 39.425781 380.492188 39.757812 L 380.050781 38.347656 C 379.375 36.148438 377.742188 35.125 374.914062 35.125 C 373.503906 35.125 372.1875 35.480469 371.207031 36.121094 C 370.304688 36.710938 369.804688 37.46875 369.804688 38.253906 C 369.804688 38.308594 369.804688 38.34375 369.3125 41.507812 C 369.609375 41.265625 369.921875 41.042969 370.25 40.84375 C 371.617188 40.015625 373.238281 39.597656 375.675781 39.453125 Z M 375.675781 39.453125 " fill-opacity="1" fill-rule="nonzero"/></g><path fill="#00bf63" d="M 368.996094 52.78125 C 371.410156 51.125 374.242188 50.25 377.179688 50.25 C 380.144531 50.25 382.996094 51.140625 385.421875 52.820312 C 386.601562 53.636719 387.640625 54.609375 388.519531 55.710938 L 384.339844 43.589844 C 382 40.824219 379.410156 40.410156 375.746094 40.628906 C 371.175781 40.902344 370.0625 42.132812 367.757812 44.8125 L 365.566406 56.070312 C 366.515625 54.800781 367.667969 53.691406 368.996094 52.78125 Z M 368.996094 52.78125 " fill-opacity="1" fill-rule="nonzero"/><path fill="#00bf63" d="M 366.230469 46.492188 L 362.816406 47.394531 C 362.828125 47.519531 362.835938 47.640625 362.835938 47.765625 L 363.402344 57.042969 L 364.175781 57.042969 Z M 366.230469 46.492188 " fill-opacity="1" fill-rule="nonzero"/><path fill="#00bf63" d="M 362.175781 56.285156 L 361.65625 47.820312 C 361.65625 47.808594 361.65625 47.796875 361.65625 47.785156 C 361.65625 46.183594 360.351562 44.878906 358.75 44.878906 C 357.148438 44.878906 355.84375 46.183594 355.84375 47.785156 C 355.84375 47.796875 355.84375 47.808594 355.839844 47.820312 L 355.347656 56.265625 C 356.21875 55.394531 357.421875 54.859375 358.75 54.859375 C 360.085938 54.859375 361.300781 55.40625 362.175781 56.285156 Z M 362.175781 56.285156 " fill-opacity="1" fill-rule="nonzero"/><path fill="#00bf63" d="M 353.371094 57.042969 L 354.117188 57.042969 L 354.664062 47.765625 C 354.664062 47.640625 354.671875 47.519531 354.683594 47.398438 L 351.273438 46.496094 Z M 353.371094 57.042969 " fill-opacity="1" fill-rule="nonzero"/><g clip-path="url(#40fcc3edb7)"><path fill="#00bf63" d="M 341.820312 39.453125 C 344.257812 39.597656 345.882812 40.015625 347.25 40.84375 C 347.578125 41.042969 347.886719 41.265625 348.183594 41.507812 C 347.691406 38.34375 347.691406 38.308594 347.691406 38.253906 C 347.691406 37.46875 347.195312 36.710938 346.292969 36.121094 C 345.308594 35.480469 343.992188 35.125 342.582031 35.125 C 339.753906 35.125 338.125 36.148438 337.449219 38.347656 L 337.007812 39.757812 C 338.308594 39.425781 339.828125 39.332031 341.820312 39.453125 Z M 341.820312 39.453125 " fill-opacity="1" fill-rule="nonzero"/></g><path fill="#00bf63" d="M 332.074219 52.820312 C 334.503906 51.140625 337.355469 50.25 340.316406 50.25 C 343.257812 50.25 346.085938 51.125 348.503906 52.78125 C 349.832031 53.691406 350.984375 54.800781 351.933594 56.066406 L 349.742188 44.8125 C 347.4375 42.132812 346.324219 40.902344 341.75 40.628906 C 338.085938 40.40625 335.5 40.824219 333.160156 43.589844 L 328.980469 55.710938 C 329.859375 54.609375 330.898438 53.636719 332.074219 52.820312 Z M 332.074219 52.820312 " fill-opacity="1" fill-rule="nonzero"/><g clip-path="url(#061ebb23e4)"><path fill="#00bf63" d="M 352.621094 59.644531 C 350.550781 54.652344 345.730469 51.429688 340.316406 51.429688 C 334.832031 51.429688 329.980469 54.714844 327.949219 59.808594 L 327.929688 59.851562 C 327.316406 61.410156 327.003906 63.054688 327.003906 64.746094 C 327.003906 72.085938 332.976562 78.058594 340.316406 78.058594 C 347.660156 78.058594 353.632812 72.085938 353.632812 64.746094 C 353.632812 63.007812 353.304688 61.324219 352.65625 59.730469 Z M 347.878906 72.304688 C 345.859375 74.328125 343.175781 75.4375 340.316406 75.4375 C 337.460938 75.4375 334.777344 74.328125 332.757812 72.304688 C 330.738281 70.285156 329.625 67.601562 329.625 64.746094 C 329.625 61.886719 330.738281 59.203125 332.757812 57.183594 C 334.777344 55.164062 337.460938 54.050781 340.316406 54.050781 C 343.175781 54.050781 345.859375 55.164062 347.878906 57.183594 C 349.898438 59.203125 351.011719 61.886719 351.011719 64.746094 C 351.011719 67.601562 349.898438 70.285156 347.878906 72.304688 Z M 347.878906 72.304688 " fill-opacity="1" fill-rule="nonzero"/></g><path fill="#00bf63" d="M 358.75 56.039062 C 357.027344 56.039062 355.578125 57.238281 355.195312 58.847656 L 355.121094 60.117188 C 355.328125 61.933594 356.878906 63.347656 358.75 63.347656 C 360.691406 63.347656 362.285156 61.824219 362.398438 59.910156 L 362.34375 59.027344 C 362.03125 57.328125 360.539062 56.039062 358.75 56.039062 Z M 358.75 56.039062 " fill-opacity="1" fill-rule="nonzero"/><g clip-path="url(#0bf44db903)"><path fill="#00bf63" d="M 389.566406 59.851562 L 389.542969 59.792969 C 387.507812 54.710938 382.660156 51.429688 377.179688 51.429688 C 371.757812 51.429688 366.929688 54.664062 364.867188 59.671875 L 364.84375 59.730469 C 364.195312 61.320312 363.867188 63.007812 363.867188 64.746094 C 363.867188 72.085938 369.839844 78.058594 377.179688 78.058594 C 384.523438 78.058594 390.496094 72.085938 390.496094 64.746094 C 390.496094 63.054688 390.183594 61.410156 389.566406 59.851562 Z M 384.742188 72.304688 C 382.722656 74.328125 380.035156 75.4375 377.179688 75.4375 C 374.324219 75.4375 371.636719 74.328125 369.617188 72.304688 C 367.597656 70.285156 366.484375 67.601562 366.484375 64.746094 C 366.484375 61.886719 367.597656 59.203125 369.617188 57.183594 C 371.636719 55.164062 374.324219 54.050781 377.179688 54.050781 C 380.035156 54.050781 382.722656 55.164062 384.742188 57.183594 C 386.761719 59.203125 387.875 61.886719 387.875 64.746094 C 387.875 67.601562 386.761719 70.285156 384.742188 72.304688 Z M 384.742188 72.304688 " fill-opacity="1" fill-rule="nonzero"/></g><path fill="#ffffff" d="M 262.390625 232.167969 C 262.390625 232.566406 262.3125 232.949219 262.160156 233.316406 C 262.007812 233.683594 261.792969 234.007812 261.511719 234.289062 C 261.230469 234.570312 260.90625 234.785156 260.539062 234.9375 C 260.171875 235.089844 259.789062 235.164062 259.390625 235.164062 C 258.992188 235.164062 258.609375 235.089844 258.242188 234.9375 C 257.875 234.785156 257.550781 234.570312 257.269531 234.289062 C 256.988281 234.007812 256.773438 233.683594 256.621094 233.316406 C 256.46875 232.949219 256.394531 232.566406 256.394531 232.167969 C 256.394531 231.769531 256.46875 231.386719 256.621094 231.019531 C 256.773438 230.652344 256.988281 230.328125 257.269531 230.046875 C 257.550781 229.765625 257.875 229.550781 258.242188 229.398438 C 258.609375 229.246094 258.992188 229.167969 259.390625 229.167969 C 259.789062 229.167969 260.171875 229.246094 260.539062 229.398438 C 260.90625 229.550781 261.230469 229.765625 261.511719 230.046875 C 261.792969 230.328125 262.007812 230.652344 262.160156 231.019531 C 262.3125 231.386719 262.390625 231.769531 262.390625 232.167969 Z M 262.390625 232.167969 " fill-opacity="1" fill-rule="nonzero"/><g fill="#ffffff" fill-opacity="1"><g transform="translate(273.876885, 238.16368)"><g><path d="M 2.890625 -1.40625 L 7.75 -1.40625 L 7.75 0 L 1.5 0 L 1.5 -13.59375 L 2.890625 -13.59375 Z M 2.890625 -1.40625 "/></g></g></g><g fill="#ffffff" fill-opacity="1"><g transform="translate(282.02807, 238.16368)"><g><path d="M 8.5 -4.390625 C 8.5 -5.242188 8.203125 -5.992188 7.609375 -6.640625 C 7.015625 -7.273438 6.273438 -7.59375 5.390625 -7.59375 C 4.515625 -7.59375 3.785156 -7.273438 3.203125 -6.640625 C 2.597656 -5.992188 2.296875 -5.242188 2.296875 -4.390625 C 2.296875 -3.546875 2.597656 -2.800781 3.203125 -2.15625 C 3.785156 -1.519531 4.515625 -1.203125 5.390625 -1.203125 C 6.273438 -1.203125 7.015625 -1.519531 7.609375 -2.15625 C 8.203125 -2.800781 8.5 -3.546875 8.5 -4.390625 Z M 9.890625 0 L 8.5 0 L 8.5 -1.5 C 8.414062 -1.394531 8.332031 -1.296875 8.25 -1.203125 C 7.414062 -0.265625 6.390625 0.203125 5.171875 0.203125 C 3.960938 0.203125 2.945312 -0.265625 2.125 -1.203125 C 1.3125 -2.109375 0.90625 -3.171875 0.90625 -4.390625 C 0.90625 -5.617188 1.3125 -6.6875 2.125 -7.59375 C 2.945312 -8.53125 3.960938 -9 5.171875 -9 C 6.390625 -9 7.414062 -8.53125 8.25 -7.59375 C 8.332031 -7.5 8.414062 -7.398438 8.5 -7.296875 L 8.5 -8.796875 L 9.890625 -8.796875 Z M 9.890625 0 "/></g></g></g><g fill="#ffffff" fill-opacity="1"><g transform="translate(293.415743, 238.16368)"><g><path d="M 2.625 5 L 0.921875 5 L 3.875 -1.4375 L 0.203125 -8.796875 L 1.796875 -8.796875 L 4.609375 -2.890625 L 7.140625 -8.796875 L 8.6875 -8.796875 Z M 2.625 5 "/></g></g></g><g fill="#ffffff" fill-opacity="1"><g transform="translate(301.90655, 238.16368)"><g><path d="M 8.6875 -4.4375 C 8.6875 -5.3125 8.375 -6.0625 7.75 -6.6875 C 7.125 -7.320312 6.375 -7.640625 5.5 -7.640625 C 4.613281 -7.640625 3.859375 -7.320312 3.234375 -6.6875 C 2.609375 -6.0625 2.296875 -5.3125 2.296875 -4.4375 C 2.296875 -3.570312 2.609375 -2.828125 3.234375 -2.203125 C 3.859375 -1.578125 4.613281 -1.265625 5.5 -1.265625 C 6.375 -1.265625 7.125 -1.578125 7.75 -2.203125 C 8.375 -2.828125 8.6875 -3.570312 8.6875 -4.4375 Z M 10.09375 -4.4375 C 10.09375 -3.15625 9.644531 -2.078125 8.75 -1.203125 C 7.832031 -0.304688 6.75 0.140625 5.5 0.140625 C 4.25 0.140625 3.171875 -0.304688 2.265625 -1.203125 C 1.359375 -2.078125 0.90625 -3.15625 0.90625 -4.4375 C 0.90625 -5.695312 1.359375 -6.78125 2.265625 -7.6875 C 3.148438 -8.582031 4.226562 -9.03125 5.5 -9.03125 C 6.757812 -9.03125 7.84375 -8.582031 8.75 -7.6875 C 9.644531 -6.78125 10.09375 -5.695312 10.09375 -4.4375 Z M 10.09375 -4.4375 "/></g></g></g><g fill="#ffffff" fill-opacity="1"><g transform="translate(312.894663, 238.16368)"><g><path d="M 7.578125 -1.5 C 6.921875 -0.375 5.941406 0.1875 4.640625 0.1875 C 3.648438 0.1875 2.875 -0.140625 2.3125 -0.796875 C 1.769531 -1.453125 1.5 -2.285156 1.5 -3.296875 L 1.5 -8.796875 L 2.890625 -8.796875 L 2.890625 -3.296875 C 2.890625 -2.722656 3.023438 -2.238281 3.296875 -1.84375 C 3.546875 -1.425781 3.972656 -1.21875 4.578125 -1.21875 C 5.671875 -1.21875 6.441406 -1.566406 6.890625 -2.265625 C 7.347656 -2.941406 7.578125 -3.890625 7.578125 -5.109375 L 7.578125 -8.796875 L 8.96875 -8.796875 L 8.96875 0 L 7.578125 0 Z M 7.578125 -1.5 "/></g></g></g><g fill="#ffffff" fill-opacity="1"><g transform="translate(323.063657, 238.16368)"><g><path d="M 0.40625 -7.5 L 0.40625 -8.796875 L 2.59375 -8.796875 L 2.59375 -12.203125 L 4 -12.203125 L 4 -8.796875 L 6.171875 -8.796875 L 6.171875 -7.5 L 4 -7.5 L 4 0 L 2.59375 0 L 2.59375 -7.5 Z M 0.40625 -7.5 "/></g></g></g><g fill="#ffffff" fill-opacity="1"><g transform="translate(329.63654, 238.16368)"><g/></g></g><g fill="#ffffff" fill-opacity="1"><g transform="translate(335.030701, 238.16368)"><g><path d="M 12.046875 -6.796875 C 12.046875 -5.804688 11.867188 -4.898438 11.515625 -4.078125 C 11.140625 -3.234375 10.640625 -2.515625 10.015625 -1.921875 C 9.390625 -1.316406 8.648438 -0.847656 7.796875 -0.515625 C 6.941406 -0.171875 6.03125 0 5.0625 0 L 1.5 0 L 1.5 -13.59375 L 5.0625 -13.59375 C 6.03125 -13.59375 6.941406 -13.425781 7.796875 -13.09375 C 8.648438 -12.738281 9.390625 -12.265625 10.015625 -11.671875 C 10.640625 -11.066406 11.140625 -10.351562 11.515625 -9.53125 C 11.867188 -8.695312 12.046875 -7.785156 12.046875 -6.796875 Z M 10.6875 -6.796875 C 10.6875 -8.335938 10.140625 -9.628906 9.046875 -10.671875 C 7.984375 -11.679688 6.664062 -12.1875 5.09375 -12.1875 L 2.890625 -12.1875 L 2.890625 -1.40625 L 5.09375 -1.40625 C 6.664062 -1.40625 7.984375 -1.910156 9.046875 -2.921875 C 10.140625 -3.953125 10.6875 -5.242188 10.6875 -6.796875 Z M 10.6875 -6.796875 "/></g></g></g><g fill="#ffffff" fill-opacity="1"><g transform="translate(347.976697, 238.16368)"><g><path d="M 10.09375 -4.59375 L 10.09375 -3.859375 L 2.359375 -3.859375 C 2.492188 -3.097656 2.859375 -2.476562 3.453125 -2 C 4.066406 -1.507812 4.75 -1.265625 5.5 -1.265625 C 6 -1.265625 6.484375 -1.382812 6.953125 -1.625 C 7.410156 -1.84375 7.789062 -2.160156 8.09375 -2.578125 L 9.6875 -2.578125 C 9.320312 -1.734375 8.765625 -1.070312 8.015625 -0.59375 C 7.253906 -0.101562 6.488281 0.140625 5.71875 0.140625 C 4.925781 0.140625 4.257812 0.0195312 3.71875 -0.21875 C 3.15625 -0.457031 2.671875 -0.785156 2.265625 -1.203125 C 1.359375 -2.078125 0.90625 -3.15625 0.90625 -4.4375 C 0.90625 -5.695312 1.359375 -6.78125 2.265625 -7.6875 C 3.148438 -8.582031 4.226562 -9.03125 5.5 -9.03125 C 6.71875 -9.03125 7.789062 -8.597656 8.71875 -7.734375 C 9.632812 -6.859375 10.09375 -5.8125 10.09375 -4.59375 Z M 8.609375 -5.0625 C 8.453125 -5.800781 8.082031 -6.421875 7.5 -6.921875 C 6.90625 -7.398438 6.238281 -7.640625 5.5 -7.640625 C 4.351562 -7.640625 3.453125 -7.125 2.796875 -6.09375 C 2.597656 -5.769531 2.457031 -5.425781 2.375 -5.0625 Z M 8.609375 -5.0625 "/></g></g></g><g fill="#ffffff" fill-opacity="1"><g transform="translate(358.864916, 238.16368)"><g><path d="M 2.78125 -1.265625 C 3.125 -1.023438 3.578125 -0.90625 4.140625 -0.90625 C 5.421875 -0.90625 6.0625 -1.382812 6.0625 -2.34375 C 6.0625 -2.894531 5.597656 -3.320312 4.671875 -3.625 C 4.285156 -3.75 3.875 -3.867188 3.4375 -3.984375 C 2.988281 -4.085938 2.566406 -4.222656 2.171875 -4.390625 C 1.722656 -4.609375 1.382812 -4.878906 1.15625 -5.203125 C 0.925781 -5.515625 0.8125 -5.890625 0.8125 -6.328125 C 0.8125 -7.210938 1.117188 -7.875 1.734375 -8.3125 C 2.347656 -8.769531 3.082031 -9 3.9375 -9 C 4.789062 -9 5.5 -8.820312 6.0625 -8.46875 C 6.613281 -8.125 6.988281 -7.503906 7.1875 -6.609375 L 5.703125 -6.609375 C 5.535156 -7.109375 5.300781 -7.4375 5 -7.59375 C 4.707031 -7.75 4.335938 -7.828125 3.890625 -7.828125 C 3.453125 -7.828125 3.082031 -7.734375 2.78125 -7.546875 C 2.457031 -7.347656 2.296875 -7.054688 2.296875 -6.671875 C 2.296875 -6.273438 2.429688 -5.984375 2.703125 -5.796875 C 2.953125 -5.617188 3.269531 -5.460938 3.65625 -5.328125 C 4.039062 -5.210938 4.460938 -5.109375 4.921875 -5.015625 C 5.359375 -4.910156 5.773438 -4.765625 6.171875 -4.578125 C 7.078125 -4.148438 7.53125 -3.460938 7.53125 -2.515625 C 7.53125 -1.566406 7.191406 -0.867188 6.515625 -0.421875 C 6.171875 -0.191406 5.789062 -0.0195312 5.375 0.09375 C 4.976562 0.207031 4.539062 0.265625 4.0625 0.265625 C 2.019531 0.265625 0.847656 -0.640625 0.546875 -2.453125 L 2.015625 -2.453125 C 2.160156 -1.878906 2.414062 -1.484375 2.78125 -1.265625 Z M 2.78125 -1.265625 "/></g></g></g><g fill="#ffffff" fill-opacity="1"><g transform="translate(366.896226, 238.16368)"><g><path d="M 2.921875 -11.828125 C 3.085938 -11.660156 3.171875 -11.457031 3.171875 -11.21875 C 3.171875 -10.957031 3.085938 -10.742188 2.921875 -10.578125 C 2.742188 -10.398438 2.535156 -10.3125 2.296875 -10.3125 C 2.046875 -10.3125 1.832031 -10.398438 1.65625 -10.578125 C 1.488281 -10.742188 1.40625 -10.957031 1.40625 -11.21875 C 1.40625 -11.457031 1.488281 -11.660156 1.65625 -11.828125 C 1.832031 -12.003906 2.046875 -12.09375 2.296875 -12.09375 C 2.535156 -12.09375 2.742188 -12.003906 2.921875 -11.828125 Z M 3 0 L 1.59375 0 L 1.59375 -8.796875 L 3 -8.796875 Z M 3 0 "/></g></g></g><g fill="#ffffff" fill-opacity="1"><g transform="translate(371.471279, 238.16368)"><g><path d="M 8.609375 -4.390625 C 8.609375 -5.242188 8.316406 -5.992188 7.734375 -6.640625 C 7.128906 -7.273438 6.390625 -7.59375 5.515625 -7.59375 C 4.660156 -7.59375 3.925781 -7.273438 3.3125 -6.640625 C 2.71875 -6.015625 2.421875 -5.265625 2.421875 -4.390625 C 2.421875 -3.523438 2.71875 -2.78125 3.3125 -2.15625 C 3.925781 -1.519531 4.660156 -1.203125 5.515625 -1.203125 C 6.390625 -1.203125 7.128906 -1.519531 7.734375 -2.15625 C 8.316406 -2.800781 8.609375 -3.546875 8.609375 -4.390625 Z M 2.375 1.203125 C 2.507812 1.742188 2.796875 2.226562 3.234375 2.65625 C 3.847656 3.28125 4.585938 3.59375 5.453125 3.59375 C 6.316406 3.59375 7.0625 3.28125 7.6875 2.65625 C 8.300781 2.039062 8.609375 1.300781 8.609375 0.4375 L 8.609375 -1.484375 C 8.546875 -1.390625 8.472656 -1.296875 8.390625 -1.203125 C 7.554688 -0.265625 6.53125 0.203125 5.3125 0.203125 C 4.09375 0.203125 3.066406 -0.265625 2.234375 -1.203125 C 1.421875 -2.109375 1.015625 -3.171875 1.015625 -4.390625 C 1.015625 -5.617188 1.421875 -6.6875 2.234375 -7.59375 C 3.066406 -8.53125 4.09375 -9 5.3125 -9 C 6.488281 -9 7.515625 -8.53125 8.390625 -7.59375 C 8.472656 -7.5 8.546875 -7.40625 8.609375 -7.3125 L 8.609375 -8.796875 L 10.015625 -8.796875 L 10.015625 0.4375 C 10.015625 1.6875 9.566406 2.757812 8.671875 3.65625 C 7.773438 4.550781 6.703125 5 5.453125 5 C 4.203125 5 3.128906 4.550781 2.234375 3.65625 C 1.523438 2.945312 1.097656 2.128906 0.953125 1.203125 Z M 2.375 1.203125 "/></g></g></g><g fill="#ffffff" fill-opacity="1"><g transform="translate(382.978826, 238.16368)"><g><path d="M 7.578125 0 L 7.578125 -5.5 C 7.578125 -6.070312 7.445312 -6.5625 7.1875 -6.96875 C 6.925781 -7.375 6.492188 -7.578125 5.890625 -7.578125 C 5.296875 -7.578125 4.8125 -7.460938 4.4375 -7.234375 C 4.0625 -7.003906 3.757812 -6.710938 3.53125 -6.359375 C 3.101562 -5.691406 2.890625 -4.796875 2.890625 -3.671875 L 2.890625 0 L 1.5 0 L 1.5 -8.796875 L 2.890625 -8.796875 L 2.890625 -7.28125 C 3.191406 -7.769531 3.566406 -8.175781 4.015625 -8.5 C 4.492188 -8.8125 5.046875 -8.96875 5.671875 -8.96875 C 6.296875 -8.96875 6.800781 -8.882812 7.1875 -8.71875 C 7.582031 -8.53125 7.910156 -8.28125 8.171875 -7.96875 C 8.703125 -7.34375 8.96875 -6.519531 8.96875 -5.5 L 8.96875 0 Z M 7.578125 0 "/></g></g></g><g fill="#ffffff" fill-opacity="1"><g transform="translate(393.150371, 238.16368)"><g/></g></g><g fill="#ffffff" fill-opacity="1"><g transform="translate(398.544532, 238.16368)"><g/></g></g><path fill="#ffffff" d="M 262.390625 259.898438 C 262.390625 260.296875 262.3125 260.679688 262.160156 261.046875 C 262.007812 261.414062 261.792969 261.738281 261.511719 262.019531 C 261.230469 262.300781 260.90625 262.515625 260.539062 262.667969 C 260.171875 262.820312 259.789062 262.898438 259.390625 262.898438 C 258.992188 262.898438 258.609375 262.820312 258.242188 262.667969 C 257.875 262.515625 257.550781 262.300781 257.269531 262.019531 C 256.988281 261.738281 256.773438 261.414062 256.621094 261.046875 C 256.46875 260.679688 256.394531 260.296875 256.394531 259.898438 C 256.394531 259.5 256.46875 259.117188 256.621094 258.75 C 256.773438 258.382812 256.988281 258.058594 257.269531 257.777344 C 257.550781 257.496094 257.875 257.28125 258.242188 257.128906 C 258.609375 256.976562 258.992188 256.902344 259.390625 256.902344 C 259.789062 256.902344 260.171875 256.976562 260.539062 257.128906 C 260.90625 257.28125 261.230469 257.496094 261.511719 257.777344 C 261.792969 258.058594 262.007812 258.382812 262.160156 258.75 C 262.3125 259.117188 262.390625 259.5 262.390625 259.898438 Z M 262.390625 259.898438 " fill-opacity="1" fill-rule="nonzero"/><g fill="#ffffff" fill-opacity="1"><g transform="translate(273.876885, 265.894619)"><g><path d="M 9.578125 0 L 1.5 0 L 1.5 -13.59375 L 9.578125 -13.59375 L 9.578125 -12.296875 L 2.890625 -12.296875 L 2.890625 -7.453125 L 9.375 -7.453125 L 9.375 -6.140625 L 2.890625 -6.140625 L 2.890625 -1.296875 L 9.578125 -1.296875 Z M 9.578125 0 "/></g></g></g><g fill="#ffffff" fill-opacity="1"><g transform="translate(284.944904, 265.894619)"><g><path d="M 2.890625 0 L 1.5 0 L 1.5 -14.984375 L 2.890625 -14.984375 Z M 2.890625 0 "/></g></g></g><g fill="#ffffff" fill-opacity="1"><g transform="translate(289.340144, 265.894619)"><g><path d="M 10.09375 -4.59375 L 10.09375 -3.859375 L 2.359375 -3.859375 C 2.492188 -3.097656 2.859375 -2.476562 3.453125 -2 C 4.066406 -1.507812 4.75 -1.265625 5.5 -1.265625 C 6 -1.265625 6.484375 -1.382812 6.953125 -1.625 C 7.410156 -1.84375 7.789062 -2.160156 8.09375 -2.578125 L 9.6875 -2.578125 C 9.320312 -1.734375 8.765625 -1.070312 8.015625 -0.59375 C 7.253906 -0.101562 6.488281 0.140625 5.71875 0.140625 C 4.925781 0.140625 4.257812 0.0195312 3.71875 -0.21875 C 3.15625 -0.457031 2.671875 -0.785156 2.265625 -1.203125 C 1.359375 -2.078125 0.90625 -3.15625 0.90625 -4.4375 C 0.90625 -5.695312 1.359375 -6.78125 2.265625 -7.6875 C 3.148438 -8.582031 4.226562 -9.03125 5.5 -9.03125 C 6.71875 -9.03125 7.789062 -8.597656 8.71875 -7.734375 C 9.632812 -6.859375 10.09375 -5.8125 10.09375 -4.59375 Z M 8.609375 -5.0625 C 8.453125 -5.800781 8.082031 -6.421875 7.5 -6.921875 C 6.90625 -7.398438 6.238281 -7.640625 5.5 -7.640625 C 4.351562 -7.640625 3.453125 -7.125 2.796875 -6.09375 C 2.597656 -5.769531 2.457031 -5.425781 2.375 -5.0625 Z M 8.609375 -5.0625 "/></g></g></g><g fill="#ffffff" fill-opacity="1"><g transform="translate(300.228363, 265.894619)"><g><path d="M 9.71875 -5.640625 L 8.1875 -5.640625 C 7.945312 -6.191406 7.578125 -6.644531 7.078125 -7 C 6.566406 -7.34375 6.050781 -7.515625 5.53125 -7.515625 C 5.007812 -7.515625 4.566406 -7.4375 4.203125 -7.28125 C 3.828125 -7.101562 3.503906 -6.875 3.234375 -6.59375 C 2.640625 -5.96875 2.34375 -5.234375 2.34375 -4.390625 C 2.34375 -3.546875 2.640625 -2.816406 3.234375 -2.203125 C 3.816406 -1.578125 4.535156 -1.265625 5.390625 -1.265625 C 5.953125 -1.265625 6.472656 -1.410156 6.953125 -1.703125 C 7.421875 -1.992188 7.785156 -2.382812 8.046875 -2.875 L 9.625 -2.875 C 9.132812 -1.46875 8.1875 -0.523438 6.78125 -0.046875 C 6.332031 0.117188 5.832031 0.203125 5.28125 0.203125 C 4.71875 0.203125 4.164062 0.0703125 3.625 -0.1875 C 3.070312 -0.425781 2.597656 -0.753906 2.203125 -1.171875 C 1.335938 -2.078125 0.90625 -3.148438 0.90625 -4.390625 C 0.90625 -5.648438 1.335938 -6.722656 2.203125 -7.609375 C 3.078125 -8.515625 4.140625 -8.96875 5.390625 -8.96875 C 6.410156 -8.96875 7.328125 -8.65625 8.140625 -8.03125 C 8.910156 -7.4375 9.4375 -6.640625 9.71875 -5.640625 Z M 9.71875 -5.640625 "/></g></g></g><g fill="#ffffff" fill-opacity="1"><g transform="translate(310.637094, 265.894619)"><g><path d="M 0.40625 -7.5 L 0.40625 -8.796875 L 2.59375 -8.796875 L 2.59375 -12.203125 L 4 -12.203125 L 4 -8.796875 L 6.171875 -8.796875 L 6.171875 -7.5 L 4 -7.5 L 4 0 L 2.59375 0 L 2.59375 -7.5 Z M 0.40625 -7.5 "/></g></g></g><g fill="#ffffff" fill-opacity="1"><g transform="translate(317.209977, 265.894619)"><g><path d="M 6.015625 -6.96875 C 5.691406 -7.269531 5.34375 -7.421875 4.96875 -7.421875 C 4.613281 -7.421875 4.3125 -7.316406 4.0625 -7.109375 C 3.789062 -6.898438 3.566406 -6.648438 3.390625 -6.359375 C 3.054688 -5.765625 2.890625 -5.109375 2.890625 -4.390625 L 2.890625 0 L 1.5 0 L 1.5 -8.796875 L 2.890625 -8.796875 L 2.890625 -6.96875 L 2.953125 -7.328125 C 3.421875 -8.421875 4.148438 -8.96875 5.140625 -8.96875 C 5.441406 -8.96875 5.734375 -8.910156 6.015625 -8.796875 Z M 6.015625 -6.96875 "/></g></g></g><g fill="#ffffff" fill-opacity="1"><g transform="translate(323.423258, 265.894619)"><g><path d="M 2.921875 -11.828125 C 3.085938 -11.660156 3.171875 -11.457031 3.171875 -11.21875 C 3.171875 -10.957031 3.085938 -10.742188 2.921875 -10.578125 C 2.742188 -10.398438 2.535156 -10.3125 2.296875 -10.3125 C 2.046875 -10.3125 1.832031 -10.398438 1.65625 -10.578125 C 1.488281 -10.742188 1.40625 -10.957031 1.40625 -11.21875 C 1.40625 -11.457031 1.488281 -11.660156 1.65625 -11.828125 C 1.832031 -12.003906 2.046875 -12.09375 2.296875 -12.09375 C 2.535156 -12.09375 2.742188 -12.003906 2.921875 -11.828125 Z M 3 0 L 1.59375 0 L 1.59375 -8.796875 L 3 -8.796875 Z M 3 0 "/></g></g></g><g fill="#ffffff" fill-opacity="1"><g transform="translate(327.998311, 265.894619)"><g><path d="M 9.71875 -5.640625 L 8.1875 -5.640625 C 7.945312 -6.191406 7.578125 -6.644531 7.078125 -7 C 6.566406 -7.34375 6.050781 -7.515625 5.53125 -7.515625 C 5.007812 -7.515625 4.566406 -7.4375 4.203125 -7.28125 C 3.828125 -7.101562 3.503906 -6.875 3.234375 -6.59375 C 2.640625 -5.96875 2.34375 -5.234375 2.34375 -4.390625 C 2.34375 -3.546875 2.640625 -2.816406 3.234375 -2.203125 C 3.816406 -1.578125 4.535156 -1.265625 5.390625 -1.265625 C 5.953125 -1.265625 6.472656 -1.410156 6.953125 -1.703125 C 7.421875 -1.992188 7.785156 -2.382812 8.046875 -2.875 L 9.625 -2.875 C 9.132812 -1.46875 8.1875 -0.523438 6.78125 -0.046875 C 6.332031 0.117188 5.832031 0.203125 5.28125 0.203125 C 4.71875 0.203125 4.164062 0.0703125 3.625 -0.1875 C 3.070312 -0.425781 2.597656 -0.753906 2.203125 -1.171875 C 1.335938 -2.078125 0.90625 -3.148438 0.90625 -4.390625 C 0.90625 -5.648438 1.335938 -6.722656 2.203125 -7.609375 C 3.078125 -8.515625 4.140625 -8.96875 5.390625 -8.96875 C 6.410156 -8.96875 7.328125 -8.65625 8.140625 -8.03125 C 8.910156 -7.4375 9.4375 -6.640625 9.71875 -5.640625 Z M 9.71875 -5.640625 "/></g></g></g><g fill="#ffffff" fill-opacity="1"><g transform="translate(338.407042, 265.894619)"><g><path d="M 8.5 -4.390625 C 8.5 -5.242188 8.203125 -5.992188 7.609375 -6.640625 C 7.015625 -7.273438 6.273438 -7.59375 5.390625 -7.59375 C 4.515625 -7.59375 3.785156 -7.273438 3.203125 -6.640625 C 2.597656 -5.992188 2.296875 -5.242188 2.296875 -4.390625 C 2.296875 -3.546875 2.597656 -2.800781 3.203125 -2.15625 C 3.785156 -1.519531 4.515625 -1.203125 5.390625 -1.203125 C 6.273438 -1.203125 7.015625 -1.519531 7.609375 -2.15625 C 8.203125 -2.800781 8.5 -3.546875 8.5 -4.390625 Z M 9.890625 0 L 8.5 0 L 8.5 -1.5 C 8.414062 -1.394531 8.332031 -1.296875 8.25 -1.203125 C 7.414062 -0.265625 6.390625 0.203125 5.171875 0.203125 C 3.960938 0.203125 2.945312 -0.265625 2.125 -1.203125 C 1.3125 -2.109375 0.90625 -3.171875 0.90625 -4.390625 C 0.90625 -5.617188 1.3125 -6.6875 2.125 -7.59375 C 2.945312 -8.53125 3.960938 -9 5.171875 -9 C 6.390625 -9 7.414062 -8.53125 8.25 -7.59375 C 8.332031 -7.5 8.414062 -7.398438 8.5 -7.296875 L 8.5 -8.796875 L 9.890625 -8.796875 Z M 9.890625 0 "/></g></g></g><g fill="#ffffff" fill-opacity="1"><g transform="translate(349.794715, 265.894619)"><g><path d="M 2.890625 0 L 1.5 0 L 1.5 -14.984375 L 2.890625 -14.984375 Z M 2.890625 0 "/></g></g></g><g fill="#ffffff" fill-opacity="1"><g transform="translate(354.189956, 265.894619)"><g/></g></g><g fill="#ffffff" fill-opacity="1"><g transform="translate(359.584118, 265.894619)"><g><path d="M 10.375 -3.796875 C 10.375 -3.234375 10.25 -2.703125 10 -2.203125 C 9.738281 -1.691406 9.394531 -1.273438 8.96875 -0.953125 C 8.144531 -0.316406 7.039062 0 5.65625 0 L 1.5 0 L 1.5 -13.59375 L 5.171875 -13.59375 C 7.160156 -13.59375 8.453125 -12.976562 9.046875 -11.75 C 9.265625 -11.3125 9.375 -10.863281 9.375 -10.40625 C 9.375 -9.957031 9.335938 -9.609375 9.265625 -9.359375 C 9.191406 -9.085938 9.085938 -8.832031 8.953125 -8.59375 C 8.648438 -8.070312 8.257812 -7.707031 7.78125 -7.5 C 8.570312 -7.28125 9.203125 -6.851562 9.671875 -6.21875 C 10.140625 -5.5625 10.375 -4.753906 10.375 -3.796875 Z M 7.96875 -10.1875 C 7.96875 -11.5625 7.035156 -12.25 5.171875 -12.25 L 2.890625 -12.25 L 2.890625 -8.015625 L 5.578125 -8.015625 C 6.296875 -8.015625 6.875 -8.191406 7.3125 -8.546875 C 7.75 -8.910156 7.96875 -9.457031 7.96875 -10.1875 Z M 8.96875 -4.0625 C 8.96875 -4.457031 8.894531 -4.804688 8.75 -5.109375 C 8.59375 -5.421875 8.394531 -5.691406 8.15625 -5.921875 C 7.625 -6.378906 7 -6.609375 6.28125 -6.609375 L 2.890625 -6.609375 L 2.890625 -1.34375 L 6.0625 -1.34375 C 6.90625 -1.34375 7.601562 -1.585938 8.15625 -2.078125 C 8.695312 -2.585938 8.96875 -3.25 8.96875 -4.0625 Z M 8.96875 -4.0625 "/></g></g></g><g fill="#ffffff" fill-opacity="1"><g transform="translate(370.352461, 265.894619)"><g><path d="M 2.890625 0 L 1.5 0 L 1.5 -14.984375 L 2.890625 -14.984375 Z M 2.890625 0 "/></g></g></g><g fill="#ffffff" fill-opacity="1"><g transform="translate(374.747702, 265.894619)"><g><path d="M 7.578125 -1.5 C 6.921875 -0.375 5.941406 0.1875 4.640625 0.1875 C 3.648438 0.1875 2.875 -0.140625 2.3125 -0.796875 C 1.769531 -1.453125 1.5 -2.285156 1.5 -3.296875 L 1.5 -8.796875 L 2.890625 -8.796875 L 2.890625 -3.296875 C 2.890625 -2.722656 3.023438 -2.238281 3.296875 -1.84375 C 3.546875 -1.425781 3.972656 -1.21875 4.578125 -1.21875 C 5.671875 -1.21875 6.441406 -1.566406 6.890625 -2.265625 C 7.347656 -2.941406 7.578125 -3.890625 7.578125 -5.109375 L 7.578125 -8.796875 L 8.96875 -8.796875 L 8.96875 0 L 7.578125 0 Z M 7.578125 -1.5 "/></g></g></g><g fill="#ffffff" fill-opacity="1"><g transform="translate(384.916696, 265.894619)"><g><path d="M 10.09375 -4.59375 L 10.09375 -3.859375 L 2.359375 -3.859375 C 2.492188 -3.097656 2.859375 -2.476562 3.453125 -2 C 4.066406 -1.507812 4.75 -1.265625 5.5 -1.265625 C 6 -1.265625 6.484375 -1.382812 6.953125 -1.625 C 7.410156 -1.84375 7.789062 -2.160156 8.09375 -2.578125 L 9.6875 -2.578125 C 9.320312 -1.734375 8.765625 -1.070312 8.015625 -0.59375 C 7.253906 -0.101562 6.488281 0.140625 5.71875 0.140625 C 4.925781 0.140625 4.257812 0.0195312 3.71875 -0.21875 C 3.15625 -0.457031 2.671875 -0.785156 2.265625 -1.203125 C 1.359375 -2.078125 0.90625 -3.15625 0.90625 -4.4375 C 0.90625 -5.695312 1.359375 -6.78125 2.265625 -7.6875 C 3.148438 -8.582031 4.226562 -9.03125 5.5 -9.03125 C 6.71875 -9.03125 7.789062 -8.597656 8.71875 -7.734375 C 9.632812 -6.859375 10.09375 -5.8125 10.09375 -4.59375 Z M 8.609375 -5.0625 C 8.453125 -5.800781 8.082031 -6.421875 7.5 -6.921875 C 6.90625 -7.398438 6.238281 -7.640625 5.5 -7.640625 C 4.351562 -7.640625 3.453125 -7.125 2.796875 -6.09375 C 2.597656 -5.769531 2.457031 -5.425781 2.375 -5.0625 Z M 8.609375 -5.0625 "/></g></g></g><g fill="#ffffff" fill-opacity="1"><g transform="translate(395.804914, 265.894619)"><g><path d="M 2.890625 5 L 1.5 5 L 1.5 -8.796875 L 2.890625 -8.796875 L 2.890625 -7.296875 C 2.972656 -7.398438 3.0625 -7.5 3.15625 -7.59375 C 3.976562 -8.53125 5 -9 6.21875 -9 C 7.425781 -9 8.453125 -8.53125 9.296875 -7.59375 C 10.085938 -6.6875 10.484375 -5.617188 10.484375 -4.390625 C 10.484375 -3.171875 10.085938 -2.109375 9.296875 -1.203125 C 8.453125 -0.265625 7.425781 0.203125 6.21875 0.203125 C 5 0.203125 3.976562 -0.265625 3.15625 -1.203125 C 3.0625 -1.296875 2.972656 -1.394531 2.890625 -1.5 Z M 9.09375 -4.390625 C 9.09375 -5.242188 8.800781 -5.992188 8.21875 -6.640625 C 7.613281 -7.273438 6.875 -7.59375 6 -7.59375 C 5.113281 -7.59375 4.378906 -7.273438 3.796875 -6.640625 C 3.191406 -5.992188 2.890625 -5.242188 2.890625 -4.390625 C 2.890625 -3.546875 3.191406 -2.800781 3.796875 -2.15625 C 4.378906 -1.519531 5.113281 -1.203125 6 -1.203125 C 6.875 -1.203125 7.613281 -1.519531 8.21875 -2.15625 C 8.800781 -2.800781 9.09375 -3.546875 9.09375 -4.390625 Z M 9.09375 -4.390625 "/></g></g></g><g fill="#ffffff" fill-opacity="1"><g transform="translate(407.192587, 265.894619)"><g><path d="M 6.015625 -6.96875 C 5.691406 -7.269531 5.34375 -7.421875 4.96875 -7.421875 C 4.613281 -7.421875 4.3125 -7.316406 4.0625 -7.109375 C 3.789062 -6.898438 3.566406 -6.648438 3.390625 -6.359375 C 3.054688 -5.765625 2.890625 -5.109375 2.890625 -4.390625 L 2.890625 0 L 1.5 0 L 1.5 -8.796875 L 2.890625 -8.796875 L 2.890625 -6.96875 L 2.953125 -7.328125 C 3.421875 -8.421875 4.148438 -8.96875 5.140625 -8.96875 C 5.441406 -8.96875 5.734375 -8.910156 6.015625 -8.796875 Z M 6.015625 -6.96875 "/></g></g></g><g fill="#ffffff" fill-opacity="1"><g transform="translate(413.405869, 265.894619)"><g><path d="M 2.921875 -11.828125 C 3.085938 -11.660156 3.171875 -11.457031 3.171875 -11.21875 C 3.171875 -10.957031 3.085938 -10.742188 2.921875 -10.578125 C 2.742188 -10.398438 2.535156 -10.3125 2.296875 -10.3125 C 2.046875 -10.3125 1.832031 -10.398438 1.65625 -10.578125 C 1.488281 -10.742188 1.40625 -10.957031 1.40625 -11.21875 C 1.40625 -11.457031 1.488281 -11.660156 1.65625 -11.828125 C 1.832031 -12.003906 2.046875 -12.09375 2.296875 -12.09375 C 2.535156 -12.09375 2.742188 -12.003906 2.921875 -11.828125 Z M 3 0 L 1.59375 0 L 1.59375 -8.796875 L 3 -8.796875 Z M 3 0 "/></g></g></g><g fill="#ffffff" fill-opacity="1"><g transform="translate(417.980921, 265.894619)"><g><path d="M 7.578125 0 L 7.578125 -5.5 C 7.578125 -6.070312 7.445312 -6.5625 7.1875 -6.96875 C 6.925781 -7.375 6.492188 -7.578125 5.890625 -7.578125 C 5.296875 -7.578125 4.8125 -7.460938 4.4375 -7.234375 C 4.0625 -7.003906 3.757812 -6.710938 3.53125 -6.359375 C 3.101562 -5.691406 2.890625 -4.796875 2.890625 -3.671875 L 2.890625 0 L 1.5 0 L 1.5 -8.796875 L 2.890625 -8.796875 L 2.890625 -7.28125 C 3.191406 -7.769531 3.566406 -8.175781 4.015625 -8.5 C 4.492188 -8.8125 5.046875 -8.96875 5.671875 -8.96875 C 6.296875 -8.96875 6.800781 -8.882812 7.1875 -8.71875 C 7.582031 -8.53125 7.910156 -8.28125 8.171875 -7.96875 C 8.703125 -7.34375 8.96875 -6.519531 8.96875 -5.5 L 8.96875 0 Z M 7.578125 0 "/></g></g></g><g fill="#ffffff" fill-opacity="1"><g transform="translate(428.149915, 265.894619)"><g><path d="M 0.40625 -7.5 L 0.40625 -8.796875 L 2.59375 -8.796875 L 2.59375 -12.203125 L 4 -12.203125 L 4 -8.796875 L 6.171875 -8.796875 L 6.171875 -7.5 L 4 -7.5 L 4 0 L 2.59375 0 L 2.59375 -7.5 Z M 0.40625 -7.5 "/></g></g></g><g fill="#ffffff" fill-opacity="1"><g transform="translate(434.723358, 265.894619)"><g/></g></g><g fill="#ffffff" fill-opacity="1"><g transform="translate(440.117519, 265.894619)"><g/></g></g><path fill="#ffffff" d="M 262.390625 287.628906 C 262.390625 288.027344 262.3125 288.410156 262.160156 288.777344 C 262.007812 289.144531 261.792969 289.46875 261.511719 289.75 C 261.230469 290.03125 260.90625 290.246094 260.539062 290.398438 C 260.171875 290.550781 259.789062 290.628906 259.390625 290.628906 C 258.992188 290.628906 258.609375 290.550781 258.242188 290.398438 C 257.875 290.246094 257.550781 290.03125 257.269531 289.75 C 256.988281 289.46875 256.773438 289.144531 256.621094 288.777344 C 256.46875 288.410156 256.394531 288.027344 256.394531 287.628906 C 256.394531 287.230469 256.46875 286.851562 256.621094 286.480469 C 256.773438 286.113281 256.988281 285.789062 257.269531 285.511719 C 257.550781 285.230469 257.875 285.011719 258.242188 284.859375 C 258.609375 284.707031 258.992188 284.632812 259.390625 284.632812 C 259.789062 284.632812 260.171875 284.707031 260.539062 284.859375 C 260.90625 285.011719 261.230469 285.230469 261.511719 285.511719 C 261.792969 285.789062 262.007812 286.113281 262.160156 286.480469 C 262.3125 286.851562 262.390625 287.230469 262.390625 287.628906 Z M 262.390625 287.628906 " fill-opacity="1" fill-rule="nonzero"/><g fill="#ffffff" fill-opacity="1"><g transform="translate(273.876885, 293.625558)"><g><path d="M 13.96875 -4.15625 C 13.457031 -2.851562 12.628906 -1.804688 11.484375 -1.015625 C 10.328125 -0.203125 9.054688 0.203125 7.671875 0.203125 C 5.796875 0.203125 4.191406 -0.488281 2.859375 -1.875 C 1.554688 -3.238281 0.90625 -4.875 0.90625 -6.78125 C 0.90625 -7.71875 1.078125 -8.613281 1.421875 -9.46875 C 1.765625 -10.3125 2.242188 -11.050781 2.859375 -11.6875 C 4.191406 -13.070312 5.796875 -13.765625 7.671875 -13.765625 C 9.054688 -13.765625 10.320312 -13.375 11.46875 -12.59375 C 12.613281 -11.789062 13.441406 -10.742188 13.953125 -9.453125 L 12.40625 -9.453125 C 11.675781 -10.796875 10.585938 -11.6875 9.140625 -12.125 C 8.648438 -12.257812 8.09375 -12.328125 7.46875 -12.328125 C 6.84375 -12.328125 6.207031 -12.179688 5.5625 -11.890625 C 4.90625 -11.585938 4.335938 -11.179688 3.859375 -10.671875 C 2.816406 -9.585938 2.296875 -8.289062 2.296875 -6.78125 C 2.296875 -5.269531 2.816406 -3.972656 3.859375 -2.890625 C 4.910156 -1.785156 6.179688 -1.234375 7.671875 -1.234375 C 8.679688 -1.234375 9.613281 -1.5 10.46875 -2.03125 C 11.3125 -2.570312 11.96875 -3.28125 12.4375 -4.15625 Z M 13.96875 -4.15625 "/></g></g></g><g fill="#ffffff" fill-opacity="1"><g transform="translate(288.441119, 293.625558)"><g><path d="M 8.6875 -4.4375 C 8.6875 -5.3125 8.375 -6.0625 7.75 -6.6875 C 7.125 -7.320312 6.375 -7.640625 5.5 -7.640625 C 4.613281 -7.640625 3.859375 -7.320312 3.234375 -6.6875 C 2.609375 -6.0625 2.296875 -5.3125 2.296875 -4.4375 C 2.296875 -3.570312 2.609375 -2.828125 3.234375 -2.203125 C 3.859375 -1.578125 4.613281 -1.265625 5.5 -1.265625 C 6.375 -1.265625 7.125 -1.578125 7.75 -2.203125 C 8.375 -2.828125 8.6875 -3.570312 8.6875 -4.4375 Z M 10.09375 -4.4375 C 10.09375 -3.15625 9.644531 -2.078125 8.75 -1.203125 C 7.832031 -0.304688 6.75 0.140625 5.5 0.140625 C 4.25 0.140625 3.171875 -0.304688 2.265625 -1.203125 C 1.359375 -2.078125 0.90625 -3.15625 0.90625 -4.4375 C 0.90625 -5.695312 1.359375 -6.78125 2.265625 -7.6875 C 3.148438 -8.582031 4.226562 -9.03125 5.5 -9.03125 C 6.757812 -9.03125 7.84375 -8.582031 8.75 -7.6875 C 9.644531 -6.78125 10.09375 -5.695312 10.09375 -4.4375 Z M 10.09375 -4.4375 "/></g></g></g><g fill="#ffffff" fill-opacity="1"><g transform="translate(299.429233, 293.625558)"><g><path d="M 12.65625 -0.046875 L 12.65625 -5.53125 C 12.65625 -6.4375 12.367188 -7.078125 11.796875 -7.453125 C 11.585938 -7.578125 11.28125 -7.640625 10.875 -7.640625 C 10.457031 -7.640625 10.070312 -7.519531 9.71875 -7.28125 C 9.351562 -7.039062 9.066406 -6.734375 8.859375 -6.359375 C 8.773438 -6.210938 8.703125 -6.050781 8.640625 -5.875 C 8.640625 -5.769531 8.640625 -5.65625 8.640625 -5.53125 L 8.640625 -0.046875 L 7.234375 -0.046875 L 7.234375 -5.53125 C 7.234375 -6.4375 6.945312 -7.078125 6.375 -7.453125 C 6.175781 -7.578125 5.867188 -7.640625 5.453125 -7.640625 C 5.046875 -7.640625 4.660156 -7.519531 4.296875 -7.28125 C 3.929688 -7.039062 3.644531 -6.734375 3.4375 -6.359375 C 3.15625 -5.859375 2.972656 -5.25 2.890625 -4.53125 L 2.890625 -0.046875 L 1.5 -0.046875 L 1.5 -8.828125 L 2.890625 -8.828125 L 2.890625 -7.4375 C 3.160156 -7.882812 3.492188 -8.25 3.890625 -8.53125 C 4.347656 -8.863281 4.882812 -9.03125 5.5 -9.03125 C 6.113281 -9.03125 6.601562 -8.9375 6.96875 -8.75 C 7.34375 -8.550781 7.65625 -8.289062 7.90625 -7.96875 C 8.039062 -7.78125 8.164062 -7.578125 8.28125 -7.359375 C 8.539062 -7.835938 8.882812 -8.226562 9.3125 -8.53125 C 9.769531 -8.863281 10.300781 -9.03125 10.90625 -9.03125 C 11.519531 -9.03125 12.015625 -8.9375 12.390625 -8.75 C 12.765625 -8.550781 13.078125 -8.289062 13.328125 -7.96875 C 13.804688 -7.34375 14.046875 -6.53125 14.046875 -5.53125 L 14.046875 -0.046875 Z M 12.65625 -0.046875 "/></g></g></g><g fill="#ffffff" fill-opacity="1"><g transform="translate(314.672734, 293.625558)"><g><path d="M 12.65625 -0.046875 L 12.65625 -5.53125 C 12.65625 -6.4375 12.367188 -7.078125 11.796875 -7.453125 C 11.585938 -7.578125 11.28125 -7.640625 10.875 -7.640625 C 10.457031 -7.640625 10.070312 -7.519531 9.71875 -7.28125 C 9.351562 -7.039062 9.066406 -6.734375 8.859375 -6.359375 C 8.773438 -6.210938 8.703125 -6.050781 8.640625 -5.875 C 8.640625 -5.769531 8.640625 -5.65625 8.640625 -5.53125 L 8.640625 -0.046875 L 7.234375 -0.046875 L 7.234375 -5.53125 C 7.234375 -6.4375 6.945312 -7.078125 6.375 -7.453125 C 6.175781 -7.578125 5.867188 -7.640625 5.453125 -7.640625 C 5.046875 -7.640625 4.660156 -7.519531 4.296875 -7.28125 C 3.929688 -7.039062 3.644531 -6.734375 3.4375 -6.359375 C 3.15625 -5.859375 2.972656 -5.25 2.890625 -4.53125 L 2.890625 -0.046875 L 1.5 -0.046875 L 1.5 -8.828125 L 2.890625 -8.828125 L 2.890625 -7.4375 C 3.160156 -7.882812 3.492188 -8.25 3.890625 -8.53125 C 4.347656 -8.863281 4.882812 -9.03125 5.5 -9.03125 C 6.113281 -9.03125 6.601562 -8.9375 6.96875 -8.75 C 7.34375 -8.550781 7.65625 -8.289062 7.90625 -7.96875 C 8.039062 -7.78125 8.164062 -7.578125 8.28125 -7.359375 C 8.539062 -7.835938 8.882812 -8.226562 9.3125 -8.53125 C 9.769531 -8.863281 10.300781 -9.03125 10.90625 -9.03125 C 11.519531 -9.03125 12.015625 -8.9375 12.390625 -8.75 C 12.765625 -8.550781 13.078125 -8.289062 13.328125 -7.96875 C 13.804688 -7.34375 14.046875 -6.53125 14.046875 -5.53125 L 14.046875 -0.046875 Z M 12.65625 -0.046875 "/></g></g></g><g fill="#ffffff" fill-opacity="1"><g transform="translate(329.916235, 293.625558)"><g><path d="M 10.09375 -4.59375 L 10.09375 -3.859375 L 2.359375 -3.859375 C 2.492188 -3.097656 2.859375 -2.476562 3.453125 -2 C 4.066406 -1.507812 4.75 -1.265625 5.5 -1.265625 C 6 -1.265625 6.484375 -1.382812 6.953125 -1.625 C 7.410156 -1.84375 7.789062 -2.160156 8.09375 -2.578125 L 9.6875 -2.578125 C 9.320312 -1.734375 8.765625 -1.070312 8.015625 -0.59375 C 7.253906 -0.101562 6.488281 0.140625 5.71875 0.140625 C 4.925781 0.140625 4.257812 0.0195312 3.71875 -0.21875 C 3.15625 -0.457031 2.671875 -0.785156 2.265625 -1.203125 C 1.359375 -2.078125 0.90625 -3.15625 0.90625 -4.4375 C 0.90625 -5.695312 1.359375 -6.78125 2.265625 -7.6875 C 3.148438 -8.582031 4.226562 -9.03125 5.5 -9.03125 C 6.71875 -9.03125 7.789062 -8.597656 8.71875 -7.734375 C 9.632812 -6.859375 10.09375 -5.8125 10.09375 -4.59375 Z M 8.609375 -5.0625 C 8.453125 -5.800781 8.082031 -6.421875 7.5 -6.921875 C 6.90625 -7.398438 6.238281 -7.640625 5.5 -7.640625 C 4.351562 -7.640625 3.453125 -7.125 2.796875 -6.09375 C 2.597656 -5.769531 2.457031 -5.425781 2.375 -5.0625 Z M 8.609375 -5.0625 "/></g></g></g><g fill="#ffffff" fill-opacity="1"><g transform="translate(340.804453, 293.625558)"><g><path d="M 6.015625 -6.96875 C 5.691406 -7.269531 5.34375 -7.421875 4.96875 -7.421875 C 4.613281 -7.421875 4.3125 -7.316406 4.0625 -7.109375 C 3.789062 -6.898438 3.566406 -6.648438 3.390625 -6.359375 C 3.054688 -5.765625 2.890625 -5.109375 2.890625 -4.390625 L 2.890625 0 L 1.5 0 L 1.5 -8.796875 L 2.890625 -8.796875 L 2.890625 -6.96875 L 2.953125 -7.328125 C 3.421875 -8.421875 4.148438 -8.96875 5.140625 -8.96875 C 5.441406 -8.96875 5.734375 -8.910156 6.015625 -8.796875 Z M 6.015625 -6.96875 "/></g></g></g><g fill="#ffffff" fill-opacity="1"><g transform="translate(347.017735, 293.625558)"><g><path d="M 9.71875 -5.640625 L 8.1875 -5.640625 C 7.945312 -6.191406 7.578125 -6.644531 7.078125 -7 C 6.566406 -7.34375 6.050781 -7.515625 5.53125 -7.515625 C 5.007812 -7.515625 4.566406 -7.4375 4.203125 -7.28125 C 3.828125 -7.101562 3.503906 -6.875 3.234375 -6.59375 C 2.640625 -5.96875 2.34375 -5.234375 2.34375 -4.390625 C 2.34375 -3.546875 2.640625 -2.816406 3.234375 -2.203125 C 3.816406 -1.578125 4.535156 -1.265625 5.390625 -1.265625 C 5.953125 -1.265625 6.472656 -1.410156 6.953125 -1.703125 C 7.421875 -1.992188 7.785156 -2.382812 8.046875 -2.875 L 9.625 -2.875 C 9.132812 -1.46875 8.1875 -0.523438 6.78125 -0.046875 C 6.332031 0.117188 5.832031 0.203125 5.28125 0.203125 C 4.71875 0.203125 4.164062 0.0703125 3.625 -0.1875 C 3.070312 -0.425781 2.597656 -0.753906 2.203125 -1.171875 C 1.335938 -2.078125 0.90625 -3.148438 0.90625 -4.390625 C 0.90625 -5.648438 1.335938 -6.722656 2.203125 -7.609375 C 3.078125 -8.515625 4.140625 -8.96875 5.390625 -8.96875 C 6.410156 -8.96875 7.328125 -8.65625 8.140625 -8.03125 C 8.910156 -7.4375 9.4375 -6.640625 9.71875 -5.640625 Z M 9.71875 -5.640625 "/></g></g></g><g fill="#ffffff" fill-opacity="1"><g transform="translate(357.426466, 293.625558)"><g><path d="M 2.921875 -11.828125 C 3.085938 -11.660156 3.171875 -11.457031 3.171875 -11.21875 C 3.171875 -10.957031 3.085938 -10.742188 2.921875 -10.578125 C 2.742188 -10.398438 2.535156 -10.3125 2.296875 -10.3125 C 2.046875 -10.3125 1.832031 -10.398438 1.65625 -10.578125 C 1.488281 -10.742188 1.40625 -10.957031 1.40625 -11.21875 C 1.40625 -11.457031 1.488281 -11.660156 1.65625 -11.828125 C 1.832031 -12.003906 2.046875 -12.09375 2.296875 -12.09375 C 2.535156 -12.09375 2.742188 -12.003906 2.921875 -11.828125 Z M 3 0 L 1.59375 0 L 1.59375 -8.796875 L 3 -8.796875 Z M 3 0 "/></g></g></g><g fill="#ffffff" fill-opacity="1"><g transform="translate(362.001519, 293.625558)"><g><path d="M 8.5 -4.390625 C 8.5 -5.242188 8.203125 -5.992188 7.609375 -6.640625 C 7.015625 -7.273438 6.273438 -7.59375 5.390625 -7.59375 C 4.515625 -7.59375 3.785156 -7.273438 3.203125 -6.640625 C 2.597656 -5.992188 2.296875 -5.242188 2.296875 -4.390625 C 2.296875 -3.546875 2.597656 -2.800781 3.203125 -2.15625 C 3.785156 -1.519531 4.515625 -1.203125 5.390625 -1.203125 C 6.273438 -1.203125 7.015625 -1.519531 7.609375 -2.15625 C 8.203125 -2.800781 8.5 -3.546875 8.5 -4.390625 Z M 9.890625 0 L 8.5 0 L 8.5 -1.5 C 8.414062 -1.394531 8.332031 -1.296875 8.25 -1.203125 C 7.414062 -0.265625 6.390625 0.203125 5.171875 0.203125 C 3.960938 0.203125 2.945312 -0.265625 2.125 -1.203125 C 1.3125 -2.109375 0.90625 -3.171875 0.90625 -4.390625 C 0.90625 -5.617188 1.3125 -6.6875 2.125 -7.59375 C 2.945312 -8.53125 3.960938 -9 5.171875 -9 C 6.390625 -9 7.414062 -8.53125 8.25 -7.59375 C 8.332031 -7.5 8.414062 -7.398438 8.5 -7.296875 L 8.5 -8.796875 L 9.890625 -8.796875 Z M 9.890625 0 "/></g></g></g><g fill="#ffffff" fill-opacity="1"><g transform="translate(373.389192, 293.625558)"><g><path d="M 2.890625 0 L 1.5 0 L 1.5 -14.984375 L 2.890625 -14.984375 Z M 2.890625 0 "/></g></g></g><g fill="#ffffff" fill-opacity="1"><g transform="translate(377.784433, 293.625558)"><g/></g></g><g fill="#ffffff" fill-opacity="1"><g transform="translate(383.178594, 293.625558)"><g><path d="M 3.703125 -5 L 8.640625 -5 L 6.171875 -11.25 Z M 12.125 0 L 10.609375 0 L 9.15625 -3.703125 L 3.171875 -3.703125 L 1.71875 0 L 0.203125 0 L 6.171875 -14.53125 Z M 12.125 0 "/></g></g></g><g fill="#ffffff" fill-opacity="1"><g transform="translate(395.50525, 293.625558)"><g><path d="M 2.78125 -1.265625 C 3.125 -1.023438 3.578125 -0.90625 4.140625 -0.90625 C 5.421875 -0.90625 6.0625 -1.382812 6.0625 -2.34375 C 6.0625 -2.894531 5.597656 -3.320312 4.671875 -3.625 C 4.285156 -3.75 3.875 -3.867188 3.4375 -3.984375 C 2.988281 -4.085938 2.566406 -4.222656 2.171875 -4.390625 C 1.722656 -4.609375 1.382812 -4.878906 1.15625 -5.203125 C 0.925781 -5.515625 0.8125 -5.890625 0.8125 -6.328125 C 0.8125 -7.210938 1.117188 -7.875 1.734375 -8.3125 C 2.347656 -8.769531 3.082031 -9 3.9375 -9 C 4.789062 -9 5.5 -8.820312 6.0625 -8.46875 C 6.613281 -8.125 6.988281 -7.503906 7.1875 -6.609375 L 5.703125 -6.609375 C 5.535156 -7.109375 5.300781 -7.4375 5 -7.59375 C 4.707031 -7.75 4.335938 -7.828125 3.890625 -7.828125 C 3.453125 -7.828125 3.082031 -7.734375 2.78125 -7.546875 C 2.457031 -7.347656 2.296875 -7.054688 2.296875 -6.671875 C 2.296875 -6.273438 2.429688 -5.984375 2.703125 -5.796875 C 2.953125 -5.617188 3.269531 -5.460938 3.65625 -5.328125 C 4.039062 -5.210938 4.460938 -5.109375 4.921875 -5.015625 C 5.359375 -4.910156 5.773438 -4.765625 6.171875 -4.578125 C 7.078125 -4.148438 7.53125 -3.460938 7.53125 -2.515625 C 7.53125 -1.566406 7.191406 -0.867188 6.515625 -0.421875 C 6.171875 -0.191406 5.789062 -0.0195312 5.375 0.09375 C 4.976562 0.207031 4.539062 0.265625 4.0625 0.265625 C 2.019531 0.265625 0.847656 -0.640625 0.546875 -2.453125 L 2.015625 -2.453125 C 2.160156 -1.878906 2.414062 -1.484375 2.78125 -1.265625 Z M 2.78125 -1.265625 "/></g></g></g><g fill="#ffffff" fill-opacity="1"><g transform="translate(403.536561, 293.625558)"><g><path d="M 2.78125 -1.265625 C 3.125 -1.023438 3.578125 -0.90625 4.140625 -0.90625 C 5.421875 -0.90625 6.0625 -1.382812 6.0625 -2.34375 C 6.0625 -2.894531 5.597656 -3.320312 4.671875 -3.625 C 4.285156 -3.75 3.875 -3.867188 3.4375 -3.984375 C 2.988281 -4.085938 2.566406 -4.222656 2.171875 -4.390625 C 1.722656 -4.609375 1.382812 -4.878906 1.15625 -5.203125 C 0.925781 -5.515625 0.8125 -5.890625 0.8125 -6.328125 C 0.8125 -7.210938 1.117188 -7.875 1.734375 -8.3125 C 2.347656 -8.769531 3.082031 -9 3.9375 -9 C 4.789062 -9 5.5 -8.820312 6.0625 -8.46875 C 6.613281 -8.125 6.988281 -7.503906 7.1875 -6.609375 L 5.703125 -6.609375 C 5.535156 -7.109375 5.300781 -7.4375 5 -7.59375 C 4.707031 -7.75 4.335938 -7.828125 3.890625 -7.828125 C 3.453125 -7.828125 3.082031 -7.734375 2.78125 -7.546875 C 2.457031 -7.347656 2.296875 -7.054688 2.296875 -6.671875 C 2.296875 -6.273438 2.429688 -5.984375 2.703125 -5.796875 C 2.953125 -5.617188 3.269531 -5.460938 3.65625 -5.328125 C 4.039062 -5.210938 4.460938 -5.109375 4.921875 -5.015625 C 5.359375 -4.910156 5.773438 -4.765625 6.171875 -4.578125 C 7.078125 -4.148438 7.53125 -3.460938 7.53125 -2.515625 C 7.53125 -1.566406 7.191406 -0.867188 6.515625 -0.421875 C 6.171875 -0.191406 5.789062 -0.0195312 5.375 0.09375 C 4.976562 0.207031 4.539062 0.265625 4.0625 0.265625 C 2.019531 0.265625 0.847656 -0.640625 0.546875 -2.453125 L 2.015625 -2.453125 C 2.160156 -1.878906 2.414062 -1.484375 2.78125 -1.265625 Z M 2.78125 -1.265625 "/></g></g></g><g fill="#ffffff" fill-opacity="1"><g transform="translate(411.567871, 293.625558)"><g><path d="M 10.09375 -4.59375 L 10.09375 -3.859375 L 2.359375 -3.859375 C 2.492188 -3.097656 2.859375 -2.476562 3.453125 -2 C 4.066406 -1.507812 4.75 -1.265625 5.5 -1.265625 C 6 -1.265625 6.484375 -1.382812 6.953125 -1.625 C 7.410156 -1.84375 7.789062 -2.160156 8.09375 -2.578125 L 9.6875 -2.578125 C 9.320312 -1.734375 8.765625 -1.070312 8.015625 -0.59375 C 7.253906 -0.101562 6.488281 0.140625 5.71875 0.140625 C 4.925781 0.140625 4.257812 0.0195312 3.71875 -0.21875 C 3.15625 -0.457031 2.671875 -0.785156 2.265625 -1.203125 C 1.359375 -2.078125 0.90625 -3.15625 0.90625 -4.4375 C 0.90625 -5.695312 1.359375 -6.78125 2.265625 -7.6875 C 3.148438 -8.582031 4.226562 -9.03125 5.5 -9.03125 C 6.71875 -9.03125 7.789062 -8.597656 8.71875 -7.734375 C 9.632812 -6.859375 10.09375 -5.8125 10.09375 -4.59375 Z M 8.609375 -5.0625 C 8.453125 -5.800781 8.082031 -6.421875 7.5 -6.921875 C 6.90625 -7.398438 6.238281 -7.640625 5.5 -7.640625 C 4.351562 -7.640625 3.453125 -7.125 2.796875 -6.09375 C 2.597656 -5.769531 2.457031 -5.425781 2.375 -5.0625 Z M 8.609375 -5.0625 "/></g></g></g><g fill="#ffffff" fill-opacity="1"><g transform="translate(422.456089, 293.625558)"><g><path d="M 2.78125 -1.265625 C 3.125 -1.023438 3.578125 -0.90625 4.140625 -0.90625 C 5.421875 -0.90625 6.0625 -1.382812 6.0625 -2.34375 C 6.0625 -2.894531 5.597656 -3.320312 4.671875 -3.625 C 4.285156 -3.75 3.875 -3.867188 3.4375 -3.984375 C 2.988281 -4.085938 2.566406 -4.222656 2.171875 -4.390625 C 1.722656 -4.609375 1.382812 -4.878906 1.15625 -5.203125 C 0.925781 -5.515625 0.8125 -5.890625 0.8125 -6.328125 C 0.8125 -7.210938 1.117188 -7.875 1.734375 -8.3125 C 2.347656 -8.769531 3.082031 -9 3.9375 -9 C 4.789062 -9 5.5 -8.820312 6.0625 -8.46875 C 6.613281 -8.125 6.988281 -7.503906 7.1875 -6.609375 L 5.703125 -6.609375 C 5.535156 -7.109375 5.300781 -7.4375 5 -7.59375 C 4.707031 -7.75 4.335938 -7.828125 3.890625 -7.828125 C 3.453125 -7.828125 3.082031 -7.734375 2.78125 -7.546875 C 2.457031 -7.347656 2.296875 -7.054688 2.296875 -6.671875 C 2.296875 -6.273438 2.429688 -5.984375 2.703125 -5.796875 C 2.953125 -5.617188 3.269531 -5.460938 3.65625 -5.328125 C 4.039062 -5.210938 4.460938 -5.109375 4.921875 -5.015625 C 5.359375 -4.910156 5.773438 -4.765625 6.171875 -4.578125 C 7.078125 -4.148438 7.53125 -3.460938 7.53125 -2.515625 C 7.53125 -1.566406 7.191406 -0.867188 6.515625 -0.421875 C 6.171875 -0.191406 5.789062 -0.0195312 5.375 0.09375 C 4.976562 0.207031 4.539062 0.265625 4.0625 0.265625 C 2.019531 0.265625 0.847656 -0.640625 0.546875 -2.453125 L 2.015625 -2.453125 C 2.160156 -1.878906 2.414062 -1.484375 2.78125 -1.265625 Z M 2.78125 -1.265625 "/></g></g></g><g fill="#ffffff" fill-opacity="1"><g transform="translate(430.4874, 293.625558)"><g><path d="M 2.78125 -1.265625 C 3.125 -1.023438 3.578125 -0.90625 4.140625 -0.90625 C 5.421875 -0.90625 6.0625 -1.382812 6.0625 -2.34375 C 6.0625 -2.894531 5.597656 -3.320312 4.671875 -3.625 C 4.285156 -3.75 3.875 -3.867188 3.4375 -3.984375 C 2.988281 -4.085938 2.566406 -4.222656 2.171875 -4.390625 C 1.722656 -4.609375 1.382812 -4.878906 1.15625 -5.203125 C 0.925781 -5.515625 0.8125 -5.890625 0.8125 -6.328125 C 0.8125 -7.210938 1.117188 -7.875 1.734375 -8.3125 C 2.347656 -8.769531 3.082031 -9 3.9375 -9 C 4.789062 -9 5.5 -8.820312 6.0625 -8.46875 C 6.613281 -8.125 6.988281 -7.503906 7.1875 -6.609375 L 5.703125 -6.609375 C 5.535156 -7.109375 5.300781 -7.4375 5 -7.59375 C 4.707031 -7.75 4.335938 -7.828125 3.890625 -7.828125 C 3.453125 -7.828125 3.082031 -7.734375 2.78125 -7.546875 C 2.457031 -7.347656 2.296875 -7.054688 2.296875 -6.671875 C 2.296875 -6.273438 2.429688 -5.984375 2.703125 -5.796875 C 2.953125 -5.617188 3.269531 -5.460938 3.65625 -5.328125 C 4.039062 -5.210938 4.460938 -5.109375 4.921875 -5.015625 C 5.359375 -4.910156 5.773438 -4.765625 6.171875 -4.578125 C 7.078125 -4.148438 7.53125 -3.460938 7.53125 -2.515625 C 7.53125 -1.566406 7.191406 -0.867188 6.515625 -0.421875 C 6.171875 -0.191406 5.789062 -0.0195312 5.375 0.09375 C 4.976562 0.207031 4.539062 0.265625 4.0625 0.265625 C 2.019531 0.265625 0.847656 -0.640625 0.546875 -2.453125 L 2.015625 -2.453125 C 2.160156 -1.878906 2.414062 -1.484375 2.78125 -1.265625 Z M 2.78125 -1.265625 "/></g></g></g><g fill="#ffffff" fill-opacity="1"><g transform="translate(438.518711, 293.625558)"><g><path d="M 12.65625 -0.046875 L 12.65625 -5.53125 C 12.65625 -6.4375 12.367188 -7.078125 11.796875 -7.453125 C 11.585938 -7.578125 11.28125 -7.640625 10.875 -7.640625 C 10.457031 -7.640625 10.070312 -7.519531 9.71875 -7.28125 C 9.351562 -7.039062 9.066406 -6.734375 8.859375 -6.359375 C 8.773438 -6.210938 8.703125 -6.050781 8.640625 -5.875 C 8.640625 -5.769531 8.640625 -5.65625 8.640625 -5.53125 L 8.640625 -0.046875 L 7.234375 -0.046875 L 7.234375 -5.53125 C 7.234375 -6.4375 6.945312 -7.078125 6.375 -7.453125 C 6.175781 -7.578125 5.867188 -7.640625 5.453125 -7.640625 C 5.046875 -7.640625 4.660156 -7.519531 4.296875 -7.28125 C 3.929688 -7.039062 3.644531 -6.734375 3.4375 -6.359375 C 3.15625 -5.859375 2.972656 -5.25 2.890625 -4.53125 L 2.890625 -0.046875 L 1.5 -0.046875 L 1.5 -8.828125 L 2.890625 -8.828125 L 2.890625 -7.4375 C 3.160156 -7.882812 3.492188 -8.25 3.890625 -8.53125 C 4.347656 -8.863281 4.882812 -9.03125 5.5 -9.03125 C 6.113281 -9.03125 6.601562 -8.9375 6.96875 -8.75 C 7.34375 -8.550781 7.65625 -8.289062 7.90625 -7.96875 C 8.039062 -7.78125 8.164062 -7.578125 8.28125 -7.359375 C 8.539062 -7.835938 8.882812 -8.226562 9.3125 -8.53125 C 9.769531 -8.863281 10.300781 -9.03125 10.90625 -9.03125 C 11.519531 -9.03125 12.015625 -8.9375 12.390625 -8.75 C 12.765625 -8.550781 13.078125 -8.289062 13.328125 -7.96875 C 13.804688 -7.34375 14.046875 -6.53125 14.046875 -5.53125 L 14.046875 -0.046875 Z M 12.65625 -0.046875 "/></g></g></g><g fill="#ffffff" fill-opacity="1"><g transform="translate(453.762211, 293.625558)"><g><path d="M 10.09375 -4.59375 L 10.09375 -3.859375 L 2.359375 -3.859375 C 2.492188 -3.097656 2.859375 -2.476562 3.453125 -2 C 4.066406 -1.507812 4.75 -1.265625 5.5 -1.265625 C 6 -1.265625 6.484375 -1.382812 6.953125 -1.625 C 7.410156 -1.84375 7.789062 -2.160156 8.09375 -2.578125 L 9.6875 -2.578125 C 9.320312 -1.734375 8.765625 -1.070312 8.015625 -0.59375 C 7.253906 -0.101562 6.488281 0.140625 5.71875 0.140625 C 4.925781 0.140625 4.257812 0.0195312 3.71875 -0.21875 C 3.15625 -0.457031 2.671875 -0.785156 2.265625 -1.203125 C 1.359375 -2.078125 0.90625 -3.15625 0.90625 -4.4375 C 0.90625 -5.695312 1.359375 -6.78125 2.265625 -7.6875 C 3.148438 -8.582031 4.226562 -9.03125 5.5 -9.03125 C 6.71875 -9.03125 7.789062 -8.597656 8.71875 -7.734375 C 9.632812 -6.859375 10.09375 -5.8125 10.09375 -4.59375 Z M 8.609375 -5.0625 C 8.453125 -5.800781 8.082031 -6.421875 7.5 -6.921875 C 6.90625 -7.398438 6.238281 -7.640625 5.5 -7.640625 C 4.351562 -7.640625 3.453125 -7.125 2.796875 -6.09375 C 2.597656 -5.769531 2.457031 -5.425781 2.375 -5.0625 Z M 8.609375 -5.0625 "/></g></g></g><g fill="#ffffff" fill-opacity="1"><g transform="translate(464.65043, 293.625558)"><g><path d="M 7.578125 0 L 7.578125 -5.5 C 7.578125 -6.070312 7.445312 -6.5625 7.1875 -6.96875 C 6.925781 -7.375 6.492188 -7.578125 5.890625 -7.578125 C 5.296875 -7.578125 4.8125 -7.460938 4.4375 -7.234375 C 4.0625 -7.003906 3.757812 -6.710938 3.53125 -6.359375 C 3.101562 -5.691406 2.890625 -4.796875 2.890625 -3.671875 L 2.890625 0 L 1.5 0 L 1.5 -8.796875 L 2.890625 -8.796875 L 2.890625 -7.28125 C 3.191406 -7.769531 3.566406 -8.175781 4.015625 -8.5 C 4.492188 -8.8125 5.046875 -8.96875 5.671875 -8.96875 C 6.296875 -8.96875 6.800781 -8.882812 7.1875 -8.71875 C 7.582031 -8.53125 7.910156 -8.28125 8.171875 -7.96875 C 8.703125 -7.34375 8.96875 -6.519531 8.96875 -5.5 L 8.96875 0 Z M 7.578125 0 "/></g></g></g><g fill="#ffffff" fill-opacity="1"><g transform="translate(474.819423, 293.625558)"><g><path d="M 0.40625 -7.5 L 0.40625 -8.796875 L 2.59375 -8.796875 L 2.59375 -12.203125 L 4 -12.203125 L 4 -8.796875 L 6.171875 -8.796875 L 6.171875 -7.5 L 4 -7.5 L 4 0 L 2.59375 0 L 2.59375 -7.5 Z M 0.40625 -7.5 "/></g></g></g><g fill="#ffffff" fill-opacity="1"><g transform="translate(481.402211, 293.625558)"><g/></g></g><g fill="#ffffff" fill-opacity="1"><g transform="translate(486.796372, 293.625558)"><g/></g></g></svg>