<svg xmlns="http://www.w3.org/2000/svg" xmlns:xlink="http://www.w3.org/1999/xlink" width="957" zoomAndPan="magnify" viewBox="0 0 717.75 363.749991" height="485" preserveAspectRatio="xMidYMid meet" version="1.0"><defs><g/><clipPath id="4f08778c6f"><path d="M 97.082031 175.21875 L 620.972656 175.21875 L 620.972656 347.164062 L 97.082031 347.164062 Z M 97.082031 175.21875 " clip-rule="nonzero"/></clipPath><clipPath id="bda7cb5f53"><path d="M 108.324219 175.21875 L 609.175781 175.21875 C 612.160156 175.21875 615.019531 176.402344 617.125 178.511719 C 619.234375 180.621094 620.417969 183.480469 620.417969 186.460938 L 620.417969 335.921875 C 620.417969 338.902344 619.234375 341.761719 617.125 343.871094 C 615.019531 345.980469 612.160156 347.164062 609.175781 347.164062 L 108.324219 347.164062 C 105.339844 347.164062 102.480469 345.980469 100.375 343.871094 C 98.265625 341.761719 97.082031 338.902344 97.082031 335.921875 L 97.082031 186.460938 C 97.082031 183.480469 98.265625 180.621094 100.375 178.511719 C 102.480469 176.402344 105.339844 175.21875 108.324219 175.21875 Z M 108.324219 175.21875 " clip-rule="nonzero"/></clipPath><clipPath id="754b281c9d"><path d="M 97.082031 111.054688 L 620.417969 111.054688 L 620.417969 175.21875 L 97.082031 175.21875 Z M 97.082031 111.054688 " clip-rule="nonzero"/></clipPath><clipPath id="67a3545b7a"><path d="M 312.410156 10.253906 L 405.089844 10.253906 L 405.089844 102.9375 L 312.410156 102.9375 Z M 312.410156 10.253906 " clip-rule="nonzero"/></clipPath><clipPath id="238adb3e90"><path d="M 358.75 10.253906 C 333.15625 10.253906 312.410156 31.003906 312.410156 56.597656 C 312.410156 82.191406 333.15625 102.9375 358.75 102.9375 C 384.34375 102.9375 405.089844 82.191406 405.089844 56.597656 C 405.089844 31.003906 384.34375 10.253906 358.75 10.253906 Z M 358.75 10.253906 " clip-rule="nonzero"/></clipPath><clipPath id="95cc960cd6"><path d="M 312.410156 10.253906 L 405.085938 10.253906 L 405.085938 102.933594 L 312.410156 102.933594 Z M 312.410156 10.253906 " clip-rule="nonzero"/></clipPath><clipPath id="d4c9e70c80"><path d="M 358.746094 10.253906 C 333.15625 10.253906 312.410156 31 312.410156 56.59375 C 312.410156 82.1875 333.15625 102.933594 358.746094 102.933594 C 384.339844 102.933594 405.085938 82.1875 405.085938 56.59375 C 405.085938 31 384.339844 10.253906 358.746094 10.253906 Z M 358.746094 10.253906 " clip-rule="nonzero"/></clipPath><clipPath id="7985fa8211"><path d="M 327.367188 29.136719 L 390.324219 29.136719 L 390.324219 83.847656 L 327.367188 83.847656 Z M 327.367188 29.136719 " clip-rule="nonzero"/></clipPath></defs><g clip-path="url(#4f08778c6f)"><g clip-path="url(#bda7cb5f53)"><path fill="#00bf63" d="M 97.082031 175.21875 L 620.300781 175.21875 L 620.300781 347.164062 L 97.082031 347.164062 Z M 97.082031 175.21875 " fill-opacity="1" fill-rule="nonzero"/></g></g><g clip-path="url(#754b281c9d)"><path fill="#ffffff" d="M 97.082031 111.054688 L 620.441406 111.054688 L 620.441406 175.21875 L 97.082031 175.21875 Z M 97.082031 111.054688 " fill-opacity="1" fill-rule="nonzero"/></g><g fill="#000000" fill-opacity="1"><g transform="translate(185.426227, 151.380699)"><g><path d="M 3.625 -8.421875 L 7.5625 -8.421875 C 8.550781 -8.421875 9.363281 -8.753906 10 -9.421875 C 10.644531 -10.085938 10.96875 -10.921875 10.96875 -11.921875 C 10.96875 -12.921875 10.660156 -13.734375 10.046875 -14.359375 C 9.429688 -14.992188 8.601562 -15.3125 7.5625 -15.3125 L 3.625 -15.3125 Z M 12.71875 -11.875 C 12.71875 -10.382812 12.191406 -9.148438 11.140625 -8.171875 C 10.109375 -7.203125 8.835938 -6.71875 7.328125 -6.71875 L 3.625 -6.71875 L 3.625 0 L 1.875 0 L 1.875 -16.984375 L 7.328125 -16.984375 C 8.816406 -16.984375 10.085938 -16.507812 11.140625 -15.5625 C 12.191406 -14.59375 12.71875 -13.363281 12.71875 -11.875 Z M 12.71875 -11.875 "/></g></g></g><g fill="#000000" fill-opacity="1"><g transform="translate(198.640049, 151.380699)"><g><path d="M 7.515625 -8.71875 C 7.117188 -9.082031 6.6875 -9.265625 6.21875 -9.265625 C 5.769531 -9.265625 5.390625 -9.140625 5.078125 -8.890625 C 4.742188 -8.628906 4.46875 -8.3125 4.25 -7.9375 C 3.832031 -7.207031 3.625 -6.394531 3.625 -5.5 L 3.625 0 L 1.875 0 L 1.875 -11 L 3.625 -11 L 3.625 -8.71875 L 3.703125 -9.171875 C 4.285156 -10.535156 5.191406 -11.21875 6.421875 -11.21875 C 6.804688 -11.21875 7.171875 -11.144531 7.515625 -11 Z M 7.515625 -8.71875 "/></g></g></g><g fill="#000000" fill-opacity="1"><g transform="translate(206.408475, 151.380699)"><g><path d="M 10.875 -5.546875 C 10.875 -6.648438 10.476562 -7.59375 9.6875 -8.375 C 8.90625 -9.15625 7.96875 -9.546875 6.875 -9.546875 C 5.769531 -9.546875 4.828125 -9.15625 4.046875 -8.375 C 3.265625 -7.59375 2.875 -6.648438 2.875 -5.546875 C 2.875 -4.460938 3.265625 -3.53125 4.046875 -2.75 C 4.828125 -1.96875 5.769531 -1.578125 6.875 -1.578125 C 7.96875 -1.578125 8.90625 -1.96875 9.6875 -2.75 C 10.476562 -3.53125 10.875 -4.460938 10.875 -5.546875 Z M 12.609375 -5.546875 C 12.609375 -3.941406 12.050781 -2.59375 10.9375 -1.5 C 9.789062 -0.382812 8.4375 0.171875 6.875 0.171875 C 5.300781 0.171875 3.953125 -0.382812 2.828125 -1.5 C 1.691406 -2.59375 1.125 -3.941406 1.125 -5.546875 C 1.125 -7.128906 1.691406 -8.488281 2.828125 -9.625 C 3.941406 -10.738281 5.289062 -11.296875 6.875 -11.296875 C 8.457031 -11.296875 9.8125 -10.738281 10.9375 -9.625 C 12.050781 -8.488281 12.609375 -7.128906 12.609375 -5.546875 Z M 12.609375 -5.546875 "/></g></g></g><g fill="#000000" fill-opacity="1"><g transform="translate(220.146854, 151.380699)"><g><path d="M 12.140625 -7.046875 L 10.25 -7.046875 C 9.945312 -7.742188 9.476562 -8.3125 8.84375 -8.75 C 8.207031 -9.175781 7.566406 -9.390625 6.921875 -9.390625 C 6.273438 -9.390625 5.71875 -9.289062 5.25 -9.09375 C 4.78125 -8.875 4.378906 -8.59375 4.046875 -8.25 C 3.296875 -7.46875 2.921875 -6.550781 2.921875 -5.5 C 2.921875 -4.425781 3.296875 -3.507812 4.046875 -2.75 C 4.773438 -1.96875 5.675781 -1.578125 6.75 -1.578125 C 7.445312 -1.578125 8.09375 -1.757812 8.6875 -2.125 C 9.269531 -2.488281 9.726562 -2.976562 10.0625 -3.59375 L 12.046875 -3.59375 C 11.429688 -1.832031 10.238281 -0.648438 8.46875 -0.046875 C 7.914062 0.148438 7.289062 0.25 6.59375 0.25 C 5.894531 0.25 5.203125 0.09375 4.515625 -0.21875 C 3.835938 -0.519531 3.25 -0.9375 2.75 -1.46875 C 1.664062 -2.601562 1.125 -3.945312 1.125 -5.5 C 1.125 -7.0625 1.664062 -8.398438 2.75 -9.515625 C 3.84375 -10.648438 5.175781 -11.21875 6.75 -11.21875 C 8.007812 -11.21875 9.148438 -10.828125 10.171875 -10.046875 C 11.140625 -9.296875 11.796875 -8.296875 12.140625 -7.046875 Z M 12.140625 -7.046875 "/></g></g></g><g fill="#000000" fill-opacity="1"><g transform="translate(233.16085, 151.380699)"><g><path d="M 9.46875 -1.875 C 8.65625 -0.476562 7.429688 0.21875 5.796875 0.21875 C 4.566406 0.21875 3.597656 -0.1875 2.890625 -1 C 2.210938 -1.8125 1.875 -2.851562 1.875 -4.125 L 1.875 -11 L 3.625 -11 L 3.625 -4.125 C 3.625 -3.40625 3.789062 -2.796875 4.125 -2.296875 C 4.4375 -1.785156 4.96875 -1.53125 5.71875 -1.53125 C 7.082031 -1.53125 8.050781 -1.960938 8.625 -2.828125 C 9.1875 -3.671875 9.46875 -4.859375 9.46875 -6.390625 L 9.46875 -11 L 11.21875 -11 L 11.21875 0 L 9.46875 0 Z M 9.46875 -1.875 "/></g></g></g><g fill="#000000" fill-opacity="1"><g transform="translate(245.875091, 151.380699)"><g><path d="M 7.515625 -8.71875 C 7.117188 -9.082031 6.6875 -9.265625 6.21875 -9.265625 C 5.769531 -9.265625 5.390625 -9.140625 5.078125 -8.890625 C 4.742188 -8.628906 4.46875 -8.3125 4.25 -7.9375 C 3.832031 -7.207031 3.625 -6.394531 3.625 -5.5 L 3.625 0 L 1.875 0 L 1.875 -11 L 3.625 -11 L 3.625 -8.71875 L 3.703125 -9.171875 C 4.285156 -10.535156 5.191406 -11.21875 6.421875 -11.21875 C 6.804688 -11.21875 7.171875 -11.144531 7.515625 -11 Z M 7.515625 -8.71875 "/></g></g></g><g fill="#000000" fill-opacity="1"><g transform="translate(253.643517, 151.380699)"><g><path d="M 12.609375 -5.75 L 12.609375 -4.828125 L 2.953125 -4.828125 C 3.117188 -3.867188 3.578125 -3.09375 4.328125 -2.5 C 5.085938 -1.882812 5.9375 -1.578125 6.875 -1.578125 C 7.5 -1.578125 8.101562 -1.726562 8.6875 -2.03125 C 9.257812 -2.3125 9.738281 -2.707031 10.125 -3.21875 L 12.125 -3.21875 C 11.65625 -2.175781 10.953125 -1.351562 10.015625 -0.75 C 9.066406 -0.132812 8.109375 0.171875 7.140625 0.171875 C 6.160156 0.171875 5.328125 0.0195312 4.640625 -0.28125 C 3.941406 -0.570312 3.335938 -0.976562 2.828125 -1.5 C 1.691406 -2.59375 1.125 -3.941406 1.125 -5.546875 C 1.125 -7.128906 1.691406 -8.488281 2.828125 -9.625 C 3.941406 -10.738281 5.289062 -11.296875 6.875 -11.296875 C 8.40625 -11.296875 9.742188 -10.753906 10.890625 -9.671875 C 12.035156 -8.566406 12.609375 -7.257812 12.609375 -5.75 Z M 10.765625 -6.328125 C 10.566406 -7.253906 10.101562 -8.023438 9.375 -8.640625 C 8.632812 -9.242188 7.800781 -9.546875 6.875 -9.546875 C 5.4375 -9.546875 4.3125 -8.90625 3.5 -7.625 C 3.25 -7.21875 3.070312 -6.785156 2.96875 -6.328125 Z M 10.765625 -6.328125 "/></g></g></g><g fill="#000000" fill-opacity="1"><g transform="translate(267.257001, 151.380699)"><g><path d="M 15.8125 -0.046875 L 15.8125 -6.921875 C 15.8125 -8.054688 15.453125 -8.851562 14.734375 -9.3125 C 14.484375 -9.46875 14.101562 -9.546875 13.59375 -9.546875 C 13.070312 -9.546875 12.585938 -9.394531 12.140625 -9.09375 C 11.691406 -8.789062 11.332031 -8.40625 11.0625 -7.9375 C 10.96875 -7.757812 10.878906 -7.5625 10.796875 -7.34375 C 10.796875 -7.207031 10.796875 -7.066406 10.796875 -6.921875 L 10.796875 -0.046875 L 9.046875 -0.046875 L 9.046875 -6.921875 C 9.046875 -8.054688 8.6875 -8.851562 7.96875 -9.3125 C 7.71875 -9.46875 7.335938 -9.546875 6.828125 -9.546875 C 6.304688 -9.546875 5.820312 -9.394531 5.375 -9.09375 C 4.925781 -8.789062 4.566406 -8.40625 4.296875 -7.9375 C 3.941406 -7.320312 3.71875 -6.566406 3.625 -5.671875 L 3.625 -0.046875 L 1.875 -0.046875 L 1.875 -11.046875 L 3.625 -11.046875 L 3.625 -9.296875 C 3.957031 -9.859375 4.375 -10.316406 4.875 -10.671875 C 5.4375 -11.085938 6.101562 -11.296875 6.875 -11.296875 C 7.632812 -11.296875 8.25 -11.175781 8.71875 -10.9375 C 9.1875 -10.6875 9.578125 -10.363281 9.890625 -9.96875 C 10.054688 -9.738281 10.207031 -9.476562 10.34375 -9.1875 C 10.675781 -9.789062 11.109375 -10.285156 11.640625 -10.671875 C 12.203125 -11.085938 12.867188 -11.296875 13.640625 -11.296875 C 14.410156 -11.296875 15.023438 -11.175781 15.484375 -10.9375 C 15.953125 -10.6875 16.347656 -10.363281 16.671875 -9.96875 C 17.265625 -9.1875 17.5625 -8.171875 17.5625 -6.921875 L 17.5625 -0.046875 Z M 15.8125 -0.046875 "/></g></g></g><g fill="#000000" fill-opacity="1"><g transform="translate(286.31588, 151.380699)"><g><path d="M 12.609375 -5.75 L 12.609375 -4.828125 L 2.953125 -4.828125 C 3.117188 -3.867188 3.578125 -3.09375 4.328125 -2.5 C 5.085938 -1.882812 5.9375 -1.578125 6.875 -1.578125 C 7.5 -1.578125 8.101562 -1.726562 8.6875 -2.03125 C 9.257812 -2.3125 9.738281 -2.707031 10.125 -3.21875 L 12.125 -3.21875 C 11.65625 -2.175781 10.953125 -1.351562 10.015625 -0.75 C 9.066406 -0.132812 8.109375 0.171875 7.140625 0.171875 C 6.160156 0.171875 5.328125 0.0195312 4.640625 -0.28125 C 3.941406 -0.570312 3.335938 -0.976562 2.828125 -1.5 C 1.691406 -2.59375 1.125 -3.941406 1.125 -5.546875 C 1.125 -7.128906 1.691406 -8.488281 2.828125 -9.625 C 3.941406 -10.738281 5.289062 -11.296875 6.875 -11.296875 C 8.40625 -11.296875 9.742188 -10.753906 10.890625 -9.671875 C 12.035156 -8.566406 12.609375 -7.257812 12.609375 -5.75 Z M 10.765625 -6.328125 C 10.566406 -7.253906 10.101562 -8.023438 9.375 -8.640625 C 8.632812 -9.242188 7.800781 -9.546875 6.875 -9.546875 C 5.4375 -9.546875 4.3125 -8.90625 3.5 -7.625 C 3.25 -7.21875 3.070312 -6.785156 2.96875 -6.328125 Z M 10.765625 -6.328125 "/></g></g></g><g fill="#000000" fill-opacity="1"><g transform="translate(299.929364, 151.380699)"><g><path d="M 9.46875 0 L 9.46875 -6.875 C 9.46875 -7.582031 9.3125 -8.195312 9 -8.71875 C 8.664062 -9.21875 8.125 -9.46875 7.375 -9.46875 C 6.625 -9.46875 6.015625 -9.328125 5.546875 -9.046875 C 5.078125 -8.765625 4.703125 -8.394531 4.421875 -7.9375 C 3.890625 -7.113281 3.625 -6 3.625 -4.59375 L 3.625 0 L 1.875 0 L 1.875 -11 L 3.625 -11 L 3.625 -9.09375 C 3.988281 -9.707031 4.453125 -10.21875 5.015625 -10.625 C 5.617188 -11.019531 6.3125 -11.21875 7.09375 -11.21875 C 7.875 -11.21875 8.507812 -11.109375 9 -10.890625 C 9.476562 -10.660156 9.882812 -10.351562 10.21875 -9.96875 C 10.882812 -9.1875 11.21875 -8.15625 11.21875 -6.875 L 11.21875 0 Z M 9.46875 0 "/></g></g></g><g fill="#000000" fill-opacity="1"><g transform="translate(312.643605, 151.380699)"><g><path d="M 0.5 -9.375 L 0.5 -11 L 3.25 -11 L 3.25 -15.265625 L 5 -15.265625 L 5 -11 L 7.71875 -11 L 7.71875 -9.375 L 5 -9.375 L 5 0 L 3.25 0 L 3.25 -9.375 Z M 0.5 -9.375 "/></g></g></g><g fill="#000000" fill-opacity="1"><g transform="translate(320.861658, 151.380699)"><g/></g></g><g fill="#000000" fill-opacity="1"><g transform="translate(327.605958, 151.380699)"><g><path d="M 10.625 -5.5 C 10.625 -6.5625 10.253906 -7.492188 9.515625 -8.296875 C 8.765625 -9.097656 7.84375 -9.5 6.75 -9.5 C 5.644531 -9.5 4.726562 -9.097656 4 -8.296875 C 3.25 -7.492188 2.875 -6.5625 2.875 -5.5 C 2.875 -4.425781 3.25 -3.492188 4 -2.703125 C 4.726562 -1.898438 5.644531 -1.5 6.75 -1.5 C 7.84375 -1.5 8.765625 -1.898438 9.515625 -2.703125 C 10.253906 -3.492188 10.625 -4.425781 10.625 -5.5 Z M 12.375 0 L 10.625 0 L 10.625 -1.875 C 10.519531 -1.738281 10.414062 -1.613281 10.3125 -1.5 C 9.269531 -0.332031 7.988281 0.25 6.46875 0.25 C 4.957031 0.25 3.679688 -0.332031 2.640625 -1.5 C 1.628906 -2.632812 1.125 -3.96875 1.125 -5.5 C 1.125 -7.03125 1.628906 -8.363281 2.640625 -9.5 C 3.679688 -10.664062 4.957031 -11.25 6.46875 -11.25 C 7.988281 -11.25 9.269531 -10.664062 10.3125 -9.5 C 10.414062 -9.375 10.519531 -9.25 10.625 -9.125 L 10.625 -11 L 12.375 -11 Z M 12.375 0 "/></g></g></g><g fill="#000000" fill-opacity="1"><g transform="translate(341.843917, 151.380699)"><g><path d="M 9.46875 0 L 9.46875 -6.875 C 9.46875 -7.582031 9.3125 -8.195312 9 -8.71875 C 8.664062 -9.21875 8.125 -9.46875 7.375 -9.46875 C 6.625 -9.46875 6.015625 -9.328125 5.546875 -9.046875 C 5.078125 -8.765625 4.703125 -8.394531 4.421875 -7.9375 C 3.890625 -7.113281 3.625 -6 3.625 -4.59375 L 3.625 0 L 1.875 0 L 1.875 -11 L 3.625 -11 L 3.625 -9.09375 C 3.988281 -9.707031 4.453125 -10.21875 5.015625 -10.625 C 5.617188 -11.019531 6.3125 -11.21875 7.09375 -11.21875 C 7.875 -11.21875 8.507812 -11.109375 9 -10.890625 C 9.476562 -10.660156 9.882812 -10.351562 10.21875 -9.96875 C 10.882812 -9.1875 11.21875 -8.15625 11.21875 -6.875 L 11.21875 0 Z M 9.46875 0 "/></g></g></g><g fill="#000000" fill-opacity="1"><g transform="translate(354.558159, 151.380699)"><g><path d="M 10.625 -5.5 C 10.625 -6.5625 10.253906 -7.492188 9.515625 -8.296875 C 8.765625 -9.097656 7.84375 -9.5 6.75 -9.5 C 5.644531 -9.5 4.726562 -9.097656 4 -8.296875 C 3.25 -7.492188 2.875 -6.5625 2.875 -5.5 C 2.875 -4.425781 3.25 -3.492188 4 -2.703125 C 4.726562 -1.898438 5.644531 -1.5 6.75 -1.5 C 7.84375 -1.5 8.765625 -1.898438 9.515625 -2.703125 C 10.253906 -3.492188 10.625 -4.425781 10.625 -5.5 Z M 12.375 0 L 10.625 0 L 10.625 -1.875 C 10.519531 -1.738281 10.414062 -1.613281 10.3125 -1.5 C 9.269531 -0.332031 7.988281 0.25 6.46875 0.25 C 4.957031 0.25 3.679688 -0.332031 2.640625 -1.5 C 1.628906 -2.632812 1.125 -3.96875 1.125 -5.5 C 1.125 -7.03125 1.628906 -8.363281 2.640625 -9.5 C 3.679688 -10.664062 4.957031 -11.25 6.46875 -11.25 C 7.988281 -11.25 9.269531 -10.664062 10.3125 -9.5 C 10.414062 -9.375 10.519531 -9.25 10.625 -9.125 L 10.625 -18.734375 L 12.375 -18.734375 Z M 12.375 0 "/></g></g></g><g fill="#000000" fill-opacity="1"><g transform="translate(368.796118, 151.380699)"><g/></g></g><g fill="#000000" fill-opacity="1"><g transform="translate(375.540418, 151.380699)"><g><path d="M 17.53125 0 L 14.890625 -12.09375 L 9.796875 1 L 4.671875 -12.09375 L 2.046875 0 L 0.25 0 L 4.21875 -18.109375 L 9.796875 -3.578125 L 15.359375 -18.109375 L 19.3125 0 Z M 17.53125 0 "/></g></g></g><g fill="#000000" fill-opacity="1"><g transform="translate(395.098866, 151.380699)"><g><path d="M 10.625 -5.5 C 10.625 -6.5625 10.253906 -7.492188 9.515625 -8.296875 C 8.765625 -9.097656 7.84375 -9.5 6.75 -9.5 C 5.644531 -9.5 4.726562 -9.097656 4 -8.296875 C 3.25 -7.492188 2.875 -6.5625 2.875 -5.5 C 2.875 -4.425781 3.25 -3.492188 4 -2.703125 C 4.726562 -1.898438 5.644531 -1.5 6.75 -1.5 C 7.84375 -1.5 8.765625 -1.898438 9.515625 -2.703125 C 10.253906 -3.492188 10.625 -4.425781 10.625 -5.5 Z M 12.375 0 L 10.625 0 L 10.625 -1.875 C 10.519531 -1.738281 10.414062 -1.613281 10.3125 -1.5 C 9.269531 -0.332031 7.988281 0.25 6.46875 0.25 C 4.957031 0.25 3.679688 -0.332031 2.640625 -1.5 C 1.628906 -2.632812 1.125 -3.96875 1.125 -5.5 C 1.125 -7.03125 1.628906 -8.363281 2.640625 -9.5 C 3.679688 -10.664062 4.957031 -11.25 6.46875 -11.25 C 7.988281 -11.25 9.269531 -10.664062 10.3125 -9.5 C 10.414062 -9.375 10.519531 -9.25 10.625 -9.125 L 10.625 -11 L 12.375 -11 Z M 12.375 0 "/></g></g></g><g fill="#000000" fill-opacity="1"><g transform="translate(409.336836, 151.380699)"><g><path d="M 9.46875 0 L 9.46875 -6.875 C 9.46875 -7.582031 9.3125 -8.195312 9 -8.71875 C 8.664062 -9.21875 8.125 -9.46875 7.375 -9.46875 C 6.625 -9.46875 6.015625 -9.328125 5.546875 -9.046875 C 5.078125 -8.765625 4.703125 -8.394531 4.421875 -7.9375 C 3.890625 -7.113281 3.625 -6 3.625 -4.59375 L 3.625 0 L 1.875 0 L 1.875 -11 L 3.625 -11 L 3.625 -9.09375 C 3.988281 -9.707031 4.453125 -10.21875 5.015625 -10.625 C 5.617188 -11.019531 6.3125 -11.21875 7.09375 -11.21875 C 7.875 -11.21875 8.507812 -11.109375 9 -10.890625 C 9.476562 -10.660156 9.882812 -10.351562 10.21875 -9.96875 C 10.882812 -9.1875 11.21875 -8.15625 11.21875 -6.875 L 11.21875 0 Z M 9.46875 0 "/></g></g></g><g fill="#000000" fill-opacity="1"><g transform="translate(422.051089, 151.380699)"><g><path d="M 9.46875 -1.875 C 8.65625 -0.476562 7.429688 0.21875 5.796875 0.21875 C 4.566406 0.21875 3.597656 -0.1875 2.890625 -1 C 2.210938 -1.8125 1.875 -2.851562 1.875 -4.125 L 1.875 -11 L 3.625 -11 L 3.625 -4.125 C 3.625 -3.40625 3.789062 -2.796875 4.125 -2.296875 C 4.4375 -1.785156 4.96875 -1.53125 5.71875 -1.53125 C 7.082031 -1.53125 8.050781 -1.960938 8.625 -2.828125 C 9.1875 -3.671875 9.46875 -4.859375 9.46875 -6.390625 L 9.46875 -11 L 11.21875 -11 L 11.21875 0 L 9.46875 0 Z M 9.46875 -1.875 "/></g></g></g><g fill="#000000" fill-opacity="1"><g transform="translate(434.765341, 151.380699)"><g><path d="M 7.765625 -17.109375 L 6.265625 -17.109375 C 5.679688 -17.109375 5.300781 -16.976562 5.125 -16.71875 C 4.9375 -16.445312 4.84375 -16.117188 4.84375 -15.734375 L 4.84375 -11 L 7.765625 -11 L 7.765625 -9.375 L 4.84375 -9.375 L 4.84375 0 L 3.09375 0 L 3.09375 -9.375 L 0.875 -9.375 L 0.875 -11 L 3.09375 -11 L 3.09375 -15.234375 C 3.09375 -16.359375 3.359375 -17.226562 3.890625 -17.84375 C 4.410156 -18.4375 5.285156 -18.734375 6.515625 -18.734375 L 7.765625 -18.734375 Z M 7.765625 -17.109375 "/></g></g></g><g fill="#000000" fill-opacity="1"><g transform="translate(443.283138, 151.380699)"><g><path d="M 10.625 -5.5 C 10.625 -6.5625 10.253906 -7.492188 9.515625 -8.296875 C 8.765625 -9.097656 7.84375 -9.5 6.75 -9.5 C 5.644531 -9.5 4.726562 -9.097656 4 -8.296875 C 3.25 -7.492188 2.875 -6.5625 2.875 -5.5 C 2.875 -4.425781 3.25 -3.492188 4 -2.703125 C 4.726562 -1.898438 5.644531 -1.5 6.75 -1.5 C 7.84375 -1.5 8.765625 -1.898438 9.515625 -2.703125 C 10.253906 -3.492188 10.625 -4.425781 10.625 -5.5 Z M 12.375 0 L 10.625 0 L 10.625 -1.875 C 10.519531 -1.738281 10.414062 -1.613281 10.3125 -1.5 C 9.269531 -0.332031 7.988281 0.25 6.46875 0.25 C 4.957031 0.25 3.679688 -0.332031 2.640625 -1.5 C 1.628906 -2.632812 1.125 -3.96875 1.125 -5.5 C 1.125 -7.03125 1.628906 -8.363281 2.640625 -9.5 C 3.679688 -10.664062 4.957031 -11.25 6.46875 -11.25 C 7.988281 -11.25 9.269531 -10.664062 10.3125 -9.5 C 10.414062 -9.375 10.519531 -9.25 10.625 -9.125 L 10.625 -11 L 12.375 -11 Z M 12.375 0 "/></g></g></g><g fill="#000000" fill-opacity="1"><g transform="translate(457.521108, 151.380699)"><g><path d="M 12.140625 -7.046875 L 10.25 -7.046875 C 9.945312 -7.742188 9.476562 -8.3125 8.84375 -8.75 C 8.207031 -9.175781 7.566406 -9.390625 6.921875 -9.390625 C 6.273438 -9.390625 5.71875 -9.289062 5.25 -9.09375 C 4.78125 -8.875 4.378906 -8.59375 4.046875 -8.25 C 3.296875 -7.46875 2.921875 -6.550781 2.921875 -5.5 C 2.921875 -4.425781 3.296875 -3.507812 4.046875 -2.75 C 4.773438 -1.96875 5.675781 -1.578125 6.75 -1.578125 C 7.445312 -1.578125 8.09375 -1.757812 8.6875 -2.125 C 9.269531 -2.488281 9.726562 -2.976562 10.0625 -3.59375 L 12.046875 -3.59375 C 11.429688 -1.832031 10.238281 -0.648438 8.46875 -0.046875 C 7.914062 0.148438 7.289062 0.25 6.59375 0.25 C 5.894531 0.25 5.203125 0.09375 4.515625 -0.21875 C 3.835938 -0.519531 3.25 -0.9375 2.75 -1.46875 C 1.664062 -2.601562 1.125 -3.945312 1.125 -5.5 C 1.125 -7.0625 1.664062 -8.398438 2.75 -9.515625 C 3.84375 -10.648438 5.175781 -11.21875 6.75 -11.21875 C 8.007812 -11.21875 9.148438 -10.828125 10.171875 -10.046875 C 11.140625 -9.296875 11.796875 -8.296875 12.140625 -7.046875 Z M 12.140625 -7.046875 "/></g></g></g><g fill="#000000" fill-opacity="1"><g transform="translate(470.535104, 151.380699)"><g><path d="M 0.5 -9.375 L 0.5 -11 L 3.25 -11 L 3.25 -15.265625 L 5 -15.265625 L 5 -11 L 7.71875 -11 L 7.71875 -9.375 L 5 -9.375 L 5 0 L 3.25 0 L 3.25 -9.375 Z M 0.5 -9.375 "/></g></g></g><g fill="#000000" fill-opacity="1"><g transform="translate(478.753157, 151.380699)"><g><path d="M 9.46875 -1.875 C 8.65625 -0.476562 7.429688 0.21875 5.796875 0.21875 C 4.566406 0.21875 3.597656 -0.1875 2.890625 -1 C 2.210938 -1.8125 1.875 -2.851562 1.875 -4.125 L 1.875 -11 L 3.625 -11 L 3.625 -4.125 C 3.625 -3.40625 3.789062 -2.796875 4.125 -2.296875 C 4.4375 -1.785156 4.96875 -1.53125 5.71875 -1.53125 C 7.082031 -1.53125 8.050781 -1.960938 8.625 -2.828125 C 9.1875 -3.671875 9.46875 -4.859375 9.46875 -6.390625 L 9.46875 -11 L 11.21875 -11 L 11.21875 0 L 9.46875 0 Z M 9.46875 -1.875 "/></g></g></g><g fill="#000000" fill-opacity="1"><g transform="translate(491.46741, 151.380699)"><g><path d="M 7.515625 -8.71875 C 7.117188 -9.082031 6.6875 -9.265625 6.21875 -9.265625 C 5.769531 -9.265625 5.390625 -9.140625 5.078125 -8.890625 C 4.742188 -8.628906 4.46875 -8.3125 4.25 -7.9375 C 3.832031 -7.207031 3.625 -6.394531 3.625 -5.5 L 3.625 0 L 1.875 0 L 1.875 -11 L 3.625 -11 L 3.625 -8.71875 L 3.703125 -9.171875 C 4.285156 -10.535156 5.191406 -11.21875 6.421875 -11.21875 C 6.804688 -11.21875 7.171875 -11.144531 7.515625 -11 Z M 7.515625 -8.71875 "/></g></g></g><g fill="#000000" fill-opacity="1"><g transform="translate(499.235836, 151.380699)"><g><path d="M 3.640625 -14.796875 C 3.859375 -14.578125 3.96875 -14.316406 3.96875 -14.015625 C 3.96875 -13.703125 3.859375 -13.4375 3.640625 -13.21875 C 3.429688 -13 3.175781 -12.890625 2.875 -12.890625 C 2.5625 -12.890625 2.296875 -13 2.078125 -13.21875 C 1.859375 -13.4375 1.75 -13.703125 1.75 -14.015625 C 1.75 -14.316406 1.859375 -14.578125 2.078125 -14.796875 C 2.296875 -15.003906 2.5625 -15.109375 2.875 -15.109375 C 3.175781 -15.109375 3.429688 -15.003906 3.640625 -14.796875 Z M 3.75 0 L 2 0 L 2 -11 L 3.75 -11 Z M 3.75 0 "/></g></g></g><g fill="#000000" fill-opacity="1"><g transform="translate(504.955987, 151.380699)"><g><path d="M 9.46875 0 L 9.46875 -6.875 C 9.46875 -7.582031 9.3125 -8.195312 9 -8.71875 C 8.664062 -9.21875 8.125 -9.46875 7.375 -9.46875 C 6.625 -9.46875 6.015625 -9.328125 5.546875 -9.046875 C 5.078125 -8.765625 4.703125 -8.394531 4.421875 -7.9375 C 3.890625 -7.113281 3.625 -6 3.625 -4.59375 L 3.625 0 L 1.875 0 L 1.875 -11 L 3.625 -11 L 3.625 -9.09375 C 3.988281 -9.707031 4.453125 -10.21875 5.015625 -10.625 C 5.617188 -11.019531 6.3125 -11.21875 7.09375 -11.21875 C 7.875 -11.21875 8.507812 -11.109375 9 -10.890625 C 9.476562 -10.660156 9.882812 -10.351562 10.21875 -9.96875 C 10.882812 -9.1875 11.21875 -8.15625 11.21875 -6.875 L 11.21875 0 Z M 9.46875 0 "/></g></g></g><g fill="#000000" fill-opacity="1"><g transform="translate(517.67024, 151.380699)"><g><path d="M 10.765625 -5.5 C 10.765625 -6.5625 10.398438 -7.492188 9.671875 -8.296875 C 8.921875 -9.097656 7.992188 -9.5 6.890625 -9.5 C 5.828125 -9.5 4.910156 -9.097656 4.140625 -8.296875 C 3.390625 -7.515625 3.015625 -6.582031 3.015625 -5.5 C 3.015625 -4.414062 3.390625 -3.484375 4.140625 -2.703125 C 4.910156 -1.898438 5.828125 -1.5 6.890625 -1.5 C 7.992188 -1.5 8.921875 -1.898438 9.671875 -2.703125 C 10.398438 -3.492188 10.765625 -4.425781 10.765625 -5.5 Z M 2.96875 1.5 C 3.132812 2.175781 3.492188 2.785156 4.046875 3.328125 C 4.816406 4.109375 5.742188 4.5 6.828125 4.5 C 7.898438 4.5 8.832031 4.109375 9.625 3.328125 C 10.382812 2.554688 10.765625 1.628906 10.765625 0.546875 L 10.765625 -1.84375 C 10.679688 -1.726562 10.59375 -1.613281 10.5 -1.5 C 9.445312 -0.332031 8.160156 0.25 6.640625 0.25 C 5.109375 0.25 3.828125 -0.332031 2.796875 -1.5 C 1.785156 -2.632812 1.28125 -3.96875 1.28125 -5.5 C 1.28125 -7.03125 1.785156 -8.363281 2.796875 -9.5 C 3.828125 -10.664062 5.109375 -11.25 6.640625 -11.25 C 8.109375 -11.25 9.394531 -10.664062 10.5 -9.5 C 10.59375 -9.375 10.679688 -9.253906 10.765625 -9.140625 L 10.765625 -11 L 12.515625 -11 L 12.515625 0.546875 C 12.515625 2.109375 11.957031 3.453125 10.84375 4.578125 C 9.726562 5.691406 8.390625 6.25 6.828125 6.25 C 5.253906 6.25 3.910156 5.691406 2.796875 4.578125 C 1.910156 3.691406 1.378906 2.664062 1.203125 1.5 Z M 2.96875 1.5 "/></g></g></g><g clip-path="url(#67a3545b7a)"><g clip-path="url(#238adb3e90)"><path fill="#ffffff" d="M 312.410156 10.253906 L 405.089844 10.253906 L 405.089844 102.9375 L 312.410156 102.9375 Z M 312.410156 10.253906 " fill-opacity="1" fill-rule="nonzero"/></g></g><g clip-path="url(#95cc960cd6)"><g clip-path="url(#d4c9e70c80)"><path stroke-linecap="butt" transform="matrix(0.749485, 0, 0, 0.749485, 312.408574, 10.255106)" fill="none" stroke-linejoin="miter" d="M 61.825826 -0.00160121 C 27.682582 -0.00160121 0.00211083 27.67887 0.00211083 61.827326 C 0.00211083 95.975782 27.682582 123.656254 61.825826 123.656254 C 95.974282 123.656254 123.654754 95.975782 123.654754 61.827326 C 123.654754 27.67887 95.974282 -0.00160121 61.825826 -0.00160121 Z M 61.825826 -0.00160121 " stroke="#00bf63" stroke-width="8" stroke-opacity="1" stroke-miterlimit="4"/></g></g><g clip-path="url(#7985fa8211)"><path fill="#00bf63" d="M 382.277344 54.140625 L 378.355469 54.140625 L 378.355469 48.746094 C 378.355469 47.667969 377.472656 46.785156 376.394531 46.785156 L 364.628906 46.785156 C 363.550781 46.785156 362.667969 47.667969 362.667969 48.746094 L 362.667969 54.140625 L 360.707031 54.140625 L 360.707031 48.746094 C 360.707031 47.667969 359.824219 46.785156 358.746094 46.785156 L 355.3125 46.785156 L 355.3125 42.570312 C 355.902344 42.226562 356.292969 41.589844 356.292969 40.902344 L 356.292969 37.960938 C 357.371094 37.960938 358.253906 37.078125 358.253906 36 L 358.253906 31.097656 C 358.253906 30.019531 357.371094 29.136719 356.292969 29.136719 L 348.449219 29.136719 C 347.960938 29.136719 347.519531 29.332031 347.175781 29.625 L 332.269531 29.625 C 331.191406 29.625 330.308594 30.507812 330.308594 31.585938 L 330.308594 47.324219 C 329.476562 47.523438 328.839844 48.304688 328.839844 49.238281 L 328.839844 54.140625 L 328.347656 54.140625 C 327.808594 54.140625 327.367188 54.582031 327.367188 55.121094 C 327.367188 55.660156 327.808594 56.101562 328.347656 56.101562 L 382.277344 56.101562 C 385.515625 56.101562 388.164062 58.75 388.164062 61.984375 C 388.164062 65.222656 385.515625 67.867188 382.277344 67.867188 L 328.347656 67.867188 C 327.808594 67.867188 327.367188 68.308594 327.367188 68.847656 C 327.367188 69.386719 327.808594 69.828125 328.347656 69.828125 L 330.800781 69.828125 L 330.800781 83.066406 C 330.800781 83.605469 331.242188 84.046875 331.78125 84.046875 C 332.320312 84.046875 332.761719 83.605469 332.761719 83.066406 L 332.761719 79.144531 L 381.789062 79.144531 L 381.789062 83.066406 C 381.789062 83.605469 382.230469 84.046875 382.769531 84.046875 C 383.308594 84.046875 383.75 83.605469 383.75 83.066406 L 383.75 69.683594 C 387.378906 68.996094 390.125 65.808594 390.125 61.984375 C 390.125 57.671875 386.59375 54.140625 382.277344 54.140625 Z M 348.449219 31.097656 L 356.292969 31.097656 L 356.292969 36 L 348.449219 36 Z M 350.410156 40.902344 L 350.410156 37.960938 L 354.332031 37.960938 L 354.332031 40.902344 Z M 353.351562 42.863281 L 353.351562 46.785156 L 351.390625 46.785156 L 351.390625 42.863281 Z M 332.269531 31.585938 L 346.488281 31.585938 L 346.488281 35.511719 L 336.191406 35.511719 L 336.191406 47.277344 L 332.269531 47.277344 Z M 337.664062 54.140625 L 330.800781 54.140625 L 330.800781 49.238281 L 337.664062 49.238281 Z M 345.019531 48.746094 L 345.019531 54.140625 L 339.625 54.140625 L 339.625 49.238281 C 339.625 48.304688 338.988281 47.570312 338.152344 47.324219 L 338.152344 37.472656 L 347.175781 37.472656 C 347.519531 37.765625 347.960938 37.960938 348.449219 37.960938 L 348.449219 40.902344 C 348.449219 41.636719 348.84375 42.277344 349.429688 42.570312 L 349.429688 46.785156 L 346.980469 46.785156 C 345.898438 46.785156 345.019531 47.667969 345.019531 48.746094 Z M 358.746094 54.140625 L 346.980469 54.140625 L 346.980469 48.746094 L 358.746094 48.746094 Z M 376.394531 54.140625 L 364.628906 54.140625 L 364.628906 48.746094 L 376.394531 48.746094 Z M 381.789062 77.183594 L 332.761719 77.183594 L 332.761719 69.828125 L 381.789062 69.828125 Z M 381.789062 77.183594 " fill-opacity="1" fill-rule="nonzero"/></g><path fill="#00bf63" d="M 386.203125 61.984375 C 386.203125 59.828125 384.4375 58.0625 382.277344 58.0625 C 380.121094 58.0625 378.355469 59.828125 378.355469 61.984375 C 378.355469 64.140625 380.121094 65.90625 382.277344 65.90625 C 384.4375 65.90625 386.203125 64.140625 386.203125 61.984375 Z M 380.316406 61.984375 C 380.316406 60.90625 381.199219 60.023438 382.277344 60.023438 C 383.359375 60.023438 384.242188 60.90625 384.242188 61.984375 C 384.242188 63.0625 383.359375 63.945312 382.277344 63.945312 C 381.199219 63.945312 380.316406 63.0625 380.316406 61.984375 Z M 380.316406 61.984375 " fill-opacity="1" fill-rule="nonzero"/><path fill="#00bf63" d="M 376.394531 61.984375 C 376.394531 60.074219 374.875 58.554688 372.964844 58.554688 C 371.050781 58.554688 369.53125 60.074219 369.53125 61.984375 C 369.53125 63.898438 371.050781 65.417969 372.964844 65.417969 C 374.875 65.417969 376.394531 63.898438 376.394531 61.984375 Z M 371.492188 61.984375 C 371.492188 61.152344 372.128906 60.515625 372.964844 60.515625 C 373.796875 60.515625 374.433594 61.152344 374.433594 61.984375 C 374.433594 62.820312 373.796875 63.457031 372.964844 63.457031 C 372.128906 63.457031 371.492188 62.820312 371.492188 61.984375 Z M 371.492188 61.984375 " fill-opacity="1" fill-rule="nonzero"/><path fill="#00bf63" d="M 367.570312 61.984375 C 367.570312 60.074219 366.050781 58.554688 364.140625 58.554688 C 362.226562 58.554688 360.707031 60.074219 360.707031 61.984375 C 360.707031 63.898438 362.226562 65.417969 364.140625 65.417969 C 366.050781 65.417969 367.570312 63.898438 367.570312 61.984375 Z M 362.667969 61.984375 C 362.667969 61.152344 363.304688 60.515625 364.140625 60.515625 C 364.972656 60.515625 365.609375 61.152344 365.609375 61.984375 C 365.609375 62.820312 364.972656 63.457031 364.140625 63.457031 C 363.304688 63.457031 362.667969 62.820312 362.667969 61.984375 Z M 362.667969 61.984375 " fill-opacity="1" fill-rule="nonzero"/><path fill="#00bf63" d="M 358.746094 61.984375 C 358.746094 60.074219 357.226562 58.554688 355.3125 58.554688 C 353.402344 58.554688 351.882812 60.074219 351.882812 61.984375 C 351.882812 63.898438 353.402344 65.417969 355.3125 65.417969 C 357.226562 65.417969 358.746094 63.898438 358.746094 61.984375 Z M 353.84375 61.984375 C 353.84375 61.152344 354.480469 60.515625 355.3125 60.515625 C 356.148438 60.515625 356.785156 61.152344 356.785156 61.984375 C 356.785156 62.820312 356.148438 63.457031 355.3125 63.457031 C 354.480469 63.457031 353.84375 62.820312 353.84375 61.984375 Z M 353.84375 61.984375 " fill-opacity="1" fill-rule="nonzero"/><path fill="#00bf63" d="M 349.921875 61.984375 C 349.921875 60.074219 348.402344 58.554688 346.488281 58.554688 C 344.578125 58.554688 343.058594 60.074219 343.058594 61.984375 C 343.058594 63.898438 344.578125 65.417969 346.488281 65.417969 C 348.402344 65.417969 349.921875 63.898438 349.921875 61.984375 Z M 345.019531 61.984375 C 345.019531 61.152344 345.65625 60.515625 346.488281 60.515625 C 347.320312 60.515625 347.960938 61.152344 347.960938 61.984375 C 347.960938 62.820312 347.320312 63.457031 346.488281 63.457031 C 345.65625 63.457031 345.019531 62.820312 345.019531 61.984375 Z M 345.019531 61.984375 " fill-opacity="1" fill-rule="nonzero"/><path fill="#00bf63" d="M 341.09375 61.984375 C 341.09375 60.074219 339.574219 58.554688 337.664062 58.554688 C 335.75 58.554688 334.230469 60.074219 334.230469 61.984375 C 334.230469 63.898438 335.75 65.417969 337.664062 65.417969 C 339.574219 65.417969 341.09375 63.898438 341.09375 61.984375 Z M 336.191406 61.984375 C 336.191406 61.152344 336.832031 60.515625 337.664062 60.515625 C 338.496094 60.515625 339.132812 61.152344 339.132812 61.984375 C 339.132812 62.820312 338.496094 63.457031 337.664062 63.457031 C 336.832031 63.457031 336.191406 62.820312 336.191406 61.984375 Z M 336.191406 61.984375 " fill-opacity="1" fill-rule="nonzero"/><path fill="#ffffff" d="M 297.21875 233.835938 C 297.21875 234.234375 297.144531 234.617188 296.992188 234.984375 C 296.839844 235.351562 296.621094 235.675781 296.339844 235.957031 C 296.0625 236.238281 295.738281 236.453125 295.371094 236.605469 C 295 236.757812 294.621094 236.832031 294.222656 236.832031 C 293.824219 236.832031 293.441406 236.757812 293.074219 236.605469 C 292.707031 236.453125 292.382812 236.238281 292.101562 235.957031 C 291.820312 235.675781 291.605469 235.351562 291.453125 234.984375 C 291.300781 234.617188 291.222656 234.234375 291.222656 233.835938 C 291.222656 233.4375 291.300781 233.054688 291.453125 232.6875 C 291.605469 232.320312 291.820312 231.996094 292.101562 231.714844 C 292.382812 231.433594 292.707031 231.21875 293.074219 231.066406 C 293.441406 230.914062 293.824219 230.835938 294.222656 230.835938 C 294.621094 230.835938 295 230.914062 295.371094 231.066406 C 295.738281 231.21875 296.0625 231.433594 296.339844 231.714844 C 296.621094 231.996094 296.839844 232.320312 296.992188 232.6875 C 297.144531 233.054688 297.21875 233.4375 297.21875 233.835938 Z M 297.21875 233.835938 " fill-opacity="1" fill-rule="nonzero"/><g fill="#ffffff" fill-opacity="1"><g transform="translate(308.708052, 239.831532)"><g><path d="M 5.28125 -6.421875 C 2.507812 -7.054688 1.125 -8.238281 1.125 -9.96875 C 1.125 -11.25 1.566406 -12.207031 2.453125 -12.84375 C 3.347656 -13.476562 4.394531 -13.796875 5.59375 -13.796875 C 8.25 -13.796875 9.820312 -12.804688 10.3125 -10.828125 L 8.796875 -10.828125 C 8.523438 -12.003906 7.457031 -12.59375 5.59375 -12.59375 C 4.289062 -12.59375 3.378906 -12.207031 2.859375 -11.4375 C 2.660156 -11.132812 2.5625 -10.765625 2.5625 -10.328125 C 2.5625 -9.492188 3.015625 -8.847656 3.921875 -8.390625 C 4.347656 -8.160156 5.253906 -7.867188 6.640625 -7.515625 C 8.023438 -7.148438 9.03125 -6.75 9.65625 -6.3125 C 10.519531 -5.695312 10.953125 -4.835938 10.953125 -3.734375 C 10.953125 -2.359375 10.410156 -1.320312 9.328125 -0.625 C 8.421875 -0.03125 7.300781 0.265625 5.96875 0.265625 C 2.957031 0.265625 1.210938 -0.878906 0.734375 -3.171875 L 2.390625 -3.171875 C 2.648438 -1.734375 3.84375 -1.015625 5.96875 -1.015625 C 7.488281 -1.015625 8.550781 -1.4375 9.15625 -2.28125 C 9.394531 -2.613281 9.515625 -3.066406 9.515625 -3.640625 C 9.515625 -4.191406 9.296875 -4.648438 8.859375 -5.015625 C 8.222656 -5.523438 7.03125 -5.992188 5.28125 -6.421875 Z M 5.28125 -6.421875 "/></g></g></g><g fill="#ffffff" fill-opacity="1"><g transform="translate(320.175642, 239.831532)"><g><path d="M 2.890625 5 L 1.5 5 L 1.5 -8.796875 L 2.890625 -8.796875 L 2.890625 -7.296875 C 2.972656 -7.398438 3.0625 -7.5 3.15625 -7.59375 C 3.976562 -8.53125 5 -9 6.21875 -9 C 7.425781 -9 8.453125 -8.53125 9.296875 -7.59375 C 10.085938 -6.6875 10.484375 -5.617188 10.484375 -4.390625 C 10.484375 -3.171875 10.085938 -2.109375 9.296875 -1.203125 C 8.453125 -0.265625 7.425781 0.203125 6.21875 0.203125 C 5 0.203125 3.976562 -0.265625 3.15625 -1.203125 C 3.0625 -1.296875 2.972656 -1.394531 2.890625 -1.5 Z M 9.09375 -4.390625 C 9.09375 -5.242188 8.800781 -5.992188 8.21875 -6.640625 C 7.613281 -7.273438 6.875 -7.59375 6 -7.59375 C 5.113281 -7.59375 4.378906 -7.273438 3.796875 -6.640625 C 3.191406 -5.992188 2.890625 -5.242188 2.890625 -4.390625 C 2.890625 -3.546875 3.191406 -2.800781 3.796875 -2.15625 C 4.378906 -1.519531 5.113281 -1.203125 6 -1.203125 C 6.875 -1.203125 7.613281 -1.519531 8.21875 -2.15625 C 8.800781 -2.800781 9.09375 -3.546875 9.09375 -4.390625 Z M 9.09375 -4.390625 "/></g></g></g><g fill="#ffffff" fill-opacity="1"><g transform="translate(331.563314, 239.831532)"><g><path d="M 10.09375 -4.59375 L 10.09375 -3.859375 L 2.359375 -3.859375 C 2.492188 -3.097656 2.859375 -2.476562 3.453125 -2 C 4.066406 -1.507812 4.75 -1.265625 5.5 -1.265625 C 6 -1.265625 6.484375 -1.382812 6.953125 -1.625 C 7.410156 -1.84375 7.789062 -2.160156 8.09375 -2.578125 L 9.6875 -2.578125 C 9.320312 -1.734375 8.765625 -1.070312 8.015625 -0.59375 C 7.253906 -0.101562 6.488281 0.140625 5.71875 0.140625 C 4.925781 0.140625 4.257812 0.0195312 3.71875 -0.21875 C 3.15625 -0.457031 2.671875 -0.785156 2.265625 -1.203125 C 1.359375 -2.078125 0.90625 -3.15625 0.90625 -4.4375 C 0.90625 -5.695312 1.359375 -6.78125 2.265625 -7.6875 C 3.148438 -8.582031 4.226562 -9.03125 5.5 -9.03125 C 6.71875 -9.03125 7.789062 -8.597656 8.71875 -7.734375 C 9.632812 -6.859375 10.09375 -5.8125 10.09375 -4.59375 Z M 8.609375 -5.0625 C 8.453125 -5.800781 8.082031 -6.421875 7.5 -6.921875 C 6.90625 -7.398438 6.238281 -7.640625 5.5 -7.640625 C 4.351562 -7.640625 3.453125 -7.125 2.796875 -6.09375 C 2.597656 -5.769531 2.457031 -5.425781 2.375 -5.0625 Z M 8.609375 -5.0625 "/></g></g></g><g fill="#ffffff" fill-opacity="1"><g transform="translate(342.451533, 239.831532)"><g><path d="M 9.71875 -5.640625 L 8.1875 -5.640625 C 7.945312 -6.191406 7.578125 -6.644531 7.078125 -7 C 6.566406 -7.34375 6.050781 -7.515625 5.53125 -7.515625 C 5.007812 -7.515625 4.566406 -7.4375 4.203125 -7.28125 C 3.828125 -7.101562 3.503906 -6.875 3.234375 -6.59375 C 2.640625 -5.96875 2.34375 -5.234375 2.34375 -4.390625 C 2.34375 -3.546875 2.640625 -2.816406 3.234375 -2.203125 C 3.816406 -1.578125 4.535156 -1.265625 5.390625 -1.265625 C 5.953125 -1.265625 6.472656 -1.410156 6.953125 -1.703125 C 7.421875 -1.992188 7.785156 -2.382812 8.046875 -2.875 L 9.625 -2.875 C 9.132812 -1.46875 8.1875 -0.523438 6.78125 -0.046875 C 6.332031 0.117188 5.832031 0.203125 5.28125 0.203125 C 4.71875 0.203125 4.164062 0.0703125 3.625 -0.1875 C 3.070312 -0.425781 2.597656 -0.753906 2.203125 -1.171875 C 1.335938 -2.078125 0.90625 -3.148438 0.90625 -4.390625 C 0.90625 -5.648438 1.335938 -6.722656 2.203125 -7.609375 C 3.078125 -8.515625 4.140625 -8.96875 5.390625 -8.96875 C 6.410156 -8.96875 7.328125 -8.65625 8.140625 -8.03125 C 8.910156 -7.4375 9.4375 -6.640625 9.71875 -5.640625 Z M 9.71875 -5.640625 "/></g></g></g><g fill="#ffffff" fill-opacity="1"><g transform="translate(352.860264, 239.831532)"><g><path d="M 2.921875 -11.828125 C 3.085938 -11.660156 3.171875 -11.457031 3.171875 -11.21875 C 3.171875 -10.957031 3.085938 -10.742188 2.921875 -10.578125 C 2.742188 -10.398438 2.535156 -10.3125 2.296875 -10.3125 C 2.046875 -10.3125 1.832031 -10.398438 1.65625 -10.578125 C 1.488281 -10.742188 1.40625 -10.957031 1.40625 -11.21875 C 1.40625 -11.457031 1.488281 -11.660156 1.65625 -11.828125 C 1.832031 -12.003906 2.046875 -12.09375 2.296875 -12.09375 C 2.535156 -12.09375 2.742188 -12.003906 2.921875 -11.828125 Z M 3 0 L 1.59375 0 L 1.59375 -8.796875 L 3 -8.796875 Z M 3 0 "/></g></g></g><g fill="#ffffff" fill-opacity="1"><g transform="translate(357.435317, 239.831532)"><g><path d="M 6.21875 -13.6875 L 5.015625 -13.6875 C 4.546875 -13.6875 4.238281 -13.582031 4.09375 -13.375 C 3.945312 -13.15625 3.875 -12.894531 3.875 -12.59375 L 3.875 -8.796875 L 6.21875 -8.796875 L 6.21875 -7.5 L 3.875 -7.5 L 3.875 0 L 2.484375 0 L 2.484375 -7.5 L 0.703125 -7.5 L 0.703125 -8.796875 L 2.484375 -8.796875 L 2.484375 -12.1875 C 2.484375 -13.082031 2.695312 -13.773438 3.125 -14.265625 C 3.53125 -14.742188 4.226562 -14.984375 5.21875 -14.984375 L 6.21875 -14.984375 Z M 6.21875 -13.6875 "/></g></g></g><g fill="#ffffff" fill-opacity="1"><g transform="translate(364.247948, 239.831532)"><g><path d="M 2.921875 -11.828125 C 3.085938 -11.660156 3.171875 -11.457031 3.171875 -11.21875 C 3.171875 -10.957031 3.085938 -10.742188 2.921875 -10.578125 C 2.742188 -10.398438 2.535156 -10.3125 2.296875 -10.3125 C 2.046875 -10.3125 1.832031 -10.398438 1.65625 -10.578125 C 1.488281 -10.742188 1.40625 -10.957031 1.40625 -11.21875 C 1.40625 -11.457031 1.488281 -11.660156 1.65625 -11.828125 C 1.832031 -12.003906 2.046875 -12.09375 2.296875 -12.09375 C 2.535156 -12.09375 2.742188 -12.003906 2.921875 -11.828125 Z M 3 0 L 1.59375 0 L 1.59375 -8.796875 L 3 -8.796875 Z M 3 0 "/></g></g></g><g fill="#ffffff" fill-opacity="1"><g transform="translate(368.823001, 239.831532)"><g><path d="M 9.71875 -5.640625 L 8.1875 -5.640625 C 7.945312 -6.191406 7.578125 -6.644531 7.078125 -7 C 6.566406 -7.34375 6.050781 -7.515625 5.53125 -7.515625 C 5.007812 -7.515625 4.566406 -7.4375 4.203125 -7.28125 C 3.828125 -7.101562 3.503906 -6.875 3.234375 -6.59375 C 2.640625 -5.96875 2.34375 -5.234375 2.34375 -4.390625 C 2.34375 -3.546875 2.640625 -2.816406 3.234375 -2.203125 C 3.816406 -1.578125 4.535156 -1.265625 5.390625 -1.265625 C 5.953125 -1.265625 6.472656 -1.410156 6.953125 -1.703125 C 7.421875 -1.992188 7.785156 -2.382812 8.046875 -2.875 L 9.625 -2.875 C 9.132812 -1.46875 8.1875 -0.523438 6.78125 -0.046875 C 6.332031 0.117188 5.832031 0.203125 5.28125 0.203125 C 4.71875 0.203125 4.164062 0.0703125 3.625 -0.1875 C 3.070312 -0.425781 2.597656 -0.753906 2.203125 -1.171875 C 1.335938 -2.078125 0.90625 -3.148438 0.90625 -4.390625 C 0.90625 -5.648438 1.335938 -6.722656 2.203125 -7.609375 C 3.078125 -8.515625 4.140625 -8.96875 5.390625 -8.96875 C 6.410156 -8.96875 7.328125 -8.65625 8.140625 -8.03125 C 8.910156 -7.4375 9.4375 -6.640625 9.71875 -5.640625 Z M 9.71875 -5.640625 "/></g></g></g><g fill="#ffffff" fill-opacity="1"><g transform="translate(379.231733, 239.831532)"><g><path d="M 8.5 -4.390625 C 8.5 -5.242188 8.203125 -5.992188 7.609375 -6.640625 C 7.015625 -7.273438 6.273438 -7.59375 5.390625 -7.59375 C 4.515625 -7.59375 3.785156 -7.273438 3.203125 -6.640625 C 2.597656 -5.992188 2.296875 -5.242188 2.296875 -4.390625 C 2.296875 -3.546875 2.597656 -2.800781 3.203125 -2.15625 C 3.785156 -1.519531 4.515625 -1.203125 5.390625 -1.203125 C 6.273438 -1.203125 7.015625 -1.519531 7.609375 -2.15625 C 8.203125 -2.800781 8.5 -3.546875 8.5 -4.390625 Z M 9.890625 0 L 8.5 0 L 8.5 -1.5 C 8.414062 -1.394531 8.332031 -1.296875 8.25 -1.203125 C 7.414062 -0.265625 6.390625 0.203125 5.171875 0.203125 C 3.960938 0.203125 2.945312 -0.265625 2.125 -1.203125 C 1.3125 -2.109375 0.90625 -3.171875 0.90625 -4.390625 C 0.90625 -5.617188 1.3125 -6.6875 2.125 -7.59375 C 2.945312 -8.53125 3.960938 -9 5.171875 -9 C 6.390625 -9 7.414062 -8.53125 8.25 -7.59375 C 8.332031 -7.5 8.414062 -7.398438 8.5 -7.296875 L 8.5 -8.796875 L 9.890625 -8.796875 Z M 9.890625 0 "/></g></g></g><g fill="#ffffff" fill-opacity="1"><g transform="translate(390.619406, 239.831532)"><g><path d="M 0.40625 -7.5 L 0.40625 -8.796875 L 2.59375 -8.796875 L 2.59375 -12.203125 L 4 -12.203125 L 4 -8.796875 L 6.171875 -8.796875 L 6.171875 -7.5 L 4 -7.5 L 4 0 L 2.59375 0 L 2.59375 -7.5 Z M 0.40625 -7.5 "/></g></g></g><g fill="#ffffff" fill-opacity="1"><g transform="translate(397.192288, 239.831532)"><g><path d="M 2.921875 -11.828125 C 3.085938 -11.660156 3.171875 -11.457031 3.171875 -11.21875 C 3.171875 -10.957031 3.085938 -10.742188 2.921875 -10.578125 C 2.742188 -10.398438 2.535156 -10.3125 2.296875 -10.3125 C 2.046875 -10.3125 1.832031 -10.398438 1.65625 -10.578125 C 1.488281 -10.742188 1.40625 -10.957031 1.40625 -11.21875 C 1.40625 -11.457031 1.488281 -11.660156 1.65625 -11.828125 C 1.832031 -12.003906 2.046875 -12.09375 2.296875 -12.09375 C 2.535156 -12.09375 2.742188 -12.003906 2.921875 -11.828125 Z M 3 0 L 1.59375 0 L 1.59375 -8.796875 L 3 -8.796875 Z M 3 0 "/></g></g></g><g fill="#ffffff" fill-opacity="1"><g transform="translate(401.767341, 239.831532)"><g><path d="M 8.6875 -4.4375 C 8.6875 -5.3125 8.375 -6.0625 7.75 -6.6875 C 7.125 -7.320312 6.375 -7.640625 5.5 -7.640625 C 4.613281 -7.640625 3.859375 -7.320312 3.234375 -6.6875 C 2.609375 -6.0625 2.296875 -5.3125 2.296875 -4.4375 C 2.296875 -3.570312 2.609375 -2.828125 3.234375 -2.203125 C 3.859375 -1.578125 4.613281 -1.265625 5.5 -1.265625 C 6.375 -1.265625 7.125 -1.578125 7.75 -2.203125 C 8.375 -2.828125 8.6875 -3.570312 8.6875 -4.4375 Z M 10.09375 -4.4375 C 10.09375 -3.15625 9.644531 -2.078125 8.75 -1.203125 C 7.832031 -0.304688 6.75 0.140625 5.5 0.140625 C 4.25 0.140625 3.171875 -0.304688 2.265625 -1.203125 C 1.359375 -2.078125 0.90625 -3.15625 0.90625 -4.4375 C 0.90625 -5.695312 1.359375 -6.78125 2.265625 -7.6875 C 3.148438 -8.582031 4.226562 -9.03125 5.5 -9.03125 C 6.757812 -9.03125 7.84375 -8.582031 8.75 -7.6875 C 9.644531 -6.78125 10.09375 -5.695312 10.09375 -4.4375 Z M 10.09375 -4.4375 "/></g></g></g><g fill="#ffffff" fill-opacity="1"><g transform="translate(412.755454, 239.831532)"><g><path d="M 7.578125 0 L 7.578125 -5.5 C 7.578125 -6.070312 7.445312 -6.5625 7.1875 -6.96875 C 6.925781 -7.375 6.492188 -7.578125 5.890625 -7.578125 C 5.296875 -7.578125 4.8125 -7.460938 4.4375 -7.234375 C 4.0625 -7.003906 3.757812 -6.710938 3.53125 -6.359375 C 3.101562 -5.691406 2.890625 -4.796875 2.890625 -3.671875 L 2.890625 0 L 1.5 0 L 1.5 -8.796875 L 2.890625 -8.796875 L 2.890625 -7.28125 C 3.191406 -7.769531 3.566406 -8.175781 4.015625 -8.5 C 4.492188 -8.8125 5.046875 -8.96875 5.671875 -8.96875 C 6.296875 -8.96875 6.800781 -8.882812 7.1875 -8.71875 C 7.582031 -8.53125 7.910156 -8.28125 8.171875 -7.96875 C 8.703125 -7.34375 8.96875 -6.519531 8.96875 -5.5 L 8.96875 0 Z M 7.578125 0 "/></g></g></g><g fill="#ffffff" fill-opacity="1"><g transform="translate(422.924448, 239.831532)"><g><path d="M 2.78125 -1.265625 C 3.125 -1.023438 3.578125 -0.90625 4.140625 -0.90625 C 5.421875 -0.90625 6.0625 -1.382812 6.0625 -2.34375 C 6.0625 -2.894531 5.597656 -3.320312 4.671875 -3.625 C 4.285156 -3.75 3.875 -3.867188 3.4375 -3.984375 C 2.988281 -4.085938 2.566406 -4.222656 2.171875 -4.390625 C 1.722656 -4.609375 1.382812 -4.878906 1.15625 -5.203125 C 0.925781 -5.515625 0.8125 -5.890625 0.8125 -6.328125 C 0.8125 -7.210938 1.117188 -7.875 1.734375 -8.3125 C 2.347656 -8.769531 3.082031 -9 3.9375 -9 C 4.789062 -9 5.5 -8.820312 6.0625 -8.46875 C 6.613281 -8.125 6.988281 -7.503906 7.1875 -6.609375 L 5.703125 -6.609375 C 5.535156 -7.109375 5.300781 -7.4375 5 -7.59375 C 4.707031 -7.75 4.335938 -7.828125 3.890625 -7.828125 C 3.453125 -7.828125 3.082031 -7.734375 2.78125 -7.546875 C 2.457031 -7.347656 2.296875 -7.054688 2.296875 -6.671875 C 2.296875 -6.273438 2.429688 -5.984375 2.703125 -5.796875 C 2.953125 -5.617188 3.269531 -5.460938 3.65625 -5.328125 C 4.039062 -5.210938 4.460938 -5.109375 4.921875 -5.015625 C 5.359375 -4.910156 5.773438 -4.765625 6.171875 -4.578125 C 7.078125 -4.148438 7.53125 -3.460938 7.53125 -2.515625 C 7.53125 -1.566406 7.191406 -0.867188 6.515625 -0.421875 C 6.171875 -0.191406 5.789062 -0.0195312 5.375 0.09375 C 4.976562 0.207031 4.539062 0.265625 4.0625 0.265625 C 2.019531 0.265625 0.847656 -0.640625 0.546875 -2.453125 L 2.015625 -2.453125 C 2.160156 -1.878906 2.414062 -1.484375 2.78125 -1.265625 Z M 2.78125 -1.265625 "/></g></g></g><path fill="#ffffff" d="M 297.21875 261.566406 C 297.21875 261.964844 297.144531 262.347656 296.992188 262.714844 C 296.839844 263.082031 296.621094 263.40625 296.339844 263.6875 C 296.0625 263.96875 295.738281 264.183594 295.371094 264.335938 C 295 264.488281 294.621094 264.566406 294.222656 264.566406 C 293.824219 264.566406 293.441406 264.488281 293.074219 264.335938 C 292.707031 264.183594 292.382812 263.96875 292.101562 263.6875 C 291.820312 263.40625 291.605469 263.082031 291.453125 262.714844 C 291.300781 262.347656 291.222656 261.964844 291.222656 261.566406 C 291.222656 261.167969 291.300781 260.785156 291.453125 260.417969 C 291.605469 260.050781 291.820312 259.726562 292.101562 259.445312 C 292.382812 259.164062 292.707031 258.949219 293.074219 258.796875 C 293.441406 258.644531 293.824219 258.570312 294.222656 258.570312 C 294.621094 258.570312 295 258.644531 295.371094 258.796875 C 295.738281 258.949219 296.0625 259.164062 296.339844 259.445312 C 296.621094 259.726562 296.839844 260.050781 296.992188 260.417969 C 297.144531 260.785156 297.21875 261.167969 297.21875 261.566406 Z M 297.21875 261.566406 " fill-opacity="1" fill-rule="nonzero"/><g fill="#ffffff" fill-opacity="1"><g transform="translate(308.708052, 267.562471)"><g><path d="M 2.890625 0 L 1.5 0 L 1.5 -13.59375 L 2.890625 -13.59375 Z M 2.890625 0 "/></g></g></g><g fill="#ffffff" fill-opacity="1"><g transform="translate(313.103293, 267.562471)"><g><path d="M 7.578125 0 L 7.578125 -5.5 C 7.578125 -6.070312 7.445312 -6.5625 7.1875 -6.96875 C 6.925781 -7.375 6.492188 -7.578125 5.890625 -7.578125 C 5.296875 -7.578125 4.8125 -7.460938 4.4375 -7.234375 C 4.0625 -7.003906 3.757812 -6.710938 3.53125 -6.359375 C 3.101562 -5.691406 2.890625 -4.796875 2.890625 -3.671875 L 2.890625 0 L 1.5 0 L 1.5 -8.796875 L 2.890625 -8.796875 L 2.890625 -7.28125 C 3.191406 -7.769531 3.566406 -8.175781 4.015625 -8.5 C 4.492188 -8.8125 5.046875 -8.96875 5.671875 -8.96875 C 6.296875 -8.96875 6.800781 -8.882812 7.1875 -8.71875 C 7.582031 -8.53125 7.910156 -8.28125 8.171875 -7.96875 C 8.703125 -7.34375 8.96875 -6.519531 8.96875 -5.5 L 8.96875 0 Z M 7.578125 0 "/></g></g></g><g fill="#ffffff" fill-opacity="1"><g transform="translate(323.272287, 267.562471)"><g><path d="M 2.78125 -1.265625 C 3.125 -1.023438 3.578125 -0.90625 4.140625 -0.90625 C 5.421875 -0.90625 6.0625 -1.382812 6.0625 -2.34375 C 6.0625 -2.894531 5.597656 -3.320312 4.671875 -3.625 C 4.285156 -3.75 3.875 -3.867188 3.4375 -3.984375 C 2.988281 -4.085938 2.566406 -4.222656 2.171875 -4.390625 C 1.722656 -4.609375 1.382812 -4.878906 1.15625 -5.203125 C 0.925781 -5.515625 0.8125 -5.890625 0.8125 -6.328125 C 0.8125 -7.210938 1.117188 -7.875 1.734375 -8.3125 C 2.347656 -8.769531 3.082031 -9 3.9375 -9 C 4.789062 -9 5.5 -8.820312 6.0625 -8.46875 C 6.613281 -8.125 6.988281 -7.503906 7.1875 -6.609375 L 5.703125 -6.609375 C 5.535156 -7.109375 5.300781 -7.4375 5 -7.59375 C 4.707031 -7.75 4.335938 -7.828125 3.890625 -7.828125 C 3.453125 -7.828125 3.082031 -7.734375 2.78125 -7.546875 C 2.457031 -7.347656 2.296875 -7.054688 2.296875 -6.671875 C 2.296875 -6.273438 2.429688 -5.984375 2.703125 -5.796875 C 2.953125 -5.617188 3.269531 -5.460938 3.65625 -5.328125 C 4.039062 -5.210938 4.460938 -5.109375 4.921875 -5.015625 C 5.359375 -4.910156 5.773438 -4.765625 6.171875 -4.578125 C 7.078125 -4.148438 7.53125 -3.460938 7.53125 -2.515625 C 7.53125 -1.566406 7.191406 -0.867188 6.515625 -0.421875 C 6.171875 -0.191406 5.789062 -0.0195312 5.375 0.09375 C 4.976562 0.207031 4.539062 0.265625 4.0625 0.265625 C 2.019531 0.265625 0.847656 -0.640625 0.546875 -2.453125 L 2.015625 -2.453125 C 2.160156 -1.878906 2.414062 -1.484375 2.78125 -1.265625 Z M 2.78125 -1.265625 "/></g></g></g><g fill="#ffffff" fill-opacity="1"><g transform="translate(331.303598, 267.562471)"><g><path d="M 2.890625 5 L 1.5 5 L 1.5 -8.796875 L 2.890625 -8.796875 L 2.890625 -7.296875 C 2.972656 -7.398438 3.0625 -7.5 3.15625 -7.59375 C 3.976562 -8.53125 5 -9 6.21875 -9 C 7.425781 -9 8.453125 -8.53125 9.296875 -7.59375 C 10.085938 -6.6875 10.484375 -5.617188 10.484375 -4.390625 C 10.484375 -3.171875 10.085938 -2.109375 9.296875 -1.203125 C 8.453125 -0.265625 7.425781 0.203125 6.21875 0.203125 C 5 0.203125 3.976562 -0.265625 3.15625 -1.203125 C 3.0625 -1.296875 2.972656 -1.394531 2.890625 -1.5 Z M 9.09375 -4.390625 C 9.09375 -5.242188 8.800781 -5.992188 8.21875 -6.640625 C 7.613281 -7.273438 6.875 -7.59375 6 -7.59375 C 5.113281 -7.59375 4.378906 -7.273438 3.796875 -6.640625 C 3.191406 -5.992188 2.890625 -5.242188 2.890625 -4.390625 C 2.890625 -3.546875 3.191406 -2.800781 3.796875 -2.15625 C 4.378906 -1.519531 5.113281 -1.203125 6 -1.203125 C 6.875 -1.203125 7.613281 -1.519531 8.21875 -2.15625 C 8.800781 -2.800781 9.09375 -3.546875 9.09375 -4.390625 Z M 9.09375 -4.390625 "/></g></g></g><g fill="#ffffff" fill-opacity="1"><g transform="translate(342.69127, 267.562471)"><g><path d="M 10.09375 -4.59375 L 10.09375 -3.859375 L 2.359375 -3.859375 C 2.492188 -3.097656 2.859375 -2.476562 3.453125 -2 C 4.066406 -1.507812 4.75 -1.265625 5.5 -1.265625 C 6 -1.265625 6.484375 -1.382812 6.953125 -1.625 C 7.410156 -1.84375 7.789062 -2.160156 8.09375 -2.578125 L 9.6875 -2.578125 C 9.320312 -1.734375 8.765625 -1.070312 8.015625 -0.59375 C 7.253906 -0.101562 6.488281 0.140625 5.71875 0.140625 C 4.925781 0.140625 4.257812 0.0195312 3.71875 -0.21875 C 3.15625 -0.457031 2.671875 -0.785156 2.265625 -1.203125 C 1.359375 -2.078125 0.90625 -3.15625 0.90625 -4.4375 C 0.90625 -5.695312 1.359375 -6.78125 2.265625 -7.6875 C 3.148438 -8.582031 4.226562 -9.03125 5.5 -9.03125 C 6.71875 -9.03125 7.789062 -8.597656 8.71875 -7.734375 C 9.632812 -6.859375 10.09375 -5.8125 10.09375 -4.59375 Z M 8.609375 -5.0625 C 8.453125 -5.800781 8.082031 -6.421875 7.5 -6.921875 C 6.90625 -7.398438 6.238281 -7.640625 5.5 -7.640625 C 4.351562 -7.640625 3.453125 -7.125 2.796875 -6.09375 C 2.597656 -5.769531 2.457031 -5.425781 2.375 -5.0625 Z M 8.609375 -5.0625 "/></g></g></g><g fill="#ffffff" fill-opacity="1"><g transform="translate(353.579489, 267.562471)"><g><path d="M 9.71875 -5.640625 L 8.1875 -5.640625 C 7.945312 -6.191406 7.578125 -6.644531 7.078125 -7 C 6.566406 -7.34375 6.050781 -7.515625 5.53125 -7.515625 C 5.007812 -7.515625 4.566406 -7.4375 4.203125 -7.28125 C 3.828125 -7.101562 3.503906 -6.875 3.234375 -6.59375 C 2.640625 -5.96875 2.34375 -5.234375 2.34375 -4.390625 C 2.34375 -3.546875 2.640625 -2.816406 3.234375 -2.203125 C 3.816406 -1.578125 4.535156 -1.265625 5.390625 -1.265625 C 5.953125 -1.265625 6.472656 -1.410156 6.953125 -1.703125 C 7.421875 -1.992188 7.785156 -2.382812 8.046875 -2.875 L 9.625 -2.875 C 9.132812 -1.46875 8.1875 -0.523438 6.78125 -0.046875 C 6.332031 0.117188 5.832031 0.203125 5.28125 0.203125 C 4.71875 0.203125 4.164062 0.0703125 3.625 -0.1875 C 3.070312 -0.425781 2.597656 -0.753906 2.203125 -1.171875 C 1.335938 -2.078125 0.90625 -3.148438 0.90625 -4.390625 C 0.90625 -5.648438 1.335938 -6.722656 2.203125 -7.609375 C 3.078125 -8.515625 4.140625 -8.96875 5.390625 -8.96875 C 6.410156 -8.96875 7.328125 -8.65625 8.140625 -8.03125 C 8.910156 -7.4375 9.4375 -6.640625 9.71875 -5.640625 Z M 9.71875 -5.640625 "/></g></g></g><g fill="#ffffff" fill-opacity="1"><g transform="translate(363.98822, 267.562471)"><g><path d="M 0.40625 -7.5 L 0.40625 -8.796875 L 2.59375 -8.796875 L 2.59375 -12.203125 L 4 -12.203125 L 4 -8.796875 L 6.171875 -8.796875 L 6.171875 -7.5 L 4 -7.5 L 4 0 L 2.59375 0 L 2.59375 -7.5 Z M 0.40625 -7.5 "/></g></g></g><g fill="#ffffff" fill-opacity="1"><g transform="translate(370.561102, 267.562471)"><g><path d="M 2.921875 -11.828125 C 3.085938 -11.660156 3.171875 -11.457031 3.171875 -11.21875 C 3.171875 -10.957031 3.085938 -10.742188 2.921875 -10.578125 C 2.742188 -10.398438 2.535156 -10.3125 2.296875 -10.3125 C 2.046875 -10.3125 1.832031 -10.398438 1.65625 -10.578125 C 1.488281 -10.742188 1.40625 -10.957031 1.40625 -11.21875 C 1.40625 -11.457031 1.488281 -11.660156 1.65625 -11.828125 C 1.832031 -12.003906 2.046875 -12.09375 2.296875 -12.09375 C 2.535156 -12.09375 2.742188 -12.003906 2.921875 -11.828125 Z M 3 0 L 1.59375 0 L 1.59375 -8.796875 L 3 -8.796875 Z M 3 0 "/></g></g></g><g fill="#ffffff" fill-opacity="1"><g transform="translate(375.136155, 267.562471)"><g><path d="M 8.6875 -4.4375 C 8.6875 -5.3125 8.375 -6.0625 7.75 -6.6875 C 7.125 -7.320312 6.375 -7.640625 5.5 -7.640625 C 4.613281 -7.640625 3.859375 -7.320312 3.234375 -6.6875 C 2.609375 -6.0625 2.296875 -5.3125 2.296875 -4.4375 C 2.296875 -3.570312 2.609375 -2.828125 3.234375 -2.203125 C 3.859375 -1.578125 4.613281 -1.265625 5.5 -1.265625 C 6.375 -1.265625 7.125 -1.578125 7.75 -2.203125 C 8.375 -2.828125 8.6875 -3.570312 8.6875 -4.4375 Z M 10.09375 -4.4375 C 10.09375 -3.15625 9.644531 -2.078125 8.75 -1.203125 C 7.832031 -0.304688 6.75 0.140625 5.5 0.140625 C 4.25 0.140625 3.171875 -0.304688 2.265625 -1.203125 C 1.359375 -2.078125 0.90625 -3.15625 0.90625 -4.4375 C 0.90625 -5.695312 1.359375 -6.78125 2.265625 -7.6875 C 3.148438 -8.582031 4.226562 -9.03125 5.5 -9.03125 C 6.757812 -9.03125 7.84375 -8.582031 8.75 -7.6875 C 9.644531 -6.78125 10.09375 -5.695312 10.09375 -4.4375 Z M 10.09375 -4.4375 "/></g></g></g><g fill="#ffffff" fill-opacity="1"><g transform="translate(386.124269, 267.562471)"><g><path d="M 7.578125 0 L 7.578125 -5.5 C 7.578125 -6.070312 7.445312 -6.5625 7.1875 -6.96875 C 6.925781 -7.375 6.492188 -7.578125 5.890625 -7.578125 C 5.296875 -7.578125 4.8125 -7.460938 4.4375 -7.234375 C 4.0625 -7.003906 3.757812 -6.710938 3.53125 -6.359375 C 3.101562 -5.691406 2.890625 -4.796875 2.890625 -3.671875 L 2.890625 0 L 1.5 0 L 1.5 -8.796875 L 2.890625 -8.796875 L 2.890625 -7.28125 C 3.191406 -7.769531 3.566406 -8.175781 4.015625 -8.5 C 4.492188 -8.8125 5.046875 -8.96875 5.671875 -8.96875 C 6.296875 -8.96875 6.800781 -8.882812 7.1875 -8.71875 C 7.582031 -8.53125 7.910156 -8.28125 8.171875 -7.96875 C 8.703125 -7.34375 8.96875 -6.519531 8.96875 -5.5 L 8.96875 0 Z M 7.578125 0 "/></g></g></g><path fill="#ffffff" d="M 297.21875 289.296875 C 297.21875 289.695312 297.144531 290.078125 296.992188 290.445312 C 296.839844 290.8125 296.621094 291.136719 296.339844 291.417969 C 296.0625 291.699219 295.738281 291.914062 295.371094 292.066406 C 295 292.21875 294.621094 292.296875 294.222656 292.296875 C 293.824219 292.296875 293.441406 292.21875 293.074219 292.066406 C 292.707031 291.914062 292.382812 291.699219 292.101562 291.417969 C 291.820312 291.136719 291.605469 290.8125 291.453125 290.445312 C 291.300781 290.078125 291.222656 289.695312 291.222656 289.296875 C 291.222656 288.898438 291.300781 288.515625 291.453125 288.148438 C 291.605469 287.78125 291.820312 287.457031 292.101562 287.175781 C 292.382812 286.898438 292.707031 286.679688 293.074219 286.527344 C 293.441406 286.375 293.824219 286.300781 294.222656 286.300781 C 294.621094 286.300781 295 286.375 295.371094 286.527344 C 295.738281 286.679688 296.0625 286.898438 296.339844 287.175781 C 296.621094 287.457031 296.839844 287.78125 296.992188 288.148438 C 297.144531 288.515625 297.21875 288.898438 297.21875 289.296875 Z M 297.21875 289.296875 " fill-opacity="1" fill-rule="nonzero"/><g fill="#ffffff" fill-opacity="1"><g transform="translate(308.708052, 295.29341)"><g><path d="M 14.875 -6.78125 C 14.875 -5.8125 14.691406 -4.910156 14.328125 -4.078125 C 13.953125 -3.222656 13.453125 -2.484375 12.828125 -1.859375 C 12.410156 -1.441406 11.953125 -1.085938 11.453125 -0.796875 C 12.015625 -0.921875 12.539062 -1.035156 13.03125 -1.140625 L 15.0625 -1.140625 L 15.0625 0 L 9.546875 0 C 9.003906 0.132812 8.445312 0.203125 7.875 0.203125 C 6.914062 0.203125 6.015625 0.015625 5.171875 -0.359375 C 4.316406 -0.722656 3.578125 -1.222656 2.953125 -1.859375 C 2.316406 -2.484375 1.816406 -3.222656 1.453125 -4.078125 C 1.085938 -4.910156 0.90625 -5.8125 0.90625 -6.78125 C 0.90625 -7.738281 1.085938 -8.644531 1.453125 -9.5 C 1.816406 -10.34375 2.316406 -11.085938 2.953125 -11.734375 C 3.578125 -12.359375 4.316406 -12.859375 5.171875 -13.234375 C 6.015625 -13.585938 6.914062 -13.765625 7.875 -13.765625 C 8.832031 -13.765625 9.738281 -13.585938 10.59375 -13.234375 C 11.445312 -12.859375 12.191406 -12.359375 12.828125 -11.734375 C 13.453125 -11.085938 13.953125 -10.34375 14.328125 -9.5 C 14.691406 -8.644531 14.875 -7.738281 14.875 -6.78125 Z M 13.46875 -6.78125 C 13.46875 -8.320312 12.921875 -9.640625 11.828125 -10.734375 C 10.734375 -11.828125 9.414062 -12.375 7.875 -12.375 C 6.34375 -12.375 5.03125 -11.828125 3.9375 -10.734375 C 2.84375 -9.640625 2.296875 -8.320312 2.296875 -6.78125 C 2.296875 -5.238281 2.84375 -3.925781 3.9375 -2.84375 C 5.03125 -1.75 6.34375 -1.203125 7.875 -1.203125 C 9.414062 -1.203125 10.734375 -1.75 11.828125 -2.84375 C 12.921875 -3.925781 13.46875 -5.238281 13.46875 -6.78125 Z M 13.46875 -6.78125 "/></g></g></g><g fill="#ffffff" fill-opacity="1"><g transform="translate(324.371103, 295.29341)"><g><path d="M 7.578125 -1.5 C 6.921875 -0.375 5.941406 0.1875 4.640625 0.1875 C 3.648438 0.1875 2.875 -0.140625 2.3125 -0.796875 C 1.769531 -1.453125 1.5 -2.285156 1.5 -3.296875 L 1.5 -8.796875 L 2.890625 -8.796875 L 2.890625 -3.296875 C 2.890625 -2.722656 3.023438 -2.238281 3.296875 -1.84375 C 3.546875 -1.425781 3.972656 -1.21875 4.578125 -1.21875 C 5.671875 -1.21875 6.441406 -1.566406 6.890625 -2.265625 C 7.347656 -2.941406 7.578125 -3.890625 7.578125 -5.109375 L 7.578125 -8.796875 L 8.96875 -8.796875 L 8.96875 0 L 7.578125 0 Z M 7.578125 -1.5 "/></g></g></g><g fill="#ffffff" fill-opacity="1"><g transform="translate(334.540097, 295.29341)"><g><path d="M 8.5 -4.390625 C 8.5 -5.242188 8.203125 -5.992188 7.609375 -6.640625 C 7.015625 -7.273438 6.273438 -7.59375 5.390625 -7.59375 C 4.515625 -7.59375 3.785156 -7.273438 3.203125 -6.640625 C 2.597656 -5.992188 2.296875 -5.242188 2.296875 -4.390625 C 2.296875 -3.546875 2.597656 -2.800781 3.203125 -2.15625 C 3.785156 -1.519531 4.515625 -1.203125 5.390625 -1.203125 C 6.273438 -1.203125 7.015625 -1.519531 7.609375 -2.15625 C 8.203125 -2.800781 8.5 -3.546875 8.5 -4.390625 Z M 9.890625 0 L 8.5 0 L 8.5 -1.5 C 8.414062 -1.394531 8.332031 -1.296875 8.25 -1.203125 C 7.414062 -0.265625 6.390625 0.203125 5.171875 0.203125 C 3.960938 0.203125 2.945312 -0.265625 2.125 -1.203125 C 1.3125 -2.109375 0.90625 -3.171875 0.90625 -4.390625 C 0.90625 -5.617188 1.3125 -6.6875 2.125 -7.59375 C 2.945312 -8.53125 3.960938 -9 5.171875 -9 C 6.390625 -9 7.414062 -8.53125 8.25 -7.59375 C 8.332031 -7.5 8.414062 -7.398438 8.5 -7.296875 L 8.5 -8.796875 L 9.890625 -8.796875 Z M 9.890625 0 "/></g></g></g><g fill="#ffffff" fill-opacity="1"><g transform="translate(345.927769, 295.29341)"><g><path d="M 2.890625 0 L 1.5 0 L 1.5 -14.984375 L 2.890625 -14.984375 Z M 2.890625 0 "/></g></g></g><g fill="#ffffff" fill-opacity="1"><g transform="translate(350.32301, 295.29341)"><g><path d="M 2.921875 -11.828125 C 3.085938 -11.660156 3.171875 -11.457031 3.171875 -11.21875 C 3.171875 -10.957031 3.085938 -10.742188 2.921875 -10.578125 C 2.742188 -10.398438 2.535156 -10.3125 2.296875 -10.3125 C 2.046875 -10.3125 1.832031 -10.398438 1.65625 -10.578125 C 1.488281 -10.742188 1.40625 -10.957031 1.40625 -11.21875 C 1.40625 -11.457031 1.488281 -11.660156 1.65625 -11.828125 C 1.832031 -12.003906 2.046875 -12.09375 2.296875 -12.09375 C 2.535156 -12.09375 2.742188 -12.003906 2.921875 -11.828125 Z M 3 0 L 1.59375 0 L 1.59375 -8.796875 L 3 -8.796875 Z M 3 0 "/></g></g></g><g fill="#ffffff" fill-opacity="1"><g transform="translate(354.898063, 295.29341)"><g><path d="M 0.40625 -7.5 L 0.40625 -8.796875 L 2.59375 -8.796875 L 2.59375 -12.203125 L 4 -12.203125 L 4 -8.796875 L 6.171875 -8.796875 L 6.171875 -7.5 L 4 -7.5 L 4 0 L 2.59375 0 L 2.59375 -7.5 Z M 0.40625 -7.5 "/></g></g></g><g fill="#ffffff" fill-opacity="1"><g transform="translate(361.470945, 295.29341)"><g><path d="M 2.625 5 L 0.921875 5 L 3.875 -1.4375 L 0.203125 -8.796875 L 1.796875 -8.796875 L 4.609375 -2.890625 L 7.140625 -8.796875 L 8.6875 -8.796875 Z M 2.625 5 "/></g></g></g><g fill="#ffffff" fill-opacity="1"><g transform="translate(369.961752, 295.29341)"><g/></g></g><g fill="#ffffff" fill-opacity="1"><g transform="translate(375.355914, 295.29341)"><g><path d="M 13.96875 -4.15625 C 13.457031 -2.851562 12.628906 -1.804688 11.484375 -1.015625 C 10.328125 -0.203125 9.054688 0.203125 7.671875 0.203125 C 5.796875 0.203125 4.191406 -0.488281 2.859375 -1.875 C 1.554688 -3.238281 0.90625 -4.875 0.90625 -6.78125 C 0.90625 -7.71875 1.078125 -8.613281 1.421875 -9.46875 C 1.765625 -10.3125 2.242188 -11.050781 2.859375 -11.6875 C 4.191406 -13.070312 5.796875 -13.765625 7.671875 -13.765625 C 9.054688 -13.765625 10.320312 -13.375 11.46875 -12.59375 C 12.613281 -11.789062 13.441406 -10.742188 13.953125 -9.453125 L 12.40625 -9.453125 C 11.675781 -10.796875 10.585938 -11.6875 9.140625 -12.125 C 8.648438 -12.257812 8.09375 -12.328125 7.46875 -12.328125 C 6.84375 -12.328125 6.207031 -12.179688 5.5625 -11.890625 C 4.90625 -11.585938 4.335938 -11.179688 3.859375 -10.671875 C 2.816406 -9.585938 2.296875 -8.289062 2.296875 -6.78125 C 2.296875 -5.269531 2.816406 -3.972656 3.859375 -2.890625 C 4.910156 -1.785156 6.179688 -1.234375 7.671875 -1.234375 C 8.679688 -1.234375 9.613281 -1.5 10.46875 -2.03125 C 11.3125 -2.570312 11.96875 -3.28125 12.4375 -4.15625 Z M 13.96875 -4.15625 "/></g></g></g><g fill="#ffffff" fill-opacity="1"><g transform="translate(389.920148, 295.29341)"><g><path d="M 2.890625 0 L 1.5 0 L 1.5 -14.984375 L 2.890625 -14.984375 L 2.890625 -7.28125 C 3.191406 -7.769531 3.566406 -8.175781 4.015625 -8.5 C 4.492188 -8.8125 5.046875 -8.96875 5.671875 -8.96875 C 6.296875 -8.96875 6.800781 -8.882812 7.1875 -8.71875 C 7.582031 -8.53125 7.910156 -8.28125 8.171875 -7.96875 C 8.703125 -7.34375 8.96875 -6.519531 8.96875 -5.5 L 8.96875 0 L 7.578125 0 L 7.578125 -5.5 C 7.578125 -6.070312 7.445312 -6.5625 7.1875 -6.96875 C 6.925781 -7.375 6.492188 -7.578125 5.890625 -7.578125 C 5.296875 -7.578125 4.8125 -7.484375 4.4375 -7.296875 C 4.0625 -7.097656 3.757812 -6.820312 3.53125 -6.46875 C 3.101562 -5.832031 2.890625 -4.898438 2.890625 -3.671875 Z M 2.890625 0 "/></g></g></g><g fill="#ffffff" fill-opacity="1"><g transform="translate(400.089142, 295.29341)"><g><path d="M 10.09375 -4.59375 L 10.09375 -3.859375 L 2.359375 -3.859375 C 2.492188 -3.097656 2.859375 -2.476562 3.453125 -2 C 4.066406 -1.507812 4.75 -1.265625 5.5 -1.265625 C 6 -1.265625 6.484375 -1.382812 6.953125 -1.625 C 7.410156 -1.84375 7.789062 -2.160156 8.09375 -2.578125 L 9.6875 -2.578125 C 9.320312 -1.734375 8.765625 -1.070312 8.015625 -0.59375 C 7.253906 -0.101562 6.488281 0.140625 5.71875 0.140625 C 4.925781 0.140625 4.257812 0.0195312 3.71875 -0.21875 C 3.15625 -0.457031 2.671875 -0.785156 2.265625 -1.203125 C 1.359375 -2.078125 0.90625 -3.15625 0.90625 -4.4375 C 0.90625 -5.695312 1.359375 -6.78125 2.265625 -7.6875 C 3.148438 -8.582031 4.226562 -9.03125 5.5 -9.03125 C 6.71875 -9.03125 7.789062 -8.597656 8.71875 -7.734375 C 9.632812 -6.859375 10.09375 -5.8125 10.09375 -4.59375 Z M 8.609375 -5.0625 C 8.453125 -5.800781 8.082031 -6.421875 7.5 -6.921875 C 6.90625 -7.398438 6.238281 -7.640625 5.5 -7.640625 C 4.351562 -7.640625 3.453125 -7.125 2.796875 -6.09375 C 2.597656 -5.769531 2.457031 -5.425781 2.375 -5.0625 Z M 8.609375 -5.0625 "/></g></g></g><g fill="#ffffff" fill-opacity="1"><g transform="translate(410.97736, 295.29341)"><g><path d="M 9.71875 -5.640625 L 8.1875 -5.640625 C 7.945312 -6.191406 7.578125 -6.644531 7.078125 -7 C 6.566406 -7.34375 6.050781 -7.515625 5.53125 -7.515625 C 5.007812 -7.515625 4.566406 -7.4375 4.203125 -7.28125 C 3.828125 -7.101562 3.503906 -6.875 3.234375 -6.59375 C 2.640625 -5.96875 2.34375 -5.234375 2.34375 -4.390625 C 2.34375 -3.546875 2.640625 -2.816406 3.234375 -2.203125 C 3.816406 -1.578125 4.535156 -1.265625 5.390625 -1.265625 C 5.953125 -1.265625 6.472656 -1.410156 6.953125 -1.703125 C 7.421875 -1.992188 7.785156 -2.382812 8.046875 -2.875 L 9.625 -2.875 C 9.132812 -1.46875 8.1875 -0.523438 6.78125 -0.046875 C 6.332031 0.117188 5.832031 0.203125 5.28125 0.203125 C 4.71875 0.203125 4.164062 0.0703125 3.625 -0.1875 C 3.070312 -0.425781 2.597656 -0.753906 2.203125 -1.171875 C 1.335938 -2.078125 0.90625 -3.148438 0.90625 -4.390625 C 0.90625 -5.648438 1.335938 -6.722656 2.203125 -7.609375 C 3.078125 -8.515625 4.140625 -8.96875 5.390625 -8.96875 C 6.410156 -8.96875 7.328125 -8.65625 8.140625 -8.03125 C 8.910156 -7.4375 9.4375 -6.640625 9.71875 -5.640625 Z M 9.71875 -5.640625 "/></g></g></g><g fill="#ffffff" fill-opacity="1"><g transform="translate(421.386092, 295.29341)"><g><path d="M 2.890625 0 L 1.5 0 L 1.5 -14.984375 L 2.890625 -14.984375 L 2.890625 -4.859375 L 6.109375 -8.8125 L 7.96875 -8.8125 L 4.359375 -4.53125 L 8.21875 0 L 6.359375 0 L 2.890625 -4.21875 Z M 2.890625 0 "/></g></g></g></svg>