<svg xmlns="http://www.w3.org/2000/svg" xmlns:xlink="http://www.w3.org/1999/xlink" width="957" zoomAndPan="magnify" viewBox="0 0 717.75 363.749991" height="485" preserveAspectRatio="xMidYMid meet" version="1.0"><defs><g/><clipPath id="78b762e138"><path d="M 97.082031 171.882812 L 620.972656 171.882812 L 620.972656 343.828125 L 97.082031 343.828125 Z M 97.082031 171.882812 " clip-rule="nonzero"/></clipPath><clipPath id="cedbd77330"><path d="M 108.324219 171.882812 L 609.175781 171.882812 C 612.160156 171.882812 615.019531 173.070312 617.125 175.175781 C 619.234375 177.285156 620.417969 180.144531 620.417969 183.125 L 620.417969 332.585938 C 620.417969 335.566406 619.234375 338.425781 617.125 340.535156 C 615.019531 342.644531 612.160156 343.828125 609.175781 343.828125 L 108.324219 343.828125 C 105.339844 343.828125 102.480469 342.644531 100.375 340.535156 C 98.265625 338.425781 97.082031 335.566406 97.082031 332.585938 L 97.082031 183.125 C 97.082031 180.144531 98.265625 177.285156 100.375 175.175781 C 102.480469 173.070312 105.339844 171.882812 108.324219 171.882812 Z M 108.324219 171.882812 " clip-rule="nonzero"/></clipPath><clipPath id="f2e91a732a"><path d="M 97.082031 107.71875 L 620.417969 107.71875 L 620.417969 171.882812 L 97.082031 171.882812 Z M 97.082031 107.71875 " clip-rule="nonzero"/></clipPath><clipPath id="997eeaedfd"><path d="M 312.410156 10.253906 L 405.089844 10.253906 L 405.089844 102.9375 L 312.410156 102.9375 Z M 312.410156 10.253906 " clip-rule="nonzero"/></clipPath><clipPath id="3224e70d26"><path d="M 358.75 10.253906 C 333.15625 10.253906 312.410156 31.003906 312.410156 56.597656 C 312.410156 82.191406 333.15625 102.9375 358.75 102.9375 C 384.34375 102.9375 405.089844 82.191406 405.089844 56.597656 C 405.089844 31.003906 384.34375 10.253906 358.75 10.253906 Z M 358.75 10.253906 " clip-rule="nonzero"/></clipPath><clipPath id="30517bcc13"><path d="M 312.410156 10.253906 L 405.085938 10.253906 L 405.085938 102.933594 L 312.410156 102.933594 Z M 312.410156 10.253906 " clip-rule="nonzero"/></clipPath><clipPath id="d2f1db8adb"><path d="M 358.746094 10.253906 C 333.15625 10.253906 312.410156 31 312.410156 56.59375 C 312.410156 82.1875 333.15625 102.933594 358.746094 102.933594 C 384.339844 102.933594 405.085938 82.1875 405.085938 56.59375 C 405.085938 31 384.339844 10.253906 358.746094 10.253906 Z M 358.746094 10.253906 " clip-rule="nonzero"/></clipPath><clipPath id="3f25fc434b"><path d="M 362.996094 49.058594 L 390.175781 49.058594 L 390.175781 81.480469 L 362.996094 81.480469 Z M 362.996094 49.058594 " clip-rule="nonzero"/></clipPath><clipPath id="0dd33cbab4"><path d="M 351 24.324219 L 377 24.324219 L 377 50 L 351 50 Z M 351 24.324219 " clip-rule="nonzero"/></clipPath><clipPath id="0af4ed5988"><path d="M 327.320312 49.191406 L 366.507812 49.191406 L 366.507812 88.777344 L 327.320312 88.777344 Z M 327.320312 49.191406 " clip-rule="nonzero"/></clipPath></defs><g clip-path="url(#78b762e138)"><g clip-path="url(#cedbd77330)"><path fill="#00bf63" d="M 97.082031 171.882812 L 620.300781 171.882812 L 620.300781 343.828125 L 97.082031 343.828125 Z M 97.082031 171.882812 " fill-opacity="1" fill-rule="nonzero"/></g></g><g clip-path="url(#f2e91a732a)"><path fill="#ffffff" d="M 97.082031 107.71875 L 620.441406 107.71875 L 620.441406 171.882812 L 97.082031 171.882812 Z M 97.082031 107.71875 " fill-opacity="1" fill-rule="nonzero"/></g><g fill="#000000" fill-opacity="1"><g transform="translate(330.498387, 148.045038)"><g><path d="M 16.84375 -8.546875 C 16.84375 -10.460938 16.160156 -12.101562 14.796875 -13.46875 C 13.421875 -14.832031 11.769531 -15.515625 9.84375 -15.515625 C 7.925781 -15.515625 6.285156 -14.832031 4.921875 -13.46875 C 3.554688 -12.101562 2.875 -10.460938 2.875 -8.546875 C 2.875 -6.609375 3.554688 -4.957031 4.921875 -3.59375 C 6.285156 -2.226562 7.925781 -1.546875 9.84375 -1.546875 C 11.769531 -1.546875 13.421875 -2.226562 14.796875 -3.59375 C 16.160156 -4.957031 16.84375 -6.609375 16.84375 -8.546875 Z M 18.59375 -8.546875 C 18.59375 -7.347656 18.363281 -6.210938 17.90625 -5.140625 C 17.445312 -4.078125 16.828125 -3.15625 16.046875 -2.375 C 15.242188 -1.570312 14.304688 -0.945312 13.234375 -0.5 C 12.171875 -0.03125 11.039062 0.203125 9.84375 0.203125 C 8.644531 0.203125 7.519531 -0.03125 6.46875 -0.5 C 5.40625 -0.945312 4.484375 -1.570312 3.703125 -2.375 C 2.898438 -3.15625 2.273438 -4.078125 1.828125 -5.140625 C 1.359375 -6.210938 1.125 -7.347656 1.125 -8.546875 C 1.125 -9.742188 1.359375 -10.875 1.828125 -11.9375 C 2.273438 -13.007812 2.898438 -13.9375 3.703125 -14.71875 C 4.484375 -15.5 5.40625 -16.125 6.46875 -16.59375 C 7.519531 -17.039062 8.644531 -17.265625 9.84375 -17.265625 C 11.039062 -17.265625 12.171875 -17.039062 13.234375 -16.59375 C 14.304688 -16.125 15.242188 -15.5 16.046875 -14.71875 C 16.828125 -13.9375 17.445312 -13.007812 17.90625 -11.9375 C 18.363281 -10.875 18.59375 -9.742188 18.59375 -8.546875 Z M 18.59375 -8.546875 "/></g></g></g><g fill="#000000" fill-opacity="1"><g transform="translate(350.206718, 148.045038)"><g><path d="M 6.578125 -8.625 C 5.609375 -7.914062 4.941406 -7.378906 4.578125 -7.015625 C 3.753906 -6.203125 3.34375 -5.445312 3.34375 -4.75 C 3.34375 -3.914062 3.648438 -3.164062 4.265625 -2.5 C 4.867188 -1.832031 5.597656 -1.5 6.453125 -1.5 C 7.359375 -1.5 8.375 -2.023438 9.5 -3.078125 C 9.78125 -3.335938 10.046875 -3.59375 10.296875 -3.84375 Z M 6.421875 -11.421875 C 6.617188 -11.203125 6.8125 -10.984375 7 -10.765625 C 7.25 -10.953125 7.515625 -11.144531 7.796875 -11.34375 C 8.054688 -11.53125 8.304688 -11.738281 8.546875 -11.96875 C 9.078125 -12.5 9.34375 -13.070312 9.34375 -13.6875 C 9.34375 -14.300781 9.132812 -14.785156 8.71875 -15.140625 C 8.300781 -15.492188 7.84375 -15.6875 7.34375 -15.71875 C 6.832031 -15.726562 6.367188 -15.566406 5.953125 -15.234375 C 5.535156 -14.898438 5.328125 -14.367188 5.328125 -13.640625 C 5.328125 -12.910156 5.691406 -12.171875 6.421875 -11.421875 Z M 14.859375 -6.625 C 14.609375 -6.269531 13.859375 -5.335938 12.609375 -3.828125 L 15.546875 0 L 13.234375 0.046875 L 11.390625 -2.375 C 10.554688 -1.539062 9.890625 -0.96875 9.390625 -0.65625 C 8.378906 -0.0195312 7.484375 0.296875 6.703125 0.296875 C 5.910156 0.296875 5.21875 0.171875 4.625 -0.078125 C 4.007812 -0.304688 3.484375 -0.644531 3.046875 -1.09375 C 2.097656 -2.03125 1.625 -3.207031 1.625 -4.625 C 1.625 -6.257812 2.429688 -7.675781 4.046875 -8.875 C 4.515625 -9.207031 5 -9.554688 5.5 -9.921875 C 4.300781 -11.304688 3.703125 -12.53125 3.703125 -13.59375 C 3.703125 -14.644531 4.035156 -15.519531 4.703125 -16.21875 C 5.367188 -16.894531 6.25 -17.234375 7.34375 -17.234375 C 8.394531 -17.234375 9.257812 -16.910156 9.9375 -16.265625 C 10.625 -15.597656 10.96875 -14.75 10.96875 -13.71875 C 10.96875 -12.613281 10.316406 -11.53125 9.015625 -10.46875 C 8.671875 -10.164062 8.335938 -9.890625 8.015625 -9.640625 L 11.515625 -5.171875 C 11.847656 -5.566406 12.171875 -5.96875 12.484375 -6.375 L 13.4375 -7.5625 Z M 14.859375 -6.625 "/></g></g></g><g fill="#000000" fill-opacity="1"><g transform="translate(367.417159, 148.045038)"><g><path d="M 17.53125 0 L 14.890625 -12.09375 L 9.796875 1 L 4.671875 -12.09375 L 2.046875 0 L 0.25 0 L 4.21875 -18.109375 L 9.796875 -3.578125 L 15.359375 -18.109375 L 19.3125 0 Z M 17.53125 0 "/></g></g></g><g clip-path="url(#997eeaedfd)"><g clip-path="url(#3224e70d26)"><path fill="#ffffff" d="M 312.410156 10.253906 L 405.089844 10.253906 L 405.089844 102.9375 L 312.410156 102.9375 Z M 312.410156 10.253906 " fill-opacity="1" fill-rule="nonzero"/></g></g><g clip-path="url(#30517bcc13)"><g clip-path="url(#d2f1db8adb)"><path stroke-linecap="butt" transform="matrix(0.749485, 0, 0, 0.749485, 312.408574, 10.255119)" fill="none" stroke-linejoin="miter" d="M 61.825826 -0.00161817 C 27.682582 -0.00161817 0.00211083 27.678853 0.00211083 61.827309 C 0.00211083 95.975765 27.682582 123.656237 61.825826 123.656237 C 95.974282 123.656237 123.654754 95.975765 123.654754 61.827309 C 123.654754 27.678853 95.974282 -0.00161817 61.825826 -0.00161817 Z M 61.825826 -0.00161817 " stroke="#00bf63" stroke-width="8" stroke-opacity="1" stroke-miterlimit="4"/></g></g><g clip-path="url(#3f25fc434b)"><path fill="#00bf63" d="M 386.585938 62.054688 C 386.367188 61.273438 386.070312 60.511719 385.707031 59.785156 C 385.238281 58.855469 384.667969 57.992188 383.996094 57.207031 L 386.015625 54.023438 L 378.925781 49.53125 L 376.734375 52.992188 C 375.296875 52.710938 373.84375 52.683594 372.402344 52.90625 L 370.5 49.109375 L 362.996094 52.871094 L 364.988281 56.835938 C 364.628906 57.222656 364.296875 57.628906 363.992188 58.054688 L 365.191406 58.917969 C 365.554688 58.414062 365.960938 57.9375 366.402344 57.5 L 366.785156 57.121094 L 364.984375 53.53125 L 369.839844 51.097656 L 371.578125 54.566406 L 372.132812 54.453125 C 373.71875 54.136719 375.328125 54.167969 376.914062 54.542969 L 377.425781 54.664062 L 379.382812 51.574219 L 383.972656 54.480469 L 382.140625 57.375 L 382.53125 57.792969 C 383.273438 58.582031 383.894531 59.476562 384.382812 60.449219 C 384.777344 61.238281 385.082031 62.070312 385.28125 62.921875 L 385.40625 63.449219 L 388.589844 63.695312 L 388.167969 69.113281 L 385.070312 68.871094 L 384.875 69.394531 C 384.246094 71.101562 383.203125 72.640625 381.859375 73.851562 L 381.4375 74.226562 L 382.847656 77.03125 L 377.988281 79.46875 L 376.523438 76.539062 L 375.992188 76.621094 C 374.289062 76.875 372.519531 76.730469 370.871094 76.195312 L 370.328125 76.019531 L 368.445312 78.992188 L 366.734375 77.90625 L 365.941406 79.15625 L 368.902344 81.03125 L 370.972656 77.769531 C 372.5 78.1875 374.105469 78.316406 375.675781 78.152344 L 377.332031 81.453125 L 384.832031 77.691406 L 383.261719 74.558594 C 384.449219 73.386719 385.40625 71.976562 386.058594 70.433594 L 389.527344 70.703125 L 390.179688 62.335938 L 386.585938 62.054688 " fill-opacity="1" fill-rule="nonzero"/></g><path fill="#00bf63" d="M 368.191406 63.453125 C 368.738281 61.816406 369.886719 60.488281 371.429688 59.714844 C 372.34375 59.257812 373.328125 59.023438 374.320312 59.023438 C 375.003906 59.023438 375.695312 59.136719 376.363281 59.359375 C 378 59.902344 379.328125 61.050781 380.101562 62.59375 C 381.699219 65.78125 380.410156 69.671875 377.222656 71.269531 C 375.679688 72.042969 373.925781 72.167969 372.289062 71.625 C 370.652344 71.082031 369.324219 69.929688 368.550781 68.386719 C 367.773438 66.84375 367.648438 65.09375 368.191406 63.453125 Z M 371.824219 73.027344 C 372.644531 73.300781 373.492188 73.4375 374.335938 73.4375 C 375.554688 73.4375 376.765625 73.152344 377.886719 72.589844 C 381.800781 70.628906 383.386719 65.84375 381.425781 61.929688 C 380.472656 60.035156 378.84375 58.621094 376.828125 57.953125 C 374.816406 57.285156 372.664062 57.441406 370.765625 58.390625 C 368.871094 59.34375 367.457031 60.976562 366.789062 62.988281 C 366.121094 65 366.273438 67.15625 367.226562 69.050781 C 368.175781 70.949219 369.808594 72.359375 371.824219 73.027344 " fill-opacity="1" fill-rule="nonzero"/><g clip-path="url(#0dd33cbab4)"><path fill="#00bf63" d="M 355.816406 29.8125 L 358.609375 27.492188 L 360.414062 29.664062 L 360.925781 29.429688 C 361.984375 28.949219 363.109375 28.707031 364.273438 28.707031 C 364.285156 28.707031 364.292969 28.707031 364.304688 28.707031 L 364.832031 28.710938 L 365.703125 26.207031 L 369.132812 27.402344 L 368.3125 29.753906 L 368.789062 30.070312 C 369.441406 30.503906 370.023438 31.03125 370.527344 31.636719 C 370.933594 32.128906 371.285156 32.664062 371.566406 33.230469 L 371.804688 33.714844 L 374.089844 33.367188 L 374.636719 36.957031 L 372.410156 37.296875 L 372.34375 37.851562 C 372.179688 39.152344 371.695312 40.410156 370.949219 41.480469 L 370.628906 41.941406 L 372.082031 43.691406 L 369.289062 46.011719 L 367.773438 44.191406 L 367.277344 44.390625 C 366.121094 44.847656 364.851562 45.035156 363.605469 44.933594 L 363.035156 44.882812 L 362.191406 47.296875 L 358.765625 46.101562 L 359.65625 43.539062 L 359.246094 43.214844 C 358.800781 42.863281 358.394531 42.464844 358.03125 42.03125 C 357.570312 41.476562 357.1875 40.863281 356.886719 40.210938 L 356.65625 39.703125 L 353.808594 40.136719 L 353.261719 36.546875 L 356.167969 36.105469 L 356.253906 35.570312 C 356.425781 34.472656 356.808594 33.445312 357.398438 32.511719 L 357.683594 32.058594 Z M 351.574219 35.308594 L 352.570312 41.824219 L 355.792969 41.332031 C 356.101562 41.914062 356.472656 42.464844 356.894531 42.976562 C 357.207031 43.355469 357.550781 43.707031 357.917969 44.03125 L 356.878906 47.011719 L 363.101562 49.183594 L 364.058594 46.4375 C 365.164062 46.460938 366.269531 46.296875 367.3125 45.949219 L 369.097656 48.097656 L 374.164062 43.882812 L 372.476562 41.847656 C 373.082031 40.855469 373.507812 39.746094 373.722656 38.59375 L 376.324219 38.195312 L 375.328125 31.679688 L 372.636719 32.09375 C 372.355469 31.597656 372.03125 31.128906 371.667969 30.691406 C 371.195312 30.125 370.664062 29.617188 370.082031 29.175781 L 371.019531 26.492188 L 364.796875 24.324219 L 363.777344 27.242188 C 362.765625 27.292969 361.78125 27.5 360.839844 27.863281 L 358.800781 25.410156 L 353.734375 29.621094 L 355.867188 32.191406 C 355.417969 33.011719 355.089844 33.882812 354.890625 34.800781 L 351.574219 35.308594 " fill-opacity="1" fill-rule="nonzero"/></g><path fill="#00bf63" d="M 359.714844 36.414062 C 359.824219 35.195312 360.40625 34.089844 361.347656 33.308594 C 362.179688 32.617188 363.203125 32.246094 364.273438 32.246094 C 364.414062 32.246094 364.558594 32.253906 364.699219 32.265625 C 365.917969 32.378906 367.023438 32.960938 367.804688 33.902344 C 368.589844 34.84375 368.960938 36.035156 368.847656 37.253906 C 368.734375 38.472656 368.15625 39.578125 367.214844 40.359375 C 365.269531 41.976562 362.371094 41.710938 360.753906 39.765625 C 359.972656 38.824219 359.601562 37.632812 359.714844 36.414062 Z M 364.285156 42.898438 C 365.652344 42.898438 367.027344 42.4375 368.160156 41.496094 C 369.40625 40.460938 370.171875 39.003906 370.320312 37.390625 C 370.46875 35.777344 369.980469 34.199219 368.945312 32.953125 C 367.90625 31.710938 366.449219 30.941406 364.835938 30.792969 C 363.222656 30.644531 361.648438 31.132812 360.402344 32.171875 C 359.15625 33.207031 358.386719 34.664062 358.238281 36.277344 C 358.089844 37.894531 358.582031 39.46875 359.617188 40.710938 C 360.816406 42.152344 362.542969 42.898438 364.285156 42.898438 " fill-opacity="1" fill-rule="nonzero"/><g clip-path="url(#0af4ed5988)"><path fill="#00bf63" d="M 360.75 81.585938 L 357.382812 79.554688 L 356.972656 79.9375 C 355.289062 81.511719 353.234375 82.660156 351.027344 83.269531 L 350.480469 83.417969 L 350.480469 87.386719 L 343.320312 87.386719 L 343.320312 83.238281 L 342.808594 83.074219 C 340.738281 82.394531 338.816406 81.222656 337.253906 79.6875 L 336.84375 79.285156 L 333.042969 81.570312 L 329.351562 75.433594 L 333.40625 72.996094 L 333.300781 72.480469 C 333.09375 71.511719 332.992188 70.519531 332.992188 69.523438 C 332.992188 68.261719 333.160156 67.003906 333.488281 65.789062 L 333.632812 65.25 L 329.355469 62.671875 L 333.054688 56.539062 L 337.433594 59.175781 L 337.839844 58.820312 C 339.300781 57.535156 340.972656 56.578125 342.808594 55.976562 L 343.320312 55.8125 L 343.320312 50.738281 L 350.480469 50.738281 L 350.480469 55.632812 L 351.027344 55.78125 C 353.003906 56.324219 354.808594 57.273438 356.390625 58.597656 L 356.792969 58.933594 L 360.757812 56.550781 L 364.449219 62.6875 L 360.746094 64.917969 L 360.90625 65.464844 C 361.296875 66.78125 361.496094 68.144531 361.496094 69.523438 C 361.496094 70.640625 361.363281 71.757812 361.105469 72.835938 L 360.980469 73.363281 L 364.445312 75.449219 Z M 362.664062 72.648438 C 362.871094 71.625 362.972656 70.574219 362.972656 69.523438 C 362.972656 68.195312 362.808594 66.878906 362.480469 65.601562 L 366.480469 63.195312 L 361.265625 54.519531 L 356.925781 57.128906 C 355.433594 55.957031 353.765625 55.082031 351.960938 54.515625 L 351.960938 49.257812 L 341.839844 49.257812 L 341.839844 54.746094 C 340.179688 55.355469 338.648438 56.230469 337.277344 57.355469 L 332.550781 54.507812 L 327.328125 63.175781 L 331.921875 65.945312 C 331.648438 67.117188 331.511719 68.316406 331.511719 69.523438 C 331.511719 70.441406 331.59375 71.363281 331.75 72.265625 L 327.320312 74.925781 L 332.535156 83.601562 L 336.632812 81.136719 C 338.144531 82.519531 339.925781 83.601562 341.839844 84.300781 L 341.839844 88.863281 L 351.960938 88.863281 L 351.960938 84.535156 C 354.015625 83.890625 355.933594 82.8125 357.566406 81.394531 L 361.25 83.613281 L 366.476562 74.945312 L 362.664062 72.648438 " fill-opacity="1" fill-rule="nonzero"/></g><path fill="#00bf63" d="M 347.242188 77.789062 C 342.6875 77.789062 338.976562 74.082031 338.976562 69.523438 C 338.976562 64.96875 342.6875 61.257812 347.242188 61.257812 C 351.800781 61.257812 355.507812 64.96875 355.507812 69.523438 C 355.507812 74.082031 351.800781 77.789062 347.242188 77.789062 Z M 347.242188 59.78125 C 341.871094 59.78125 337.496094 64.152344 337.496094 69.523438 C 337.496094 74.898438 341.871094 79.269531 347.242188 79.269531 C 352.617188 79.269531 356.988281 74.898438 356.988281 69.523438 C 356.988281 64.152344 352.617188 59.78125 347.242188 59.78125 " fill-opacity="1" fill-rule="nonzero"/><path fill="#00bf63" d="M 347.242188 72.75 C 345.464844 72.75 344.015625 71.304688 344.015625 69.523438 C 344.015625 67.746094 345.464844 66.300781 347.242188 66.300781 C 349.023438 66.300781 350.46875 67.746094 350.46875 69.523438 C 350.46875 71.304688 349.023438 72.75 347.242188 72.75 Z M 347.242188 64.820312 C 344.648438 64.820312 342.539062 66.929688 342.539062 69.523438 C 342.539062 72.121094 344.648438 74.230469 347.242188 74.230469 C 349.839844 74.230469 351.949219 72.121094 351.949219 69.523438 C 351.949219 66.929688 349.839844 64.820312 347.242188 64.820312 " fill-opacity="1" fill-rule="nonzero"/><path fill="#ffffff" d="M 210.054688 244.367188 C 210.054688 244.761719 209.980469 245.144531 209.828125 245.511719 C 209.675781 245.878906 209.457031 246.203125 209.179688 246.484375 C 208.898438 246.765625 208.574219 246.984375 208.207031 247.136719 C 207.839844 247.289062 207.457031 247.363281 207.058594 247.363281 C 206.660156 247.363281 206.277344 247.289062 205.910156 247.136719 C 205.542969 246.984375 205.21875 246.765625 204.9375 246.484375 C 204.65625 246.203125 204.441406 245.878906 204.289062 245.511719 C 204.136719 245.144531 204.058594 244.761719 204.058594 244.367188 C 204.058594 243.96875 204.136719 243.585938 204.289062 243.21875 C 204.441406 242.851562 204.65625 242.527344 204.9375 242.246094 C 205.21875 241.964844 205.542969 241.746094 205.910156 241.59375 C 206.277344 241.445312 206.660156 241.367188 207.058594 241.367188 C 207.457031 241.367188 207.839844 241.445312 208.207031 241.59375 C 208.574219 241.746094 208.898438 241.964844 209.179688 242.246094 C 209.457031 242.527344 209.675781 242.851562 209.828125 243.21875 C 209.980469 243.585938 210.054688 243.96875 210.054688 244.367188 Z M 210.054688 244.367188 " fill-opacity="1" fill-rule="nonzero"/><g fill="#ffffff" fill-opacity="1"><g transform="translate(221.544121, 250.361312)"><g><path d="M 2.890625 -6.71875 L 6.0625 -6.71875 C 6.84375 -6.71875 7.488281 -6.984375 8 -7.515625 C 8.507812 -8.054688 8.765625 -8.726562 8.765625 -9.53125 C 8.765625 -10.320312 8.519531 -10.972656 8.03125 -11.484375 C 7.539062 -11.992188 6.882812 -12.25 6.0625 -12.25 L 2.890625 -12.25 Z M 10.171875 -9.5 C 10.171875 -8.3125 9.75 -7.320312 8.90625 -6.53125 C 8.164062 -5.84375 7.269531 -5.460938 6.21875 -5.390625 L 10.390625 0 L 8.515625 0 L 4.53125 -5.375 L 2.890625 -5.375 L 2.890625 0 L 1.5 0 L 1.5 -13.59375 L 5.859375 -13.59375 C 7.066406 -13.59375 8.082031 -13.210938 8.90625 -12.453125 C 9.75 -11.648438 10.171875 -10.664062 10.171875 -9.5 Z M 10.171875 -9.5 "/></g></g></g><g fill="#ffffff" fill-opacity="1"><g transform="translate(232.412361, 250.361312)"><g><path d="M 10.09375 -4.59375 L 10.09375 -3.859375 L 2.359375 -3.859375 C 2.492188 -3.097656 2.859375 -2.476562 3.453125 -2 C 4.066406 -1.507812 4.75 -1.265625 5.5 -1.265625 C 6 -1.265625 6.484375 -1.382812 6.953125 -1.625 C 7.410156 -1.84375 7.789062 -2.160156 8.09375 -2.578125 L 9.6875 -2.578125 C 9.320312 -1.734375 8.765625 -1.070312 8.015625 -0.59375 C 7.253906 -0.101562 6.488281 0.140625 5.71875 0.140625 C 4.925781 0.140625 4.257812 0.0195312 3.71875 -0.21875 C 3.15625 -0.457031 2.671875 -0.785156 2.265625 -1.203125 C 1.359375 -2.078125 0.90625 -3.15625 0.90625 -4.4375 C 0.90625 -5.695312 1.359375 -6.78125 2.265625 -7.6875 C 3.148438 -8.582031 4.226562 -9.03125 5.5 -9.03125 C 6.71875 -9.03125 7.789062 -8.597656 8.71875 -7.734375 C 9.632812 -6.859375 10.09375 -5.8125 10.09375 -4.59375 Z M 8.609375 -5.0625 C 8.453125 -5.800781 8.082031 -6.421875 7.5 -6.921875 C 6.90625 -7.398438 6.238281 -7.640625 5.5 -7.640625 C 4.351562 -7.640625 3.453125 -7.125 2.796875 -6.09375 C 2.597656 -5.769531 2.457031 -5.425781 2.375 -5.0625 Z M 8.609375 -5.0625 "/></g></g></g><g fill="#ffffff" fill-opacity="1"><g transform="translate(243.300579, 250.361312)"><g><path d="M 8.5 -4.390625 C 8.5 -5.242188 8.203125 -5.992188 7.609375 -6.640625 C 7.015625 -7.273438 6.273438 -7.59375 5.390625 -7.59375 C 4.515625 -7.59375 3.785156 -7.273438 3.203125 -6.640625 C 2.597656 -5.992188 2.296875 -5.242188 2.296875 -4.390625 C 2.296875 -3.546875 2.597656 -2.800781 3.203125 -2.15625 C 3.785156 -1.519531 4.515625 -1.203125 5.390625 -1.203125 C 6.273438 -1.203125 7.015625 -1.519531 7.609375 -2.15625 C 8.203125 -2.800781 8.5 -3.546875 8.5 -4.390625 Z M 9.890625 0 L 8.5 0 L 8.5 -1.5 C 8.414062 -1.394531 8.332031 -1.296875 8.25 -1.203125 C 7.414062 -0.265625 6.390625 0.203125 5.171875 0.203125 C 3.960938 0.203125 2.945312 -0.265625 2.125 -1.203125 C 1.3125 -2.109375 0.90625 -3.171875 0.90625 -4.390625 C 0.90625 -5.617188 1.3125 -6.6875 2.125 -7.59375 C 2.945312 -8.53125 3.960938 -9 5.171875 -9 C 6.390625 -9 7.414062 -8.53125 8.25 -7.59375 C 8.332031 -7.5 8.414062 -7.398438 8.5 -7.296875 L 8.5 -8.796875 L 9.890625 -8.796875 Z M 9.890625 0 "/></g></g></g><g fill="#ffffff" fill-opacity="1"><g transform="translate(254.688252, 250.361312)"><g><path d="M 2.890625 0 L 1.5 0 L 1.5 -14.984375 L 2.890625 -14.984375 Z M 2.890625 0 "/></g></g></g><g fill="#ffffff" fill-opacity="1"><g transform="translate(259.083493, 250.361312)"><g/></g></g><g fill="#ffffff" fill-opacity="1"><g transform="translate(264.477654, 250.361312)"><g><path d="M 0.40625 -7.5 L 0.40625 -8.796875 L 2.59375 -8.796875 L 2.59375 -12.203125 L 4 -12.203125 L 4 -8.796875 L 6.171875 -8.796875 L 6.171875 -7.5 L 4 -7.5 L 4 0 L 2.59375 0 L 2.59375 -7.5 Z M 0.40625 -7.5 "/></g></g></g><g fill="#ffffff" fill-opacity="1"><g transform="translate(271.050536, 250.361312)"><g><path d="M 2.921875 -11.828125 C 3.085938 -11.660156 3.171875 -11.457031 3.171875 -11.21875 C 3.171875 -10.957031 3.085938 -10.742188 2.921875 -10.578125 C 2.742188 -10.398438 2.535156 -10.3125 2.296875 -10.3125 C 2.046875 -10.3125 1.832031 -10.398438 1.65625 -10.578125 C 1.488281 -10.742188 1.40625 -10.957031 1.40625 -11.21875 C 1.40625 -11.457031 1.488281 -11.660156 1.65625 -11.828125 C 1.832031 -12.003906 2.046875 -12.09375 2.296875 -12.09375 C 2.535156 -12.09375 2.742188 -12.003906 2.921875 -11.828125 Z M 3 0 L 1.59375 0 L 1.59375 -8.796875 L 3 -8.796875 Z M 3 0 "/></g></g></g><g fill="#ffffff" fill-opacity="1"><g transform="translate(275.625589, 250.361312)"><g><path d="M 12.65625 -0.046875 L 12.65625 -5.53125 C 12.65625 -6.4375 12.367188 -7.078125 11.796875 -7.453125 C 11.585938 -7.578125 11.28125 -7.640625 10.875 -7.640625 C 10.457031 -7.640625 10.070312 -7.519531 9.71875 -7.28125 C 9.351562 -7.039062 9.066406 -6.734375 8.859375 -6.359375 C 8.773438 -6.210938 8.703125 -6.050781 8.640625 -5.875 C 8.640625 -5.769531 8.640625 -5.65625 8.640625 -5.53125 L 8.640625 -0.046875 L 7.234375 -0.046875 L 7.234375 -5.53125 C 7.234375 -6.4375 6.945312 -7.078125 6.375 -7.453125 C 6.175781 -7.578125 5.867188 -7.640625 5.453125 -7.640625 C 5.046875 -7.640625 4.660156 -7.519531 4.296875 -7.28125 C 3.929688 -7.039062 3.644531 -6.734375 3.4375 -6.359375 C 3.15625 -5.859375 2.972656 -5.25 2.890625 -4.53125 L 2.890625 -0.046875 L 1.5 -0.046875 L 1.5 -8.828125 L 2.890625 -8.828125 L 2.890625 -7.4375 C 3.160156 -7.882812 3.492188 -8.25 3.890625 -8.53125 C 4.347656 -8.863281 4.882812 -9.03125 5.5 -9.03125 C 6.113281 -9.03125 6.601562 -8.9375 6.96875 -8.75 C 7.34375 -8.550781 7.65625 -8.289062 7.90625 -7.96875 C 8.039062 -7.78125 8.164062 -7.578125 8.28125 -7.359375 C 8.539062 -7.835938 8.882812 -8.226562 9.3125 -8.53125 C 9.769531 -8.863281 10.300781 -9.03125 10.90625 -9.03125 C 11.519531 -9.03125 12.015625 -8.9375 12.390625 -8.75 C 12.765625 -8.550781 13.078125 -8.289062 13.328125 -7.96875 C 13.804688 -7.34375 14.046875 -6.53125 14.046875 -5.53125 L 14.046875 -0.046875 Z M 12.65625 -0.046875 "/></g></g></g><g fill="#ffffff" fill-opacity="1"><g transform="translate(290.86909, 250.361312)"><g><path d="M 10.09375 -4.59375 L 10.09375 -3.859375 L 2.359375 -3.859375 C 2.492188 -3.097656 2.859375 -2.476562 3.453125 -2 C 4.066406 -1.507812 4.75 -1.265625 5.5 -1.265625 C 6 -1.265625 6.484375 -1.382812 6.953125 -1.625 C 7.410156 -1.84375 7.789062 -2.160156 8.09375 -2.578125 L 9.6875 -2.578125 C 9.320312 -1.734375 8.765625 -1.070312 8.015625 -0.59375 C 7.253906 -0.101562 6.488281 0.140625 5.71875 0.140625 C 4.925781 0.140625 4.257812 0.0195312 3.71875 -0.21875 C 3.15625 -0.457031 2.671875 -0.785156 2.265625 -1.203125 C 1.359375 -2.078125 0.90625 -3.15625 0.90625 -4.4375 C 0.90625 -5.695312 1.359375 -6.78125 2.265625 -7.6875 C 3.148438 -8.582031 4.226562 -9.03125 5.5 -9.03125 C 6.71875 -9.03125 7.789062 -8.597656 8.71875 -7.734375 C 9.632812 -6.859375 10.09375 -5.8125 10.09375 -4.59375 Z M 8.609375 -5.0625 C 8.453125 -5.800781 8.082031 -6.421875 7.5 -6.921875 C 6.90625 -7.398438 6.238281 -7.640625 5.5 -7.640625 C 4.351562 -7.640625 3.453125 -7.125 2.796875 -6.09375 C 2.597656 -5.769531 2.457031 -5.425781 2.375 -5.0625 Z M 8.609375 -5.0625 "/></g></g></g><g fill="#ffffff" fill-opacity="1"><g transform="translate(301.757308, 250.361312)"><g/></g></g><g fill="#ffffff" fill-opacity="1"><g transform="translate(307.15147, 250.361312)"><g><path d="M 6.015625 -6.96875 C 5.691406 -7.269531 5.34375 -7.421875 4.96875 -7.421875 C 4.613281 -7.421875 4.3125 -7.316406 4.0625 -7.109375 C 3.789062 -6.898438 3.566406 -6.648438 3.390625 -6.359375 C 3.054688 -5.765625 2.890625 -5.109375 2.890625 -4.390625 L 2.890625 0 L 1.5 0 L 1.5 -8.796875 L 2.890625 -8.796875 L 2.890625 -6.96875 L 2.953125 -7.328125 C 3.421875 -8.421875 4.148438 -8.96875 5.140625 -8.96875 C 5.441406 -8.96875 5.734375 -8.910156 6.015625 -8.796875 Z M 6.015625 -6.96875 "/></g></g></g><g fill="#ffffff" fill-opacity="1"><g transform="translate(313.364751, 250.361312)"><g><path d="M 10.09375 -4.59375 L 10.09375 -3.859375 L 2.359375 -3.859375 C 2.492188 -3.097656 2.859375 -2.476562 3.453125 -2 C 4.066406 -1.507812 4.75 -1.265625 5.5 -1.265625 C 6 -1.265625 6.484375 -1.382812 6.953125 -1.625 C 7.410156 -1.84375 7.789062 -2.160156 8.09375 -2.578125 L 9.6875 -2.578125 C 9.320312 -1.734375 8.765625 -1.070312 8.015625 -0.59375 C 7.253906 -0.101562 6.488281 0.140625 5.71875 0.140625 C 4.925781 0.140625 4.257812 0.0195312 3.71875 -0.21875 C 3.15625 -0.457031 2.671875 -0.785156 2.265625 -1.203125 C 1.359375 -2.078125 0.90625 -3.15625 0.90625 -4.4375 C 0.90625 -5.695312 1.359375 -6.78125 2.265625 -7.6875 C 3.148438 -8.582031 4.226562 -9.03125 5.5 -9.03125 C 6.71875 -9.03125 7.789062 -8.597656 8.71875 -7.734375 C 9.632812 -6.859375 10.09375 -5.8125 10.09375 -4.59375 Z M 8.609375 -5.0625 C 8.453125 -5.800781 8.082031 -6.421875 7.5 -6.921875 C 6.90625 -7.398438 6.238281 -7.640625 5.5 -7.640625 C 4.351562 -7.640625 3.453125 -7.125 2.796875 -6.09375 C 2.597656 -5.769531 2.457031 -5.425781 2.375 -5.0625 Z M 8.609375 -5.0625 "/></g></g></g><g fill="#ffffff" fill-opacity="1"><g transform="translate(324.25297, 250.361312)"><g><path d="M 12.65625 -0.046875 L 12.65625 -5.53125 C 12.65625 -6.4375 12.367188 -7.078125 11.796875 -7.453125 C 11.585938 -7.578125 11.28125 -7.640625 10.875 -7.640625 C 10.457031 -7.640625 10.070312 -7.519531 9.71875 -7.28125 C 9.351562 -7.039062 9.066406 -6.734375 8.859375 -6.359375 C 8.773438 -6.210938 8.703125 -6.050781 8.640625 -5.875 C 8.640625 -5.769531 8.640625 -5.65625 8.640625 -5.53125 L 8.640625 -0.046875 L 7.234375 -0.046875 L 7.234375 -5.53125 C 7.234375 -6.4375 6.945312 -7.078125 6.375 -7.453125 C 6.175781 -7.578125 5.867188 -7.640625 5.453125 -7.640625 C 5.046875 -7.640625 4.660156 -7.519531 4.296875 -7.28125 C 3.929688 -7.039062 3.644531 -6.734375 3.4375 -6.359375 C 3.15625 -5.859375 2.972656 -5.25 2.890625 -4.53125 L 2.890625 -0.046875 L 1.5 -0.046875 L 1.5 -8.828125 L 2.890625 -8.828125 L 2.890625 -7.4375 C 3.160156 -7.882812 3.492188 -8.25 3.890625 -8.53125 C 4.347656 -8.863281 4.882812 -9.03125 5.5 -9.03125 C 6.113281 -9.03125 6.601562 -8.9375 6.96875 -8.75 C 7.34375 -8.550781 7.65625 -8.289062 7.90625 -7.96875 C 8.039062 -7.78125 8.164062 -7.578125 8.28125 -7.359375 C 8.539062 -7.835938 8.882812 -8.226562 9.3125 -8.53125 C 9.769531 -8.863281 10.300781 -9.03125 10.90625 -9.03125 C 11.519531 -9.03125 12.015625 -8.9375 12.390625 -8.75 C 12.765625 -8.550781 13.078125 -8.289062 13.328125 -7.96875 C 13.804688 -7.34375 14.046875 -6.53125 14.046875 -5.53125 L 14.046875 -0.046875 Z M 12.65625 -0.046875 "/></g></g></g><g fill="#ffffff" fill-opacity="1"><g transform="translate(339.49647, 250.361312)"><g><path d="M 8.6875 -4.4375 C 8.6875 -5.3125 8.375 -6.0625 7.75 -6.6875 C 7.125 -7.320312 6.375 -7.640625 5.5 -7.640625 C 4.613281 -7.640625 3.859375 -7.320312 3.234375 -6.6875 C 2.609375 -6.0625 2.296875 -5.3125 2.296875 -4.4375 C 2.296875 -3.570312 2.609375 -2.828125 3.234375 -2.203125 C 3.859375 -1.578125 4.613281 -1.265625 5.5 -1.265625 C 6.375 -1.265625 7.125 -1.578125 7.75 -2.203125 C 8.375 -2.828125 8.6875 -3.570312 8.6875 -4.4375 Z M 10.09375 -4.4375 C 10.09375 -3.15625 9.644531 -2.078125 8.75 -1.203125 C 7.832031 -0.304688 6.75 0.140625 5.5 0.140625 C 4.25 0.140625 3.171875 -0.304688 2.265625 -1.203125 C 1.359375 -2.078125 0.90625 -3.15625 0.90625 -4.4375 C 0.90625 -5.695312 1.359375 -6.78125 2.265625 -7.6875 C 3.148438 -8.582031 4.226562 -9.03125 5.5 -9.03125 C 6.757812 -9.03125 7.84375 -8.582031 8.75 -7.6875 C 9.644531 -6.78125 10.09375 -5.695312 10.09375 -4.4375 Z M 10.09375 -4.4375 "/></g></g></g><g fill="#ffffff" fill-opacity="1"><g transform="translate(350.484584, 250.361312)"><g><path d="M 0.40625 -7.5 L 0.40625 -8.796875 L 2.59375 -8.796875 L 2.59375 -12.203125 L 4 -12.203125 L 4 -8.796875 L 6.171875 -8.796875 L 6.171875 -7.5 L 4 -7.5 L 4 0 L 2.59375 0 L 2.59375 -7.5 Z M 0.40625 -7.5 "/></g></g></g><g fill="#ffffff" fill-opacity="1"><g transform="translate(357.057467, 250.361312)"><g><path d="M 10.09375 -4.59375 L 10.09375 -3.859375 L 2.359375 -3.859375 C 2.492188 -3.097656 2.859375 -2.476562 3.453125 -2 C 4.066406 -1.507812 4.75 -1.265625 5.5 -1.265625 C 6 -1.265625 6.484375 -1.382812 6.953125 -1.625 C 7.410156 -1.84375 7.789062 -2.160156 8.09375 -2.578125 L 9.6875 -2.578125 C 9.320312 -1.734375 8.765625 -1.070312 8.015625 -0.59375 C 7.253906 -0.101562 6.488281 0.140625 5.71875 0.140625 C 4.925781 0.140625 4.257812 0.0195312 3.71875 -0.21875 C 3.15625 -0.457031 2.671875 -0.785156 2.265625 -1.203125 C 1.359375 -2.078125 0.90625 -3.15625 0.90625 -4.4375 C 0.90625 -5.695312 1.359375 -6.78125 2.265625 -7.6875 C 3.148438 -8.582031 4.226562 -9.03125 5.5 -9.03125 C 6.71875 -9.03125 7.789062 -8.597656 8.71875 -7.734375 C 9.632812 -6.859375 10.09375 -5.8125 10.09375 -4.59375 Z M 8.609375 -5.0625 C 8.453125 -5.800781 8.082031 -6.421875 7.5 -6.921875 C 6.90625 -7.398438 6.238281 -7.640625 5.5 -7.640625 C 4.351562 -7.640625 3.453125 -7.125 2.796875 -6.09375 C 2.597656 -5.769531 2.457031 -5.425781 2.375 -5.0625 Z M 8.609375 -5.0625 "/></g></g></g><g fill="#ffffff" fill-opacity="1"><g transform="translate(367.945685, 250.361312)"><g/></g></g><g fill="#ffffff" fill-opacity="1"><g transform="translate(373.339846, 250.361312)"><g><path d="M 12.65625 -0.046875 L 12.65625 -5.53125 C 12.65625 -6.4375 12.367188 -7.078125 11.796875 -7.453125 C 11.585938 -7.578125 11.28125 -7.640625 10.875 -7.640625 C 10.457031 -7.640625 10.070312 -7.519531 9.71875 -7.28125 C 9.351562 -7.039062 9.066406 -6.734375 8.859375 -6.359375 C 8.773438 -6.210938 8.703125 -6.050781 8.640625 -5.875 C 8.640625 -5.769531 8.640625 -5.65625 8.640625 -5.53125 L 8.640625 -0.046875 L 7.234375 -0.046875 L 7.234375 -5.53125 C 7.234375 -6.4375 6.945312 -7.078125 6.375 -7.453125 C 6.175781 -7.578125 5.867188 -7.640625 5.453125 -7.640625 C 5.046875 -7.640625 4.660156 -7.519531 4.296875 -7.28125 C 3.929688 -7.039062 3.644531 -6.734375 3.4375 -6.359375 C 3.15625 -5.859375 2.972656 -5.25 2.890625 -4.53125 L 2.890625 -0.046875 L 1.5 -0.046875 L 1.5 -8.828125 L 2.890625 -8.828125 L 2.890625 -7.4375 C 3.160156 -7.882812 3.492188 -8.25 3.890625 -8.53125 C 4.347656 -8.863281 4.882812 -9.03125 5.5 -9.03125 C 6.113281 -9.03125 6.601562 -8.9375 6.96875 -8.75 C 7.34375 -8.550781 7.65625 -8.289062 7.90625 -7.96875 C 8.039062 -7.78125 8.164062 -7.578125 8.28125 -7.359375 C 8.539062 -7.835938 8.882812 -8.226562 9.3125 -8.53125 C 9.769531 -8.863281 10.300781 -9.03125 10.90625 -9.03125 C 11.519531 -9.03125 12.015625 -8.9375 12.390625 -8.75 C 12.765625 -8.550781 13.078125 -8.289062 13.328125 -7.96875 C 13.804688 -7.34375 14.046875 -6.53125 14.046875 -5.53125 L 14.046875 -0.046875 Z M 12.65625 -0.046875 "/></g></g></g><g fill="#ffffff" fill-opacity="1"><g transform="translate(388.583347, 250.361312)"><g><path d="M 8.6875 -4.4375 C 8.6875 -5.3125 8.375 -6.0625 7.75 -6.6875 C 7.125 -7.320312 6.375 -7.640625 5.5 -7.640625 C 4.613281 -7.640625 3.859375 -7.320312 3.234375 -6.6875 C 2.609375 -6.0625 2.296875 -5.3125 2.296875 -4.4375 C 2.296875 -3.570312 2.609375 -2.828125 3.234375 -2.203125 C 3.859375 -1.578125 4.613281 -1.265625 5.5 -1.265625 C 6.375 -1.265625 7.125 -1.578125 7.75 -2.203125 C 8.375 -2.828125 8.6875 -3.570312 8.6875 -4.4375 Z M 10.09375 -4.4375 C 10.09375 -3.15625 9.644531 -2.078125 8.75 -1.203125 C 7.832031 -0.304688 6.75 0.140625 5.5 0.140625 C 4.25 0.140625 3.171875 -0.304688 2.265625 -1.203125 C 1.359375 -2.078125 0.90625 -3.15625 0.90625 -4.4375 C 0.90625 -5.695312 1.359375 -6.78125 2.265625 -7.6875 C 3.148438 -8.582031 4.226562 -9.03125 5.5 -9.03125 C 6.757812 -9.03125 7.84375 -8.582031 8.75 -7.6875 C 9.644531 -6.78125 10.09375 -5.695312 10.09375 -4.4375 Z M 10.09375 -4.4375 "/></g></g></g><g fill="#ffffff" fill-opacity="1"><g transform="translate(399.571461, 250.361312)"><g><path d="M 7.578125 0 L 7.578125 -5.5 C 7.578125 -6.070312 7.445312 -6.5625 7.1875 -6.96875 C 6.925781 -7.375 6.492188 -7.578125 5.890625 -7.578125 C 5.296875 -7.578125 4.8125 -7.460938 4.4375 -7.234375 C 4.0625 -7.003906 3.757812 -6.710938 3.53125 -6.359375 C 3.101562 -5.691406 2.890625 -4.796875 2.890625 -3.671875 L 2.890625 0 L 1.5 0 L 1.5 -8.796875 L 2.890625 -8.796875 L 2.890625 -7.28125 C 3.191406 -7.769531 3.566406 -8.175781 4.015625 -8.5 C 4.492188 -8.8125 5.046875 -8.96875 5.671875 -8.96875 C 6.296875 -8.96875 6.800781 -8.882812 7.1875 -8.71875 C 7.582031 -8.53125 7.910156 -8.28125 8.171875 -7.96875 C 8.703125 -7.34375 8.96875 -6.519531 8.96875 -5.5 L 8.96875 0 Z M 7.578125 0 "/></g></g></g><g fill="#ffffff" fill-opacity="1"><g transform="translate(409.740455, 250.361312)"><g><path d="M 2.921875 -11.828125 C 3.085938 -11.660156 3.171875 -11.457031 3.171875 -11.21875 C 3.171875 -10.957031 3.085938 -10.742188 2.921875 -10.578125 C 2.742188 -10.398438 2.535156 -10.3125 2.296875 -10.3125 C 2.046875 -10.3125 1.832031 -10.398438 1.65625 -10.578125 C 1.488281 -10.742188 1.40625 -10.957031 1.40625 -11.21875 C 1.40625 -11.457031 1.488281 -11.660156 1.65625 -11.828125 C 1.832031 -12.003906 2.046875 -12.09375 2.296875 -12.09375 C 2.535156 -12.09375 2.742188 -12.003906 2.921875 -11.828125 Z M 3 0 L 1.59375 0 L 1.59375 -8.796875 L 3 -8.796875 Z M 3 0 "/></g></g></g><g fill="#ffffff" fill-opacity="1"><g transform="translate(414.315519, 250.361312)"><g><path d="M 0.40625 -7.5 L 0.40625 -8.796875 L 2.59375 -8.796875 L 2.59375 -12.203125 L 4 -12.203125 L 4 -8.796875 L 6.171875 -8.796875 L 6.171875 -7.5 L 4 -7.5 L 4 0 L 2.59375 0 L 2.59375 -7.5 Z M 0.40625 -7.5 "/></g></g></g><g fill="#ffffff" fill-opacity="1"><g transform="translate(420.888401, 250.361312)"><g><path d="M 8.6875 -4.4375 C 8.6875 -5.3125 8.375 -6.0625 7.75 -6.6875 C 7.125 -7.320312 6.375 -7.640625 5.5 -7.640625 C 4.613281 -7.640625 3.859375 -7.320312 3.234375 -6.6875 C 2.609375 -6.0625 2.296875 -5.3125 2.296875 -4.4375 C 2.296875 -3.570312 2.609375 -2.828125 3.234375 -2.203125 C 3.859375 -1.578125 4.613281 -1.265625 5.5 -1.265625 C 6.375 -1.265625 7.125 -1.578125 7.75 -2.203125 C 8.375 -2.828125 8.6875 -3.570312 8.6875 -4.4375 Z M 10.09375 -4.4375 C 10.09375 -3.15625 9.644531 -2.078125 8.75 -1.203125 C 7.832031 -0.304688 6.75 0.140625 5.5 0.140625 C 4.25 0.140625 3.171875 -0.304688 2.265625 -1.203125 C 1.359375 -2.078125 0.90625 -3.15625 0.90625 -4.4375 C 0.90625 -5.695312 1.359375 -6.78125 2.265625 -7.6875 C 3.148438 -8.582031 4.226562 -9.03125 5.5 -9.03125 C 6.757812 -9.03125 7.84375 -8.582031 8.75 -7.6875 C 9.644531 -6.78125 10.09375 -5.695312 10.09375 -4.4375 Z M 10.09375 -4.4375 "/></g></g></g><g fill="#ffffff" fill-opacity="1"><g transform="translate(431.876515, 250.361312)"><g><path d="M 6.015625 -6.96875 C 5.691406 -7.269531 5.34375 -7.421875 4.96875 -7.421875 C 4.613281 -7.421875 4.3125 -7.316406 4.0625 -7.109375 C 3.789062 -6.898438 3.566406 -6.648438 3.390625 -6.359375 C 3.054688 -5.765625 2.890625 -5.109375 2.890625 -4.390625 L 2.890625 0 L 1.5 0 L 1.5 -8.796875 L 2.890625 -8.796875 L 2.890625 -6.96875 L 2.953125 -7.328125 C 3.421875 -8.421875 4.148438 -8.96875 5.140625 -8.96875 C 5.441406 -8.96875 5.734375 -8.910156 6.015625 -8.796875 Z M 6.015625 -6.96875 "/></g></g></g><g fill="#ffffff" fill-opacity="1"><g transform="translate(438.089797, 250.361312)"><g><path d="M 2.921875 -11.828125 C 3.085938 -11.660156 3.171875 -11.457031 3.171875 -11.21875 C 3.171875 -10.957031 3.085938 -10.742188 2.921875 -10.578125 C 2.742188 -10.398438 2.535156 -10.3125 2.296875 -10.3125 C 2.046875 -10.3125 1.832031 -10.398438 1.65625 -10.578125 C 1.488281 -10.742188 1.40625 -10.957031 1.40625 -11.21875 C 1.40625 -11.457031 1.488281 -11.660156 1.65625 -11.828125 C 1.832031 -12.003906 2.046875 -12.09375 2.296875 -12.09375 C 2.535156 -12.09375 2.742188 -12.003906 2.921875 -11.828125 Z M 3 0 L 1.59375 0 L 1.59375 -8.796875 L 3 -8.796875 Z M 3 0 "/></g></g></g><g fill="#ffffff" fill-opacity="1"><g transform="translate(442.664838, 250.361312)"><g><path d="M 7.578125 0 L 7.578125 -5.5 C 7.578125 -6.070312 7.445312 -6.5625 7.1875 -6.96875 C 6.925781 -7.375 6.492188 -7.578125 5.890625 -7.578125 C 5.296875 -7.578125 4.8125 -7.460938 4.4375 -7.234375 C 4.0625 -7.003906 3.757812 -6.710938 3.53125 -6.359375 C 3.101562 -5.691406 2.890625 -4.796875 2.890625 -3.671875 L 2.890625 0 L 1.5 0 L 1.5 -8.796875 L 2.890625 -8.796875 L 2.890625 -7.28125 C 3.191406 -7.769531 3.566406 -8.175781 4.015625 -8.5 C 4.492188 -8.8125 5.046875 -8.96875 5.671875 -8.96875 C 6.296875 -8.96875 6.800781 -8.882812 7.1875 -8.71875 C 7.582031 -8.53125 7.910156 -8.28125 8.171875 -7.96875 C 8.703125 -7.34375 8.96875 -6.519531 8.96875 -5.5 L 8.96875 0 Z M 7.578125 0 "/></g></g></g><g fill="#ffffff" fill-opacity="1"><g transform="translate(452.833843, 250.361312)"><g><path d="M 8.609375 -4.390625 C 8.609375 -5.242188 8.316406 -5.992188 7.734375 -6.640625 C 7.128906 -7.273438 6.390625 -7.59375 5.515625 -7.59375 C 4.660156 -7.59375 3.925781 -7.273438 3.3125 -6.640625 C 2.71875 -6.015625 2.421875 -5.265625 2.421875 -4.390625 C 2.421875 -3.523438 2.71875 -2.78125 3.3125 -2.15625 C 3.925781 -1.519531 4.660156 -1.203125 5.515625 -1.203125 C 6.390625 -1.203125 7.128906 -1.519531 7.734375 -2.15625 C 8.316406 -2.800781 8.609375 -3.546875 8.609375 -4.390625 Z M 2.375 1.203125 C 2.507812 1.742188 2.796875 2.226562 3.234375 2.65625 C 3.847656 3.28125 4.585938 3.59375 5.453125 3.59375 C 6.316406 3.59375 7.0625 3.28125 7.6875 2.65625 C 8.300781 2.039062 8.609375 1.300781 8.609375 0.4375 L 8.609375 -1.484375 C 8.546875 -1.390625 8.472656 -1.296875 8.390625 -1.203125 C 7.554688 -0.265625 6.53125 0.203125 5.3125 0.203125 C 4.09375 0.203125 3.066406 -0.265625 2.234375 -1.203125 C 1.421875 -2.109375 1.015625 -3.171875 1.015625 -4.390625 C 1.015625 -5.617188 1.421875 -6.6875 2.234375 -7.59375 C 3.066406 -8.53125 4.09375 -9 5.3125 -9 C 6.488281 -9 7.515625 -8.53125 8.390625 -7.59375 C 8.472656 -7.5 8.546875 -7.40625 8.609375 -7.3125 L 8.609375 -8.796875 L 10.015625 -8.796875 L 10.015625 0.4375 C 10.015625 1.6875 9.566406 2.757812 8.671875 3.65625 C 7.773438 4.550781 6.703125 5 5.453125 5 C 4.203125 5 3.128906 4.550781 2.234375 3.65625 C 1.523438 2.945312 1.097656 2.128906 0.953125 1.203125 Z M 2.375 1.203125 "/></g></g></g><path fill="#ffffff" d="M 210.054688 272.097656 C 210.054688 272.492188 209.980469 272.875 209.828125 273.242188 C 209.675781 273.609375 209.457031 273.933594 209.179688 274.214844 C 208.898438 274.496094 208.574219 274.714844 208.207031 274.867188 C 207.839844 275.019531 207.457031 275.09375 207.058594 275.09375 C 206.660156 275.09375 206.277344 275.019531 205.910156 274.867188 C 205.542969 274.714844 205.21875 274.496094 204.9375 274.214844 C 204.65625 273.933594 204.441406 273.609375 204.289062 273.242188 C 204.136719 272.875 204.058594 272.492188 204.058594 272.097656 C 204.058594 271.699219 204.136719 271.316406 204.289062 270.949219 C 204.441406 270.582031 204.65625 270.257812 204.9375 269.976562 C 205.21875 269.695312 205.542969 269.480469 205.910156 269.328125 C 206.277344 269.175781 206.660156 269.097656 207.058594 269.097656 C 207.457031 269.097656 207.839844 269.175781 208.207031 269.328125 C 208.574219 269.480469 208.898438 269.695312 209.179688 269.976562 C 209.457031 270.257812 209.675781 270.582031 209.828125 270.949219 C 209.980469 271.316406 210.054688 271.699219 210.054688 272.097656 Z M 210.054688 272.097656 " fill-opacity="1" fill-rule="nonzero"/><g fill="#ffffff" fill-opacity="1"><g transform="translate(221.544121, 278.092251)"><g><path d="M 2.890625 -6.71875 L 6.0625 -6.71875 C 6.84375 -6.71875 7.488281 -6.984375 8 -7.515625 C 8.507812 -8.054688 8.765625 -8.726562 8.765625 -9.53125 C 8.765625 -10.320312 8.519531 -10.972656 8.03125 -11.484375 C 7.539062 -11.992188 6.882812 -12.25 6.0625 -12.25 L 2.890625 -12.25 Z M 10.171875 -9.5 C 10.171875 -8.3125 9.75 -7.320312 8.90625 -6.53125 C 8.164062 -5.84375 7.269531 -5.460938 6.21875 -5.390625 L 10.390625 0 L 8.515625 0 L 4.53125 -5.375 L 2.890625 -5.375 L 2.890625 0 L 1.5 0 L 1.5 -13.59375 L 5.859375 -13.59375 C 7.066406 -13.59375 8.082031 -13.210938 8.90625 -12.453125 C 9.75 -11.648438 10.171875 -10.664062 10.171875 -9.5 Z M 10.171875 -9.5 "/></g></g></g><g fill="#ffffff" fill-opacity="1"><g transform="translate(232.412361, 278.092251)"><g><path d="M 10.09375 -4.59375 L 10.09375 -3.859375 L 2.359375 -3.859375 C 2.492188 -3.097656 2.859375 -2.476562 3.453125 -2 C 4.066406 -1.507812 4.75 -1.265625 5.5 -1.265625 C 6 -1.265625 6.484375 -1.382812 6.953125 -1.625 C 7.410156 -1.84375 7.789062 -2.160156 8.09375 -2.578125 L 9.6875 -2.578125 C 9.320312 -1.734375 8.765625 -1.070312 8.015625 -0.59375 C 7.253906 -0.101562 6.488281 0.140625 5.71875 0.140625 C 4.925781 0.140625 4.257812 0.0195312 3.71875 -0.21875 C 3.15625 -0.457031 2.671875 -0.785156 2.265625 -1.203125 C 1.359375 -2.078125 0.90625 -3.15625 0.90625 -4.4375 C 0.90625 -5.695312 1.359375 -6.78125 2.265625 -7.6875 C 3.148438 -8.582031 4.226562 -9.03125 5.5 -9.03125 C 6.71875 -9.03125 7.789062 -8.597656 8.71875 -7.734375 C 9.632812 -6.859375 10.09375 -5.8125 10.09375 -4.59375 Z M 8.609375 -5.0625 C 8.453125 -5.800781 8.082031 -6.421875 7.5 -6.921875 C 6.90625 -7.398438 6.238281 -7.640625 5.5 -7.640625 C 4.351562 -7.640625 3.453125 -7.125 2.796875 -6.09375 C 2.597656 -5.769531 2.457031 -5.425781 2.375 -5.0625 Z M 8.609375 -5.0625 "/></g></g></g><g fill="#ffffff" fill-opacity="1"><g transform="translate(243.300579, 278.092251)"><g><path d="M 8.609375 -4.390625 C 8.609375 -5.242188 8.316406 -5.992188 7.734375 -6.640625 C 7.128906 -7.273438 6.390625 -7.59375 5.515625 -7.59375 C 4.660156 -7.59375 3.925781 -7.273438 3.3125 -6.640625 C 2.71875 -6.015625 2.421875 -5.265625 2.421875 -4.390625 C 2.421875 -3.523438 2.71875 -2.78125 3.3125 -2.15625 C 3.925781 -1.519531 4.660156 -1.203125 5.515625 -1.203125 C 6.390625 -1.203125 7.128906 -1.519531 7.734375 -2.15625 C 8.316406 -2.800781 8.609375 -3.546875 8.609375 -4.390625 Z M 2.375 1.203125 C 2.507812 1.742188 2.796875 2.226562 3.234375 2.65625 C 3.847656 3.28125 4.585938 3.59375 5.453125 3.59375 C 6.316406 3.59375 7.0625 3.28125 7.6875 2.65625 C 8.300781 2.039062 8.609375 1.300781 8.609375 0.4375 L 8.609375 -1.484375 C 8.546875 -1.390625 8.472656 -1.296875 8.390625 -1.203125 C 7.554688 -0.265625 6.53125 0.203125 5.3125 0.203125 C 4.09375 0.203125 3.066406 -0.265625 2.234375 -1.203125 C 1.421875 -2.109375 1.015625 -3.171875 1.015625 -4.390625 C 1.015625 -5.617188 1.421875 -6.6875 2.234375 -7.59375 C 3.066406 -8.53125 4.09375 -9 5.3125 -9 C 6.488281 -9 7.515625 -8.53125 8.390625 -7.59375 C 8.472656 -7.5 8.546875 -7.40625 8.609375 -7.3125 L 8.609375 -8.796875 L 10.015625 -8.796875 L 10.015625 0.4375 C 10.015625 1.6875 9.566406 2.757812 8.671875 3.65625 C 7.773438 4.550781 6.703125 5 5.453125 5 C 4.203125 5 3.128906 4.550781 2.234375 3.65625 C 1.523438 2.945312 1.097656 2.128906 0.953125 1.203125 Z M 2.375 1.203125 "/></g></g></g><g fill="#ffffff" fill-opacity="1"><g transform="translate(254.808126, 278.092251)"><g><path d="M 7.578125 -1.5 C 6.921875 -0.375 5.941406 0.1875 4.640625 0.1875 C 3.648438 0.1875 2.875 -0.140625 2.3125 -0.796875 C 1.769531 -1.453125 1.5 -2.285156 1.5 -3.296875 L 1.5 -8.796875 L 2.890625 -8.796875 L 2.890625 -3.296875 C 2.890625 -2.722656 3.023438 -2.238281 3.296875 -1.84375 C 3.546875 -1.425781 3.972656 -1.21875 4.578125 -1.21875 C 5.671875 -1.21875 6.441406 -1.566406 6.890625 -2.265625 C 7.347656 -2.941406 7.578125 -3.890625 7.578125 -5.109375 L 7.578125 -8.796875 L 8.96875 -8.796875 L 8.96875 0 L 7.578125 0 Z M 7.578125 -1.5 "/></g></g></g><g fill="#ffffff" fill-opacity="1"><g transform="translate(264.97712, 278.092251)"><g><path d="M 2.890625 0 L 1.5 0 L 1.5 -14.984375 L 2.890625 -14.984375 Z M 2.890625 0 "/></g></g></g><g fill="#ffffff" fill-opacity="1"><g transform="translate(269.372361, 278.092251)"><g><path d="M 8.5 -4.390625 C 8.5 -5.242188 8.203125 -5.992188 7.609375 -6.640625 C 7.015625 -7.273438 6.273438 -7.59375 5.390625 -7.59375 C 4.515625 -7.59375 3.785156 -7.273438 3.203125 -6.640625 C 2.597656 -5.992188 2.296875 -5.242188 2.296875 -4.390625 C 2.296875 -3.546875 2.597656 -2.800781 3.203125 -2.15625 C 3.785156 -1.519531 4.515625 -1.203125 5.390625 -1.203125 C 6.273438 -1.203125 7.015625 -1.519531 7.609375 -2.15625 C 8.203125 -2.800781 8.5 -3.546875 8.5 -4.390625 Z M 9.890625 0 L 8.5 0 L 8.5 -1.5 C 8.414062 -1.394531 8.332031 -1.296875 8.25 -1.203125 C 7.414062 -0.265625 6.390625 0.203125 5.171875 0.203125 C 3.960938 0.203125 2.945312 -0.265625 2.125 -1.203125 C 1.3125 -2.109375 0.90625 -3.171875 0.90625 -4.390625 C 0.90625 -5.617188 1.3125 -6.6875 2.125 -7.59375 C 2.945312 -8.53125 3.960938 -9 5.171875 -9 C 6.390625 -9 7.414062 -8.53125 8.25 -7.59375 C 8.332031 -7.5 8.414062 -7.398438 8.5 -7.296875 L 8.5 -8.796875 L 9.890625 -8.796875 Z M 9.890625 0 "/></g></g></g><g fill="#ffffff" fill-opacity="1"><g transform="translate(280.760034, 278.092251)"><g><path d="M 6.015625 -6.96875 C 5.691406 -7.269531 5.34375 -7.421875 4.96875 -7.421875 C 4.613281 -7.421875 4.3125 -7.316406 4.0625 -7.109375 C 3.789062 -6.898438 3.566406 -6.648438 3.390625 -6.359375 C 3.054688 -5.765625 2.890625 -5.109375 2.890625 -4.390625 L 2.890625 0 L 1.5 0 L 1.5 -8.796875 L 2.890625 -8.796875 L 2.890625 -6.96875 L 2.953125 -7.328125 C 3.421875 -8.421875 4.148438 -8.96875 5.140625 -8.96875 C 5.441406 -8.96875 5.734375 -8.910156 6.015625 -8.796875 Z M 6.015625 -6.96875 "/></g></g></g><g fill="#ffffff" fill-opacity="1"><g transform="translate(286.973315, 278.092251)"><g/></g></g><g fill="#ffffff" fill-opacity="1"><g transform="translate(292.367477, 278.092251)"><g><path d="M 12.65625 -0.046875 L 12.65625 -5.53125 C 12.65625 -6.4375 12.367188 -7.078125 11.796875 -7.453125 C 11.585938 -7.578125 11.28125 -7.640625 10.875 -7.640625 C 10.457031 -7.640625 10.070312 -7.519531 9.71875 -7.28125 C 9.351562 -7.039062 9.066406 -6.734375 8.859375 -6.359375 C 8.773438 -6.210938 8.703125 -6.050781 8.640625 -5.875 C 8.640625 -5.769531 8.640625 -5.65625 8.640625 -5.53125 L 8.640625 -0.046875 L 7.234375 -0.046875 L 7.234375 -5.53125 C 7.234375 -6.4375 6.945312 -7.078125 6.375 -7.453125 C 6.175781 -7.578125 5.867188 -7.640625 5.453125 -7.640625 C 5.046875 -7.640625 4.660156 -7.519531 4.296875 -7.28125 C 3.929688 -7.039062 3.644531 -6.734375 3.4375 -6.359375 C 3.15625 -5.859375 2.972656 -5.25 2.890625 -4.53125 L 2.890625 -0.046875 L 1.5 -0.046875 L 1.5 -8.828125 L 2.890625 -8.828125 L 2.890625 -7.4375 C 3.160156 -7.882812 3.492188 -8.25 3.890625 -8.53125 C 4.347656 -8.863281 4.882812 -9.03125 5.5 -9.03125 C 6.113281 -9.03125 6.601562 -8.9375 6.96875 -8.75 C 7.34375 -8.550781 7.65625 -8.289062 7.90625 -7.96875 C 8.039062 -7.78125 8.164062 -7.578125 8.28125 -7.359375 C 8.539062 -7.835938 8.882812 -8.226562 9.3125 -8.53125 C 9.769531 -8.863281 10.300781 -9.03125 10.90625 -9.03125 C 11.519531 -9.03125 12.015625 -8.9375 12.390625 -8.75 C 12.765625 -8.550781 13.078125 -8.289062 13.328125 -7.96875 C 13.804688 -7.34375 14.046875 -6.53125 14.046875 -5.53125 L 14.046875 -0.046875 Z M 12.65625 -0.046875 "/></g></g></g><g fill="#ffffff" fill-opacity="1"><g transform="translate(307.610978, 278.092251)"><g><path d="M 8.5 -4.390625 C 8.5 -5.242188 8.203125 -5.992188 7.609375 -6.640625 C 7.015625 -7.273438 6.273438 -7.59375 5.390625 -7.59375 C 4.515625 -7.59375 3.785156 -7.273438 3.203125 -6.640625 C 2.597656 -5.992188 2.296875 -5.242188 2.296875 -4.390625 C 2.296875 -3.546875 2.597656 -2.800781 3.203125 -2.15625 C 3.785156 -1.519531 4.515625 -1.203125 5.390625 -1.203125 C 6.273438 -1.203125 7.015625 -1.519531 7.609375 -2.15625 C 8.203125 -2.800781 8.5 -3.546875 8.5 -4.390625 Z M 9.890625 0 L 8.5 0 L 8.5 -1.5 C 8.414062 -1.394531 8.332031 -1.296875 8.25 -1.203125 C 7.414062 -0.265625 6.390625 0.203125 5.171875 0.203125 C 3.960938 0.203125 2.945312 -0.265625 2.125 -1.203125 C 1.3125 -2.109375 0.90625 -3.171875 0.90625 -4.390625 C 0.90625 -5.617188 1.3125 -6.6875 2.125 -7.59375 C 2.945312 -8.53125 3.960938 -9 5.171875 -9 C 6.390625 -9 7.414062 -8.53125 8.25 -7.59375 C 8.332031 -7.5 8.414062 -7.398438 8.5 -7.296875 L 8.5 -8.796875 L 9.890625 -8.796875 Z M 9.890625 0 "/></g></g></g><g fill="#ffffff" fill-opacity="1"><g transform="translate(318.99865, 278.092251)"><g><path d="M 2.921875 -11.828125 C 3.085938 -11.660156 3.171875 -11.457031 3.171875 -11.21875 C 3.171875 -10.957031 3.085938 -10.742188 2.921875 -10.578125 C 2.742188 -10.398438 2.535156 -10.3125 2.296875 -10.3125 C 2.046875 -10.3125 1.832031 -10.398438 1.65625 -10.578125 C 1.488281 -10.742188 1.40625 -10.957031 1.40625 -11.21875 C 1.40625 -11.457031 1.488281 -11.660156 1.65625 -11.828125 C 1.832031 -12.003906 2.046875 -12.09375 2.296875 -12.09375 C 2.535156 -12.09375 2.742188 -12.003906 2.921875 -11.828125 Z M 3 0 L 1.59375 0 L 1.59375 -8.796875 L 3 -8.796875 Z M 3 0 "/></g></g></g><g fill="#ffffff" fill-opacity="1"><g transform="translate(323.573703, 278.092251)"><g><path d="M 7.578125 0 L 7.578125 -5.5 C 7.578125 -6.070312 7.445312 -6.5625 7.1875 -6.96875 C 6.925781 -7.375 6.492188 -7.578125 5.890625 -7.578125 C 5.296875 -7.578125 4.8125 -7.460938 4.4375 -7.234375 C 4.0625 -7.003906 3.757812 -6.710938 3.53125 -6.359375 C 3.101562 -5.691406 2.890625 -4.796875 2.890625 -3.671875 L 2.890625 0 L 1.5 0 L 1.5 -8.796875 L 2.890625 -8.796875 L 2.890625 -7.28125 C 3.191406 -7.769531 3.566406 -8.175781 4.015625 -8.5 C 4.492188 -8.8125 5.046875 -8.96875 5.671875 -8.96875 C 6.296875 -8.96875 6.800781 -8.882812 7.1875 -8.71875 C 7.582031 -8.53125 7.910156 -8.28125 8.171875 -7.96875 C 8.703125 -7.34375 8.96875 -6.519531 8.96875 -5.5 L 8.96875 0 Z M 7.578125 0 "/></g></g></g><g fill="#ffffff" fill-opacity="1"><g transform="translate(333.742697, 278.092251)"><g><path d="M 0.40625 -7.5 L 0.40625 -8.796875 L 2.59375 -8.796875 L 2.59375 -12.203125 L 4 -12.203125 L 4 -8.796875 L 6.171875 -8.796875 L 6.171875 -7.5 L 4 -7.5 L 4 0 L 2.59375 0 L 2.59375 -7.5 Z M 0.40625 -7.5 "/></g></g></g><g fill="#ffffff" fill-opacity="1"><g transform="translate(340.315579, 278.092251)"><g><path d="M 10.09375 -4.59375 L 10.09375 -3.859375 L 2.359375 -3.859375 C 2.492188 -3.097656 2.859375 -2.476562 3.453125 -2 C 4.066406 -1.507812 4.75 -1.265625 5.5 -1.265625 C 6 -1.265625 6.484375 -1.382812 6.953125 -1.625 C 7.410156 -1.84375 7.789062 -2.160156 8.09375 -2.578125 L 9.6875 -2.578125 C 9.320312 -1.734375 8.765625 -1.070312 8.015625 -0.59375 C 7.253906 -0.101562 6.488281 0.140625 5.71875 0.140625 C 4.925781 0.140625 4.257812 0.0195312 3.71875 -0.21875 C 3.15625 -0.457031 2.671875 -0.785156 2.265625 -1.203125 C 1.359375 -2.078125 0.90625 -3.15625 0.90625 -4.4375 C 0.90625 -5.695312 1.359375 -6.78125 2.265625 -7.6875 C 3.148438 -8.582031 4.226562 -9.03125 5.5 -9.03125 C 6.71875 -9.03125 7.789062 -8.597656 8.71875 -7.734375 C 9.632812 -6.859375 10.09375 -5.8125 10.09375 -4.59375 Z M 8.609375 -5.0625 C 8.453125 -5.800781 8.082031 -6.421875 7.5 -6.921875 C 6.90625 -7.398438 6.238281 -7.640625 5.5 -7.640625 C 4.351562 -7.640625 3.453125 -7.125 2.796875 -6.09375 C 2.597656 -5.769531 2.457031 -5.425781 2.375 -5.0625 Z M 8.609375 -5.0625 "/></g></g></g><g fill="#ffffff" fill-opacity="1"><g transform="translate(351.203798, 278.092251)"><g><path d="M 7.578125 0 L 7.578125 -5.5 C 7.578125 -6.070312 7.445312 -6.5625 7.1875 -6.96875 C 6.925781 -7.375 6.492188 -7.578125 5.890625 -7.578125 C 5.296875 -7.578125 4.8125 -7.460938 4.4375 -7.234375 C 4.0625 -7.003906 3.757812 -6.710938 3.53125 -6.359375 C 3.101562 -5.691406 2.890625 -4.796875 2.890625 -3.671875 L 2.890625 0 L 1.5 0 L 1.5 -8.796875 L 2.890625 -8.796875 L 2.890625 -7.28125 C 3.191406 -7.769531 3.566406 -8.175781 4.015625 -8.5 C 4.492188 -8.8125 5.046875 -8.96875 5.671875 -8.96875 C 6.296875 -8.96875 6.800781 -8.882812 7.1875 -8.71875 C 7.582031 -8.53125 7.910156 -8.28125 8.171875 -7.96875 C 8.703125 -7.34375 8.96875 -6.519531 8.96875 -5.5 L 8.96875 0 Z M 7.578125 0 "/></g></g></g><g fill="#ffffff" fill-opacity="1"><g transform="translate(361.372791, 278.092251)"><g><path d="M 8.5 -4.390625 C 8.5 -5.242188 8.203125 -5.992188 7.609375 -6.640625 C 7.015625 -7.273438 6.273438 -7.59375 5.390625 -7.59375 C 4.515625 -7.59375 3.785156 -7.273438 3.203125 -6.640625 C 2.597656 -5.992188 2.296875 -5.242188 2.296875 -4.390625 C 2.296875 -3.546875 2.597656 -2.800781 3.203125 -2.15625 C 3.785156 -1.519531 4.515625 -1.203125 5.390625 -1.203125 C 6.273438 -1.203125 7.015625 -1.519531 7.609375 -2.15625 C 8.203125 -2.800781 8.5 -3.546875 8.5 -4.390625 Z M 9.890625 0 L 8.5 0 L 8.5 -1.5 C 8.414062 -1.394531 8.332031 -1.296875 8.25 -1.203125 C 7.414062 -0.265625 6.390625 0.203125 5.171875 0.203125 C 3.960938 0.203125 2.945312 -0.265625 2.125 -1.203125 C 1.3125 -2.109375 0.90625 -3.171875 0.90625 -4.390625 C 0.90625 -5.617188 1.3125 -6.6875 2.125 -7.59375 C 2.945312 -8.53125 3.960938 -9 5.171875 -9 C 6.390625 -9 7.414062 -8.53125 8.25 -7.59375 C 8.332031 -7.5 8.414062 -7.398438 8.5 -7.296875 L 8.5 -8.796875 L 9.890625 -8.796875 Z M 9.890625 0 "/></g></g></g><g fill="#ffffff" fill-opacity="1"><g transform="translate(372.760464, 278.092251)"><g><path d="M 7.578125 0 L 7.578125 -5.5 C 7.578125 -6.070312 7.445312 -6.5625 7.1875 -6.96875 C 6.925781 -7.375 6.492188 -7.578125 5.890625 -7.578125 C 5.296875 -7.578125 4.8125 -7.460938 4.4375 -7.234375 C 4.0625 -7.003906 3.757812 -6.710938 3.53125 -6.359375 C 3.101562 -5.691406 2.890625 -4.796875 2.890625 -3.671875 L 2.890625 0 L 1.5 0 L 1.5 -8.796875 L 2.890625 -8.796875 L 2.890625 -7.28125 C 3.191406 -7.769531 3.566406 -8.175781 4.015625 -8.5 C 4.492188 -8.8125 5.046875 -8.96875 5.671875 -8.96875 C 6.296875 -8.96875 6.800781 -8.882812 7.1875 -8.71875 C 7.582031 -8.53125 7.910156 -8.28125 8.171875 -7.96875 C 8.703125 -7.34375 8.96875 -6.519531 8.96875 -5.5 L 8.96875 0 Z M 7.578125 0 "/></g></g></g><g fill="#ffffff" fill-opacity="1"><g transform="translate(382.929458, 278.092251)"><g><path d="M 9.71875 -5.640625 L 8.1875 -5.640625 C 7.945312 -6.191406 7.578125 -6.644531 7.078125 -7 C 6.566406 -7.34375 6.050781 -7.515625 5.53125 -7.515625 C 5.007812 -7.515625 4.566406 -7.4375 4.203125 -7.28125 C 3.828125 -7.101562 3.503906 -6.875 3.234375 -6.59375 C 2.640625 -5.96875 2.34375 -5.234375 2.34375 -4.390625 C 2.34375 -3.546875 2.640625 -2.816406 3.234375 -2.203125 C 3.816406 -1.578125 4.535156 -1.265625 5.390625 -1.265625 C 5.953125 -1.265625 6.472656 -1.410156 6.953125 -1.703125 C 7.421875 -1.992188 7.785156 -2.382812 8.046875 -2.875 L 9.625 -2.875 C 9.132812 -1.46875 8.1875 -0.523438 6.78125 -0.046875 C 6.332031 0.117188 5.832031 0.203125 5.28125 0.203125 C 4.71875 0.203125 4.164062 0.0703125 3.625 -0.1875 C 3.070312 -0.425781 2.597656 -0.753906 2.203125 -1.171875 C 1.335938 -2.078125 0.90625 -3.148438 0.90625 -4.390625 C 0.90625 -5.648438 1.335938 -6.722656 2.203125 -7.609375 C 3.078125 -8.515625 4.140625 -8.96875 5.390625 -8.96875 C 6.410156 -8.96875 7.328125 -8.65625 8.140625 -8.03125 C 8.910156 -7.4375 9.4375 -6.640625 9.71875 -5.640625 Z M 9.71875 -5.640625 "/></g></g></g><g fill="#ffffff" fill-opacity="1"><g transform="translate(393.338189, 278.092251)"><g><path d="M 10.09375 -4.59375 L 10.09375 -3.859375 L 2.359375 -3.859375 C 2.492188 -3.097656 2.859375 -2.476562 3.453125 -2 C 4.066406 -1.507812 4.75 -1.265625 5.5 -1.265625 C 6 -1.265625 6.484375 -1.382812 6.953125 -1.625 C 7.410156 -1.84375 7.789062 -2.160156 8.09375 -2.578125 L 9.6875 -2.578125 C 9.320312 -1.734375 8.765625 -1.070312 8.015625 -0.59375 C 7.253906 -0.101562 6.488281 0.140625 5.71875 0.140625 C 4.925781 0.140625 4.257812 0.0195312 3.71875 -0.21875 C 3.15625 -0.457031 2.671875 -0.785156 2.265625 -1.203125 C 1.359375 -2.078125 0.90625 -3.15625 0.90625 -4.4375 C 0.90625 -5.695312 1.359375 -6.78125 2.265625 -7.6875 C 3.148438 -8.582031 4.226562 -9.03125 5.5 -9.03125 C 6.71875 -9.03125 7.789062 -8.597656 8.71875 -7.734375 C 9.632812 -6.859375 10.09375 -5.8125 10.09375 -4.59375 Z M 8.609375 -5.0625 C 8.453125 -5.800781 8.082031 -6.421875 7.5 -6.921875 C 6.90625 -7.398438 6.238281 -7.640625 5.5 -7.640625 C 4.351562 -7.640625 3.453125 -7.125 2.796875 -6.09375 C 2.597656 -5.769531 2.457031 -5.425781 2.375 -5.0625 Z M 8.609375 -5.0625 "/></g></g></g></svg>