<svg xmlns="http://www.w3.org/2000/svg" xmlns:xlink="http://www.w3.org/1999/xlink" width="957" zoomAndPan="magnify" viewBox="0 0 717.75 363.749991" height="485" preserveAspectRatio="xMidYMid meet" version="1.0"><defs><g/><clipPath id="b8ecf1d3ab"><path d="M 97.082031 173.550781 L 620.972656 173.550781 L 620.972656 345.496094 L 97.082031 345.496094 Z M 97.082031 173.550781 " clip-rule="nonzero"/></clipPath><clipPath id="9ba897e71d"><path d="M 108.324219 173.550781 L 609.175781 173.550781 C 612.160156 173.550781 615.019531 174.738281 617.125 176.84375 C 619.234375 178.953125 620.417969 181.8125 620.417969 184.792969 L 620.417969 334.253906 C 620.417969 337.234375 619.234375 340.09375 617.125 342.203125 C 615.019531 344.3125 612.160156 345.496094 609.175781 345.496094 L 108.324219 345.496094 C 105.339844 345.496094 102.480469 344.3125 100.375 342.203125 C 98.265625 340.09375 97.082031 337.234375 97.082031 334.253906 L 97.082031 184.792969 C 97.082031 181.8125 98.265625 178.953125 100.375 176.84375 C 102.480469 174.738281 105.339844 173.550781 108.324219 173.550781 Z M 108.324219 173.550781 " clip-rule="nonzero"/></clipPath><clipPath id="75743756dd"><path d="M 97.082031 109.386719 L 620.417969 109.386719 L 620.417969 173.550781 L 97.082031 173.550781 Z M 97.082031 109.386719 " clip-rule="nonzero"/></clipPath><clipPath id="5e095141fa"><path d="M 312.410156 10.253906 L 405.089844 10.253906 L 405.089844 102.9375 L 312.410156 102.9375 Z M 312.410156 10.253906 " clip-rule="nonzero"/></clipPath><clipPath id="8ca2960b42"><path d="M 358.75 10.253906 C 333.15625 10.253906 312.410156 31.003906 312.410156 56.597656 C 312.410156 82.191406 333.15625 102.9375 358.75 102.9375 C 384.34375 102.9375 405.089844 82.191406 405.089844 56.597656 C 405.089844 31.003906 384.34375 10.253906 358.75 10.253906 Z M 358.75 10.253906 " clip-rule="nonzero"/></clipPath><clipPath id="b8beac3f23"><path d="M 312.410156 10.253906 L 405.085938 10.253906 L 405.085938 102.933594 L 312.410156 102.933594 Z M 312.410156 10.253906 " clip-rule="nonzero"/></clipPath><clipPath id="4b823851f9"><path d="M 358.746094 10.253906 C 333.15625 10.253906 312.410156 31 312.410156 56.59375 C 312.410156 82.1875 333.15625 102.933594 358.746094 102.933594 C 384.339844 102.933594 405.085938 82.1875 405.085938 56.59375 C 405.085938 31 384.339844 10.253906 358.746094 10.253906 Z M 358.746094 10.253906 " clip-rule="nonzero"/></clipPath><clipPath id="ab2cffcfa0"><path d="M 332 81 L 341 81 L 341 86.050781 L 332 86.050781 Z M 332 81 " clip-rule="nonzero"/></clipPath><clipPath id="0747fbc8bd"><path d="M 328.996094 54 L 361 54 L 361 80 L 328.996094 80 Z M 328.996094 54 " clip-rule="nonzero"/></clipPath><clipPath id="353f21be69"><path d="M 342 65 L 363 65 L 363 86.050781 L 342 86.050781 Z M 342 65 " clip-rule="nonzero"/></clipPath><clipPath id="3ea7f8b8cc"><path d="M 357 26.84375 L 388.207031 26.84375 L 388.207031 59 L 357 59 Z M 357 26.84375 " clip-rule="nonzero"/></clipPath></defs><g clip-path="url(#b8ecf1d3ab)"><g clip-path="url(#9ba897e71d)"><path fill="#00bf63" d="M 97.082031 173.550781 L 620.300781 173.550781 L 620.300781 345.496094 L 97.082031 345.496094 Z M 97.082031 173.550781 " fill-opacity="1" fill-rule="nonzero"/></g></g><g clip-path="url(#75743756dd)"><path fill="#ffffff" d="M 97.082031 109.386719 L 620.441406 109.386719 L 620.441406 173.550781 L 97.082031 173.550781 Z M 97.082031 109.386719 " fill-opacity="1" fill-rule="nonzero"/></g><g fill="#000000" fill-opacity="1"><g transform="translate(198.073784, 149.712875)"><g><path d="M 4.625 -6.25 L 10.796875 -6.25 L 7.71875 -14.0625 Z M 15.171875 0 L 13.265625 0 L 11.4375 -4.625 L 3.96875 -4.625 L 2.15625 0 L 0.25 0 L 7.71875 -18.15625 Z M 15.171875 0 "/></g></g></g><g fill="#000000" fill-opacity="1"><g transform="translate(213.485753, 149.712875)"><g><path d="M 3.625 6.25 L 1.875 6.25 L 1.875 -11 L 3.625 -11 L 3.625 -9.125 C 3.71875 -9.25 3.828125 -9.375 3.953125 -9.5 C 4.984375 -10.664062 6.253906 -11.25 7.765625 -11.25 C 9.285156 -11.25 10.570312 -10.664062 11.625 -9.5 C 12.613281 -8.363281 13.109375 -7.03125 13.109375 -5.5 C 13.109375 -3.96875 12.613281 -2.632812 11.625 -1.5 C 10.570312 -0.332031 9.285156 0.25 7.765625 0.25 C 6.253906 0.25 4.984375 -0.332031 3.953125 -1.5 C 3.828125 -1.613281 3.71875 -1.738281 3.625 -1.875 Z M 11.375 -5.5 C 11.375 -6.5625 11.003906 -7.492188 10.265625 -8.296875 C 9.515625 -9.097656 8.59375 -9.5 7.5 -9.5 C 6.394531 -9.5 5.476562 -9.097656 4.75 -8.296875 C 4 -7.492188 3.625 -6.5625 3.625 -5.5 C 3.625 -4.425781 4 -3.492188 4.75 -2.703125 C 5.476562 -1.898438 6.394531 -1.5 7.5 -1.5 C 8.59375 -1.5 9.515625 -1.898438 10.265625 -2.703125 C 11.003906 -3.492188 11.375 -4.425781 11.375 -5.5 Z M 11.375 -5.5 "/></g></g></g><g fill="#000000" fill-opacity="1"><g transform="translate(227.723712, 149.712875)"><g><path d="M 3.625 6.25 L 1.875 6.25 L 1.875 -11 L 3.625 -11 L 3.625 -9.125 C 3.71875 -9.25 3.828125 -9.375 3.953125 -9.5 C 4.984375 -10.664062 6.253906 -11.25 7.765625 -11.25 C 9.285156 -11.25 10.570312 -10.664062 11.625 -9.5 C 12.613281 -8.363281 13.109375 -7.03125 13.109375 -5.5 C 13.109375 -3.96875 12.613281 -2.632812 11.625 -1.5 C 10.570312 -0.332031 9.285156 0.25 7.765625 0.25 C 6.253906 0.25 4.984375 -0.332031 3.953125 -1.5 C 3.828125 -1.613281 3.71875 -1.738281 3.625 -1.875 Z M 11.375 -5.5 C 11.375 -6.5625 11.003906 -7.492188 10.265625 -8.296875 C 9.515625 -9.097656 8.59375 -9.5 7.5 -9.5 C 6.394531 -9.5 5.476562 -9.097656 4.75 -8.296875 C 4 -7.492188 3.625 -6.5625 3.625 -5.5 C 3.625 -4.425781 4 -3.492188 4.75 -2.703125 C 5.476562 -1.898438 6.394531 -1.5 7.5 -1.5 C 8.59375 -1.5 9.515625 -1.898438 10.265625 -2.703125 C 11.003906 -3.492188 11.375 -4.425781 11.375 -5.5 Z M 11.375 -5.5 "/></g></g></g><g fill="#000000" fill-opacity="1"><g transform="translate(241.961671, 149.712875)"><g><path d="M 7.515625 -8.71875 C 7.117188 -9.082031 6.6875 -9.265625 6.21875 -9.265625 C 5.769531 -9.265625 5.390625 -9.140625 5.078125 -8.890625 C 4.742188 -8.628906 4.46875 -8.3125 4.25 -7.9375 C 3.832031 -7.207031 3.625 -6.394531 3.625 -5.5 L 3.625 0 L 1.875 0 L 1.875 -11 L 3.625 -11 L 3.625 -8.71875 L 3.703125 -9.171875 C 4.285156 -10.535156 5.191406 -11.21875 6.421875 -11.21875 C 6.804688 -11.21875 7.171875 -11.144531 7.515625 -11 Z M 7.515625 -8.71875 "/></g></g></g><g fill="#000000" fill-opacity="1"><g transform="translate(249.730097, 149.712875)"><g><path d="M 10.875 -5.546875 C 10.875 -6.648438 10.476562 -7.59375 9.6875 -8.375 C 8.90625 -9.15625 7.96875 -9.546875 6.875 -9.546875 C 5.769531 -9.546875 4.828125 -9.15625 4.046875 -8.375 C 3.265625 -7.59375 2.875 -6.648438 2.875 -5.546875 C 2.875 -4.460938 3.265625 -3.53125 4.046875 -2.75 C 4.828125 -1.96875 5.769531 -1.578125 6.875 -1.578125 C 7.96875 -1.578125 8.90625 -1.96875 9.6875 -2.75 C 10.476562 -3.53125 10.875 -4.460938 10.875 -5.546875 Z M 12.609375 -5.546875 C 12.609375 -3.941406 12.050781 -2.59375 10.9375 -1.5 C 9.789062 -0.382812 8.4375 0.171875 6.875 0.171875 C 5.300781 0.171875 3.953125 -0.382812 2.828125 -1.5 C 1.691406 -2.59375 1.125 -3.941406 1.125 -5.546875 C 1.125 -7.128906 1.691406 -8.488281 2.828125 -9.625 C 3.941406 -10.738281 5.289062 -11.296875 6.875 -11.296875 C 8.457031 -11.296875 9.8125 -10.738281 10.9375 -9.625 C 12.050781 -8.488281 12.609375 -7.128906 12.609375 -5.546875 Z M 12.609375 -5.546875 "/></g></g></g><g fill="#000000" fill-opacity="1"><g transform="translate(263.468475, 149.712875)"><g><path d="M 5.328125 1.046875 L 0.25 -11 L 2.15625 -11 L 5.328125 -2.828125 L 8.46875 -11 L 10.375 -11 Z M 5.328125 1.046875 "/></g></g></g><g fill="#000000" fill-opacity="1"><g transform="translate(274.0845, 149.712875)"><g><path d="M 10.625 -5.5 C 10.625 -6.5625 10.253906 -7.492188 9.515625 -8.296875 C 8.765625 -9.097656 7.84375 -9.5 6.75 -9.5 C 5.644531 -9.5 4.726562 -9.097656 4 -8.296875 C 3.25 -7.492188 2.875 -6.5625 2.875 -5.5 C 2.875 -4.425781 3.25 -3.492188 4 -2.703125 C 4.726562 -1.898438 5.644531 -1.5 6.75 -1.5 C 7.84375 -1.5 8.765625 -1.898438 9.515625 -2.703125 C 10.253906 -3.492188 10.625 -4.425781 10.625 -5.5 Z M 12.375 0 L 10.625 0 L 10.625 -1.875 C 10.519531 -1.738281 10.414062 -1.613281 10.3125 -1.5 C 9.269531 -0.332031 7.988281 0.25 6.46875 0.25 C 4.957031 0.25 3.679688 -0.332031 2.640625 -1.5 C 1.628906 -2.632812 1.125 -3.96875 1.125 -5.5 C 1.125 -7.03125 1.628906 -8.363281 2.640625 -9.5 C 3.679688 -10.664062 4.957031 -11.25 6.46875 -11.25 C 7.988281 -11.25 9.269531 -10.664062 10.3125 -9.5 C 10.414062 -9.375 10.519531 -9.25 10.625 -9.125 L 10.625 -11 L 12.375 -11 Z M 12.375 0 "/></g></g></g><g fill="#000000" fill-opacity="1"><g transform="translate(288.322459, 149.712875)"><g><path d="M 3.625 0 L 1.875 0 L 1.875 -18.734375 L 3.625 -18.734375 Z M 3.625 0 "/></g></g></g><g fill="#000000" fill-opacity="1"><g transform="translate(293.817808, 149.712875)"><g><path d="M 3.46875 -1.578125 C 3.90625 -1.273438 4.472656 -1.125 5.171875 -1.125 C 6.765625 -1.125 7.5625 -1.722656 7.5625 -2.921875 C 7.5625 -3.617188 6.988281 -4.148438 5.84375 -4.515625 C 5.363281 -4.679688 4.847656 -4.832031 4.296875 -4.96875 C 3.734375 -5.101562 3.207031 -5.28125 2.71875 -5.5 C 2.15625 -5.757812 1.734375 -6.09375 1.453125 -6.5 C 1.171875 -6.894531 1.03125 -7.367188 1.03125 -7.921875 C 1.03125 -9.015625 1.410156 -9.835938 2.171875 -10.390625 C 2.941406 -10.960938 3.859375 -11.25 4.921875 -11.25 C 5.984375 -11.25 6.863281 -11.03125 7.5625 -10.59375 C 8.269531 -10.15625 8.75 -9.378906 9 -8.265625 L 7.125 -8.265625 C 6.925781 -8.878906 6.632812 -9.289062 6.25 -9.5 C 5.882812 -9.695312 5.425781 -9.796875 4.875 -9.796875 C 4.320312 -9.796875 3.851562 -9.675781 3.46875 -9.4375 C 3.070312 -9.1875 2.875 -8.820312 2.875 -8.34375 C 2.875 -7.84375 3.039062 -7.476562 3.375 -7.25 C 3.6875 -7.03125 4.085938 -6.835938 4.578125 -6.671875 C 5.054688 -6.523438 5.578125 -6.390625 6.140625 -6.265625 C 6.691406 -6.140625 7.21875 -5.957031 7.71875 -5.71875 C 8.851562 -5.1875 9.421875 -4.328125 9.421875 -3.140625 C 9.421875 -1.960938 8.992188 -1.09375 8.140625 -0.53125 C 7.710938 -0.238281 7.238281 -0.0195312 6.71875 0.125 C 6.21875 0.257812 5.671875 0.328125 5.078125 0.328125 C 2.523438 0.328125 1.054688 -0.804688 0.671875 -3.078125 L 2.515625 -3.078125 C 2.703125 -2.359375 3.019531 -1.859375 3.46875 -1.578125 Z M 3.46875 -1.578125 "/></g></g></g><g fill="#000000" fill-opacity="1"><g transform="translate(303.859311, 149.712875)"><g/></g></g><g fill="#000000" fill-opacity="1"><g transform="translate(310.603611, 149.712875)"><g><path d="M 10.625 -5.5 C 10.625 -6.5625 10.253906 -7.492188 9.515625 -8.296875 C 8.765625 -9.097656 7.84375 -9.5 6.75 -9.5 C 5.644531 -9.5 4.726562 -9.097656 4 -8.296875 C 3.25 -7.492188 2.875 -6.5625 2.875 -5.5 C 2.875 -4.425781 3.25 -3.492188 4 -2.703125 C 4.726562 -1.898438 5.644531 -1.5 6.75 -1.5 C 7.84375 -1.5 8.765625 -1.898438 9.515625 -2.703125 C 10.253906 -3.492188 10.625 -4.425781 10.625 -5.5 Z M 12.375 0 L 10.625 0 L 10.625 -1.875 C 10.519531 -1.738281 10.414062 -1.613281 10.3125 -1.5 C 9.269531 -0.332031 7.988281 0.25 6.46875 0.25 C 4.957031 0.25 3.679688 -0.332031 2.640625 -1.5 C 1.628906 -2.632812 1.125 -3.96875 1.125 -5.5 C 1.125 -7.03125 1.628906 -8.363281 2.640625 -9.5 C 3.679688 -10.664062 4.957031 -11.25 6.46875 -11.25 C 7.988281 -11.25 9.269531 -10.664062 10.3125 -9.5 C 10.414062 -9.375 10.519531 -9.25 10.625 -9.125 L 10.625 -11 L 12.375 -11 Z M 12.375 0 "/></g></g></g><g fill="#000000" fill-opacity="1"><g transform="translate(324.84157, 149.712875)"><g><path d="M 9.46875 0 L 9.46875 -6.875 C 9.46875 -7.582031 9.3125 -8.195312 9 -8.71875 C 8.664062 -9.21875 8.125 -9.46875 7.375 -9.46875 C 6.625 -9.46875 6.015625 -9.328125 5.546875 -9.046875 C 5.078125 -8.765625 4.703125 -8.394531 4.421875 -7.9375 C 3.890625 -7.113281 3.625 -6 3.625 -4.59375 L 3.625 0 L 1.875 0 L 1.875 -11 L 3.625 -11 L 3.625 -9.09375 C 3.988281 -9.707031 4.453125 -10.21875 5.015625 -10.625 C 5.617188 -11.019531 6.3125 -11.21875 7.09375 -11.21875 C 7.875 -11.21875 8.507812 -11.109375 9 -10.890625 C 9.476562 -10.660156 9.882812 -10.351562 10.21875 -9.96875 C 10.882812 -9.1875 11.21875 -8.15625 11.21875 -6.875 L 11.21875 0 Z M 9.46875 0 "/></g></g></g><g fill="#000000" fill-opacity="1"><g transform="translate(337.555811, 149.712875)"><g><path d="M 10.625 -5.5 C 10.625 -6.5625 10.253906 -7.492188 9.515625 -8.296875 C 8.765625 -9.097656 7.84375 -9.5 6.75 -9.5 C 5.644531 -9.5 4.726562 -9.097656 4 -8.296875 C 3.25 -7.492188 2.875 -6.5625 2.875 -5.5 C 2.875 -4.425781 3.25 -3.492188 4 -2.703125 C 4.726562 -1.898438 5.644531 -1.5 6.75 -1.5 C 7.84375 -1.5 8.765625 -1.898438 9.515625 -2.703125 C 10.253906 -3.492188 10.625 -4.425781 10.625 -5.5 Z M 12.375 0 L 10.625 0 L 10.625 -1.875 C 10.519531 -1.738281 10.414062 -1.613281 10.3125 -1.5 C 9.269531 -0.332031 7.988281 0.25 6.46875 0.25 C 4.957031 0.25 3.679688 -0.332031 2.640625 -1.5 C 1.628906 -2.632812 1.125 -3.96875 1.125 -5.5 C 1.125 -7.03125 1.628906 -8.363281 2.640625 -9.5 C 3.679688 -10.664062 4.957031 -11.25 6.46875 -11.25 C 7.988281 -11.25 9.269531 -10.664062 10.3125 -9.5 C 10.414062 -9.375 10.519531 -9.25 10.625 -9.125 L 10.625 -18.734375 L 12.375 -18.734375 Z M 12.375 0 "/></g></g></g><g fill="#000000" fill-opacity="1"><g transform="translate(351.79377, 149.712875)"><g/></g></g><g fill="#000000" fill-opacity="1"><g transform="translate(358.53807, 149.712875)"><g><path d="M 17.46875 -5.203125 C 16.832031 -3.566406 15.796875 -2.257812 14.359375 -1.28125 C 12.910156 -0.257812 11.320312 0.25 9.59375 0.25 C 7.25 0.25 5.242188 -0.613281 3.578125 -2.34375 C 1.941406 -4.039062 1.125 -6.082031 1.125 -8.46875 C 1.125 -9.65625 1.34375 -10.78125 1.78125 -11.84375 C 2.207031 -12.894531 2.804688 -13.816406 3.578125 -14.609375 C 5.242188 -16.347656 7.25 -17.21875 9.59375 -17.21875 C 11.320312 -17.21875 12.90625 -16.722656 14.34375 -15.734375 C 15.769531 -14.734375 16.800781 -13.425781 17.4375 -11.8125 L 15.515625 -11.8125 C 14.597656 -13.5 13.234375 -14.617188 11.421875 -15.171875 C 10.816406 -15.335938 10.125 -15.421875 9.34375 -15.421875 C 8.5625 -15.421875 7.765625 -15.234375 6.953125 -14.859375 C 6.128906 -14.484375 5.421875 -13.976562 4.828125 -13.34375 C 3.523438 -11.988281 2.875 -10.363281 2.875 -8.46875 C 2.875 -6.582031 3.523438 -4.96875 4.828125 -3.625 C 6.140625 -2.238281 7.726562 -1.546875 9.59375 -1.546875 C 10.863281 -1.546875 12.03125 -1.878906 13.09375 -2.546875 C 14.144531 -3.210938 14.960938 -4.097656 15.546875 -5.203125 Z M 17.46875 -5.203125 "/></g></g></g><g fill="#000000" fill-opacity="1"><g transform="translate(376.747672, 149.712875)"><g><path d="M 10.875 -5.546875 C 10.875 -6.648438 10.476562 -7.59375 9.6875 -8.375 C 8.90625 -9.15625 7.96875 -9.546875 6.875 -9.546875 C 5.769531 -9.546875 4.828125 -9.15625 4.046875 -8.375 C 3.265625 -7.59375 2.875 -6.648438 2.875 -5.546875 C 2.875 -4.460938 3.265625 -3.53125 4.046875 -2.75 C 4.828125 -1.96875 5.769531 -1.578125 6.875 -1.578125 C 7.96875 -1.578125 8.90625 -1.96875 9.6875 -2.75 C 10.476562 -3.53125 10.875 -4.460938 10.875 -5.546875 Z M 12.609375 -5.546875 C 12.609375 -3.941406 12.050781 -2.59375 10.9375 -1.5 C 9.789062 -0.382812 8.4375 0.171875 6.875 0.171875 C 5.300781 0.171875 3.953125 -0.382812 2.828125 -1.5 C 1.691406 -2.59375 1.125 -3.941406 1.125 -5.546875 C 1.125 -7.128906 1.691406 -8.488281 2.828125 -9.625 C 3.941406 -10.738281 5.289062 -11.296875 6.875 -11.296875 C 8.457031 -11.296875 9.8125 -10.738281 10.9375 -9.625 C 12.050781 -8.488281 12.609375 -7.128906 12.609375 -5.546875 Z M 12.609375 -5.546875 "/></g></g></g><g fill="#000000" fill-opacity="1"><g transform="translate(390.486039, 149.712875)"><g><path d="M 15.8125 -0.046875 L 15.8125 -6.921875 C 15.8125 -8.054688 15.453125 -8.851562 14.734375 -9.3125 C 14.484375 -9.46875 14.101562 -9.546875 13.59375 -9.546875 C 13.070312 -9.546875 12.585938 -9.394531 12.140625 -9.09375 C 11.691406 -8.789062 11.332031 -8.40625 11.0625 -7.9375 C 10.96875 -7.757812 10.878906 -7.5625 10.796875 -7.34375 C 10.796875 -7.207031 10.796875 -7.066406 10.796875 -6.921875 L 10.796875 -0.046875 L 9.046875 -0.046875 L 9.046875 -6.921875 C 9.046875 -8.054688 8.6875 -8.851562 7.96875 -9.3125 C 7.71875 -9.46875 7.335938 -9.546875 6.828125 -9.546875 C 6.304688 -9.546875 5.820312 -9.394531 5.375 -9.09375 C 4.925781 -8.789062 4.566406 -8.40625 4.296875 -7.9375 C 3.941406 -7.320312 3.71875 -6.566406 3.625 -5.671875 L 3.625 -0.046875 L 1.875 -0.046875 L 1.875 -11.046875 L 3.625 -11.046875 L 3.625 -9.296875 C 3.957031 -9.859375 4.375 -10.316406 4.875 -10.671875 C 5.4375 -11.085938 6.101562 -11.296875 6.875 -11.296875 C 7.632812 -11.296875 8.25 -11.175781 8.71875 -10.9375 C 9.1875 -10.6875 9.578125 -10.363281 9.890625 -9.96875 C 10.054688 -9.738281 10.207031 -9.476562 10.34375 -9.1875 C 10.675781 -9.789062 11.109375 -10.285156 11.640625 -10.671875 C 12.203125 -11.085938 12.867188 -11.296875 13.640625 -11.296875 C 14.410156 -11.296875 15.023438 -11.175781 15.484375 -10.9375 C 15.953125 -10.6875 16.347656 -10.363281 16.671875 -9.96875 C 17.265625 -9.1875 17.5625 -8.171875 17.5625 -6.921875 L 17.5625 -0.046875 Z M 15.8125 -0.046875 "/></g></g></g><g fill="#000000" fill-opacity="1"><g transform="translate(409.54493, 149.712875)"><g><path d="M 15.8125 -0.046875 L 15.8125 -6.921875 C 15.8125 -8.054688 15.453125 -8.851562 14.734375 -9.3125 C 14.484375 -9.46875 14.101562 -9.546875 13.59375 -9.546875 C 13.070312 -9.546875 12.585938 -9.394531 12.140625 -9.09375 C 11.691406 -8.789062 11.332031 -8.40625 11.0625 -7.9375 C 10.96875 -7.757812 10.878906 -7.5625 10.796875 -7.34375 C 10.796875 -7.207031 10.796875 -7.066406 10.796875 -6.921875 L 10.796875 -0.046875 L 9.046875 -0.046875 L 9.046875 -6.921875 C 9.046875 -8.054688 8.6875 -8.851562 7.96875 -9.3125 C 7.71875 -9.46875 7.335938 -9.546875 6.828125 -9.546875 C 6.304688 -9.546875 5.820312 -9.394531 5.375 -9.09375 C 4.925781 -8.789062 4.566406 -8.40625 4.296875 -7.9375 C 3.941406 -7.320312 3.71875 -6.566406 3.625 -5.671875 L 3.625 -0.046875 L 1.875 -0.046875 L 1.875 -11.046875 L 3.625 -11.046875 L 3.625 -9.296875 C 3.957031 -9.859375 4.375 -10.316406 4.875 -10.671875 C 5.4375 -11.085938 6.101562 -11.296875 6.875 -11.296875 C 7.632812 -11.296875 8.25 -11.175781 8.71875 -10.9375 C 9.1875 -10.6875 9.578125 -10.363281 9.890625 -9.96875 C 10.054688 -9.738281 10.207031 -9.476562 10.34375 -9.1875 C 10.675781 -9.789062 11.109375 -10.285156 11.640625 -10.671875 C 12.203125 -11.085938 12.867188 -11.296875 13.640625 -11.296875 C 14.410156 -11.296875 15.023438 -11.175781 15.484375 -10.9375 C 15.953125 -10.6875 16.347656 -10.363281 16.671875 -9.96875 C 17.265625 -9.1875 17.5625 -8.171875 17.5625 -6.921875 L 17.5625 -0.046875 Z M 15.8125 -0.046875 "/></g></g></g><g fill="#000000" fill-opacity="1"><g transform="translate(428.603821, 149.712875)"><g><path d="M 3.640625 -14.796875 C 3.859375 -14.578125 3.96875 -14.316406 3.96875 -14.015625 C 3.96875 -13.703125 3.859375 -13.4375 3.640625 -13.21875 C 3.429688 -13 3.175781 -12.890625 2.875 -12.890625 C 2.5625 -12.890625 2.296875 -13 2.078125 -13.21875 C 1.859375 -13.4375 1.75 -13.703125 1.75 -14.015625 C 1.75 -14.316406 1.859375 -14.578125 2.078125 -14.796875 C 2.296875 -15.003906 2.5625 -15.109375 2.875 -15.109375 C 3.175781 -15.109375 3.429688 -15.003906 3.640625 -14.796875 Z M 3.75 0 L 2 0 L 2 -11 L 3.75 -11 Z M 3.75 0 "/></g></g></g><g fill="#000000" fill-opacity="1"><g transform="translate(434.323995, 149.712875)"><g><path d="M 3.46875 -1.578125 C 3.90625 -1.273438 4.472656 -1.125 5.171875 -1.125 C 6.765625 -1.125 7.5625 -1.722656 7.5625 -2.921875 C 7.5625 -3.617188 6.988281 -4.148438 5.84375 -4.515625 C 5.363281 -4.679688 4.847656 -4.832031 4.296875 -4.96875 C 3.734375 -5.101562 3.207031 -5.28125 2.71875 -5.5 C 2.15625 -5.757812 1.734375 -6.09375 1.453125 -6.5 C 1.171875 -6.894531 1.03125 -7.367188 1.03125 -7.921875 C 1.03125 -9.015625 1.410156 -9.835938 2.171875 -10.390625 C 2.941406 -10.960938 3.859375 -11.25 4.921875 -11.25 C 5.984375 -11.25 6.863281 -11.03125 7.5625 -10.59375 C 8.269531 -10.15625 8.75 -9.378906 9 -8.265625 L 7.125 -8.265625 C 6.925781 -8.878906 6.632812 -9.289062 6.25 -9.5 C 5.882812 -9.695312 5.425781 -9.796875 4.875 -9.796875 C 4.320312 -9.796875 3.851562 -9.675781 3.46875 -9.4375 C 3.070312 -9.1875 2.875 -8.820312 2.875 -8.34375 C 2.875 -7.84375 3.039062 -7.476562 3.375 -7.25 C 3.6875 -7.03125 4.085938 -6.835938 4.578125 -6.671875 C 5.054688 -6.523438 5.578125 -6.390625 6.140625 -6.265625 C 6.691406 -6.140625 7.21875 -5.957031 7.71875 -5.71875 C 8.851562 -5.1875 9.421875 -4.328125 9.421875 -3.140625 C 9.421875 -1.960938 8.992188 -1.09375 8.140625 -0.53125 C 7.710938 -0.238281 7.238281 -0.0195312 6.71875 0.125 C 6.21875 0.257812 5.671875 0.328125 5.078125 0.328125 C 2.523438 0.328125 1.054688 -0.804688 0.671875 -3.078125 L 2.515625 -3.078125 C 2.703125 -2.359375 3.019531 -1.859375 3.46875 -1.578125 Z M 3.46875 -1.578125 "/></g></g></g><g fill="#000000" fill-opacity="1"><g transform="translate(444.365509, 149.712875)"><g><path d="M 3.46875 -1.578125 C 3.90625 -1.273438 4.472656 -1.125 5.171875 -1.125 C 6.765625 -1.125 7.5625 -1.722656 7.5625 -2.921875 C 7.5625 -3.617188 6.988281 -4.148438 5.84375 -4.515625 C 5.363281 -4.679688 4.847656 -4.832031 4.296875 -4.96875 C 3.734375 -5.101562 3.207031 -5.28125 2.71875 -5.5 C 2.15625 -5.757812 1.734375 -6.09375 1.453125 -6.5 C 1.171875 -6.894531 1.03125 -7.367188 1.03125 -7.921875 C 1.03125 -9.015625 1.410156 -9.835938 2.171875 -10.390625 C 2.941406 -10.960938 3.859375 -11.25 4.921875 -11.25 C 5.984375 -11.25 6.863281 -11.03125 7.5625 -10.59375 C 8.269531 -10.15625 8.75 -9.378906 9 -8.265625 L 7.125 -8.265625 C 6.925781 -8.878906 6.632812 -9.289062 6.25 -9.5 C 5.882812 -9.695312 5.425781 -9.796875 4.875 -9.796875 C 4.320312 -9.796875 3.851562 -9.675781 3.46875 -9.4375 C 3.070312 -9.1875 2.875 -8.820312 2.875 -8.34375 C 2.875 -7.84375 3.039062 -7.476562 3.375 -7.25 C 3.6875 -7.03125 4.085938 -6.835938 4.578125 -6.671875 C 5.054688 -6.523438 5.578125 -6.390625 6.140625 -6.265625 C 6.691406 -6.140625 7.21875 -5.957031 7.71875 -5.71875 C 8.851562 -5.1875 9.421875 -4.328125 9.421875 -3.140625 C 9.421875 -1.960938 8.992188 -1.09375 8.140625 -0.53125 C 7.710938 -0.238281 7.238281 -0.0195312 6.71875 0.125 C 6.21875 0.257812 5.671875 0.328125 5.078125 0.328125 C 2.523438 0.328125 1.054688 -0.804688 0.671875 -3.078125 L 2.515625 -3.078125 C 2.703125 -2.359375 3.019531 -1.859375 3.46875 -1.578125 Z M 3.46875 -1.578125 "/></g></g></g><g fill="#000000" fill-opacity="1"><g transform="translate(454.407023, 149.712875)"><g><path d="M 3.640625 -14.796875 C 3.859375 -14.578125 3.96875 -14.316406 3.96875 -14.015625 C 3.96875 -13.703125 3.859375 -13.4375 3.640625 -13.21875 C 3.429688 -13 3.175781 -12.890625 2.875 -12.890625 C 2.5625 -12.890625 2.296875 -13 2.078125 -13.21875 C 1.859375 -13.4375 1.75 -13.703125 1.75 -14.015625 C 1.75 -14.316406 1.859375 -14.578125 2.078125 -14.796875 C 2.296875 -15.003906 2.5625 -15.109375 2.875 -15.109375 C 3.175781 -15.109375 3.429688 -15.003906 3.640625 -14.796875 Z M 3.75 0 L 2 0 L 2 -11 L 3.75 -11 Z M 3.75 0 "/></g></g></g><g fill="#000000" fill-opacity="1"><g transform="translate(460.127197, 149.712875)"><g><path d="M 10.875 -5.546875 C 10.875 -6.648438 10.476562 -7.59375 9.6875 -8.375 C 8.90625 -9.15625 7.96875 -9.546875 6.875 -9.546875 C 5.769531 -9.546875 4.828125 -9.15625 4.046875 -8.375 C 3.265625 -7.59375 2.875 -6.648438 2.875 -5.546875 C 2.875 -4.460938 3.265625 -3.53125 4.046875 -2.75 C 4.828125 -1.96875 5.769531 -1.578125 6.875 -1.578125 C 7.96875 -1.578125 8.90625 -1.96875 9.6875 -2.75 C 10.476562 -3.53125 10.875 -4.460938 10.875 -5.546875 Z M 12.609375 -5.546875 C 12.609375 -3.941406 12.050781 -2.59375 10.9375 -1.5 C 9.789062 -0.382812 8.4375 0.171875 6.875 0.171875 C 5.300781 0.171875 3.953125 -0.382812 2.828125 -1.5 C 1.691406 -2.59375 1.125 -3.941406 1.125 -5.546875 C 1.125 -7.128906 1.691406 -8.488281 2.828125 -9.625 C 3.941406 -10.738281 5.289062 -11.296875 6.875 -11.296875 C 8.457031 -11.296875 9.8125 -10.738281 10.9375 -9.625 C 12.050781 -8.488281 12.609375 -7.128906 12.609375 -5.546875 Z M 12.609375 -5.546875 "/></g></g></g><g fill="#000000" fill-opacity="1"><g transform="translate(473.865587, 149.712875)"><g><path d="M 9.46875 0 L 9.46875 -6.875 C 9.46875 -7.582031 9.3125 -8.195312 9 -8.71875 C 8.664062 -9.21875 8.125 -9.46875 7.375 -9.46875 C 6.625 -9.46875 6.015625 -9.328125 5.546875 -9.046875 C 5.078125 -8.765625 4.703125 -8.394531 4.421875 -7.9375 C 3.890625 -7.113281 3.625 -6 3.625 -4.59375 L 3.625 0 L 1.875 0 L 1.875 -11 L 3.625 -11 L 3.625 -9.09375 C 3.988281 -9.707031 4.453125 -10.21875 5.015625 -10.625 C 5.617188 -11.019531 6.3125 -11.21875 7.09375 -11.21875 C 7.875 -11.21875 8.507812 -11.109375 9 -10.890625 C 9.476562 -10.660156 9.882812 -10.351562 10.21875 -9.96875 C 10.882812 -9.1875 11.21875 -8.15625 11.21875 -6.875 L 11.21875 0 Z M 9.46875 0 "/></g></g></g><g fill="#000000" fill-opacity="1"><g transform="translate(486.579839, 149.712875)"><g><path d="M 3.640625 -14.796875 C 3.859375 -14.578125 3.96875 -14.316406 3.96875 -14.015625 C 3.96875 -13.703125 3.859375 -13.4375 3.640625 -13.21875 C 3.429688 -13 3.175781 -12.890625 2.875 -12.890625 C 2.5625 -12.890625 2.296875 -13 2.078125 -13.21875 C 1.859375 -13.4375 1.75 -13.703125 1.75 -14.015625 C 1.75 -14.316406 1.859375 -14.578125 2.078125 -14.796875 C 2.296875 -15.003906 2.5625 -15.109375 2.875 -15.109375 C 3.175781 -15.109375 3.429688 -15.003906 3.640625 -14.796875 Z M 3.75 0 L 2 0 L 2 -11 L 3.75 -11 Z M 3.75 0 "/></g></g></g><g fill="#000000" fill-opacity="1"><g transform="translate(492.300014, 149.712875)"><g><path d="M 9.46875 0 L 9.46875 -6.875 C 9.46875 -7.582031 9.3125 -8.195312 9 -8.71875 C 8.664062 -9.21875 8.125 -9.46875 7.375 -9.46875 C 6.625 -9.46875 6.015625 -9.328125 5.546875 -9.046875 C 5.078125 -8.765625 4.703125 -8.394531 4.421875 -7.9375 C 3.890625 -7.113281 3.625 -6 3.625 -4.59375 L 3.625 0 L 1.875 0 L 1.875 -11 L 3.625 -11 L 3.625 -9.09375 C 3.988281 -9.707031 4.453125 -10.21875 5.015625 -10.625 C 5.617188 -11.019531 6.3125 -11.21875 7.09375 -11.21875 C 7.875 -11.21875 8.507812 -11.109375 9 -10.890625 C 9.476562 -10.660156 9.882812 -10.351562 10.21875 -9.96875 C 10.882812 -9.1875 11.21875 -8.15625 11.21875 -6.875 L 11.21875 0 Z M 9.46875 0 "/></g></g></g><g fill="#000000" fill-opacity="1"><g transform="translate(505.014266, 149.712875)"><g><path d="M 10.765625 -5.5 C 10.765625 -6.5625 10.398438 -7.492188 9.671875 -8.296875 C 8.921875 -9.097656 7.992188 -9.5 6.890625 -9.5 C 5.828125 -9.5 4.910156 -9.097656 4.140625 -8.296875 C 3.390625 -7.515625 3.015625 -6.582031 3.015625 -5.5 C 3.015625 -4.414062 3.390625 -3.484375 4.140625 -2.703125 C 4.910156 -1.898438 5.828125 -1.5 6.890625 -1.5 C 7.992188 -1.5 8.921875 -1.898438 9.671875 -2.703125 C 10.398438 -3.492188 10.765625 -4.425781 10.765625 -5.5 Z M 2.96875 1.5 C 3.132812 2.175781 3.492188 2.785156 4.046875 3.328125 C 4.816406 4.109375 5.742188 4.5 6.828125 4.5 C 7.898438 4.5 8.832031 4.109375 9.625 3.328125 C 10.382812 2.554688 10.765625 1.628906 10.765625 0.546875 L 10.765625 -1.84375 C 10.679688 -1.726562 10.59375 -1.613281 10.5 -1.5 C 9.445312 -0.332031 8.160156 0.25 6.640625 0.25 C 5.109375 0.25 3.828125 -0.332031 2.796875 -1.5 C 1.785156 -2.632812 1.28125 -3.96875 1.28125 -5.5 C 1.28125 -7.03125 1.785156 -8.363281 2.796875 -9.5 C 3.828125 -10.664062 5.109375 -11.25 6.640625 -11.25 C 8.109375 -11.25 9.394531 -10.664062 10.5 -9.5 C 10.59375 -9.375 10.679688 -9.253906 10.765625 -9.140625 L 10.765625 -11 L 12.515625 -11 L 12.515625 0.546875 C 12.515625 2.109375 11.957031 3.453125 10.84375 4.578125 C 9.726562 5.691406 8.390625 6.25 6.828125 6.25 C 5.253906 6.25 3.910156 5.691406 2.796875 4.578125 C 1.910156 3.691406 1.378906 2.664062 1.203125 1.5 Z M 2.96875 1.5 "/></g></g></g><g clip-path="url(#5e095141fa)"><g clip-path="url(#8ca2960b42)"><path fill="#ffffff" d="M 312.410156 10.253906 L 405.089844 10.253906 L 405.089844 102.9375 L 312.410156 102.9375 Z M 312.410156 10.253906 " fill-opacity="1" fill-rule="nonzero"/></g></g><g clip-path="url(#b8beac3f23)"><g clip-path="url(#4b823851f9)"><path stroke-linecap="butt" transform="matrix(0.749485, 0, 0, 0.749485, 312.408574, 10.255061)" fill="none" stroke-linejoin="miter" d="M 61.825826 -0.00154009 C 27.682582 -0.00154009 0.00211083 27.678931 0.00211083 61.827387 C 0.00211083 95.975843 27.682582 123.656315 61.825826 123.656315 C 95.974282 123.656315 123.654754 95.975843 123.654754 61.827387 C 123.654754 27.678931 95.974282 -0.00154009 61.825826 -0.00154009 Z M 61.825826 -0.00154009 " stroke="#00bf63" stroke-width="8" stroke-opacity="1" stroke-miterlimit="4"/></g></g><path fill="#00bf63" d="M 353.515625 46.132812 C 353.515625 41.328125 349.605469 37.417969 344.800781 37.417969 C 339.996094 37.417969 336.085938 41.328125 336.085938 46.132812 C 336.085938 50.941406 339.996094 54.964844 344.800781 54.964844 C 349.605469 54.964844 353.515625 50.941406 353.515625 46.132812 Z M 353.515625 46.132812 " fill-opacity="1" fill-rule="nonzero"/><path fill="#00bf63" d="M 360.488281 72.398438 L 358.746094 72.398438 C 357.785156 72.398438 357.003906 73.179688 357.003906 74.140625 L 357.003906 77.628906 C 357.003906 78.589844 357.785156 79.371094 358.746094 79.371094 L 360.488281 79.371094 C 362.414062 79.371094 363.976562 77.808594 363.976562 75.886719 C 363.976562 73.960938 362.414062 72.398438 360.488281 72.398438 Z M 360.488281 72.398438 " fill-opacity="1" fill-rule="nonzero"/><g clip-path="url(#ab2cffcfa0)"><path fill="#00bf63" d="M 338.910156 86.34375 L 340.058594 82.859375 L 337.828125 82.859375 C 335.945312 82.859375 334.167969 82.441406 332.597656 81.636719 L 332.597656 84.601562 C 332.597656 85.578125 333.367188 86.34375 334.339844 86.34375 Z M 338.910156 86.34375 " fill-opacity="1" fill-rule="nonzero"/></g><g clip-path="url(#0747fbc8bd)"><path fill="#00bf63" d="M 337.828125 79.371094 L 341.246094 79.371094 C 341.101562 79.800781 343.425781 72.765625 343.546875 72.398438 L 337.828125 72.398438 C 336.851562 72.398438 336.085938 71.632812 336.085938 70.65625 L 336.085938 63.683594 C 336.085938 62.707031 336.851562 61.9375 337.828125 61.9375 C 338.804688 61.9375 339.570312 62.707031 339.570312 63.683594 L 339.570312 68.910156 L 344.695312 68.910156 C 344.574219 69.277344 346.527344 63.492188 346.648438 63.125 C 346.859375 62.425781 347.519531 61.9375 348.289062 61.9375 L 360.316406 61.9375 C 359.515625 57.964844 355.992188 54.964844 351.773438 54.964844 L 337.828125 54.964844 C 333.003906 54.964844 328.996094 58.878906 328.996094 63.683594 L 328.996094 70.65625 C 328.996094 75.640625 333.277344 79.371094 337.828125 79.371094 Z M 337.828125 79.371094 " fill-opacity="1" fill-rule="nonzero"/></g><g clip-path="url(#353f21be69)"><path fill="#00bf63" d="M 361.070312 65.425781 L 349.542969 65.425781 L 342.570312 86.34375 L 355.261719 86.34375 C 356.011719 86.34375 356.675781 85.863281 356.914062 85.152344 L 357.714844 82.753906 C 355.324219 82.273438 353.515625 80.160156 353.515625 77.628906 L 353.515625 74.140625 C 353.515625 71.257812 355.863281 68.914062 358.746094 68.914062 L 360.488281 68.914062 C 361.097656 68.914062 361.679688 69.015625 362.242188 69.164062 L 362.722656 67.71875 C 363.101562 66.589844 362.261719 65.425781 361.070312 65.425781 Z M 361.070312 65.425781 " fill-opacity="1" fill-rule="nonzero"/></g><g clip-path="url(#3ea7f8b8cc)"><path fill="#00bf63" d="M 383.269531 26.84375 L 362.234375 26.84375 C 359.351562 26.84375 357.003906 29.1875 357.003906 32.070312 L 357.003906 46.132812 C 357.003906 49.019531 359.351562 51.480469 362.234375 51.480469 L 363.976562 51.480469 L 363.976562 56.710938 C 363.976562 57.414062 364.398438 58.050781 365.050781 58.320312 C 365.695312 58.589844 366.449219 58.445312 366.953125 57.941406 L 373.414062 51.480469 L 383.269531 51.480469 C 386.152344 51.480469 388.496094 49.019531 388.496094 46.132812 L 388.496094 32.070312 C 388.496094 29.1875 386.152344 26.84375 383.269531 26.84375 Z M 377.410156 38.648438 L 372.183594 43.878906 C 371.839844 44.222656 371.394531 44.390625 370.949219 44.390625 C 370.503906 44.390625 370.058594 44.222656 369.71875 43.878906 L 367.101562 41.265625 C 366.421875 40.585938 366.421875 39.480469 367.101562 38.800781 C 367.78125 38.121094 368.886719 38.121094 369.566406 38.800781 L 370.949219 40.183594 L 374.945312 36.183594 C 375.628906 35.503906 376.730469 35.503906 377.410156 36.183594 C 378.09375 36.867188 378.09375 37.96875 377.410156 38.648438 Z M 377.410156 38.648438 " fill-opacity="1" fill-rule="nonzero"/></g><path fill="#ffffff" d="M 215.289062 246.035156 C 215.289062 246.429688 215.214844 246.8125 215.0625 247.179688 C 214.910156 247.546875 214.695312 247.871094 214.414062 248.152344 C 214.132812 248.433594 213.808594 248.652344 213.441406 248.804688 C 213.074219 248.957031 212.691406 249.03125 212.292969 249.03125 C 211.894531 249.03125 211.511719 248.957031 211.144531 248.804688 C 210.777344 248.652344 210.453125 248.433594 210.171875 248.152344 C 209.890625 247.871094 209.675781 247.546875 209.523438 247.179688 C 209.371094 246.8125 209.292969 246.429688 209.292969 246.035156 C 209.292969 245.636719 209.371094 245.253906 209.523438 244.886719 C 209.675781 244.519531 209.890625 244.195312 210.171875 243.914062 C 210.453125 243.632812 210.777344 243.414062 211.144531 243.261719 C 211.511719 243.113281 211.894531 243.035156 212.292969 243.035156 C 212.691406 243.035156 213.074219 243.113281 213.441406 243.261719 C 213.808594 243.414062 214.132812 243.632812 214.414062 243.914062 C 214.695312 244.195312 214.910156 244.519531 215.0625 244.886719 C 215.214844 245.253906 215.289062 245.636719 215.289062 246.035156 Z M 215.289062 246.035156 " fill-opacity="1" fill-rule="nonzero"/><g fill="#ffffff" fill-opacity="1"><g transform="translate(226.7786, 252.02915)"><g><path d="M 14.90625 -6.359375 L 14.765625 -5.515625 C 14.472656 -3.859375 13.664062 -2.5 12.34375 -1.4375 C 11.03125 -0.375 9.546875 0.15625 7.890625 0.15625 C 6.929688 0.15625 6.023438 -0.03125 5.171875 -0.40625 C 4.316406 -0.757812 3.578125 -1.257812 2.953125 -1.90625 C 2.316406 -2.53125 1.816406 -3.265625 1.453125 -4.109375 C 1.085938 -4.960938 0.90625 -5.878906 0.90625 -6.859375 C 0.90625 -7.816406 1.085938 -8.722656 1.453125 -9.578125 C 1.816406 -10.429688 2.316406 -11.175781 2.953125 -11.8125 C 3.578125 -12.4375 4.316406 -12.9375 5.171875 -13.3125 C 6.023438 -13.664062 6.882812 -13.84375 7.75 -13.84375 C 9.375 -13.84375 10.804688 -13.382812 12.046875 -12.46875 C 13.296875 -11.550781 14.148438 -10.335938 14.609375 -8.828125 L 13.125 -8.828125 C 12.695312 -9.929688 12.015625 -10.8125 11.078125 -11.46875 C 10.109375 -12.125 9.046875 -12.453125 7.890625 -12.453125 C 6.347656 -12.453125 5.03125 -11.90625 3.9375 -10.8125 C 2.84375 -9.71875 2.296875 -8.398438 2.296875 -6.859375 C 2.296875 -5.328125 2.84375 -4.003906 3.9375 -2.890625 C 5.019531 -1.785156 6.335938 -1.234375 7.890625 -1.234375 C 9.117188 -1.234375 10.238281 -1.585938 11.25 -2.296875 C 12.25 -3.015625 12.945312 -3.960938 13.34375 -5.140625 L 7.828125 -5.140625 L 7.828125 -6.359375 Z M 14.90625 -6.359375 "/></g></g></g><g fill="#ffffff" fill-opacity="1"><g transform="translate(242.581505, 252.02915)"><g><path d="M 8.6875 -4.4375 C 8.6875 -5.3125 8.375 -6.0625 7.75 -6.6875 C 7.125 -7.320312 6.375 -7.640625 5.5 -7.640625 C 4.613281 -7.640625 3.859375 -7.320312 3.234375 -6.6875 C 2.609375 -6.0625 2.296875 -5.3125 2.296875 -4.4375 C 2.296875 -3.570312 2.609375 -2.828125 3.234375 -2.203125 C 3.859375 -1.578125 4.613281 -1.265625 5.5 -1.265625 C 6.375 -1.265625 7.125 -1.578125 7.75 -2.203125 C 8.375 -2.828125 8.6875 -3.570312 8.6875 -4.4375 Z M 10.09375 -4.4375 C 10.09375 -3.15625 9.644531 -2.078125 8.75 -1.203125 C 7.832031 -0.304688 6.75 0.140625 5.5 0.140625 C 4.25 0.140625 3.171875 -0.304688 2.265625 -1.203125 C 1.359375 -2.078125 0.90625 -3.15625 0.90625 -4.4375 C 0.90625 -5.695312 1.359375 -6.78125 2.265625 -7.6875 C 3.148438 -8.582031 4.226562 -9.03125 5.5 -9.03125 C 6.757812 -9.03125 7.84375 -8.582031 8.75 -7.6875 C 9.644531 -6.78125 10.09375 -5.695312 10.09375 -4.4375 Z M 10.09375 -4.4375 "/></g></g></g><g fill="#ffffff" fill-opacity="1"><g transform="translate(253.569618, 252.02915)"><g><path d="M 4.25 0.84375 L 0.203125 -8.796875 L 1.71875 -8.796875 L 4.25 -2.265625 L 6.78125 -8.796875 L 8.296875 -8.796875 Z M 4.25 0.84375 "/></g></g></g><g fill="#ffffff" fill-opacity="1"><g transform="translate(262.060425, 252.02915)"><g><path d="M 10.09375 -4.59375 L 10.09375 -3.859375 L 2.359375 -3.859375 C 2.492188 -3.097656 2.859375 -2.476562 3.453125 -2 C 4.066406 -1.507812 4.75 -1.265625 5.5 -1.265625 C 6 -1.265625 6.484375 -1.382812 6.953125 -1.625 C 7.410156 -1.84375 7.789062 -2.160156 8.09375 -2.578125 L 9.6875 -2.578125 C 9.320312 -1.734375 8.765625 -1.070312 8.015625 -0.59375 C 7.253906 -0.101562 6.488281 0.140625 5.71875 0.140625 C 4.925781 0.140625 4.257812 0.0195312 3.71875 -0.21875 C 3.15625 -0.457031 2.671875 -0.785156 2.265625 -1.203125 C 1.359375 -2.078125 0.90625 -3.15625 0.90625 -4.4375 C 0.90625 -5.695312 1.359375 -6.78125 2.265625 -7.6875 C 3.148438 -8.582031 4.226562 -9.03125 5.5 -9.03125 C 6.71875 -9.03125 7.789062 -8.597656 8.71875 -7.734375 C 9.632812 -6.859375 10.09375 -5.8125 10.09375 -4.59375 Z M 8.609375 -5.0625 C 8.453125 -5.800781 8.082031 -6.421875 7.5 -6.921875 C 6.90625 -7.398438 6.238281 -7.640625 5.5 -7.640625 C 4.351562 -7.640625 3.453125 -7.125 2.796875 -6.09375 C 2.597656 -5.769531 2.457031 -5.425781 2.375 -5.0625 Z M 8.609375 -5.0625 "/></g></g></g><g fill="#ffffff" fill-opacity="1"><g transform="translate(272.948644, 252.02915)"><g><path d="M 6.015625 -6.96875 C 5.691406 -7.269531 5.34375 -7.421875 4.96875 -7.421875 C 4.613281 -7.421875 4.3125 -7.316406 4.0625 -7.109375 C 3.789062 -6.898438 3.566406 -6.648438 3.390625 -6.359375 C 3.054688 -5.765625 2.890625 -5.109375 2.890625 -4.390625 L 2.890625 0 L 1.5 0 L 1.5 -8.796875 L 2.890625 -8.796875 L 2.890625 -6.96875 L 2.953125 -7.328125 C 3.421875 -8.421875 4.148438 -8.96875 5.140625 -8.96875 C 5.441406 -8.96875 5.734375 -8.910156 6.015625 -8.796875 Z M 6.015625 -6.96875 "/></g></g></g><g fill="#ffffff" fill-opacity="1"><g transform="translate(279.161925, 252.02915)"><g><path d="M 7.578125 0 L 7.578125 -5.5 C 7.578125 -6.070312 7.445312 -6.5625 7.1875 -6.96875 C 6.925781 -7.375 6.492188 -7.578125 5.890625 -7.578125 C 5.296875 -7.578125 4.8125 -7.460938 4.4375 -7.234375 C 4.0625 -7.003906 3.757812 -6.710938 3.53125 -6.359375 C 3.101562 -5.691406 2.890625 -4.796875 2.890625 -3.671875 L 2.890625 0 L 1.5 0 L 1.5 -8.796875 L 2.890625 -8.796875 L 2.890625 -7.28125 C 3.191406 -7.769531 3.566406 -8.175781 4.015625 -8.5 C 4.492188 -8.8125 5.046875 -8.96875 5.671875 -8.96875 C 6.296875 -8.96875 6.800781 -8.882812 7.1875 -8.71875 C 7.582031 -8.53125 7.910156 -8.28125 8.171875 -7.96875 C 8.703125 -7.34375 8.96875 -6.519531 8.96875 -5.5 L 8.96875 0 Z M 7.578125 0 "/></g></g></g><g fill="#ffffff" fill-opacity="1"><g transform="translate(289.330919, 252.02915)"><g><path d="M 12.65625 -0.046875 L 12.65625 -5.53125 C 12.65625 -6.4375 12.367188 -7.078125 11.796875 -7.453125 C 11.585938 -7.578125 11.28125 -7.640625 10.875 -7.640625 C 10.457031 -7.640625 10.070312 -7.519531 9.71875 -7.28125 C 9.351562 -7.039062 9.066406 -6.734375 8.859375 -6.359375 C 8.773438 -6.210938 8.703125 -6.050781 8.640625 -5.875 C 8.640625 -5.769531 8.640625 -5.65625 8.640625 -5.53125 L 8.640625 -0.046875 L 7.234375 -0.046875 L 7.234375 -5.53125 C 7.234375 -6.4375 6.945312 -7.078125 6.375 -7.453125 C 6.175781 -7.578125 5.867188 -7.640625 5.453125 -7.640625 C 5.046875 -7.640625 4.660156 -7.519531 4.296875 -7.28125 C 3.929688 -7.039062 3.644531 -6.734375 3.4375 -6.359375 C 3.15625 -5.859375 2.972656 -5.25 2.890625 -4.53125 L 2.890625 -0.046875 L 1.5 -0.046875 L 1.5 -8.828125 L 2.890625 -8.828125 L 2.890625 -7.4375 C 3.160156 -7.882812 3.492188 -8.25 3.890625 -8.53125 C 4.347656 -8.863281 4.882812 -9.03125 5.5 -9.03125 C 6.113281 -9.03125 6.601562 -8.9375 6.96875 -8.75 C 7.34375 -8.550781 7.65625 -8.289062 7.90625 -7.96875 C 8.039062 -7.78125 8.164062 -7.578125 8.28125 -7.359375 C 8.539062 -7.835938 8.882812 -8.226562 9.3125 -8.53125 C 9.769531 -8.863281 10.300781 -9.03125 10.90625 -9.03125 C 11.519531 -9.03125 12.015625 -8.9375 12.390625 -8.75 C 12.765625 -8.550781 13.078125 -8.289062 13.328125 -7.96875 C 13.804688 -7.34375 14.046875 -6.53125 14.046875 -5.53125 L 14.046875 -0.046875 Z M 12.65625 -0.046875 "/></g></g></g><g fill="#ffffff" fill-opacity="1"><g transform="translate(304.57442, 252.02915)"><g><path d="M 10.09375 -4.59375 L 10.09375 -3.859375 L 2.359375 -3.859375 C 2.492188 -3.097656 2.859375 -2.476562 3.453125 -2 C 4.066406 -1.507812 4.75 -1.265625 5.5 -1.265625 C 6 -1.265625 6.484375 -1.382812 6.953125 -1.625 C 7.410156 -1.84375 7.789062 -2.160156 8.09375 -2.578125 L 9.6875 -2.578125 C 9.320312 -1.734375 8.765625 -1.070312 8.015625 -0.59375 C 7.253906 -0.101562 6.488281 0.140625 5.71875 0.140625 C 4.925781 0.140625 4.257812 0.0195312 3.71875 -0.21875 C 3.15625 -0.457031 2.671875 -0.785156 2.265625 -1.203125 C 1.359375 -2.078125 0.90625 -3.15625 0.90625 -4.4375 C 0.90625 -5.695312 1.359375 -6.78125 2.265625 -7.6875 C 3.148438 -8.582031 4.226562 -9.03125 5.5 -9.03125 C 6.71875 -9.03125 7.789062 -8.597656 8.71875 -7.734375 C 9.632812 -6.859375 10.09375 -5.8125 10.09375 -4.59375 Z M 8.609375 -5.0625 C 8.453125 -5.800781 8.082031 -6.421875 7.5 -6.921875 C 6.90625 -7.398438 6.238281 -7.640625 5.5 -7.640625 C 4.351562 -7.640625 3.453125 -7.125 2.796875 -6.09375 C 2.597656 -5.769531 2.457031 -5.425781 2.375 -5.0625 Z M 8.609375 -5.0625 "/></g></g></g><g fill="#ffffff" fill-opacity="1"><g transform="translate(315.462638, 252.02915)"><g><path d="M 7.578125 0 L 7.578125 -5.5 C 7.578125 -6.070312 7.445312 -6.5625 7.1875 -6.96875 C 6.925781 -7.375 6.492188 -7.578125 5.890625 -7.578125 C 5.296875 -7.578125 4.8125 -7.460938 4.4375 -7.234375 C 4.0625 -7.003906 3.757812 -6.710938 3.53125 -6.359375 C 3.101562 -5.691406 2.890625 -4.796875 2.890625 -3.671875 L 2.890625 0 L 1.5 0 L 1.5 -8.796875 L 2.890625 -8.796875 L 2.890625 -7.28125 C 3.191406 -7.769531 3.566406 -8.175781 4.015625 -8.5 C 4.492188 -8.8125 5.046875 -8.96875 5.671875 -8.96875 C 6.296875 -8.96875 6.800781 -8.882812 7.1875 -8.71875 C 7.582031 -8.53125 7.910156 -8.28125 8.171875 -7.96875 C 8.703125 -7.34375 8.96875 -6.519531 8.96875 -5.5 L 8.96875 0 Z M 7.578125 0 "/></g></g></g><g fill="#ffffff" fill-opacity="1"><g transform="translate(325.631632, 252.02915)"><g><path d="M 0.40625 -7.5 L 0.40625 -8.796875 L 2.59375 -8.796875 L 2.59375 -12.203125 L 4 -12.203125 L 4 -8.796875 L 6.171875 -8.796875 L 6.171875 -7.5 L 4 -7.5 L 4 0 L 2.59375 0 L 2.59375 -7.5 Z M 0.40625 -7.5 "/></g></g></g><g fill="#ffffff" fill-opacity="1"><g transform="translate(332.204514, 252.02915)"><g/></g></g><g fill="#ffffff" fill-opacity="1"><g transform="translate(337.598675, 252.02915)"><g><path d="M 3.703125 -5 L 8.640625 -5 L 6.171875 -11.25 Z M 12.125 0 L 10.609375 0 L 9.15625 -3.703125 L 3.171875 -3.703125 L 1.71875 0 L 0.203125 0 L 6.171875 -14.53125 Z M 12.125 0 "/></g></g></g><g fill="#ffffff" fill-opacity="1"><g transform="translate(349.925332, 252.02915)"><g><path d="M 2.890625 5 L 1.5 5 L 1.5 -8.796875 L 2.890625 -8.796875 L 2.890625 -7.296875 C 2.972656 -7.398438 3.0625 -7.5 3.15625 -7.59375 C 3.976562 -8.53125 5 -9 6.21875 -9 C 7.425781 -9 8.453125 -8.53125 9.296875 -7.59375 C 10.085938 -6.6875 10.484375 -5.617188 10.484375 -4.390625 C 10.484375 -3.171875 10.085938 -2.109375 9.296875 -1.203125 C 8.453125 -0.265625 7.425781 0.203125 6.21875 0.203125 C 5 0.203125 3.976562 -0.265625 3.15625 -1.203125 C 3.0625 -1.296875 2.972656 -1.394531 2.890625 -1.5 Z M 9.09375 -4.390625 C 9.09375 -5.242188 8.800781 -5.992188 8.21875 -6.640625 C 7.613281 -7.273438 6.875 -7.59375 6 -7.59375 C 5.113281 -7.59375 4.378906 -7.273438 3.796875 -6.640625 C 3.191406 -5.992188 2.890625 -5.242188 2.890625 -4.390625 C 2.890625 -3.546875 3.191406 -2.800781 3.796875 -2.15625 C 4.378906 -1.519531 5.113281 -1.203125 6 -1.203125 C 6.875 -1.203125 7.613281 -1.519531 8.21875 -2.15625 C 8.800781 -2.800781 9.09375 -3.546875 9.09375 -4.390625 Z M 9.09375 -4.390625 "/></g></g></g><g fill="#ffffff" fill-opacity="1"><g transform="translate(361.313004, 252.02915)"><g><path d="M 2.890625 5 L 1.5 5 L 1.5 -8.796875 L 2.890625 -8.796875 L 2.890625 -7.296875 C 2.972656 -7.398438 3.0625 -7.5 3.15625 -7.59375 C 3.976562 -8.53125 5 -9 6.21875 -9 C 7.425781 -9 8.453125 -8.53125 9.296875 -7.59375 C 10.085938 -6.6875 10.484375 -5.617188 10.484375 -4.390625 C 10.484375 -3.171875 10.085938 -2.109375 9.296875 -1.203125 C 8.453125 -0.265625 7.425781 0.203125 6.21875 0.203125 C 5 0.203125 3.976562 -0.265625 3.15625 -1.203125 C 3.0625 -1.296875 2.972656 -1.394531 2.890625 -1.5 Z M 9.09375 -4.390625 C 9.09375 -5.242188 8.800781 -5.992188 8.21875 -6.640625 C 7.613281 -7.273438 6.875 -7.59375 6 -7.59375 C 5.113281 -7.59375 4.378906 -7.273438 3.796875 -6.640625 C 3.191406 -5.992188 2.890625 -5.242188 2.890625 -4.390625 C 2.890625 -3.546875 3.191406 -2.800781 3.796875 -2.15625 C 4.378906 -1.519531 5.113281 -1.203125 6 -1.203125 C 6.875 -1.203125 7.613281 -1.519531 8.21875 -2.15625 C 8.800781 -2.800781 9.09375 -3.546875 9.09375 -4.390625 Z M 9.09375 -4.390625 "/></g></g></g><g fill="#ffffff" fill-opacity="1"><g transform="translate(372.700677, 252.02915)"><g><path d="M 6.015625 -6.96875 C 5.691406 -7.269531 5.34375 -7.421875 4.96875 -7.421875 C 4.613281 -7.421875 4.3125 -7.316406 4.0625 -7.109375 C 3.789062 -6.898438 3.566406 -6.648438 3.390625 -6.359375 C 3.054688 -5.765625 2.890625 -5.109375 2.890625 -4.390625 L 2.890625 0 L 1.5 0 L 1.5 -8.796875 L 2.890625 -8.796875 L 2.890625 -6.96875 L 2.953125 -7.328125 C 3.421875 -8.421875 4.148438 -8.96875 5.140625 -8.96875 C 5.441406 -8.96875 5.734375 -8.910156 6.015625 -8.796875 Z M 6.015625 -6.96875 "/></g></g></g><g fill="#ffffff" fill-opacity="1"><g transform="translate(378.913959, 252.02915)"><g><path d="M 8.6875 -4.4375 C 8.6875 -5.3125 8.375 -6.0625 7.75 -6.6875 C 7.125 -7.320312 6.375 -7.640625 5.5 -7.640625 C 4.613281 -7.640625 3.859375 -7.320312 3.234375 -6.6875 C 2.609375 -6.0625 2.296875 -5.3125 2.296875 -4.4375 C 2.296875 -3.570312 2.609375 -2.828125 3.234375 -2.203125 C 3.859375 -1.578125 4.613281 -1.265625 5.5 -1.265625 C 6.375 -1.265625 7.125 -1.578125 7.75 -2.203125 C 8.375 -2.828125 8.6875 -3.570312 8.6875 -4.4375 Z M 10.09375 -4.4375 C 10.09375 -3.15625 9.644531 -2.078125 8.75 -1.203125 C 7.832031 -0.304688 6.75 0.140625 5.5 0.140625 C 4.25 0.140625 3.171875 -0.304688 2.265625 -1.203125 C 1.359375 -2.078125 0.90625 -3.15625 0.90625 -4.4375 C 0.90625 -5.695312 1.359375 -6.78125 2.265625 -7.6875 C 3.148438 -8.582031 4.226562 -9.03125 5.5 -9.03125 C 6.757812 -9.03125 7.84375 -8.582031 8.75 -7.6875 C 9.644531 -6.78125 10.09375 -5.695312 10.09375 -4.4375 Z M 10.09375 -4.4375 "/></g></g></g><g fill="#ffffff" fill-opacity="1"><g transform="translate(389.902072, 252.02915)"><g><path d="M 4.25 0.84375 L 0.203125 -8.796875 L 1.71875 -8.796875 L 4.25 -2.265625 L 6.78125 -8.796875 L 8.296875 -8.796875 Z M 4.25 0.84375 "/></g></g></g><g fill="#ffffff" fill-opacity="1"><g transform="translate(398.392879, 252.02915)"><g><path d="M 8.5 -4.390625 C 8.5 -5.242188 8.203125 -5.992188 7.609375 -6.640625 C 7.015625 -7.273438 6.273438 -7.59375 5.390625 -7.59375 C 4.515625 -7.59375 3.785156 -7.273438 3.203125 -6.640625 C 2.597656 -5.992188 2.296875 -5.242188 2.296875 -4.390625 C 2.296875 -3.546875 2.597656 -2.800781 3.203125 -2.15625 C 3.785156 -1.519531 4.515625 -1.203125 5.390625 -1.203125 C 6.273438 -1.203125 7.015625 -1.519531 7.609375 -2.15625 C 8.203125 -2.800781 8.5 -3.546875 8.5 -4.390625 Z M 9.890625 0 L 8.5 0 L 8.5 -1.5 C 8.414062 -1.394531 8.332031 -1.296875 8.25 -1.203125 C 7.414062 -0.265625 6.390625 0.203125 5.171875 0.203125 C 3.960938 0.203125 2.945312 -0.265625 2.125 -1.203125 C 1.3125 -2.109375 0.90625 -3.171875 0.90625 -4.390625 C 0.90625 -5.617188 1.3125 -6.6875 2.125 -7.59375 C 2.945312 -8.53125 3.960938 -9 5.171875 -9 C 6.390625 -9 7.414062 -8.53125 8.25 -7.59375 C 8.332031 -7.5 8.414062 -7.398438 8.5 -7.296875 L 8.5 -8.796875 L 9.890625 -8.796875 Z M 9.890625 0 "/></g></g></g><g fill="#ffffff" fill-opacity="1"><g transform="translate(409.780552, 252.02915)"><g><path d="M 2.890625 0 L 1.5 0 L 1.5 -14.984375 L 2.890625 -14.984375 Z M 2.890625 0 "/></g></g></g><g fill="#ffffff" fill-opacity="1"><g transform="translate(414.175793, 252.02915)"><g><path d="M 2.78125 -1.265625 C 3.125 -1.023438 3.578125 -0.90625 4.140625 -0.90625 C 5.421875 -0.90625 6.0625 -1.382812 6.0625 -2.34375 C 6.0625 -2.894531 5.597656 -3.320312 4.671875 -3.625 C 4.285156 -3.75 3.875 -3.867188 3.4375 -3.984375 C 2.988281 -4.085938 2.566406 -4.222656 2.171875 -4.390625 C 1.722656 -4.609375 1.382812 -4.878906 1.15625 -5.203125 C 0.925781 -5.515625 0.8125 -5.890625 0.8125 -6.328125 C 0.8125 -7.210938 1.117188 -7.875 1.734375 -8.3125 C 2.347656 -8.769531 3.082031 -9 3.9375 -9 C 4.789062 -9 5.5 -8.820312 6.0625 -8.46875 C 6.613281 -8.125 6.988281 -7.503906 7.1875 -6.609375 L 5.703125 -6.609375 C 5.535156 -7.109375 5.300781 -7.4375 5 -7.59375 C 4.707031 -7.75 4.335938 -7.828125 3.890625 -7.828125 C 3.453125 -7.828125 3.082031 -7.734375 2.78125 -7.546875 C 2.457031 -7.347656 2.296875 -7.054688 2.296875 -6.671875 C 2.296875 -6.273438 2.429688 -5.984375 2.703125 -5.796875 C 2.953125 -5.617188 3.269531 -5.460938 3.65625 -5.328125 C 4.039062 -5.210938 4.460938 -5.109375 4.921875 -5.015625 C 5.359375 -4.910156 5.773438 -4.765625 6.171875 -4.578125 C 7.078125 -4.148438 7.53125 -3.460938 7.53125 -2.515625 C 7.53125 -1.566406 7.191406 -0.867188 6.515625 -0.421875 C 6.171875 -0.191406 5.789062 -0.0195312 5.375 0.09375 C 4.976562 0.207031 4.539062 0.265625 4.0625 0.265625 C 2.019531 0.265625 0.847656 -0.640625 0.546875 -2.453125 L 2.015625 -2.453125 C 2.160156 -1.878906 2.414062 -1.484375 2.78125 -1.265625 Z M 2.78125 -1.265625 "/></g></g></g><path fill="#ffffff" d="M 215.289062 273.765625 C 215.289062 274.160156 215.214844 274.542969 215.0625 274.910156 C 214.910156 275.277344 214.695312 275.601562 214.414062 275.882812 C 214.132812 276.164062 213.808594 276.382812 213.441406 276.535156 C 213.074219 276.6875 212.691406 276.761719 212.292969 276.761719 C 211.894531 276.761719 211.511719 276.6875 211.144531 276.535156 C 210.777344 276.382812 210.453125 276.164062 210.171875 275.882812 C 209.890625 275.601562 209.675781 275.277344 209.523438 274.910156 C 209.371094 274.542969 209.292969 274.160156 209.292969 273.765625 C 209.292969 273.367188 209.371094 272.984375 209.523438 272.617188 C 209.675781 272.25 209.890625 271.925781 210.171875 271.644531 C 210.453125 271.363281 210.777344 271.148438 211.144531 270.996094 C 211.511719 270.84375 211.894531 270.765625 212.292969 270.765625 C 212.691406 270.765625 213.074219 270.84375 213.441406 270.996094 C 213.808594 271.148438 214.132812 271.363281 214.414062 271.644531 C 214.695312 271.925781 214.910156 272.25 215.0625 272.617188 C 215.214844 272.984375 215.289062 273.367188 215.289062 273.765625 Z M 215.289062 273.765625 " fill-opacity="1" fill-rule="nonzero"/><g fill="#ffffff" fill-opacity="1"><g transform="translate(226.7786, 279.760089)"><g><path d="M 9.578125 0 L 1.5 0 L 1.5 -13.59375 L 9.578125 -13.59375 L 9.578125 -12.296875 L 2.890625 -12.296875 L 2.890625 -7.453125 L 9.375 -7.453125 L 9.375 -6.140625 L 2.890625 -6.140625 L 2.890625 -1.296875 L 9.578125 -1.296875 Z M 9.578125 0 "/></g></g></g><g fill="#ffffff" fill-opacity="1"><g transform="translate(237.846619, 279.760089)"><g><path d="M 7.578125 0 L 7.578125 -5.5 C 7.578125 -6.070312 7.445312 -6.5625 7.1875 -6.96875 C 6.925781 -7.375 6.492188 -7.578125 5.890625 -7.578125 C 5.296875 -7.578125 4.8125 -7.460938 4.4375 -7.234375 C 4.0625 -7.003906 3.757812 -6.710938 3.53125 -6.359375 C 3.101562 -5.691406 2.890625 -4.796875 2.890625 -3.671875 L 2.890625 0 L 1.5 0 L 1.5 -8.796875 L 2.890625 -8.796875 L 2.890625 -7.28125 C 3.191406 -7.769531 3.566406 -8.175781 4.015625 -8.5 C 4.492188 -8.8125 5.046875 -8.96875 5.671875 -8.96875 C 6.296875 -8.96875 6.800781 -8.882812 7.1875 -8.71875 C 7.582031 -8.53125 7.910156 -8.28125 8.171875 -7.96875 C 8.703125 -7.34375 8.96875 -6.519531 8.96875 -5.5 L 8.96875 0 Z M 7.578125 0 "/></g></g></g><g fill="#ffffff" fill-opacity="1"><g transform="translate(248.015613, 279.760089)"><g><path d="M 10.09375 -4.59375 L 10.09375 -3.859375 L 2.359375 -3.859375 C 2.492188 -3.097656 2.859375 -2.476562 3.453125 -2 C 4.066406 -1.507812 4.75 -1.265625 5.5 -1.265625 C 6 -1.265625 6.484375 -1.382812 6.953125 -1.625 C 7.410156 -1.84375 7.789062 -2.160156 8.09375 -2.578125 L 9.6875 -2.578125 C 9.320312 -1.734375 8.765625 -1.070312 8.015625 -0.59375 C 7.253906 -0.101562 6.488281 0.140625 5.71875 0.140625 C 4.925781 0.140625 4.257812 0.0195312 3.71875 -0.21875 C 3.15625 -0.457031 2.671875 -0.785156 2.265625 -1.203125 C 1.359375 -2.078125 0.90625 -3.15625 0.90625 -4.4375 C 0.90625 -5.695312 1.359375 -6.78125 2.265625 -7.6875 C 3.148438 -8.582031 4.226562 -9.03125 5.5 -9.03125 C 6.71875 -9.03125 7.789062 -8.597656 8.71875 -7.734375 C 9.632812 -6.859375 10.09375 -5.8125 10.09375 -4.59375 Z M 8.609375 -5.0625 C 8.453125 -5.800781 8.082031 -6.421875 7.5 -6.921875 C 6.90625 -7.398438 6.238281 -7.640625 5.5 -7.640625 C 4.351562 -7.640625 3.453125 -7.125 2.796875 -6.09375 C 2.597656 -5.769531 2.457031 -5.425781 2.375 -5.0625 Z M 8.609375 -5.0625 "/></g></g></g><g fill="#ffffff" fill-opacity="1"><g transform="translate(258.903831, 279.760089)"><g><path d="M 6.015625 -6.96875 C 5.691406 -7.269531 5.34375 -7.421875 4.96875 -7.421875 C 4.613281 -7.421875 4.3125 -7.316406 4.0625 -7.109375 C 3.789062 -6.898438 3.566406 -6.648438 3.390625 -6.359375 C 3.054688 -5.765625 2.890625 -5.109375 2.890625 -4.390625 L 2.890625 0 L 1.5 0 L 1.5 -8.796875 L 2.890625 -8.796875 L 2.890625 -6.96875 L 2.953125 -7.328125 C 3.421875 -8.421875 4.148438 -8.96875 5.140625 -8.96875 C 5.441406 -8.96875 5.734375 -8.910156 6.015625 -8.796875 Z M 6.015625 -6.96875 "/></g></g></g><g fill="#ffffff" fill-opacity="1"><g transform="translate(265.117113, 279.760089)"><g><path d="M 8.609375 -4.390625 C 8.609375 -5.242188 8.316406 -5.992188 7.734375 -6.640625 C 7.128906 -7.273438 6.390625 -7.59375 5.515625 -7.59375 C 4.660156 -7.59375 3.925781 -7.273438 3.3125 -6.640625 C 2.71875 -6.015625 2.421875 -5.265625 2.421875 -4.390625 C 2.421875 -3.523438 2.71875 -2.78125 3.3125 -2.15625 C 3.925781 -1.519531 4.660156 -1.203125 5.515625 -1.203125 C 6.390625 -1.203125 7.128906 -1.519531 7.734375 -2.15625 C 8.316406 -2.800781 8.609375 -3.546875 8.609375 -4.390625 Z M 2.375 1.203125 C 2.507812 1.742188 2.796875 2.226562 3.234375 2.65625 C 3.847656 3.28125 4.585938 3.59375 5.453125 3.59375 C 6.316406 3.59375 7.0625 3.28125 7.6875 2.65625 C 8.300781 2.039062 8.609375 1.300781 8.609375 0.4375 L 8.609375 -1.484375 C 8.546875 -1.390625 8.472656 -1.296875 8.390625 -1.203125 C 7.554688 -0.265625 6.53125 0.203125 5.3125 0.203125 C 4.09375 0.203125 3.066406 -0.265625 2.234375 -1.203125 C 1.421875 -2.109375 1.015625 -3.171875 1.015625 -4.390625 C 1.015625 -5.617188 1.421875 -6.6875 2.234375 -7.59375 C 3.066406 -8.53125 4.09375 -9 5.3125 -9 C 6.488281 -9 7.515625 -8.53125 8.390625 -7.59375 C 8.472656 -7.5 8.546875 -7.40625 8.609375 -7.3125 L 8.609375 -8.796875 L 10.015625 -8.796875 L 10.015625 0.4375 C 10.015625 1.6875 9.566406 2.757812 8.671875 3.65625 C 7.773438 4.550781 6.703125 5 5.453125 5 C 4.203125 5 3.128906 4.550781 2.234375 3.65625 C 1.523438 2.945312 1.097656 2.128906 0.953125 1.203125 Z M 2.375 1.203125 "/></g></g></g><g fill="#ffffff" fill-opacity="1"><g transform="translate(276.62466, 279.760089)"><g><path d="M 2.921875 -11.828125 C 3.085938 -11.660156 3.171875 -11.457031 3.171875 -11.21875 C 3.171875 -10.957031 3.085938 -10.742188 2.921875 -10.578125 C 2.742188 -10.398438 2.535156 -10.3125 2.296875 -10.3125 C 2.046875 -10.3125 1.832031 -10.398438 1.65625 -10.578125 C 1.488281 -10.742188 1.40625 -10.957031 1.40625 -11.21875 C 1.40625 -11.457031 1.488281 -11.660156 1.65625 -11.828125 C 1.832031 -12.003906 2.046875 -12.09375 2.296875 -12.09375 C 2.535156 -12.09375 2.742188 -12.003906 2.921875 -11.828125 Z M 3 0 L 1.59375 0 L 1.59375 -8.796875 L 3 -8.796875 Z M 3 0 "/></g></g></g><g fill="#ffffff" fill-opacity="1"><g transform="translate(281.199713, 279.760089)"><g><path d="M 0.203125 0 L 5.953125 -7.5 L 0.546875 -7.5 L 0.546875 -8.796875 L 8.640625 -8.796875 L 2.875 -1.296875 L 8.890625 -1.296875 L 8.890625 0 Z M 0.203125 0 "/></g></g></g><g fill="#ffffff" fill-opacity="1"><g transform="translate(290.289881, 279.760089)"><g><path d="M 8.5 -4.390625 C 8.5 -5.242188 8.203125 -5.992188 7.609375 -6.640625 C 7.015625 -7.273438 6.273438 -7.59375 5.390625 -7.59375 C 4.515625 -7.59375 3.785156 -7.273438 3.203125 -6.640625 C 2.597656 -5.992188 2.296875 -5.242188 2.296875 -4.390625 C 2.296875 -3.546875 2.597656 -2.800781 3.203125 -2.15625 C 3.785156 -1.519531 4.515625 -1.203125 5.390625 -1.203125 C 6.273438 -1.203125 7.015625 -1.519531 7.609375 -2.15625 C 8.203125 -2.800781 8.5 -3.546875 8.5 -4.390625 Z M 9.890625 0 L 8.5 0 L 8.5 -1.5 C 8.414062 -1.394531 8.332031 -1.296875 8.25 -1.203125 C 7.414062 -0.265625 6.390625 0.203125 5.171875 0.203125 C 3.960938 0.203125 2.945312 -0.265625 2.125 -1.203125 C 1.3125 -2.109375 0.90625 -3.171875 0.90625 -4.390625 C 0.90625 -5.617188 1.3125 -6.6875 2.125 -7.59375 C 2.945312 -8.53125 3.960938 -9 5.171875 -9 C 6.390625 -9 7.414062 -8.53125 8.25 -7.59375 C 8.332031 -7.5 8.414062 -7.398438 8.5 -7.296875 L 8.5 -8.796875 L 9.890625 -8.796875 Z M 9.890625 0 "/></g></g></g><g fill="#ffffff" fill-opacity="1"><g transform="translate(301.677554, 279.760089)"><g><path d="M 0.40625 -7.5 L 0.40625 -8.796875 L 2.59375 -8.796875 L 2.59375 -12.203125 L 4 -12.203125 L 4 -8.796875 L 6.171875 -8.796875 L 6.171875 -7.5 L 4 -7.5 L 4 0 L 2.59375 0 L 2.59375 -7.5 Z M 0.40625 -7.5 "/></g></g></g><g fill="#ffffff" fill-opacity="1"><g transform="translate(308.250436, 279.760089)"><g><path d="M 2.921875 -11.828125 C 3.085938 -11.660156 3.171875 -11.457031 3.171875 -11.21875 C 3.171875 -10.957031 3.085938 -10.742188 2.921875 -10.578125 C 2.742188 -10.398438 2.535156 -10.3125 2.296875 -10.3125 C 2.046875 -10.3125 1.832031 -10.398438 1.65625 -10.578125 C 1.488281 -10.742188 1.40625 -10.957031 1.40625 -11.21875 C 1.40625 -11.457031 1.488281 -11.660156 1.65625 -11.828125 C 1.832031 -12.003906 2.046875 -12.09375 2.296875 -12.09375 C 2.535156 -12.09375 2.742188 -12.003906 2.921875 -11.828125 Z M 3 0 L 1.59375 0 L 1.59375 -8.796875 L 3 -8.796875 Z M 3 0 "/></g></g></g><g fill="#ffffff" fill-opacity="1"><g transform="translate(312.825489, 279.760089)"><g><path d="M 8.6875 -4.4375 C 8.6875 -5.3125 8.375 -6.0625 7.75 -6.6875 C 7.125 -7.320312 6.375 -7.640625 5.5 -7.640625 C 4.613281 -7.640625 3.859375 -7.320312 3.234375 -6.6875 C 2.609375 -6.0625 2.296875 -5.3125 2.296875 -4.4375 C 2.296875 -3.570312 2.609375 -2.828125 3.234375 -2.203125 C 3.859375 -1.578125 4.613281 -1.265625 5.5 -1.265625 C 6.375 -1.265625 7.125 -1.578125 7.75 -2.203125 C 8.375 -2.828125 8.6875 -3.570312 8.6875 -4.4375 Z M 10.09375 -4.4375 C 10.09375 -3.15625 9.644531 -2.078125 8.75 -1.203125 C 7.832031 -0.304688 6.75 0.140625 5.5 0.140625 C 4.25 0.140625 3.171875 -0.304688 2.265625 -1.203125 C 1.359375 -2.078125 0.90625 -3.15625 0.90625 -4.4375 C 0.90625 -5.695312 1.359375 -6.78125 2.265625 -7.6875 C 3.148438 -8.582031 4.226562 -9.03125 5.5 -9.03125 C 6.757812 -9.03125 7.84375 -8.582031 8.75 -7.6875 C 9.644531 -6.78125 10.09375 -5.695312 10.09375 -4.4375 Z M 10.09375 -4.4375 "/></g></g></g><g fill="#ffffff" fill-opacity="1"><g transform="translate(323.813603, 279.760089)"><g><path d="M 7.578125 0 L 7.578125 -5.5 C 7.578125 -6.070312 7.445312 -6.5625 7.1875 -6.96875 C 6.925781 -7.375 6.492188 -7.578125 5.890625 -7.578125 C 5.296875 -7.578125 4.8125 -7.460938 4.4375 -7.234375 C 4.0625 -7.003906 3.757812 -6.710938 3.53125 -6.359375 C 3.101562 -5.691406 2.890625 -4.796875 2.890625 -3.671875 L 2.890625 0 L 1.5 0 L 1.5 -8.796875 L 2.890625 -8.796875 L 2.890625 -7.28125 C 3.191406 -7.769531 3.566406 -8.175781 4.015625 -8.5 C 4.492188 -8.8125 5.046875 -8.96875 5.671875 -8.96875 C 6.296875 -8.96875 6.800781 -8.882812 7.1875 -8.71875 C 7.582031 -8.53125 7.910156 -8.28125 8.171875 -7.96875 C 8.703125 -7.34375 8.96875 -6.519531 8.96875 -5.5 L 8.96875 0 Z M 7.578125 0 "/></g></g></g><g fill="#ffffff" fill-opacity="1"><g transform="translate(333.982597, 279.760089)"><g/></g></g><g fill="#ffffff" fill-opacity="1"><g transform="translate(339.376758, 279.760089)"><g><path d="M 8.6875 -4.4375 C 8.6875 -5.3125 8.375 -6.0625 7.75 -6.6875 C 7.125 -7.320312 6.375 -7.640625 5.5 -7.640625 C 4.613281 -7.640625 3.859375 -7.320312 3.234375 -6.6875 C 2.609375 -6.0625 2.296875 -5.3125 2.296875 -4.4375 C 2.296875 -3.570312 2.609375 -2.828125 3.234375 -2.203125 C 3.859375 -1.578125 4.613281 -1.265625 5.5 -1.265625 C 6.375 -1.265625 7.125 -1.578125 7.75 -2.203125 C 8.375 -2.828125 8.6875 -3.570312 8.6875 -4.4375 Z M 10.09375 -4.4375 C 10.09375 -3.15625 9.644531 -2.078125 8.75 -1.203125 C 7.832031 -0.304688 6.75 0.140625 5.5 0.140625 C 4.25 0.140625 3.171875 -0.304688 2.265625 -1.203125 C 1.359375 -2.078125 0.90625 -3.15625 0.90625 -4.4375 C 0.90625 -5.695312 1.359375 -6.78125 2.265625 -7.6875 C 3.148438 -8.582031 4.226562 -9.03125 5.5 -9.03125 C 6.757812 -9.03125 7.84375 -8.582031 8.75 -7.6875 C 9.644531 -6.78125 10.09375 -5.695312 10.09375 -4.4375 Z M 10.09375 -4.4375 "/></g></g></g><g fill="#ffffff" fill-opacity="1"><g transform="translate(350.364872, 279.760089)"><g><path d="M 6.21875 -13.6875 L 5.015625 -13.6875 C 4.546875 -13.6875 4.238281 -13.582031 4.09375 -13.375 C 3.945312 -13.15625 3.875 -12.894531 3.875 -12.59375 L 3.875 -8.796875 L 6.21875 -8.796875 L 6.21875 -7.5 L 3.875 -7.5 L 3.875 0 L 2.484375 0 L 2.484375 -7.5 L 0.703125 -7.5 L 0.703125 -8.796875 L 2.484375 -8.796875 L 2.484375 -12.1875 C 2.484375 -13.082031 2.695312 -13.773438 3.125 -14.265625 C 3.53125 -14.742188 4.226562 -14.984375 5.21875 -14.984375 L 6.21875 -14.984375 Z M 6.21875 -13.6875 "/></g></g></g><g fill="#ffffff" fill-opacity="1"><g transform="translate(357.177503, 279.760089)"><g/></g></g><g fill="#ffffff" fill-opacity="1"><g transform="translate(362.571665, 279.760089)"><g><path d="M 0.40625 -7.5 L 0.40625 -8.796875 L 2.59375 -8.796875 L 2.59375 -12.203125 L 4 -12.203125 L 4 -8.796875 L 6.171875 -8.796875 L 6.171875 -7.5 L 4 -7.5 L 4 0 L 2.59375 0 L 2.59375 -7.5 Z M 0.40625 -7.5 "/></g></g></g><g fill="#ffffff" fill-opacity="1"><g transform="translate(369.144547, 279.760089)"><g><path d="M 2.890625 0 L 1.5 0 L 1.5 -14.984375 L 2.890625 -14.984375 L 2.890625 -7.28125 C 3.191406 -7.769531 3.566406 -8.175781 4.015625 -8.5 C 4.492188 -8.8125 5.046875 -8.96875 5.671875 -8.96875 C 6.296875 -8.96875 6.800781 -8.882812 7.1875 -8.71875 C 7.582031 -8.53125 7.910156 -8.28125 8.171875 -7.96875 C 8.703125 -7.34375 8.96875 -6.519531 8.96875 -5.5 L 8.96875 0 L 7.578125 0 L 7.578125 -5.5 C 7.578125 -6.070312 7.445312 -6.5625 7.1875 -6.96875 C 6.925781 -7.375 6.492188 -7.578125 5.890625 -7.578125 C 5.296875 -7.578125 4.8125 -7.484375 4.4375 -7.296875 C 4.0625 -7.097656 3.757812 -6.820312 3.53125 -6.46875 C 3.101562 -5.832031 2.890625 -4.898438 2.890625 -3.671875 Z M 2.890625 0 "/></g></g></g><g fill="#ffffff" fill-opacity="1"><g transform="translate(379.313541, 279.760089)"><g><path d="M 10.09375 -4.59375 L 10.09375 -3.859375 L 2.359375 -3.859375 C 2.492188 -3.097656 2.859375 -2.476562 3.453125 -2 C 4.066406 -1.507812 4.75 -1.265625 5.5 -1.265625 C 6 -1.265625 6.484375 -1.382812 6.953125 -1.625 C 7.410156 -1.84375 7.789062 -2.160156 8.09375 -2.578125 L 9.6875 -2.578125 C 9.320312 -1.734375 8.765625 -1.070312 8.015625 -0.59375 C 7.253906 -0.101562 6.488281 0.140625 5.71875 0.140625 C 4.925781 0.140625 4.257812 0.0195312 3.71875 -0.21875 C 3.15625 -0.457031 2.671875 -0.785156 2.265625 -1.203125 C 1.359375 -2.078125 0.90625 -3.15625 0.90625 -4.4375 C 0.90625 -5.695312 1.359375 -6.78125 2.265625 -7.6875 C 3.148438 -8.582031 4.226562 -9.03125 5.5 -9.03125 C 6.71875 -9.03125 7.789062 -8.597656 8.71875 -7.734375 C 9.632812 -6.859375 10.09375 -5.8125 10.09375 -4.59375 Z M 8.609375 -5.0625 C 8.453125 -5.800781 8.082031 -6.421875 7.5 -6.921875 C 6.90625 -7.398438 6.238281 -7.640625 5.5 -7.640625 C 4.351562 -7.640625 3.453125 -7.125 2.796875 -6.09375 C 2.597656 -5.769531 2.457031 -5.425781 2.375 -5.0625 Z M 8.609375 -5.0625 "/></g></g></g><g fill="#ffffff" fill-opacity="1"><g transform="translate(390.201759, 279.760089)"><g/></g></g><g fill="#ffffff" fill-opacity="1"><g transform="translate(395.59592, 279.760089)"><g><path d="M 2.890625 -6.734375 L 6.0625 -6.734375 C 6.84375 -6.734375 7.488281 -7 8 -7.53125 C 8.507812 -8.0625 8.765625 -8.726562 8.765625 -9.53125 C 8.765625 -10.332031 8.519531 -10.984375 8.03125 -11.484375 C 7.539062 -11.992188 6.882812 -12.25 6.0625 -12.25 L 2.890625 -12.25 Z M 10.171875 -9.5 C 10.171875 -8.3125 9.75 -7.320312 8.90625 -6.53125 C 8.082031 -5.757812 7.066406 -5.375 5.859375 -5.375 L 2.890625 -5.375 L 2.890625 0 L 1.5 0 L 1.5 -13.59375 L 5.859375 -13.59375 C 7.054688 -13.59375 8.070312 -13.210938 8.90625 -12.453125 C 9.75 -11.679688 10.171875 -10.695312 10.171875 -9.5 Z M 10.171875 -9.5 "/></g></g></g><g fill="#ffffff" fill-opacity="1"><g transform="translate(406.164485, 279.760089)"><g><path d="M 2.890625 0 L 1.5 0 L 1.5 -14.984375 L 2.890625 -14.984375 Z M 2.890625 0 "/></g></g></g><g fill="#ffffff" fill-opacity="1"><g transform="translate(410.559726, 279.760089)"><g><path d="M 8.5 -4.390625 C 8.5 -5.242188 8.203125 -5.992188 7.609375 -6.640625 C 7.015625 -7.273438 6.273438 -7.59375 5.390625 -7.59375 C 4.515625 -7.59375 3.785156 -7.273438 3.203125 -6.640625 C 2.597656 -5.992188 2.296875 -5.242188 2.296875 -4.390625 C 2.296875 -3.546875 2.597656 -2.800781 3.203125 -2.15625 C 3.785156 -1.519531 4.515625 -1.203125 5.390625 -1.203125 C 6.273438 -1.203125 7.015625 -1.519531 7.609375 -2.15625 C 8.203125 -2.800781 8.5 -3.546875 8.5 -4.390625 Z M 9.890625 0 L 8.5 0 L 8.5 -1.5 C 8.414062 -1.394531 8.332031 -1.296875 8.25 -1.203125 C 7.414062 -0.265625 6.390625 0.203125 5.171875 0.203125 C 3.960938 0.203125 2.945312 -0.265625 2.125 -1.203125 C 1.3125 -2.109375 0.90625 -3.171875 0.90625 -4.390625 C 0.90625 -5.617188 1.3125 -6.6875 2.125 -7.59375 C 2.945312 -8.53125 3.960938 -9 5.171875 -9 C 6.390625 -9 7.414062 -8.53125 8.25 -7.59375 C 8.332031 -7.5 8.414062 -7.398438 8.5 -7.296875 L 8.5 -8.796875 L 9.890625 -8.796875 Z M 9.890625 0 "/></g></g></g><g fill="#ffffff" fill-opacity="1"><g transform="translate(421.947398, 279.760089)"><g><path d="M 7.578125 0 L 7.578125 -5.5 C 7.578125 -6.070312 7.445312 -6.5625 7.1875 -6.96875 C 6.925781 -7.375 6.492188 -7.578125 5.890625 -7.578125 C 5.296875 -7.578125 4.8125 -7.460938 4.4375 -7.234375 C 4.0625 -7.003906 3.757812 -6.710938 3.53125 -6.359375 C 3.101562 -5.691406 2.890625 -4.796875 2.890625 -3.671875 L 2.890625 0 L 1.5 0 L 1.5 -8.796875 L 2.890625 -8.796875 L 2.890625 -7.28125 C 3.191406 -7.769531 3.566406 -8.175781 4.015625 -8.5 C 4.492188 -8.8125 5.046875 -8.96875 5.671875 -8.96875 C 6.296875 -8.96875 6.800781 -8.882812 7.1875 -8.71875 C 7.582031 -8.53125 7.910156 -8.28125 8.171875 -7.96875 C 8.703125 -7.34375 8.96875 -6.519531 8.96875 -5.5 L 8.96875 0 Z M 7.578125 0 "/></g></g></g><g fill="#ffffff" fill-opacity="1"><g transform="translate(432.116404, 279.760089)"><g><path d="M 0.40625 -7.5 L 0.40625 -8.796875 L 2.59375 -8.796875 L 2.59375 -12.203125 L 4 -12.203125 L 4 -8.796875 L 6.171875 -8.796875 L 6.171875 -7.5 L 4 -7.5 L 4 0 L 2.59375 0 L 2.59375 -7.5 Z M 0.40625 -7.5 "/></g></g></g></svg>