<svg xmlns="http://www.w3.org/2000/svg" xmlns:xlink="http://www.w3.org/1999/xlink" width="957" zoomAndPan="magnify" viewBox="0 0 717.75 363.749991" height="485" preserveAspectRatio="xMidYMid meet" version="1.0"><defs><g/><clipPath id="da69a325e9"><path d="M 654.085938 61.320312 L 679.195312 61.320312 L 679.195312 86.429688 L 654.085938 86.429688 Z M 654.085938 61.320312 " clip-rule="nonzero"/></clipPath></defs><g fill="#00bf63" fill-opacity="1"><g transform="translate(38.763548, 238.975416)"><g><path d="M 101.5 -157.40625 L 101.5 -125.921875 L 47.3125 -125.921875 L 47.3125 -94.640625 L 99.21875 -94.640625 L 99.21875 -63.15625 L 47.3125 -63.15625 L 47.3125 -31.484375 L 101.5 -31.484375 L 101.5 0 L 11.453125 0 L 11.453125 -157.40625 Z M 101.5 -157.40625 "/></g></g></g><g fill="#00bf63" fill-opacity="1"><g transform="translate(149.422701, 238.975416)"><g><path d="M 11.453125 0 L 11.453125 -97.875 L 45.21875 -97.875 L 45.21875 -87.578125 L 45.59375 -87.578125 C 54.375 -96.347656 63.722656 -100.734375 73.640625 -100.734375 C 78.472656 -100.734375 83.273438 -100.097656 88.046875 -98.828125 C 92.816406 -97.554688 97.394531 -95.582031 101.78125 -92.90625 C 106.175781 -90.238281 109.738281 -86.457031 112.46875 -81.5625 C 115.207031 -76.664062 116.578125 -70.972656 116.578125 -64.484375 L 116.578125 0 L 82.8125 0 L 82.8125 -55.328125 C 82.8125 -60.421875 81.1875 -64.875 77.9375 -68.6875 C 74.695312 -72.5 70.46875 -74.40625 65.25 -74.40625 C 60.164062 -74.40625 55.554688 -72.429688 51.421875 -68.484375 C 47.285156 -64.546875 45.21875 -60.160156 45.21875 -55.328125 L 45.21875 0 Z M 11.453125 0 "/></g></g></g><g fill="#00bf63" fill-opacity="1"><g transform="translate(275.535976, 238.975416)"><g><path d="M 36.25 -97.875 L 60.09375 -44.640625 L 83.953125 -97.875 L 124.015625 -97.875 L 71.546875 0 L 48.65625 0 L -3.8125 -97.875 Z M 36.25 -97.875 "/></g></g></g><g fill="#00bf63" fill-opacity="1"><g transform="translate(395.734727, 238.975416)"><g><path d="M 14.6875 -152.4375 C 18.632812 -156.382812 23.34375 -158.359375 28.8125 -158.359375 C 34.28125 -158.359375 38.984375 -156.382812 42.921875 -152.4375 C 46.867188 -148.5 48.84375 -143.796875 48.84375 -138.328125 C 48.84375 -132.859375 46.867188 -128.148438 42.921875 -124.203125 C 38.984375 -120.265625 34.28125 -118.296875 28.8125 -118.296875 C 23.34375 -118.296875 18.632812 -120.265625 14.6875 -124.203125 C 10.75 -128.148438 8.78125 -132.859375 8.78125 -138.328125 C 8.78125 -143.796875 10.75 -148.5 14.6875 -152.4375 Z M 11.453125 -97.875 L 11.453125 0 L 45.21875 0 L 45.21875 -97.875 Z M 11.453125 -97.875 "/></g></g></g><g fill="#00bf63" fill-opacity="1"><g transform="translate(453.353805, 238.975416)"><g><path d="M 11.453125 0 L 11.453125 -97.875 L 45.21875 -97.875 L 45.21875 -83.765625 L 45.59375 -83.765625 C 45.851562 -84.265625 46.269531 -84.894531 46.84375 -85.65625 C 47.414062 -86.425781 48.65625 -87.765625 50.5625 -89.671875 C 52.46875 -91.578125 54.5 -93.289062 56.65625 -94.8125 C 58.820312 -96.34375 61.625 -97.710938 65.0625 -98.921875 C 68.5 -100.128906 72 -100.734375 75.5625 -100.734375 C 79.25 -100.734375 82.867188 -100.222656 86.421875 -99.203125 C 89.984375 -98.191406 92.59375 -97.175781 94.25 -96.15625 L 96.921875 -94.640625 L 82.8125 -66.015625 C 78.613281 -69.578125 72.757812 -71.359375 65.25 -71.359375 C 61.175781 -71.359375 57.675781 -70.46875 54.75 -68.6875 C 51.832031 -66.90625 49.769531 -64.742188 48.5625 -62.203125 C 47.351562 -59.660156 46.492188 -57.5 45.984375 -55.71875 C 45.472656 -53.9375 45.21875 -52.535156 45.21875 -51.515625 L 45.21875 0 Z M 11.453125 0 "/></g></g></g><g fill="#00bf63" fill-opacity="1"><g transform="translate(548.36804, 238.975416)"><g><path d="M 18.125 -12.109375 C 8.96875 -22.097656 4.390625 -34.34375 4.390625 -48.84375 C 4.390625 -63.34375 8.96875 -75.613281 18.125 -85.65625 C 27.28125 -95.707031 38.921875 -100.734375 53.046875 -100.734375 C 66.015625 -100.734375 76.695312 -96.664062 85.09375 -88.53125 L 85.09375 -97.875 L 118.859375 -97.875 L 118.859375 0 L 85.484375 0 L 85.484375 -11.0625 L 85.09375 -11.0625 C 76.695312 -1.78125 66.015625 2.859375 53.046875 2.859375 C 38.921875 2.859375 27.28125 -2.128906 18.125 -12.109375 Z M 46.84375 -65.4375 C 42.457031 -61.113281 40.265625 -55.582031 40.265625 -48.84375 C 40.265625 -42.101562 42.359375 -36.601562 46.546875 -32.34375 C 50.742188 -28.082031 56.28125 -25.953125 63.15625 -25.953125 C 69.769531 -25.953125 75.207031 -28.113281 79.46875 -32.4375 C 83.726562 -36.757812 85.859375 -42.226562 85.859375 -48.84375 C 85.859375 -55.582031 83.660156 -61.113281 79.265625 -65.4375 C 74.878906 -69.769531 69.507812 -71.9375 63.15625 -71.9375 C 56.664062 -71.9375 51.226562 -69.769531 46.84375 -65.4375 Z M 46.84375 -65.4375 "/></g></g></g><g fill="#00bf63" fill-opacity="1"><g transform="translate(403.228376, 275.868506)"><g><path d="M 3.453125 -11.953125 L 3.453125 0 L 1.78125 0 L 1.78125 -17.234375 L 10.890625 -4.296875 L 10.890625 -16.21875 L 12.5625 -16.21875 L 12.5625 1 Z M 3.453125 -11.953125 "/></g></g></g><g fill="#00bf63" fill-opacity="1"><g transform="translate(417.581174, 275.868506)"><g><path d="M 12.046875 -5.484375 L 12.046875 -4.609375 L 2.8125 -4.609375 C 2.96875 -3.703125 3.40625 -2.960938 4.125 -2.390625 C 4.851562 -1.796875 5.664062 -1.5 6.5625 -1.5 C 7.164062 -1.5 7.742188 -1.644531 8.296875 -1.9375 C 8.835938 -2.207031 9.289062 -2.585938 9.65625 -3.078125 L 11.5625 -3.078125 C 11.113281 -2.078125 10.445312 -1.289062 9.5625 -0.71875 C 8.65625 -0.125 7.738281 0.171875 6.8125 0.171875 C 5.875 0.171875 5.082031 0.0234375 4.4375 -0.265625 C 3.769531 -0.546875 3.1875 -0.9375 2.6875 -1.4375 C 1.613281 -2.476562 1.078125 -3.765625 1.078125 -5.296875 C 1.078125 -6.804688 1.613281 -8.101562 2.6875 -9.1875 C 3.757812 -10.25 5.050781 -10.78125 6.5625 -10.78125 C 8.019531 -10.78125 9.296875 -10.265625 10.390625 -9.234375 C 11.492188 -8.179688 12.046875 -6.929688 12.046875 -5.484375 Z M 10.28125 -6.03125 C 10.082031 -6.925781 9.632812 -7.664062 8.9375 -8.25 C 8.238281 -8.820312 7.445312 -9.109375 6.5625 -9.109375 C 5.1875 -9.109375 4.113281 -8.492188 3.34375 -7.265625 C 3.101562 -6.890625 2.9375 -6.476562 2.84375 -6.03125 Z M 10.28125 -6.03125 "/></g></g></g><g fill="#00bf63" fill-opacity="1"><g transform="translate(430.574979, 275.868506)"><g><path d="M 12.046875 1.328125 L 8.625 -7.125 L 5.265625 1.328125 L 0.234375 -10.484375 L 2.09375 -10.484375 L 5.25 -2.40625 L 8.625 -11.046875 L 12.015625 -2.40625 L 15.171875 -10.484375 L 17.03125 -10.484375 Z M 12.046875 1.328125 "/></g></g></g><g fill="#00bf63" fill-opacity="1"><g transform="translate(447.83648, 275.868506)"><g/></g></g><g fill="#00bf63" fill-opacity="1"><g transform="translate(454.273796, 275.868506)"><g><path d="M 17.78125 -7.578125 L 17.625 -6.578125 C 17.269531 -4.609375 16.304688 -2.988281 14.734375 -1.71875 C 13.160156 -0.445312 11.390625 0.1875 9.421875 0.1875 C 8.273438 0.1875 7.191406 -0.0351562 6.171875 -0.484375 C 5.160156 -0.910156 4.28125 -1.503906 3.53125 -2.265625 C 2.769531 -3.015625 2.171875 -3.894531 1.734375 -4.90625 C 1.296875 -5.925781 1.078125 -7.015625 1.078125 -8.171875 C 1.078125 -9.316406 1.296875 -10.398438 1.734375 -11.421875 C 2.171875 -12.441406 2.769531 -13.332031 3.53125 -14.09375 C 4.28125 -14.84375 5.160156 -15.4375 6.171875 -15.875 C 7.191406 -16.3125 8.21875 -16.53125 9.25 -16.53125 C 11.1875 -16.53125 12.894531 -15.976562 14.375 -14.875 C 15.875 -13.78125 16.894531 -12.332031 17.4375 -10.53125 L 15.671875 -10.53125 C 15.160156 -11.851562 14.335938 -12.90625 13.203125 -13.6875 C 12.066406 -14.46875 10.804688 -14.859375 9.421875 -14.859375 C 7.578125 -14.859375 6.003906 -14.207031 4.703125 -12.90625 C 3.390625 -11.59375 2.734375 -10.015625 2.734375 -8.171875 C 2.734375 -6.347656 3.390625 -4.773438 4.703125 -3.453125 C 5.984375 -2.140625 7.554688 -1.484375 9.421875 -1.484375 C 10.878906 -1.484375 12.210938 -1.898438 13.421875 -2.734375 C 14.617188 -3.597656 15.453125 -4.726562 15.921875 -6.125 L 9.34375 -6.125 L 9.34375 -7.578125 Z M 17.78125 -7.578125 "/></g></g></g><g fill="#00bf63" fill-opacity="1"><g transform="translate(473.132719, 275.868506)"><g><path d="M 12.046875 -5.484375 L 12.046875 -4.609375 L 2.8125 -4.609375 C 2.96875 -3.703125 3.40625 -2.960938 4.125 -2.390625 C 4.851562 -1.796875 5.664062 -1.5 6.5625 -1.5 C 7.164062 -1.5 7.742188 -1.644531 8.296875 -1.9375 C 8.835938 -2.207031 9.289062 -2.585938 9.65625 -3.078125 L 11.5625 -3.078125 C 11.113281 -2.078125 10.445312 -1.289062 9.5625 -0.71875 C 8.65625 -0.125 7.738281 0.171875 6.8125 0.171875 C 5.875 0.171875 5.082031 0.0234375 4.4375 -0.265625 C 3.769531 -0.546875 3.1875 -0.9375 2.6875 -1.4375 C 1.613281 -2.476562 1.078125 -3.765625 1.078125 -5.296875 C 1.078125 -6.804688 1.613281 -8.101562 2.6875 -9.1875 C 3.757812 -10.25 5.050781 -10.78125 6.5625 -10.78125 C 8.019531 -10.78125 9.296875 -10.265625 10.390625 -9.234375 C 11.492188 -8.179688 12.046875 -6.929688 12.046875 -5.484375 Z M 10.28125 -6.03125 C 10.082031 -6.925781 9.632812 -7.664062 8.9375 -8.25 C 8.238281 -8.820312 7.445312 -9.109375 6.5625 -9.109375 C 5.1875 -9.109375 4.113281 -8.492188 3.34375 -7.265625 C 3.101562 -6.890625 2.9375 -6.476562 2.84375 -6.03125 Z M 10.28125 -6.03125 "/></g></g></g><g fill="#00bf63" fill-opacity="1"><g transform="translate(486.126523, 275.868506)"><g><path d="M 9.03125 0 L 9.03125 -6.5625 C 9.03125 -7.238281 8.878906 -7.828125 8.578125 -8.328125 C 8.265625 -8.796875 7.75 -9.03125 7.03125 -9.03125 C 6.320312 -9.03125 5.742188 -8.894531 5.296875 -8.625 C 4.847656 -8.351562 4.488281 -8.003906 4.21875 -7.578125 C 3.707031 -6.785156 3.453125 -5.722656 3.453125 -4.390625 L 3.453125 0 L 1.78125 0 L 1.78125 -10.484375 L 3.453125 -10.484375 L 3.453125 -8.671875 C 3.804688 -9.265625 4.253906 -9.753906 4.796875 -10.140625 C 5.367188 -10.515625 6.023438 -10.703125 6.765625 -10.703125 C 7.515625 -10.703125 8.117188 -10.597656 8.578125 -10.390625 C 9.046875 -10.171875 9.4375 -9.878906 9.75 -9.515625 C 10.382812 -8.765625 10.703125 -7.78125 10.703125 -6.5625 L 10.703125 0 Z M 9.03125 0 "/></g></g></g><g fill="#00bf63" fill-opacity="1"><g transform="translate(498.262044, 275.868506)"><g/></g></g><g fill="#00bf63" fill-opacity="1"><g transform="translate(504.69936, 275.868506)"><g><path d="M 11.421875 0 L 1.78125 0 L 1.78125 -16.21875 L 11.421875 -16.21875 L 11.421875 -14.65625 L 3.453125 -14.65625 L 3.453125 -8.890625 L 11.1875 -8.890625 L 11.1875 -7.3125 L 3.453125 -7.3125 L 3.453125 -1.546875 L 11.421875 -1.546875 Z M 11.421875 0 "/></g></g></g><g fill="#00bf63" fill-opacity="1"><g transform="translate(517.907763, 275.868506)"><g><path d="M 9.03125 0 L 9.03125 -6.5625 C 9.03125 -7.238281 8.878906 -7.828125 8.578125 -8.328125 C 8.265625 -8.796875 7.75 -9.03125 7.03125 -9.03125 C 6.320312 -9.03125 5.742188 -8.894531 5.296875 -8.625 C 4.847656 -8.351562 4.488281 -8.003906 4.21875 -7.578125 C 3.707031 -6.785156 3.453125 -5.722656 3.453125 -4.390625 L 3.453125 0 L 1.78125 0 L 1.78125 -10.484375 L 3.453125 -10.484375 L 3.453125 -8.671875 C 3.804688 -9.265625 4.253906 -9.753906 4.796875 -10.140625 C 5.367188 -10.515625 6.023438 -10.703125 6.765625 -10.703125 C 7.515625 -10.703125 8.117188 -10.597656 8.578125 -10.390625 C 9.046875 -10.171875 9.4375 -9.878906 9.75 -9.515625 C 10.382812 -8.765625 10.703125 -7.78125 10.703125 -6.5625 L 10.703125 0 Z M 9.03125 0 "/></g></g></g><g fill="#00bf63" fill-opacity="1"><g transform="translate(530.043284, 275.868506)"><g><path d="M 12.046875 -5.484375 L 12.046875 -4.609375 L 2.8125 -4.609375 C 2.96875 -3.703125 3.40625 -2.960938 4.125 -2.390625 C 4.851562 -1.796875 5.664062 -1.5 6.5625 -1.5 C 7.164062 -1.5 7.742188 -1.644531 8.296875 -1.9375 C 8.835938 -2.207031 9.289062 -2.585938 9.65625 -3.078125 L 11.5625 -3.078125 C 11.113281 -2.078125 10.445312 -1.289062 9.5625 -0.71875 C 8.65625 -0.125 7.738281 0.171875 6.8125 0.171875 C 5.875 0.171875 5.082031 0.0234375 4.4375 -0.265625 C 3.769531 -0.546875 3.1875 -0.9375 2.6875 -1.4375 C 1.613281 -2.476562 1.078125 -3.765625 1.078125 -5.296875 C 1.078125 -6.804688 1.613281 -8.101562 2.6875 -9.1875 C 3.757812 -10.25 5.050781 -10.78125 6.5625 -10.78125 C 8.019531 -10.78125 9.296875 -10.265625 10.390625 -9.234375 C 11.492188 -8.179688 12.046875 -6.929688 12.046875 -5.484375 Z M 10.28125 -6.03125 C 10.082031 -6.925781 9.632812 -7.664062 8.9375 -8.25 C 8.238281 -8.820312 7.445312 -9.109375 6.5625 -9.109375 C 5.1875 -9.109375 4.113281 -8.492188 3.34375 -7.265625 C 3.101562 -6.890625 2.9375 -6.476562 2.84375 -6.03125 Z M 10.28125 -6.03125 "/></g></g></g><g fill="#00bf63" fill-opacity="1"><g transform="translate(543.037089, 275.868506)"><g><path d="M 7.171875 -8.328125 C 6.796875 -8.671875 6.382812 -8.84375 5.9375 -8.84375 C 5.507812 -8.84375 5.144531 -8.722656 4.84375 -8.484375 C 4.519531 -8.234375 4.253906 -7.929688 4.046875 -7.578125 C 3.648438 -6.878906 3.453125 -6.101562 3.453125 -5.25 L 3.453125 0 L 1.78125 0 L 1.78125 -10.484375 L 3.453125 -10.484375 L 3.453125 -8.328125 L 3.53125 -8.75 C 4.082031 -10.050781 4.945312 -10.703125 6.125 -10.703125 C 6.488281 -10.703125 6.835938 -10.628906 7.171875 -10.484375 Z M 7.171875 -8.328125 "/></g></g></g><g fill="#00bf63" fill-opacity="1"><g transform="translate(550.451915, 275.868506)"><g><path d="M 10.28125 -5.25 C 10.28125 -6.257812 9.929688 -7.148438 9.234375 -7.921875 C 8.515625 -8.679688 7.628906 -9.0625 6.578125 -9.0625 C 5.566406 -9.0625 4.691406 -8.679688 3.953125 -7.921875 C 3.242188 -7.171875 2.890625 -6.28125 2.890625 -5.25 C 2.890625 -4.21875 3.242188 -3.328125 3.953125 -2.578125 C 4.691406 -1.816406 5.566406 -1.4375 6.578125 -1.4375 C 7.628906 -1.4375 8.515625 -1.816406 9.234375 -2.578125 C 9.929688 -3.335938 10.28125 -4.226562 10.28125 -5.25 Z M 2.84375 1.4375 C 3 2.082031 3.335938 2.660156 3.859375 3.171875 C 4.585938 3.921875 5.472656 4.296875 6.515625 4.296875 C 7.546875 4.296875 8.4375 3.921875 9.1875 3.171875 C 9.914062 2.441406 10.28125 1.5625 10.28125 0.53125 L 10.28125 -1.765625 C 10.195312 -1.648438 10.109375 -1.539062 10.015625 -1.4375 C 9.015625 -0.320312 7.789062 0.234375 6.34375 0.234375 C 4.882812 0.234375 3.660156 -0.320312 2.671875 -1.4375 C 1.703125 -2.507812 1.21875 -3.78125 1.21875 -5.25 C 1.21875 -6.707031 1.703125 -7.976562 2.671875 -9.0625 C 3.660156 -10.175781 4.882812 -10.734375 6.34375 -10.734375 C 7.738281 -10.734375 8.960938 -10.175781 10.015625 -9.0625 C 10.109375 -8.945312 10.195312 -8.835938 10.28125 -8.734375 L 10.28125 -10.484375 L 11.953125 -10.484375 L 11.953125 0.53125 C 11.953125 2.019531 11.414062 3.296875 10.34375 4.359375 C 9.28125 5.429688 8.003906 5.96875 6.515625 5.96875 C 5.015625 5.96875 3.734375 5.429688 2.671875 4.359375 C 1.828125 3.515625 1.316406 2.539062 1.140625 1.4375 Z M 2.84375 1.4375 "/></g></g></g><g fill="#00bf63" fill-opacity="1"><g transform="translate(564.184831, 275.868506)"><g><path d="M 3.125 5.96875 L 1.09375 5.96875 L 4.625 -1.71875 L 0.234375 -10.484375 L 2.140625 -10.484375 L 5.515625 -3.453125 L 8.515625 -10.484375 L 10.375 -10.484375 Z M 3.125 5.96875 "/></g></g></g><g fill="#00bf63" fill-opacity="1"><g transform="translate(574.317618, 275.868506)"><g/></g></g><g fill="#00bf63" fill-opacity="1"><g transform="translate(580.754934, 275.868506)"><g><path d="M 6.296875 -7.65625 C 2.984375 -8.414062 1.328125 -9.828125 1.328125 -11.890625 C 1.328125 -13.421875 1.863281 -14.566406 2.9375 -15.328125 C 4 -16.078125 5.242188 -16.453125 6.671875 -16.453125 C 9.835938 -16.453125 11.710938 -15.273438 12.296875 -12.921875 L 10.484375 -12.921875 C 10.171875 -14.316406 8.898438 -15.015625 6.671875 -15.015625 C 5.117188 -15.015625 4.03125 -14.554688 3.40625 -13.640625 C 3.164062 -13.285156 3.046875 -12.847656 3.046875 -12.328125 C 3.046875 -11.328125 3.585938 -10.554688 4.671875 -10.015625 C 5.179688 -9.742188 6.265625 -9.394531 7.921875 -8.96875 C 9.566406 -8.539062 10.765625 -8.0625 11.515625 -7.53125 C 12.546875 -6.800781 13.0625 -5.773438 13.0625 -4.453125 C 13.0625 -2.816406 12.421875 -1.578125 11.140625 -0.734375 C 10.054688 -0.0351562 8.71875 0.3125 7.125 0.3125 C 3.53125 0.3125 1.445312 -1.054688 0.875 -3.796875 L 2.859375 -3.796875 C 3.160156 -2.078125 4.582031 -1.21875 7.125 -1.21875 C 8.9375 -1.21875 10.203125 -1.71875 10.921875 -2.71875 C 11.203125 -3.113281 11.34375 -3.65625 11.34375 -4.34375 C 11.34375 -5.007812 11.082031 -5.554688 10.5625 -5.984375 C 9.8125 -6.585938 8.390625 -7.144531 6.296875 -7.65625 Z M 6.296875 -7.65625 "/></g></g></g><g fill="#00bf63" fill-opacity="1"><g transform="translate(594.440164, 275.868506)"><g><path d="M 10.375 -5.296875 C 10.375 -6.335938 10 -7.234375 9.25 -7.984375 C 8.5 -8.734375 7.601562 -9.109375 6.5625 -9.109375 C 5.507812 -9.109375 4.609375 -8.734375 3.859375 -7.984375 C 3.109375 -7.234375 2.734375 -6.335938 2.734375 -5.296875 C 2.734375 -4.265625 3.109375 -3.375 3.859375 -2.625 C 4.609375 -1.875 5.507812 -1.5 6.5625 -1.5 C 7.601562 -1.5 8.5 -1.875 9.25 -2.625 C 10 -3.375 10.375 -4.265625 10.375 -5.296875 Z M 12.046875 -5.296875 C 12.046875 -3.765625 11.507812 -2.476562 10.4375 -1.4375 C 9.34375 -0.363281 8.050781 0.171875 6.5625 0.171875 C 5.0625 0.171875 3.769531 -0.363281 2.6875 -1.4375 C 1.613281 -2.476562 1.078125 -3.765625 1.078125 -5.296875 C 1.078125 -6.804688 1.613281 -8.101562 2.6875 -9.1875 C 3.757812 -10.25 5.050781 -10.78125 6.5625 -10.78125 C 8.070312 -10.78125 9.363281 -10.25 10.4375 -9.1875 C 11.507812 -8.101562 12.046875 -6.804688 12.046875 -5.296875 Z M 12.046875 -5.296875 "/></g></g></g><g fill="#00bf63" fill-opacity="1"><g transform="translate(607.553195, 275.868506)"><g><path d="M 3.453125 0 L 1.78125 0 L 1.78125 -17.890625 L 3.453125 -17.890625 Z M 3.453125 0 "/></g></g></g><g fill="#00bf63" fill-opacity="1"><g transform="translate(612.798403, 275.868506)"><g><path d="M 9.03125 -1.78125 C 8.257812 -0.445312 7.09375 0.21875 5.53125 0.21875 C 4.351562 0.21875 3.429688 -0.171875 2.765625 -0.953125 C 2.109375 -1.734375 1.78125 -2.726562 1.78125 -3.9375 L 1.78125 -10.484375 L 3.453125 -10.484375 L 3.453125 -3.9375 C 3.453125 -3.25 3.613281 -2.664062 3.9375 -2.1875 C 4.238281 -1.695312 4.742188 -1.453125 5.453125 -1.453125 C 6.765625 -1.453125 7.6875 -1.863281 8.21875 -2.6875 C 8.757812 -3.5 9.03125 -4.640625 9.03125 -6.109375 L 9.03125 -10.484375 L 10.703125 -10.484375 L 10.703125 0 L 9.03125 0 Z M 9.03125 -1.78125 "/></g></g></g><g fill="#00bf63" fill-opacity="1"><g transform="translate(624.933924, 275.868506)"><g><path d="M 0.484375 -8.9375 L 0.484375 -10.484375 L 3.09375 -10.484375 L 3.09375 -14.5625 L 4.765625 -14.5625 L 4.765625 -10.484375 L 7.375 -10.484375 L 7.375 -8.9375 L 4.765625 -8.9375 L 4.765625 0 L 3.09375 0 L 3.09375 -8.9375 Z M 0.484375 -8.9375 "/></g></g></g><g fill="#00bf63" fill-opacity="1"><g transform="translate(632.777892, 275.868506)"><g><path d="M 3.484375 -14.109375 C 3.691406 -13.910156 3.796875 -13.664062 3.796875 -13.375 C 3.796875 -13.070312 3.691406 -12.816406 3.484375 -12.609375 C 3.273438 -12.398438 3.023438 -12.296875 2.734375 -12.296875 C 2.429688 -12.296875 2.179688 -12.398438 1.984375 -12.609375 C 1.773438 -12.816406 1.671875 -13.070312 1.671875 -13.375 C 1.671875 -13.664062 1.773438 -13.910156 1.984375 -14.109375 C 2.179688 -14.316406 2.429688 -14.421875 2.734375 -14.421875 C 3.023438 -14.421875 3.273438 -14.316406 3.484375 -14.109375 Z M 3.578125 0 L 1.90625 0 L 1.90625 -10.484375 L 3.578125 -10.484375 Z M 3.578125 0 "/></g></g></g><g fill="#00bf63" fill-opacity="1"><g transform="translate(638.23767, 275.868506)"><g><path d="M 10.375 -5.296875 C 10.375 -6.335938 10 -7.234375 9.25 -7.984375 C 8.5 -8.734375 7.601562 -9.109375 6.5625 -9.109375 C 5.507812 -9.109375 4.609375 -8.734375 3.859375 -7.984375 C 3.109375 -7.234375 2.734375 -6.335938 2.734375 -5.296875 C 2.734375 -4.265625 3.109375 -3.375 3.859375 -2.625 C 4.609375 -1.875 5.507812 -1.5 6.5625 -1.5 C 7.601562 -1.5 8.5 -1.875 9.25 -2.625 C 10 -3.375 10.375 -4.265625 10.375 -5.296875 Z M 12.046875 -5.296875 C 12.046875 -3.765625 11.507812 -2.476562 10.4375 -1.4375 C 9.34375 -0.363281 8.050781 0.171875 6.5625 0.171875 C 5.0625 0.171875 3.769531 -0.363281 2.6875 -1.4375 C 1.613281 -2.476562 1.078125 -3.765625 1.078125 -5.296875 C 1.078125 -6.804688 1.613281 -8.101562 2.6875 -9.1875 C 3.757812 -10.25 5.050781 -10.78125 6.5625 -10.78125 C 8.070312 -10.78125 9.363281 -10.25 10.4375 -9.1875 C 11.507812 -8.101562 12.046875 -6.804688 12.046875 -5.296875 Z M 12.046875 -5.296875 "/></g></g></g><g fill="#00bf63" fill-opacity="1"><g transform="translate(651.350702, 275.868506)"><g><path d="M 9.03125 0 L 9.03125 -6.5625 C 9.03125 -7.238281 8.878906 -7.828125 8.578125 -8.328125 C 8.265625 -8.796875 7.75 -9.03125 7.03125 -9.03125 C 6.320312 -9.03125 5.742188 -8.894531 5.296875 -8.625 C 4.847656 -8.351562 4.488281 -8.003906 4.21875 -7.578125 C 3.707031 -6.785156 3.453125 -5.722656 3.453125 -4.390625 L 3.453125 0 L 1.78125 0 L 1.78125 -10.484375 L 3.453125 -10.484375 L 3.453125 -8.671875 C 3.804688 -9.265625 4.253906 -9.753906 4.796875 -10.140625 C 5.367188 -10.515625 6.023438 -10.703125 6.765625 -10.703125 C 7.515625 -10.703125 8.117188 -10.597656 8.578125 -10.390625 C 9.046875 -10.171875 9.4375 -9.878906 9.75 -9.515625 C 10.382812 -8.765625 10.703125 -7.78125 10.703125 -6.5625 L 10.703125 0 Z M 9.03125 0 "/></g></g></g><g clip-path="url(#da69a325e9)"><path fill="#00bf63" d="M 666.570312 86.285156 C 659.671875 86.285156 654.085938 80.660156 654.085938 73.800781 C 654.085938 66.945312 659.671875 61.320312 666.570312 61.320312 C 673.464844 61.320312 679.054688 66.90625 679.054688 73.800781 C 679.054688 80.699219 673.429688 86.285156 666.570312 86.285156 Z M 666.570312 62.089844 C 660.097656 62.089844 654.855469 67.328125 654.855469 73.800781 C 654.855469 80.277344 660.097656 85.515625 666.570312 85.515625 C 673.042969 85.515625 678.28125 80.277344 678.28125 73.800781 C 678.28125 67.328125 673.003906 62.089844 666.570312 62.089844 Z M 666.570312 62.089844 " fill-opacity="1" fill-rule="nonzero"/></g><g fill="#00bf63" fill-opacity="1"><g transform="translate(660.702643, 77.127819)"><g><path d="M 0.0625 -5.015625 L 0.0625 -6.28125 L 4.46875 -6.28125 L 4.46875 -5.015625 L 2.984375 -5.015625 L 2.984375 0 L 1.546875 0 L 1.546875 -5.015625 Z M 0.0625 -5.015625 "/></g></g></g><g fill="#00bf63" fill-opacity="1"><g transform="translate(665.237653, 77.127819)"><g><path d="M 5.640625 0 L 5.34375 -3.71875 L 5.3125 -3.71875 L 4.03125 -0.03125 L 3.171875 -0.03125 L 1.890625 -3.71875 L 1.84375 -3.71875 L 1.546875 0 L 0.125 0 L 0.6875 -6.28125 L 2.203125 -6.28125 L 3.59375 -2.65625 L 4.984375 -6.28125 L 6.515625 -6.28125 L 7.078125 0 Z M 5.640625 0 "/></g></g></g></svg>