<svg xmlns="http://www.w3.org/2000/svg" xmlns:xlink="http://www.w3.org/1999/xlink" width="957" zoomAndPan="magnify" viewBox="0 0 717.75 363.749991" height="485" preserveAspectRatio="xMidYMid meet" version="1.0"><defs><g/><clipPath id="ca1c6cfe3c"><path d="M 0.121094 36.351562 L 621.457031 36.351562 L 621.457031 327.148438 L 0.121094 327.148438 Z M 0.121094 36.351562 " clip-rule="nonzero"/></clipPath><clipPath id="55eef01c71"><path d="M -148.980469 36.351562 L 594.378906 36.351562 C 609.28125 36.351562 621.363281 48.433594 621.363281 63.332031 L 621.363281 300.167969 C 621.363281 315.066406 609.28125 327.148438 594.378906 327.148438 L -148.980469 327.148438 C -163.882812 327.148438 -175.960938 315.066406 -175.960938 300.167969 L -175.960938 63.332031 C -175.960938 48.433594 -163.882812 36.351562 -148.980469 36.351562 Z M -148.980469 36.351562 " clip-rule="nonzero"/></clipPath><clipPath id="5cb9957e6a"><path d="M 90 106.949219 L 101.753906 106.949219 L 101.753906 118.703125 L 90 118.703125 Z M 90 106.949219 " clip-rule="nonzero"/></clipPath><clipPath id="5205b21e15"><path d="M 95.875 106.949219 C 92.628906 106.949219 90 109.582031 90 112.828125 C 90 116.074219 92.628906 118.703125 95.875 118.703125 C 99.125 118.703125 101.753906 116.074219 101.753906 112.828125 C 101.753906 109.582031 99.125 106.949219 95.875 106.949219 Z M 95.875 106.949219 " clip-rule="nonzero"/></clipPath><clipPath id="3d30099d71"><path d="M 90 175.886719 L 101.753906 175.886719 L 101.753906 187.644531 L 90 187.644531 Z M 90 175.886719 " clip-rule="nonzero"/></clipPath><clipPath id="829154fe0f"><path d="M 95.875 175.886719 C 92.628906 175.886719 90 178.519531 90 181.765625 C 90 185.011719 92.628906 187.644531 95.875 187.644531 C 99.125 187.644531 101.753906 185.011719 101.753906 181.765625 C 101.753906 178.519531 99.125 175.886719 95.875 175.886719 Z M 95.875 175.886719 " clip-rule="nonzero"/></clipPath><clipPath id="925cf1d775"><path d="M 90 244.796875 L 101.753906 244.796875 L 101.753906 256.550781 L 90 256.550781 Z M 90 244.796875 " clip-rule="nonzero"/></clipPath><clipPath id="7177042c9b"><path d="M 95.875 244.796875 C 92.628906 244.796875 90 247.425781 90 250.671875 C 90 253.917969 92.628906 256.550781 95.875 256.550781 C 99.125 256.550781 101.753906 253.917969 101.753906 250.671875 C 101.753906 247.425781 99.125 244.796875 95.875 244.796875 Z M 95.875 244.796875 " clip-rule="nonzero"/></clipPath><clipPath id="f4e05da6cc"><path d="M 545.128906 105.507812 L 697.617188 105.507812 L 697.617188 257.992188 L 545.128906 257.992188 Z M 545.128906 105.507812 " clip-rule="nonzero"/></clipPath><clipPath id="108cbcc1c3"><path d="M 621.371094 105.507812 C 579.265625 105.507812 545.128906 139.640625 545.128906 181.75 C 545.128906 223.859375 579.265625 257.992188 621.371094 257.992188 C 663.480469 257.992188 697.617188 223.859375 697.617188 181.75 C 697.617188 139.640625 663.480469 105.507812 621.371094 105.507812 Z M 621.371094 105.507812 " clip-rule="nonzero"/></clipPath><clipPath id="9c6796a8a3"><path d="M 545.128906 105.507812 L 697.273438 105.507812 L 697.273438 257.652344 L 545.128906 257.652344 Z M 545.128906 105.507812 " clip-rule="nonzero"/></clipPath><clipPath id="55e640494c"><path d="M 621.371094 105.507812 C 579.265625 105.507812 545.128906 139.640625 545.128906 181.75 C 545.128906 223.855469 579.265625 257.992188 621.371094 257.992188 C 663.480469 257.992188 697.613281 223.855469 697.613281 181.75 C 697.613281 139.640625 663.480469 105.507812 621.371094 105.507812 Z M 621.371094 105.507812 " clip-rule="nonzero"/></clipPath><clipPath id="35272a7422"><path d="M 566 131 L 676.738281 131 L 676.738281 221.226562 L 566 221.226562 Z M 566 131 " clip-rule="nonzero"/></clipPath></defs><g clip-path="url(#ca1c6cfe3c)"><g clip-path="url(#55eef01c71)"><path stroke-linecap="butt" transform="matrix(0.749485, 0, 0, 0.749485, -175.96147, 36.351962)" fill="none" stroke-linejoin="miter" d="M 35.999396 -0.000532683 L 1027.826495 -0.000532683 C 1047.709944 -0.000532683 1063.830392 16.119915 1063.830392 35.998152 L 1063.830392 351.996455 C 1063.830392 371.874692 1047.709944 387.99514 1027.826495 387.99514 L 35.999396 387.99514 C 16.115947 387.99514 0.000710772 371.874692 0.000710772 351.996455 L 0.000710772 35.998152 C 0.000710772 16.119915 16.115947 -0.000532683 35.999396 -0.000532683 Z M 35.999396 -0.000532683 " stroke="#00bf63" stroke-width="8" stroke-opacity="1" stroke-miterlimit="4"/></g></g><g clip-path="url(#5cb9957e6a)"><g clip-path="url(#5205b21e15)"><path fill="#00bf63" d="M 90 106.949219 L 101.753906 106.949219 L 101.753906 118.703125 L 90 118.703125 Z M 90 106.949219 " fill-opacity="1" fill-rule="nonzero"/></g></g><g clip-path="url(#3d30099d71)"><g clip-path="url(#829154fe0f)"><path fill="#00bf63" d="M 90 175.886719 L 101.753906 175.886719 L 101.753906 187.644531 L 90 187.644531 Z M 90 175.886719 " fill-opacity="1" fill-rule="nonzero"/></g></g><g clip-path="url(#925cf1d775)"><g clip-path="url(#7177042c9b)"><path fill="#00bf63" d="M 90 244.796875 L 101.753906 244.796875 L 101.753906 256.550781 L 90 256.550781 Z M 90 244.796875 " fill-opacity="1" fill-rule="nonzero"/></g></g><g clip-path="url(#f4e05da6cc)"><g clip-path="url(#108cbcc1c3)"><path fill="#ffffff" d="M 545.128906 105.507812 L 697.617188 105.507812 L 697.617188 257.992188 L 545.128906 257.992188 Z M 545.128906 105.507812 " fill-opacity="1" fill-rule="nonzero"/></g></g><g clip-path="url(#9c6796a8a3)"><g clip-path="url(#55e640494c)"><path stroke-linecap="butt" transform="matrix(0.749485, 0, 0, 0.749485, 545.129203, 105.507)" fill="none" stroke-linejoin="miter" d="M 101.725721 0.00108356 C 45.546512 0.00108356 -0.000395809 45.542779 -0.000395809 101.727201 C -0.000395809 157.90641 45.546512 203.453318 101.725721 203.453318 C 157.910143 203.453318 203.451838 157.90641 203.451838 101.727201 C 203.451838 45.542779 157.910143 0.00108356 101.725721 0.00108356 Z M 101.725721 0.00108356 " stroke="#00bf63" stroke-width="8" stroke-opacity="1" stroke-miterlimit="4"/></g></g><g clip-path="url(#35272a7422)"><path fill="#00bf63" d="M 670.816406 205.128906 C 670.734375 204.710938 670.621094 204.304688 670.46875 203.90625 C 670.316406 203.511719 670.132812 203.128906 669.917969 202.765625 C 669.699219 202.398438 669.453125 202.054688 669.179688 201.730469 C 668.902344 201.410156 668.601562 201.113281 668.273438 200.84375 C 667.945312 200.570312 667.597656 200.332031 667.230469 200.121094 C 666.863281 199.910156 666.476562 199.734375 666.078125 199.589844 C 665.679688 199.445312 665.269531 199.335938 664.851562 199.265625 C 664.433594 199.191406 664.011719 199.152344 663.585938 199.152344 C 662.964844 199.160156 662.351562 199.246094 661.75 199.414062 L 661.75 178.652344 C 662.082031 178.886719 662.4375 179.089844 662.808594 179.253906 C 663.183594 179.421875 663.566406 179.550781 663.964844 179.644531 C 664.363281 179.738281 664.765625 179.792969 665.175781 179.808594 C 665.582031 179.824219 665.988281 179.804688 666.394531 179.742188 C 666.796875 179.679688 667.191406 179.582031 667.578125 179.445312 C 667.960938 179.308594 668.332031 179.136719 668.683594 178.929688 C 669.035156 178.722656 669.367188 178.484375 669.671875 178.214844 C 669.980469 177.945312 670.257812 177.648438 670.507812 177.328125 C 670.757812 177.003906 670.976562 176.660156 671.160156 176.296875 C 671.347656 175.933594 671.496094 175.554688 671.609375 175.160156 C 671.722656 174.769531 671.796875 174.367188 671.832031 173.960938 C 671.867188 173.554688 671.867188 173.148438 671.824219 172.742188 C 671.785156 172.335938 671.703125 171.9375 671.585938 171.542969 C 671.46875 171.152344 671.316406 170.777344 671.128906 170.414062 C 670.9375 170.050781 670.714844 169.710938 670.460938 169.390625 C 670.207031 169.070312 669.925781 168.777344 669.617188 168.511719 L 661.75 162.121094 L 661.75 138.449219 C 661.75 138.207031 661.703125 137.96875 661.609375 137.746094 C 661.515625 137.519531 661.382812 137.320312 661.210938 137.148438 C 661.035156 136.976562 660.839844 136.84375 660.613281 136.75 C 660.386719 136.65625 660.152344 136.609375 659.910156 136.609375 L 648.871094 136.609375 C 648.628906 136.609375 648.394531 136.65625 648.167969 136.75 C 647.941406 136.84375 647.742188 136.976562 647.570312 137.148438 C 647.398438 137.320312 647.265625 137.519531 647.171875 137.746094 C 647.078125 137.96875 647.03125 138.207031 647.03125 138.449219 L 647.03125 150.164062 L 625.519531 132.6875 C 625.230469 132.4375 624.921875 132.210938 624.589844 132.015625 C 624.261719 131.816406 623.917969 131.652344 623.558594 131.515625 C 623.199219 131.378906 622.832031 131.277344 622.453125 131.207031 C 622.078125 131.136719 621.695312 131.101562 621.3125 131.097656 C 620.929688 131.097656 620.546875 131.128906 620.171875 131.195312 C 619.792969 131.261719 619.421875 131.359375 619.0625 131.492188 C 618.703125 131.625 618.355469 131.789062 618.023438 131.980469 C 617.695312 132.175781 617.382812 132.394531 617.089844 132.644531 L 572.898438 168.554688 C 572.421875 168.972656 572.011719 169.453125 571.675781 169.992188 C 571.339844 170.535156 571.089844 171.113281 570.921875 171.726562 C 570.757812 172.339844 570.683594 172.964844 570.707031 173.601562 C 570.726562 174.238281 570.835938 174.859375 571.042969 175.460938 C 571.246094 176.066406 571.53125 176.625 571.902344 177.144531 C 572.273438 177.660156 572.710938 178.113281 573.214844 178.503906 C 573.71875 178.890625 574.269531 179.199219 574.867188 179.421875 C 575.460938 179.648438 576.078125 179.78125 576.710938 179.824219 C 576.859375 179.835938 577.003906 179.839844 577.148438 179.839844 C 578.496094 179.832031 579.714844 179.4375 580.808594 178.65625 L 580.808594 199.414062 C 580.539062 199.339844 580.265625 199.28125 579.988281 199.238281 C 579.710938 199.195312 579.429688 199.167969 579.152344 199.15625 C 578.871094 199.148438 578.589844 199.152344 578.308594 199.175781 C 578.03125 199.195312 577.753906 199.234375 577.476562 199.289062 C 577.203125 199.34375 576.929688 199.414062 576.664062 199.5 C 576.394531 199.585938 576.132812 199.683594 575.878906 199.800781 C 575.621094 199.917969 575.375 200.046875 575.132812 200.191406 C 574.894531 200.335938 574.660156 200.496094 574.4375 200.664062 C 574.21875 200.835938 574.003906 201.019531 573.804688 201.21875 C 573.601562 201.414062 573.414062 201.621094 573.238281 201.839844 C 573.058594 202.054688 572.894531 202.285156 572.746094 202.519531 C 572.59375 202.757812 572.457031 203.003906 572.335938 203.253906 C 572.214844 203.507812 572.105469 203.765625 572.015625 204.03125 C 571.921875 204.296875 571.847656 204.566406 571.785156 204.839844 C 571.722656 205.113281 571.679688 205.390625 571.648438 205.671875 C 571.621094 205.949219 571.609375 206.230469 571.613281 206.511719 C 571.613281 206.589844 571.613281 206.664062 571.613281 206.742188 C 570.824219 206.949219 570.085938 207.273438 569.40625 207.722656 C 568.726562 208.171875 568.136719 208.71875 567.636719 209.363281 C 567.136719 210.007812 566.753906 210.714844 566.492188 211.488281 C 566.226562 212.261719 566.09375 213.054688 566.09375 213.867188 C 566.097656 215.25 566.464844 216.53125 567.199219 217.703125 C 566.800781 217.878906 566.5 218.15625 566.300781 218.542969 C 566.101562 218.929688 566.046875 219.335938 566.136719 219.761719 C 566.222656 220.1875 566.4375 220.539062 566.773438 220.8125 C 567.113281 221.089844 567.5 221.226562 567.933594 221.226562 L 674.625 221.226562 C 674.867188 221.226562 675.101562 221.179688 675.328125 221.085938 C 675.554688 220.992188 675.753906 220.859375 675.925781 220.6875 C 676.097656 220.515625 676.230469 220.316406 676.324219 220.089844 C 676.417969 219.867188 676.464844 219.632812 676.464844 219.386719 C 676.460938 218.957031 676.324219 218.578125 676.050781 218.246094 C 675.777344 217.917969 675.429688 217.710938 675.007812 217.625 C 675.1875 217.363281 675.355469 217.089844 675.503906 216.808594 C 675.652344 216.527344 675.785156 216.238281 675.902344 215.941406 C 676.015625 215.644531 676.113281 215.34375 676.195312 215.035156 C 676.277344 214.726562 676.339844 214.414062 676.382812 214.097656 C 676.429688 213.78125 676.453125 213.464844 676.460938 213.148438 C 676.46875 212.828125 676.457031 212.511719 676.429688 212.191406 C 676.398438 211.875 676.351562 211.5625 676.289062 211.25 C 676.222656 210.9375 676.136719 210.628906 676.035156 210.328125 C 675.933594 210.027344 675.816406 209.730469 675.679688 209.441406 C 675.546875 209.152344 675.394531 208.875 675.226562 208.601562 C 675.058594 208.332031 674.875 208.074219 674.675781 207.824219 C 674.476562 207.574219 674.265625 207.335938 674.039062 207.109375 C 673.8125 206.886719 673.574219 206.675781 673.324219 206.476562 C 673.074219 206.28125 672.816406 206.097656 672.542969 205.933594 C 672.273438 205.765625 671.992188 205.613281 671.703125 205.480469 C 671.414062 205.34375 671.117188 205.226562 670.816406 205.128906 Z M 650.710938 140.289062 L 658.070312 140.289062 L 658.070312 159.128906 L 650.710938 153.152344 Z M 576.945312 176.160156 C 576.582031 176.136719 576.234375 176.042969 575.902344 175.878906 C 575.574219 175.71875 575.289062 175.5 575.046875 175.222656 C 574.804688 174.945312 574.625 174.632812 574.507812 174.285156 C 574.390625 173.9375 574.347656 173.582031 574.371094 173.214844 C 574.417969 172.480469 574.710938 171.871094 575.257812 171.375 L 619.460938 135.453125 C 619.976562 135.003906 620.578125 134.777344 621.261719 134.78125 C 621.980469 134.78125 622.609375 135.019531 623.148438 135.5 L 667.246094 171.324219 C 667.519531 171.566406 667.738281 171.851562 667.902344 172.179688 C 668.0625 172.507812 668.15625 172.851562 668.179688 173.21875 C 668.203125 173.582031 668.15625 173.9375 668.039062 174.285156 C 667.921875 174.632812 667.746094 174.941406 667.503906 175.21875 C 667.257812 175.496094 666.96875 175.71875 666.632812 175.882812 C 666.296875 176.046875 665.945312 176.136719 665.574219 176.15625 C 665.199219 176.175781 664.839844 176.125 664.488281 175.996094 C 664.136719 175.871094 663.828125 175.683594 663.554688 175.429688 L 621.277344 141.277344 L 578.949219 175.476562 C 578.378906 175.984375 577.710938 176.210938 576.945312 176.160156 Z M 584.488281 175.730469 L 621.277344 146.003906 L 658.070312 175.726562 L 658.070312 201.695312 C 657.480469 202.359375 657.027344 203.105469 656.710938 203.933594 C 656.394531 204.765625 656.234375 205.621094 656.230469 206.511719 C 656.230469 206.589844 656.230469 206.664062 656.230469 206.742188 C 655.441406 206.949219 654.707031 207.273438 654.023438 207.722656 C 653.34375 208.171875 652.753906 208.71875 652.253906 209.363281 C 651.753906 210.007812 651.371094 210.714844 651.109375 211.488281 C 650.84375 212.261719 650.710938 213.054688 650.710938 213.867188 C 650.71875 215.1875 651.058594 216.414062 651.734375 217.546875 L 613.921875 217.546875 L 613.921875 186.277344 C 613.921875 186.03125 613.875 185.796875 613.78125 185.574219 C 613.6875 185.347656 613.554688 185.148438 613.382812 184.976562 C 613.210938 184.804688 613.011719 184.671875 612.785156 184.578125 C 612.558594 184.484375 612.324219 184.4375 612.082031 184.4375 L 593.6875 184.4375 C 593.441406 184.4375 593.207031 184.484375 592.984375 184.578125 C 592.757812 184.671875 592.558594 184.804688 592.386719 184.976562 C 592.214844 185.148438 592.082031 185.347656 591.988281 185.574219 C 591.894531 185.796875 591.847656 186.03125 591.847656 186.277344 L 591.847656 217.546875 L 590.445312 217.546875 C 590.621094 217.285156 590.78125 217.011719 590.929688 216.730469 C 591.074219 216.449219 591.203125 216.160156 591.3125 215.863281 C 591.425781 215.570312 591.519531 215.265625 591.597656 214.960938 C 591.675781 214.652344 591.734375 214.34375 591.777344 214.027344 C 591.816406 213.714844 591.839844 213.398438 591.847656 213.082031 C 591.851562 212.765625 591.835938 212.449219 591.804688 212.132812 C 591.773438 211.820312 591.726562 211.507812 591.660156 211.199219 C 591.589844 210.886719 591.507812 210.582031 591.402344 210.285156 C 591.300781 209.984375 591.183594 209.691406 591.046875 209.40625 C 590.910156 209.121094 590.757812 208.84375 590.589844 208.574219 C 590.421875 208.304688 590.238281 208.046875 590.039062 207.800781 C 589.839844 207.554688 589.628906 207.316406 589.40625 207.09375 C 589.179688 206.871094 588.941406 206.664062 588.695312 206.46875 C 588.445312 206.273438 588.183594 206.089844 587.914062 205.925781 C 587.644531 205.761719 587.367188 205.609375 587.078125 205.476562 C 586.792969 205.34375 586.5 205.226562 586.199219 205.128906 C 585.941406 203.816406 585.371094 202.664062 584.488281 201.660156 Z M 582.648438 217.546875 L 573.453125 217.546875 C 572.964844 217.550781 572.492188 217.460938 572.042969 217.277344 C 571.589844 217.09375 571.191406 216.828125 570.84375 216.488281 C 570.496094 216.144531 570.226562 215.75 570.039062 215.300781 C 569.847656 214.847656 569.753906 214.378906 569.75 213.894531 C 569.746094 213.40625 569.835938 212.933594 570.019531 212.484375 C 570.203125 212.03125 570.46875 211.632812 570.808594 211.285156 C 571.152344 210.9375 571.546875 210.667969 571.996094 210.480469 C 572.449219 210.289062 572.917969 210.191406 573.402344 210.191406 L 573.65625 210.21875 C 573.96875 210.246094 574.265625 210.195312 574.550781 210.066406 C 574.839844 209.9375 575.074219 209.75 575.261719 209.5 C 575.453125 209.25 575.570312 208.972656 575.617188 208.664062 C 575.664062 208.351562 575.636719 208.050781 575.527344 207.757812 C 575.375 207.355469 575.296875 206.941406 575.292969 206.511719 C 575.285156 206.023438 575.375 205.550781 575.558594 205.101562 C 575.738281 204.648438 576 204.246094 576.339844 203.898438 C 576.683594 203.550781 577.078125 203.28125 577.527344 203.089844 C 577.976562 202.898438 578.445312 202.796875 578.933594 202.792969 C 579.417969 202.789062 579.890625 202.875 580.34375 203.058594 C 580.796875 203.242188 581.195312 203.503906 581.542969 203.84375 C 581.894531 204.183594 582.164062 204.578125 582.355469 205.027344 C 582.546875 205.476562 582.644531 205.945312 582.648438 206.433594 C 582.648438 206.492188 582.640625 206.554688 582.640625 206.601562 C 582.640625 206.824219 582.679688 207.039062 582.757812 207.246094 C 582.832031 207.453125 582.945312 207.640625 583.089844 207.808594 C 583.234375 207.976562 583.40625 208.113281 583.601562 208.21875 C 583.792969 208.324219 584 208.394531 584.21875 208.425781 C 584.796875 208.503906 585.335938 208.6875 585.84375 208.972656 C 586.347656 209.257812 586.785156 209.628906 587.148438 210.082031 C 587.515625 210.53125 587.785156 211.035156 587.960938 211.589844 C 588.132812 212.144531 588.199219 212.710938 588.160156 213.289062 C 588.117188 213.871094 587.96875 214.421875 587.71875 214.945312 C 587.46875 215.46875 587.128906 215.929688 586.703125 216.324219 C 586.277344 216.71875 585.792969 217.023438 585.253906 217.234375 C 584.710938 217.445312 584.148438 217.550781 583.570312 217.546875 Z M 595.527344 217.546875 L 595.527344 188.117188 L 610.242188 188.117188 L 610.242188 217.546875 Z M 659.910156 217.546875 L 658.070312 217.546875 C 657.582031 217.550781 657.113281 217.460938 656.660156 217.277344 C 656.207031 217.09375 655.808594 216.828125 655.460938 216.488281 C 655.113281 216.144531 654.84375 215.75 654.65625 215.300781 C 654.464844 214.847656 654.371094 214.378906 654.367188 213.894531 C 654.363281 213.40625 654.453125 212.933594 654.636719 212.484375 C 654.820312 212.03125 655.085938 211.632812 655.425781 211.285156 C 655.769531 210.9375 656.164062 210.667969 656.617188 210.480469 C 657.066406 210.289062 657.535156 210.191406 658.019531 210.191406 L 658.273438 210.21875 C 658.585938 210.246094 658.882812 210.195312 659.171875 210.066406 C 659.457031 209.9375 659.691406 209.75 659.878906 209.5 C 660.070312 209.25 660.1875 208.972656 660.234375 208.664062 C 660.28125 208.351562 660.253906 208.050781 660.144531 207.757812 C 659.992188 207.355469 659.914062 206.941406 659.910156 206.511719 C 659.902344 206.023438 659.992188 205.554688 660.175781 205.101562 C 660.355469 204.648438 660.617188 204.25 660.960938 203.898438 C 661.300781 203.550781 661.695312 203.28125 662.144531 203.089844 C 662.59375 202.898438 663.0625 202.800781 663.550781 202.796875 C 664.035156 202.789062 664.507812 202.878906 664.960938 203.0625 C 665.410156 203.242188 665.8125 203.503906 666.160156 203.84375 C 666.507812 204.1875 666.78125 204.582031 666.972656 205.03125 C 667.164062 205.476562 667.261719 205.945312 667.265625 206.433594 C 667.265625 206.492188 667.257812 206.554688 667.257812 206.601562 C 667.257812 206.824219 667.296875 207.039062 667.375 207.246094 C 667.453125 207.453125 667.5625 207.640625 667.707031 207.808594 C 667.851562 207.976562 668.023438 208.113281 668.21875 208.21875 C 668.410156 208.324219 668.617188 208.394531 668.835938 208.425781 C 669.414062 208.503906 669.953125 208.6875 670.460938 208.972656 C 670.964844 209.257812 671.402344 209.628906 671.765625 210.082031 C 672.132812 210.53125 672.402344 211.035156 672.578125 211.589844 C 672.75 212.144531 672.816406 212.710938 672.777344 213.289062 C 672.734375 213.871094 672.589844 214.421875 672.335938 214.945312 C 672.085938 215.46875 671.746094 215.929688 671.320312 216.324219 C 670.894531 216.71875 670.410156 217.023438 669.871094 217.234375 C 669.328125 217.445312 668.765625 217.550781 668.1875 217.546875 Z M 659.910156 217.546875 " fill-opacity="1" fill-rule="nonzero"/></g><path fill="#00bf63" d="M 623.117188 206.511719 L 648.871094 206.511719 C 649.117188 206.511719 649.351562 206.464844 649.574219 206.371094 C 649.800781 206.277344 650 206.144531 650.171875 205.972656 C 650.34375 205.800781 650.476562 205.601562 650.570312 205.375 C 650.664062 205.148438 650.710938 204.914062 650.710938 204.671875 L 650.710938 186.277344 C 650.710938 186.03125 650.664062 185.796875 650.570312 185.574219 C 650.476562 185.347656 650.34375 185.148438 650.171875 184.976562 C 650 184.804688 649.800781 184.671875 649.574219 184.578125 C 649.351562 184.484375 649.117188 184.4375 648.871094 184.4375 L 623.117188 184.4375 C 622.875 184.4375 622.640625 184.484375 622.414062 184.578125 C 622.1875 184.671875 621.992188 184.804688 621.816406 184.976562 C 621.644531 185.148438 621.511719 185.347656 621.417969 185.574219 C 621.324219 185.796875 621.277344 186.03125 621.277344 186.277344 L 621.277344 204.671875 C 621.277344 204.914062 621.324219 205.148438 621.417969 205.375 C 621.511719 205.601562 621.644531 205.800781 621.816406 205.972656 C 621.992188 206.144531 622.1875 206.277344 622.414062 206.371094 C 622.640625 206.464844 622.875 206.511719 623.117188 206.511719 Z M 647.03125 202.832031 L 637.835938 202.832031 L 637.835938 188.117188 L 647.03125 188.117188 Z M 624.957031 188.117188 L 634.15625 188.117188 L 634.15625 202.832031 L 624.957031 202.832031 Z M 624.957031 188.117188 " fill-opacity="1" fill-rule="nonzero"/><g fill="#000000" fill-opacity="1"><g transform="translate(116.387196, 119.663887)"><g><path d="M 5.65625 -6.875 C 2.6875 -7.5625 1.203125 -8.835938 1.203125 -10.703125 C 1.203125 -12.066406 1.679688 -13.09375 2.640625 -13.78125 C 3.597656 -14.457031 4.71875 -14.796875 6 -14.796875 C 8.84375 -14.796875 10.53125 -13.738281 11.0625 -11.625 L 9.4375 -11.625 C 9.144531 -12.875 8 -13.5 6 -13.5 C 4.601562 -13.5 3.625 -13.085938 3.0625 -12.265625 C 2.851562 -11.953125 2.75 -11.554688 2.75 -11.078125 C 2.75 -10.179688 3.234375 -9.488281 4.203125 -9 C 4.660156 -8.757812 5.632812 -8.445312 7.125 -8.0625 C 8.601562 -7.675781 9.679688 -7.25 10.359375 -6.78125 C 11.285156 -6.113281 11.75 -5.191406 11.75 -4.015625 C 11.75 -2.535156 11.171875 -1.421875 10.015625 -0.671875 C 9.035156 -0.0351562 7.832031 0.28125 6.40625 0.28125 C 3.175781 0.28125 1.304688 -0.945312 0.796875 -3.40625 L 2.578125 -3.40625 C 2.847656 -1.863281 4.125 -1.09375 6.40625 -1.09375 C 8.039062 -1.09375 9.175781 -1.539062 9.8125 -2.4375 C 10.070312 -2.800781 10.203125 -3.289062 10.203125 -3.90625 C 10.203125 -4.5 9.96875 -4.988281 9.5 -5.375 C 8.820312 -5.925781 7.539062 -6.425781 5.65625 -6.875 Z M 5.65625 -6.875 "/></g></g></g><g fill="#000000" fill-opacity="1"><g transform="translate(128.694595, 119.663887)"><g><path d="M 3.109375 5.359375 L 1.609375 5.359375 L 1.609375 -9.4375 L 3.109375 -9.4375 L 3.109375 -7.828125 C 3.191406 -7.941406 3.285156 -8.046875 3.390625 -8.140625 C 4.273438 -9.140625 5.367188 -9.640625 6.671875 -9.640625 C 7.972656 -9.640625 9.070312 -9.140625 9.96875 -8.140625 C 10.820312 -7.171875 11.25 -6.03125 11.25 -4.71875 C 11.25 -3.40625 10.820312 -2.257812 9.96875 -1.28125 C 9.070312 -0.28125 7.972656 0.21875 6.671875 0.21875 C 5.367188 0.21875 4.273438 -0.28125 3.390625 -1.28125 C 3.285156 -1.382812 3.191406 -1.492188 3.109375 -1.609375 Z M 9.75 -4.71875 C 9.75 -5.632812 9.4375 -6.4375 8.8125 -7.125 C 8.164062 -7.800781 7.375 -8.140625 6.4375 -8.140625 C 5.488281 -8.140625 4.703125 -7.800781 4.078125 -7.125 C 3.429688 -6.4375 3.109375 -5.632812 3.109375 -4.71875 C 3.109375 -3.800781 3.429688 -3 4.078125 -2.3125 C 4.703125 -1.625 5.488281 -1.28125 6.4375 -1.28125 C 7.375 -1.28125 8.164062 -1.625 8.8125 -2.3125 C 9.4375 -3 9.75 -3.800781 9.75 -4.71875 Z M 9.75 -4.71875 "/></g></g></g><g fill="#000000" fill-opacity="1"><g transform="translate(140.916226, 119.663887)"><g><path d="M 10.828125 -4.9375 L 10.828125 -4.140625 L 2.53125 -4.140625 C 2.675781 -3.328125 3.066406 -2.660156 3.703125 -2.140625 C 4.359375 -1.609375 5.085938 -1.34375 5.890625 -1.34375 C 6.429688 -1.34375 6.953125 -1.472656 7.453125 -1.734375 C 7.941406 -1.972656 8.351562 -2.316406 8.6875 -2.765625 L 10.390625 -2.765625 C 9.992188 -1.867188 9.394531 -1.160156 8.59375 -0.640625 C 7.78125 -0.109375 6.957031 0.15625 6.125 0.15625 C 5.28125 0.15625 4.566406 0.0234375 3.984375 -0.234375 C 3.390625 -0.492188 2.867188 -0.84375 2.421875 -1.28125 C 1.453125 -2.226562 0.96875 -3.390625 0.96875 -4.765625 C 0.96875 -6.117188 1.453125 -7.28125 2.421875 -8.25 C 3.378906 -9.207031 4.535156 -9.6875 5.890625 -9.6875 C 7.210938 -9.6875 8.363281 -9.222656 9.34375 -8.296875 C 10.332031 -7.347656 10.828125 -6.226562 10.828125 -4.9375 Z M 9.234375 -5.421875 C 9.066406 -6.222656 8.664062 -6.890625 8.03125 -7.421875 C 7.40625 -7.929688 6.691406 -8.1875 5.890625 -8.1875 C 4.660156 -8.1875 3.695312 -7.632812 3 -6.53125 C 2.78125 -6.195312 2.628906 -5.828125 2.546875 -5.421875 Z M 9.234375 -5.421875 "/></g></g></g><g fill="#000000" fill-opacity="1"><g transform="translate(152.601825, 119.663887)"><g><path d="M 10.421875 -6.046875 L 8.796875 -6.046875 C 8.535156 -6.648438 8.132812 -7.132812 7.59375 -7.5 C 7.050781 -7.875 6.5 -8.0625 5.9375 -8.0625 C 5.382812 -8.0625 4.90625 -7.972656 4.5 -7.796875 C 4.101562 -7.617188 3.757812 -7.378906 3.46875 -7.078125 C 2.832031 -6.398438 2.515625 -5.613281 2.515625 -4.71875 C 2.515625 -3.800781 2.832031 -3.015625 3.46875 -2.359375 C 4.101562 -1.679688 4.875 -1.34375 5.78125 -1.34375 C 6.382812 -1.34375 6.941406 -1.503906 7.453125 -1.828125 C 7.953125 -2.140625 8.347656 -2.5625 8.640625 -3.09375 L 10.328125 -3.09375 C 9.804688 -1.570312 8.785156 -0.554688 7.265625 -0.046875 C 6.796875 0.128906 6.257812 0.21875 5.65625 0.21875 C 5.0625 0.21875 4.46875 0.0820312 3.875 -0.1875 C 3.289062 -0.445312 2.785156 -0.804688 2.359375 -1.265625 C 1.429688 -2.234375 0.96875 -3.382812 0.96875 -4.71875 C 0.96875 -6.0625 1.429688 -7.210938 2.359375 -8.171875 C 3.296875 -9.140625 4.4375 -9.625 5.78125 -9.625 C 6.875 -9.625 7.851562 -9.289062 8.71875 -8.625 C 9.550781 -7.976562 10.117188 -7.117188 10.421875 -6.046875 Z M 10.421875 -6.046875 "/></g></g></g><g fill="#000000" fill-opacity="1"><g transform="translate(163.772822, 119.663887)"><g><path d="M 3.125 -12.6875 C 3.3125 -12.5 3.40625 -12.28125 3.40625 -12.03125 C 3.40625 -11.757812 3.3125 -11.53125 3.125 -11.34375 C 2.9375 -11.15625 2.71875 -11.0625 2.46875 -11.0625 C 2.195312 -11.0625 1.96875 -11.15625 1.78125 -11.34375 C 1.59375 -11.53125 1.5 -11.757812 1.5 -12.03125 C 1.5 -12.28125 1.59375 -12.5 1.78125 -12.6875 C 1.96875 -12.875 2.195312 -12.96875 2.46875 -12.96875 C 2.71875 -12.96875 2.9375 -12.875 3.125 -12.6875 Z M 3.21875 0 L 1.71875 0 L 1.71875 -9.4375 L 3.21875 -9.4375 Z M 3.21875 0 "/></g></g></g><g fill="#000000" fill-opacity="1"><g transform="translate(168.682921, 119.663887)"><g><path d="M 9.109375 -4.71875 C 9.109375 -5.632812 8.796875 -6.4375 8.171875 -7.125 C 7.523438 -7.800781 6.726562 -8.140625 5.78125 -8.140625 C 4.84375 -8.140625 4.0625 -7.800781 3.4375 -7.125 C 2.789062 -6.4375 2.46875 -5.632812 2.46875 -4.71875 C 2.46875 -3.800781 2.789062 -3 3.4375 -2.3125 C 4.0625 -1.625 4.84375 -1.28125 5.78125 -1.28125 C 6.726562 -1.28125 7.523438 -1.625 8.171875 -2.3125 C 8.796875 -3 9.109375 -3.800781 9.109375 -4.71875 Z M 10.609375 0 L 9.109375 0 L 9.109375 -1.609375 C 9.023438 -1.492188 8.941406 -1.382812 8.859375 -1.28125 C 7.953125 -0.28125 6.847656 0.21875 5.546875 0.21875 C 4.242188 0.21875 3.148438 -0.28125 2.265625 -1.28125 C 1.398438 -2.257812 0.96875 -3.40625 0.96875 -4.71875 C 0.96875 -6.03125 1.398438 -7.171875 2.265625 -8.140625 C 3.148438 -9.140625 4.242188 -9.640625 5.546875 -9.640625 C 6.847656 -9.640625 7.953125 -9.140625 8.859375 -8.140625 C 8.941406 -8.046875 9.023438 -7.941406 9.109375 -7.828125 L 9.109375 -9.4375 L 10.609375 -9.4375 Z M 10.609375 0 "/></g></g></g><g fill="#000000" fill-opacity="1"><g transform="translate(180.904552, 119.663887)"><g><path d="M 3.109375 0 L 1.609375 0 L 1.609375 -16.078125 L 3.109375 -16.078125 Z M 3.109375 0 "/></g></g></g><g fill="#000000" fill-opacity="1"><g transform="translate(185.621671, 119.663887)"><g><path d="M 3.125 -12.6875 C 3.3125 -12.5 3.40625 -12.28125 3.40625 -12.03125 C 3.40625 -11.757812 3.3125 -11.53125 3.125 -11.34375 C 2.9375 -11.15625 2.71875 -11.0625 2.46875 -11.0625 C 2.195312 -11.0625 1.96875 -11.15625 1.78125 -11.34375 C 1.59375 -11.53125 1.5 -11.757812 1.5 -12.03125 C 1.5 -12.28125 1.59375 -12.5 1.78125 -12.6875 C 1.96875 -12.875 2.195312 -12.96875 2.46875 -12.96875 C 2.71875 -12.96875 2.9375 -12.875 3.125 -12.6875 Z M 3.21875 0 L 1.71875 0 L 1.71875 -9.4375 L 3.21875 -9.4375 Z M 3.21875 0 "/></g></g></g><g fill="#000000" fill-opacity="1"><g transform="translate(190.53177, 119.663887)"><g><path d="M 0.21875 0 L 6.390625 -8.03125 L 0.578125 -8.03125 L 0.578125 -9.4375 L 9.265625 -9.4375 L 3.09375 -1.390625 L 9.546875 -1.390625 L 9.546875 0 Z M 0.21875 0 "/></g></g></g><g fill="#000000" fill-opacity="1"><g transform="translate(200.287642, 119.663887)"><g><path d="M 10.828125 -4.9375 L 10.828125 -4.140625 L 2.53125 -4.140625 C 2.675781 -3.328125 3.066406 -2.660156 3.703125 -2.140625 C 4.359375 -1.609375 5.085938 -1.34375 5.890625 -1.34375 C 6.429688 -1.34375 6.953125 -1.472656 7.453125 -1.734375 C 7.941406 -1.972656 8.351562 -2.316406 8.6875 -2.765625 L 10.390625 -2.765625 C 9.992188 -1.867188 9.394531 -1.160156 8.59375 -0.640625 C 7.78125 -0.109375 6.957031 0.15625 6.125 0.15625 C 5.28125 0.15625 4.566406 0.0234375 3.984375 -0.234375 C 3.390625 -0.492188 2.867188 -0.84375 2.421875 -1.28125 C 1.453125 -2.226562 0.96875 -3.390625 0.96875 -4.765625 C 0.96875 -6.117188 1.453125 -7.28125 2.421875 -8.25 C 3.378906 -9.207031 4.535156 -9.6875 5.890625 -9.6875 C 7.210938 -9.6875 8.363281 -9.222656 9.34375 -8.296875 C 10.332031 -7.347656 10.828125 -6.226562 10.828125 -4.9375 Z M 9.234375 -5.421875 C 9.066406 -6.222656 8.664062 -6.890625 8.03125 -7.421875 C 7.40625 -7.929688 6.691406 -8.1875 5.890625 -8.1875 C 4.660156 -8.1875 3.695312 -7.632812 3 -6.53125 C 2.78125 -6.195312 2.628906 -5.828125 2.546875 -5.421875 Z M 9.234375 -5.421875 "/></g></g></g><g fill="#000000" fill-opacity="1"><g transform="translate(211.973241, 119.663887)"><g><path d="M 9.109375 -4.71875 C 9.109375 -5.632812 8.796875 -6.4375 8.171875 -7.125 C 7.523438 -7.800781 6.726562 -8.140625 5.78125 -8.140625 C 4.84375 -8.140625 4.0625 -7.800781 3.4375 -7.125 C 2.789062 -6.4375 2.46875 -5.632812 2.46875 -4.71875 C 2.46875 -3.800781 2.789062 -3 3.4375 -2.3125 C 4.0625 -1.625 4.84375 -1.28125 5.78125 -1.28125 C 6.726562 -1.28125 7.523438 -1.625 8.171875 -2.3125 C 8.796875 -3 9.109375 -3.800781 9.109375 -4.71875 Z M 10.609375 0 L 9.109375 0 L 9.109375 -1.609375 C 9.023438 -1.492188 8.941406 -1.382812 8.859375 -1.28125 C 7.953125 -0.28125 6.847656 0.21875 5.546875 0.21875 C 4.242188 0.21875 3.148438 -0.28125 2.265625 -1.28125 C 1.398438 -2.257812 0.96875 -3.40625 0.96875 -4.71875 C 0.96875 -6.03125 1.398438 -7.171875 2.265625 -8.140625 C 3.148438 -9.140625 4.242188 -9.640625 5.546875 -9.640625 C 6.847656 -9.640625 7.953125 -9.140625 8.859375 -8.140625 C 8.941406 -8.046875 9.023438 -7.941406 9.109375 -7.828125 L 9.109375 -16.078125 L 10.609375 -16.078125 Z M 10.609375 0 "/></g></g></g><g fill="#000000" fill-opacity="1"><g transform="translate(224.194871, 119.663887)"><g/></g></g><g fill="#000000" fill-opacity="1"><g transform="translate(229.984065, 119.663887)"><g><path d="M 5.65625 -6.875 C 2.6875 -7.5625 1.203125 -8.835938 1.203125 -10.703125 C 1.203125 -12.066406 1.679688 -13.09375 2.640625 -13.78125 C 3.597656 -14.457031 4.71875 -14.796875 6 -14.796875 C 8.84375 -14.796875 10.53125 -13.738281 11.0625 -11.625 L 9.4375 -11.625 C 9.144531 -12.875 8 -13.5 6 -13.5 C 4.601562 -13.5 3.625 -13.085938 3.0625 -12.265625 C 2.851562 -11.953125 2.75 -11.554688 2.75 -11.078125 C 2.75 -10.179688 3.234375 -9.488281 4.203125 -9 C 4.660156 -8.757812 5.632812 -8.445312 7.125 -8.0625 C 8.601562 -7.675781 9.679688 -7.25 10.359375 -6.78125 C 11.285156 -6.113281 11.75 -5.191406 11.75 -4.015625 C 11.75 -2.535156 11.171875 -1.421875 10.015625 -0.671875 C 9.035156 -0.0351562 7.832031 0.28125 6.40625 0.28125 C 3.175781 0.28125 1.304688 -0.945312 0.796875 -3.40625 L 2.578125 -3.40625 C 2.847656 -1.863281 4.125 -1.09375 6.40625 -1.09375 C 8.039062 -1.09375 9.175781 -1.539062 9.8125 -2.4375 C 10.070312 -2.800781 10.203125 -3.289062 10.203125 -3.90625 C 10.203125 -4.5 9.96875 -4.988281 9.5 -5.375 C 8.820312 -5.925781 7.539062 -6.425781 5.65625 -6.875 Z M 5.65625 -6.875 "/></g></g></g><g fill="#000000" fill-opacity="1"><g transform="translate(242.291464, 119.663887)"><g><path d="M 9.328125 -4.765625 C 9.328125 -5.703125 8.988281 -6.507812 8.3125 -7.1875 C 7.644531 -7.851562 6.835938 -8.1875 5.890625 -8.1875 C 4.953125 -8.1875 4.144531 -7.851562 3.46875 -7.1875 C 2.800781 -6.507812 2.46875 -5.703125 2.46875 -4.765625 C 2.46875 -3.828125 2.800781 -3.023438 3.46875 -2.359375 C 4.144531 -1.679688 4.953125 -1.34375 5.890625 -1.34375 C 6.835938 -1.34375 7.644531 -1.679688 8.3125 -2.359375 C 8.988281 -3.023438 9.328125 -3.828125 9.328125 -4.765625 Z M 10.828125 -4.765625 C 10.828125 -3.390625 10.347656 -2.226562 9.390625 -1.28125 C 8.398438 -0.320312 7.234375 0.15625 5.890625 0.15625 C 4.546875 0.15625 3.390625 -0.320312 2.421875 -1.28125 C 1.453125 -2.226562 0.96875 -3.390625 0.96875 -4.765625 C 0.96875 -6.117188 1.453125 -7.28125 2.421875 -8.25 C 3.378906 -9.207031 4.535156 -9.6875 5.890625 -9.6875 C 7.253906 -9.6875 8.421875 -9.207031 9.390625 -8.25 C 10.347656 -7.28125 10.828125 -6.117188 10.828125 -4.765625 Z M 10.828125 -4.765625 "/></g></g></g><g fill="#000000" fill-opacity="1"><g transform="translate(254.084274, 119.663887)"><g><path d="M 3.109375 0 L 1.609375 0 L 1.609375 -16.078125 L 3.109375 -16.078125 Z M 3.109375 0 "/></g></g></g><g fill="#000000" fill-opacity="1"><g transform="translate(258.801393, 119.663887)"><g><path d="M 9.109375 -4.71875 C 9.109375 -5.632812 8.796875 -6.4375 8.171875 -7.125 C 7.523438 -7.800781 6.726562 -8.140625 5.78125 -8.140625 C 4.84375 -8.140625 4.0625 -7.800781 3.4375 -7.125 C 2.789062 -6.4375 2.46875 -5.632812 2.46875 -4.71875 C 2.46875 -3.800781 2.789062 -3 3.4375 -2.3125 C 4.0625 -1.625 4.84375 -1.28125 5.78125 -1.28125 C 6.726562 -1.28125 7.523438 -1.625 8.171875 -2.3125 C 8.796875 -3 9.109375 -3.800781 9.109375 -4.71875 Z M 10.609375 0 L 9.109375 0 L 9.109375 -1.609375 C 9.023438 -1.492188 8.941406 -1.382812 8.859375 -1.28125 C 7.953125 -0.28125 6.847656 0.21875 5.546875 0.21875 C 4.242188 0.21875 3.148438 -0.28125 2.265625 -1.28125 C 1.398438 -2.257812 0.96875 -3.40625 0.96875 -4.71875 C 0.96875 -6.03125 1.398438 -7.171875 2.265625 -8.140625 C 3.148438 -9.140625 4.242188 -9.640625 5.546875 -9.640625 C 6.847656 -9.640625 7.953125 -9.140625 8.859375 -8.140625 C 8.941406 -8.046875 9.023438 -7.941406 9.109375 -7.828125 L 9.109375 -9.4375 L 10.609375 -9.4375 Z M 10.609375 0 "/></g></g></g><g fill="#000000" fill-opacity="1"><g transform="translate(271.023023, 119.663887)"><g><path d="M 6.453125 -7.484375 C 6.109375 -7.796875 5.738281 -7.953125 5.34375 -7.953125 C 4.957031 -7.953125 4.628906 -7.84375 4.359375 -7.625 C 4.066406 -7.394531 3.828125 -7.125 3.640625 -6.8125 C 3.285156 -6.1875 3.109375 -5.488281 3.109375 -4.71875 L 3.109375 0 L 1.609375 0 L 1.609375 -9.4375 L 3.109375 -9.4375 L 3.109375 -7.484375 L 3.171875 -7.875 C 3.671875 -9.039062 4.453125 -9.625 5.515625 -9.625 C 5.835938 -9.625 6.148438 -9.5625 6.453125 -9.4375 Z M 6.453125 -7.484375 "/></g></g></g><g fill="#000000" fill-opacity="1"><g transform="translate(277.691324, 119.663887)"><g/></g></g><g fill="#000000" fill-opacity="1"><g transform="translate(283.480518, 119.663887)"><g><path d="M 3.109375 0 L 1.609375 0 L 1.609375 -14.578125 L 3.109375 -14.578125 L 3.109375 -7.734375 L 8.015625 -14.578125 L 9.953125 -14.578125 L 4.59375 -7.28125 L 9.953125 0 L 8.015625 0 L 3.109375 -6.84375 Z M 3.109375 0 "/></g></g></g><g fill="#000000" fill-opacity="1"><g transform="translate(293.643768, 119.663887)"><g><path d="M 3.125 -12.6875 C 3.3125 -12.5 3.40625 -12.28125 3.40625 -12.03125 C 3.40625 -11.757812 3.3125 -11.53125 3.125 -11.34375 C 2.9375 -11.15625 2.71875 -11.0625 2.46875 -11.0625 C 2.195312 -11.0625 1.96875 -11.15625 1.78125 -11.34375 C 1.59375 -11.53125 1.5 -11.757812 1.5 -12.03125 C 1.5 -12.28125 1.59375 -12.5 1.78125 -12.6875 C 1.96875 -12.875 2.195312 -12.96875 2.46875 -12.96875 C 2.71875 -12.96875 2.9375 -12.875 3.125 -12.6875 Z M 3.21875 0 L 1.71875 0 L 1.71875 -9.4375 L 3.21875 -9.4375 Z M 3.21875 0 "/></g></g></g><g fill="#000000" fill-opacity="1"><g transform="translate(298.553867, 119.663887)"><g><path d="M 0.421875 -8.03125 L 0.421875 -9.4375 L 2.78125 -9.4375 L 2.78125 -13.09375 L 4.28125 -13.09375 L 4.28125 -9.4375 L 6.625 -9.4375 L 6.625 -8.03125 L 4.28125 -8.03125 L 4.28125 0 L 2.78125 0 L 2.78125 -8.03125 Z M 0.421875 -8.03125 "/></g></g></g><g fill="#000000" fill-opacity="1"><g transform="translate(305.608103, 119.663887)"><g><path d="M 2.984375 -1.34375 C 3.347656 -1.09375 3.832031 -0.96875 4.4375 -0.96875 C 5.8125 -0.96875 6.5 -1.484375 6.5 -2.515625 C 6.5 -3.109375 6.003906 -3.5625 5.015625 -3.875 C 4.597656 -4.019531 4.15625 -4.148438 3.6875 -4.265625 C 3.195312 -4.378906 2.75 -4.53125 2.34375 -4.71875 C 1.851562 -4.945312 1.488281 -5.234375 1.25 -5.578125 C 1 -5.921875 0.875 -6.328125 0.875 -6.796875 C 0.875 -7.734375 1.203125 -8.441406 1.859375 -8.921875 C 2.515625 -9.398438 3.300781 -9.640625 4.21875 -9.640625 C 5.132812 -9.640625 5.894531 -9.457031 6.5 -9.09375 C 7.09375 -8.71875 7.5 -8.050781 7.71875 -7.09375 L 6.109375 -7.09375 C 5.941406 -7.625 5.691406 -7.972656 5.359375 -8.140625 C 5.046875 -8.316406 4.65625 -8.40625 4.1875 -8.40625 C 3.707031 -8.40625 3.304688 -8.304688 2.984375 -8.109375 C 2.640625 -7.890625 2.46875 -7.570312 2.46875 -7.15625 C 2.46875 -6.726562 2.609375 -6.414062 2.890625 -6.21875 C 3.160156 -6.03125 3.503906 -5.863281 3.921875 -5.71875 C 4.335938 -5.59375 4.789062 -5.476562 5.28125 -5.375 C 5.75 -5.257812 6.195312 -5.101562 6.625 -4.90625 C 7.59375 -4.445312 8.078125 -3.710938 8.078125 -2.703125 C 8.078125 -1.679688 7.710938 -0.929688 6.984375 -0.453125 C 6.617188 -0.203125 6.210938 -0.015625 5.765625 0.109375 C 5.335938 0.222656 4.867188 0.28125 4.359375 0.28125 C 2.171875 0.28125 0.910156 -0.691406 0.578125 -2.640625 L 2.171875 -2.640625 C 2.328125 -2.023438 2.597656 -1.59375 2.984375 -1.34375 Z M 2.984375 -1.34375 "/></g></g></g><g fill="#000000" fill-opacity="1"><g transform="translate(314.227574, 119.663887)"><g/></g></g><g fill="#000000" fill-opacity="1"><g transform="translate(320.016768, 119.663887)"><g><path d="M 6.671875 -14.6875 L 5.375 -14.6875 C 4.875 -14.6875 4.546875 -14.570312 4.390625 -14.34375 C 4.234375 -14.113281 4.15625 -13.832031 4.15625 -13.5 L 4.15625 -9.4375 L 6.671875 -9.4375 L 6.671875 -8.03125 L 4.15625 -8.03125 L 4.15625 0 L 2.65625 0 L 2.65625 -8.03125 L 0.75 -8.03125 L 0.75 -9.4375 L 2.65625 -9.4375 L 2.65625 -13.078125 C 2.65625 -14.035156 2.882812 -14.78125 3.34375 -15.3125 C 3.789062 -15.820312 4.539062 -16.078125 5.59375 -16.078125 L 6.671875 -16.078125 Z M 6.671875 -14.6875 "/></g></g></g><g fill="#000000" fill-opacity="1"><g transform="translate(327.328311, 119.663887)"><g><path d="M 9.328125 -4.765625 C 9.328125 -5.703125 8.988281 -6.507812 8.3125 -7.1875 C 7.644531 -7.851562 6.835938 -8.1875 5.890625 -8.1875 C 4.953125 -8.1875 4.144531 -7.851562 3.46875 -7.1875 C 2.800781 -6.507812 2.46875 -5.703125 2.46875 -4.765625 C 2.46875 -3.828125 2.800781 -3.023438 3.46875 -2.359375 C 4.144531 -1.679688 4.953125 -1.34375 5.890625 -1.34375 C 6.835938 -1.34375 7.644531 -1.679688 8.3125 -2.359375 C 8.988281 -3.023438 9.328125 -3.828125 9.328125 -4.765625 Z M 10.828125 -4.765625 C 10.828125 -3.390625 10.347656 -2.226562 9.390625 -1.28125 C 8.398438 -0.320312 7.234375 0.15625 5.890625 0.15625 C 4.546875 0.15625 3.390625 -0.320312 2.421875 -1.28125 C 1.453125 -2.226562 0.96875 -3.390625 0.96875 -4.765625 C 0.96875 -6.117188 1.453125 -7.28125 2.421875 -8.25 C 3.378906 -9.207031 4.535156 -9.6875 5.890625 -9.6875 C 7.253906 -9.6875 8.421875 -9.207031 9.390625 -8.25 C 10.347656 -7.28125 10.828125 -6.117188 10.828125 -4.765625 Z M 10.828125 -4.765625 "/></g></g></g><g fill="#000000" fill-opacity="1"><g transform="translate(339.121121, 119.663887)"><g><path d="M 6.453125 -7.484375 C 6.109375 -7.796875 5.738281 -7.953125 5.34375 -7.953125 C 4.957031 -7.953125 4.628906 -7.84375 4.359375 -7.625 C 4.066406 -7.394531 3.828125 -7.125 3.640625 -6.8125 C 3.285156 -6.1875 3.109375 -5.488281 3.109375 -4.71875 L 3.109375 0 L 1.609375 0 L 1.609375 -9.4375 L 3.109375 -9.4375 L 3.109375 -7.484375 L 3.171875 -7.875 C 3.671875 -9.039062 4.453125 -9.625 5.515625 -9.625 C 5.835938 -9.625 6.148438 -9.5625 6.453125 -9.4375 Z M 6.453125 -7.484375 "/></g></g></g><g fill="#000000" fill-opacity="1"><g transform="translate(345.789422, 119.663887)"><g/></g></g><g fill="#000000" fill-opacity="1"><g transform="translate(351.578604, 119.663887)"><g><path d="M 3.109375 -7.203125 L 6.5 -7.203125 C 7.34375 -7.203125 8.035156 -7.488281 8.578125 -8.0625 C 9.128906 -8.644531 9.40625 -9.363281 9.40625 -10.21875 C 9.40625 -11.0625 9.144531 -11.765625 8.625 -12.328125 C 8.09375 -12.867188 7.382812 -13.140625 6.5 -13.140625 L 3.109375 -13.140625 Z M 10.90625 -10.1875 C 10.90625 -8.914062 10.457031 -7.859375 9.5625 -7.015625 C 8.757812 -6.265625 7.796875 -5.851562 6.671875 -5.78125 L 11.140625 0 L 9.125 0 L 4.859375 -5.765625 L 3.109375 -5.765625 L 3.109375 0 L 1.609375 0 L 1.609375 -14.578125 L 6.28125 -14.578125 C 7.582031 -14.578125 8.675781 -14.171875 9.5625 -13.359375 C 10.457031 -12.492188 10.90625 -11.4375 10.90625 -10.1875 Z M 10.90625 -10.1875 "/></g></g></g><g fill="#000000" fill-opacity="1"><g transform="translate(363.24276, 119.663887)"><g><path d="M 10.828125 -4.9375 L 10.828125 -4.140625 L 2.53125 -4.140625 C 2.675781 -3.328125 3.066406 -2.660156 3.703125 -2.140625 C 4.359375 -1.609375 5.085938 -1.34375 5.890625 -1.34375 C 6.429688 -1.34375 6.953125 -1.472656 7.453125 -1.734375 C 7.941406 -1.972656 8.351562 -2.316406 8.6875 -2.765625 L 10.390625 -2.765625 C 9.992188 -1.867188 9.394531 -1.160156 8.59375 -0.640625 C 7.78125 -0.109375 6.957031 0.15625 6.125 0.15625 C 5.28125 0.15625 4.566406 0.0234375 3.984375 -0.234375 C 3.390625 -0.492188 2.867188 -0.84375 2.421875 -1.28125 C 1.453125 -2.226562 0.96875 -3.390625 0.96875 -4.765625 C 0.96875 -6.117188 1.453125 -7.28125 2.421875 -8.25 C 3.378906 -9.207031 4.535156 -9.6875 5.890625 -9.6875 C 7.210938 -9.6875 8.363281 -9.222656 9.34375 -8.296875 C 10.332031 -7.347656 10.828125 -6.226562 10.828125 -4.9375 Z M 9.234375 -5.421875 C 9.066406 -6.222656 8.664062 -6.890625 8.03125 -7.421875 C 7.40625 -7.929688 6.691406 -8.1875 5.890625 -8.1875 C 4.660156 -8.1875 3.695312 -7.632812 3 -6.53125 C 2.78125 -6.195312 2.628906 -5.828125 2.546875 -5.421875 Z M 9.234375 -5.421875 "/></g></g></g><g fill="#000000" fill-opacity="1"><g transform="translate(374.928371, 119.663887)"><g><path d="M 2.984375 -1.34375 C 3.347656 -1.09375 3.832031 -0.96875 4.4375 -0.96875 C 5.8125 -0.96875 6.5 -1.484375 6.5 -2.515625 C 6.5 -3.109375 6.003906 -3.5625 5.015625 -3.875 C 4.597656 -4.019531 4.15625 -4.148438 3.6875 -4.265625 C 3.195312 -4.378906 2.75 -4.53125 2.34375 -4.71875 C 1.851562 -4.945312 1.488281 -5.234375 1.25 -5.578125 C 1 -5.921875 0.875 -6.328125 0.875 -6.796875 C 0.875 -7.734375 1.203125 -8.441406 1.859375 -8.921875 C 2.515625 -9.398438 3.300781 -9.640625 4.21875 -9.640625 C 5.132812 -9.640625 5.894531 -9.457031 6.5 -9.09375 C 7.09375 -8.71875 7.5 -8.050781 7.71875 -7.09375 L 6.109375 -7.09375 C 5.941406 -7.625 5.691406 -7.972656 5.359375 -8.140625 C 5.046875 -8.316406 4.65625 -8.40625 4.1875 -8.40625 C 3.707031 -8.40625 3.304688 -8.304688 2.984375 -8.109375 C 2.640625 -7.890625 2.46875 -7.570312 2.46875 -7.15625 C 2.46875 -6.726562 2.609375 -6.414062 2.890625 -6.21875 C 3.160156 -6.03125 3.503906 -5.863281 3.921875 -5.71875 C 4.335938 -5.59375 4.789062 -5.476562 5.28125 -5.375 C 5.75 -5.257812 6.195312 -5.101562 6.625 -4.90625 C 7.59375 -4.445312 8.078125 -3.710938 8.078125 -2.703125 C 8.078125 -1.679688 7.710938 -0.929688 6.984375 -0.453125 C 6.617188 -0.203125 6.210938 -0.015625 5.765625 0.109375 C 5.335938 0.222656 4.867188 0.28125 4.359375 0.28125 C 2.171875 0.28125 0.910156 -0.691406 0.578125 -2.640625 L 2.171875 -2.640625 C 2.328125 -2.023438 2.597656 -1.59375 2.984375 -1.34375 Z M 2.984375 -1.34375 "/></g></g></g><g fill="#000000" fill-opacity="1"><g transform="translate(383.54783, 119.663887)"><g><path d="M 3.125 -12.6875 C 3.3125 -12.5 3.40625 -12.28125 3.40625 -12.03125 C 3.40625 -11.757812 3.3125 -11.53125 3.125 -11.34375 C 2.9375 -11.15625 2.71875 -11.0625 2.46875 -11.0625 C 2.195312 -11.0625 1.96875 -11.15625 1.78125 -11.34375 C 1.59375 -11.53125 1.5 -11.757812 1.5 -12.03125 C 1.5 -12.28125 1.59375 -12.5 1.78125 -12.6875 C 1.96875 -12.875 2.195312 -12.96875 2.46875 -12.96875 C 2.71875 -12.96875 2.9375 -12.875 3.125 -12.6875 Z M 3.21875 0 L 1.71875 0 L 1.71875 -9.4375 L 3.21875 -9.4375 Z M 3.21875 0 "/></g></g></g><g fill="#000000" fill-opacity="1"><g transform="translate(388.457916, 119.663887)"><g><path d="M 9.109375 -4.71875 C 9.109375 -5.632812 8.796875 -6.4375 8.171875 -7.125 C 7.523438 -7.800781 6.726562 -8.140625 5.78125 -8.140625 C 4.84375 -8.140625 4.0625 -7.800781 3.4375 -7.125 C 2.789062 -6.4375 2.46875 -5.632812 2.46875 -4.71875 C 2.46875 -3.800781 2.789062 -3 3.4375 -2.3125 C 4.0625 -1.625 4.84375 -1.28125 5.78125 -1.28125 C 6.726562 -1.28125 7.523438 -1.625 8.171875 -2.3125 C 8.796875 -3 9.109375 -3.800781 9.109375 -4.71875 Z M 10.609375 0 L 9.109375 0 L 9.109375 -1.609375 C 9.023438 -1.492188 8.941406 -1.382812 8.859375 -1.28125 C 7.953125 -0.28125 6.847656 0.21875 5.546875 0.21875 C 4.242188 0.21875 3.148438 -0.28125 2.265625 -1.28125 C 1.398438 -2.257812 0.96875 -3.40625 0.96875 -4.71875 C 0.96875 -6.03125 1.398438 -7.171875 2.265625 -8.140625 C 3.148438 -9.140625 4.242188 -9.640625 5.546875 -9.640625 C 6.847656 -9.640625 7.953125 -9.140625 8.859375 -8.140625 C 8.941406 -8.046875 9.023438 -7.941406 9.109375 -7.828125 L 9.109375 -16.078125 L 10.609375 -16.078125 Z M 10.609375 0 "/></g></g></g><g fill="#000000" fill-opacity="1"><g transform="translate(400.679547, 119.663887)"><g><path d="M 10.828125 -4.9375 L 10.828125 -4.140625 L 2.53125 -4.140625 C 2.675781 -3.328125 3.066406 -2.660156 3.703125 -2.140625 C 4.359375 -1.609375 5.085938 -1.34375 5.890625 -1.34375 C 6.429688 -1.34375 6.953125 -1.472656 7.453125 -1.734375 C 7.941406 -1.972656 8.351562 -2.316406 8.6875 -2.765625 L 10.390625 -2.765625 C 9.992188 -1.867188 9.394531 -1.160156 8.59375 -0.640625 C 7.78125 -0.109375 6.957031 0.15625 6.125 0.15625 C 5.28125 0.15625 4.566406 0.0234375 3.984375 -0.234375 C 3.390625 -0.492188 2.867188 -0.84375 2.421875 -1.28125 C 1.453125 -2.226562 0.96875 -3.390625 0.96875 -4.765625 C 0.96875 -6.117188 1.453125 -7.28125 2.421875 -8.25 C 3.378906 -9.207031 4.535156 -9.6875 5.890625 -9.6875 C 7.210938 -9.6875 8.363281 -9.222656 9.34375 -8.296875 C 10.332031 -7.347656 10.828125 -6.226562 10.828125 -4.9375 Z M 9.234375 -5.421875 C 9.066406 -6.222656 8.664062 -6.890625 8.03125 -7.421875 C 7.40625 -7.929688 6.691406 -8.1875 5.890625 -8.1875 C 4.660156 -8.1875 3.695312 -7.632812 3 -6.53125 C 2.78125 -6.195312 2.628906 -5.828125 2.546875 -5.421875 Z M 9.234375 -5.421875 "/></g></g></g><g fill="#000000" fill-opacity="1"><g transform="translate(412.365158, 119.663887)"><g><path d="M 8.125 0 L 8.125 -5.890625 C 8.125 -6.503906 7.988281 -7.035156 7.71875 -7.484375 C 7.425781 -7.910156 6.960938 -8.125 6.328125 -8.125 C 5.679688 -8.125 5.160156 -8.003906 4.765625 -7.765625 C 4.359375 -7.515625 4.035156 -7.195312 3.796875 -6.8125 C 3.335938 -6.101562 3.109375 -5.144531 3.109375 -3.9375 L 3.109375 0 L 1.609375 0 L 1.609375 -9.4375 L 3.109375 -9.4375 L 3.109375 -7.796875 C 3.421875 -8.328125 3.820312 -8.765625 4.3125 -9.109375 C 4.820312 -9.453125 5.414062 -9.625 6.09375 -9.625 C 6.757812 -9.625 7.300781 -9.53125 7.71875 -9.34375 C 8.132812 -9.144531 8.484375 -8.878906 8.765625 -8.546875 C 9.335938 -7.878906 9.625 -6.992188 9.625 -5.890625 L 9.625 0 Z M 8.125 0 "/></g></g></g><g fill="#000000" fill-opacity="1"><g transform="translate(423.278873, 119.663887)"><g><path d="M 0.421875 -8.03125 L 0.421875 -9.4375 L 2.78125 -9.4375 L 2.78125 -13.09375 L 4.28125 -13.09375 L 4.28125 -9.4375 L 6.625 -9.4375 L 6.625 -8.03125 L 4.28125 -8.03125 L 4.28125 0 L 2.78125 0 L 2.78125 -8.03125 Z M 0.421875 -8.03125 "/></g></g></g><g fill="#000000" fill-opacity="1"><g transform="translate(430.33311, 119.663887)"><g><path d="M 3.125 -12.6875 C 3.3125 -12.5 3.40625 -12.28125 3.40625 -12.03125 C 3.40625 -11.757812 3.3125 -11.53125 3.125 -11.34375 C 2.9375 -11.15625 2.71875 -11.0625 2.46875 -11.0625 C 2.195312 -11.0625 1.96875 -11.15625 1.78125 -11.34375 C 1.59375 -11.53125 1.5 -11.757812 1.5 -12.03125 C 1.5 -12.28125 1.59375 -12.5 1.78125 -12.6875 C 1.96875 -12.875 2.195312 -12.96875 2.46875 -12.96875 C 2.71875 -12.96875 2.9375 -12.875 3.125 -12.6875 Z M 3.21875 0 L 1.71875 0 L 1.71875 -9.4375 L 3.21875 -9.4375 Z M 3.21875 0 "/></g></g></g><g fill="#000000" fill-opacity="1"><g transform="translate(435.243221, 119.663887)"><g><path d="M 9.109375 -4.71875 C 9.109375 -5.632812 8.796875 -6.4375 8.171875 -7.125 C 7.523438 -7.800781 6.726562 -8.140625 5.78125 -8.140625 C 4.84375 -8.140625 4.0625 -7.800781 3.4375 -7.125 C 2.789062 -6.4375 2.46875 -5.632812 2.46875 -4.71875 C 2.46875 -3.800781 2.789062 -3 3.4375 -2.3125 C 4.0625 -1.625 4.84375 -1.28125 5.78125 -1.28125 C 6.726562 -1.28125 7.523438 -1.625 8.171875 -2.3125 C 8.796875 -3 9.109375 -3.800781 9.109375 -4.71875 Z M 10.609375 0 L 9.109375 0 L 9.109375 -1.609375 C 9.023438 -1.492188 8.941406 -1.382812 8.859375 -1.28125 C 7.953125 -0.28125 6.847656 0.21875 5.546875 0.21875 C 4.242188 0.21875 3.148438 -0.28125 2.265625 -1.28125 C 1.398438 -2.257812 0.96875 -3.40625 0.96875 -4.71875 C 0.96875 -6.03125 1.398438 -7.171875 2.265625 -8.140625 C 3.148438 -9.140625 4.242188 -9.640625 5.546875 -9.640625 C 6.847656 -9.640625 7.953125 -9.140625 8.859375 -8.140625 C 8.941406 -8.046875 9.023438 -7.941406 9.109375 -7.828125 L 9.109375 -9.4375 L 10.609375 -9.4375 Z M 10.609375 0 "/></g></g></g><g fill="#000000" fill-opacity="1"><g transform="translate(447.464851, 119.663887)"><g><path d="M 3.109375 0 L 1.609375 0 L 1.609375 -16.078125 L 3.109375 -16.078125 Z M 3.109375 0 "/></g></g></g><g fill="#000000" fill-opacity="1"><g transform="translate(452.181971, 119.663887)"><g/></g></g><g fill="#000000" fill-opacity="1"><g transform="translate(457.971152, 119.663887)"><g><path d="M 12.15625 -4.828125 C 12.15625 -3.253906 11.640625 -2.007812 10.609375 -1.09375 C 9.640625 -0.238281 8.347656 0.1875 6.734375 0.1875 C 5.097656 0.1875 3.796875 -0.238281 2.828125 -1.09375 C 1.796875 -2.007812 1.28125 -3.253906 1.28125 -4.828125 L 1.28125 -14.578125 L 2.78125 -14.578125 L 2.78125 -4.609375 C 2.78125 -3.503906 3.179688 -2.660156 3.984375 -2.078125 C 4.671875 -1.566406 5.585938 -1.3125 6.734375 -1.3125 C 8.515625 -1.3125 9.710938 -1.910156 10.328125 -3.109375 C 10.546875 -3.523438 10.65625 -4.023438 10.65625 -4.609375 L 10.65625 -14.578125 L 12.15625 -14.578125 Z M 12.15625 -4.828125 "/></g></g></g><g fill="#000000" fill-opacity="1"><g transform="translate(471.414953, 119.663887)"><g><path d="M 2.984375 -1.34375 C 3.347656 -1.09375 3.832031 -0.96875 4.4375 -0.96875 C 5.8125 -0.96875 6.5 -1.484375 6.5 -2.515625 C 6.5 -3.109375 6.003906 -3.5625 5.015625 -3.875 C 4.597656 -4.019531 4.15625 -4.148438 3.6875 -4.265625 C 3.195312 -4.378906 2.75 -4.53125 2.34375 -4.71875 C 1.851562 -4.945312 1.488281 -5.234375 1.25 -5.578125 C 1 -5.921875 0.875 -6.328125 0.875 -6.796875 C 0.875 -7.734375 1.203125 -8.441406 1.859375 -8.921875 C 2.515625 -9.398438 3.300781 -9.640625 4.21875 -9.640625 C 5.132812 -9.640625 5.894531 -9.457031 6.5 -9.09375 C 7.09375 -8.71875 7.5 -8.050781 7.71875 -7.09375 L 6.109375 -7.09375 C 5.941406 -7.625 5.691406 -7.972656 5.359375 -8.140625 C 5.046875 -8.316406 4.65625 -8.40625 4.1875 -8.40625 C 3.707031 -8.40625 3.304688 -8.304688 2.984375 -8.109375 C 2.640625 -7.890625 2.46875 -7.570312 2.46875 -7.15625 C 2.46875 -6.726562 2.609375 -6.414062 2.890625 -6.21875 C 3.160156 -6.03125 3.503906 -5.863281 3.921875 -5.71875 C 4.335938 -5.59375 4.789062 -5.476562 5.28125 -5.375 C 5.75 -5.257812 6.195312 -5.101562 6.625 -4.90625 C 7.59375 -4.445312 8.078125 -3.710938 8.078125 -2.703125 C 8.078125 -1.679688 7.710938 -0.929688 6.984375 -0.453125 C 6.617188 -0.203125 6.210938 -0.015625 5.765625 0.109375 C 5.335938 0.222656 4.867188 0.28125 4.359375 0.28125 C 2.171875 0.28125 0.910156 -0.691406 0.578125 -2.640625 L 2.171875 -2.640625 C 2.328125 -2.023438 2.597656 -1.59375 2.984375 -1.34375 Z M 2.984375 -1.34375 "/></g></g></g><g fill="#000000" fill-opacity="1"><g transform="translate(480.034435, 119.663887)"><g><path d="M 10.828125 -4.9375 L 10.828125 -4.140625 L 2.53125 -4.140625 C 2.675781 -3.328125 3.066406 -2.660156 3.703125 -2.140625 C 4.359375 -1.609375 5.085938 -1.34375 5.890625 -1.34375 C 6.429688 -1.34375 6.953125 -1.472656 7.453125 -1.734375 C 7.941406 -1.972656 8.351562 -2.316406 8.6875 -2.765625 L 10.390625 -2.765625 C 9.992188 -1.867188 9.394531 -1.160156 8.59375 -0.640625 C 7.78125 -0.109375 6.957031 0.15625 6.125 0.15625 C 5.28125 0.15625 4.566406 0.0234375 3.984375 -0.234375 C 3.390625 -0.492188 2.867188 -0.84375 2.421875 -1.28125 C 1.453125 -2.226562 0.96875 -3.390625 0.96875 -4.765625 C 0.96875 -6.117188 1.453125 -7.28125 2.421875 -8.25 C 3.378906 -9.207031 4.535156 -9.6875 5.890625 -9.6875 C 7.210938 -9.6875 8.363281 -9.222656 9.34375 -8.296875 C 10.332031 -7.347656 10.828125 -6.226562 10.828125 -4.9375 Z M 9.234375 -5.421875 C 9.066406 -6.222656 8.664062 -6.890625 8.03125 -7.421875 C 7.40625 -7.929688 6.691406 -8.1875 5.890625 -8.1875 C 4.660156 -8.1875 3.695312 -7.632812 3 -6.53125 C 2.78125 -6.195312 2.628906 -5.828125 2.546875 -5.421875 Z M 9.234375 -5.421875 "/></g></g></g><g fill="#000000" fill-opacity="1"><g transform="translate(116.387196, 188.602733)"><g><path d="M 3.171875 0 L 3.171875 -13.0625 L 1.078125 -13.0625 L 1.078125 -14.359375 L 4.671875 -14.75 L 4.671875 0 Z M 3.171875 0 "/></g></g></g><g fill="#000000" fill-opacity="1"><g transform="translate(122.540896, 188.602733)"><g><path d="M 3.84375 -9.171875 C 4.570312 -9.398438 5.25 -9.515625 5.875 -9.515625 C 6.5 -9.515625 7.109375 -9.394531 7.703125 -9.15625 C 8.285156 -8.894531 8.796875 -8.550781 9.234375 -8.125 C 10.179688 -7.207031 10.65625 -6.070312 10.65625 -4.71875 C 10.65625 -3.351562 10.175781 -2.1875 9.21875 -1.21875 C 8.257812 -0.238281 7.085938 0.25 5.703125 0.25 C 4.671875 0.25 3.726562 -0.046875 2.875 -0.640625 C 2.019531 -1.222656 1.410156 -1.992188 1.046875 -2.953125 L 2.515625 -3.4375 C 2.753906 -2.789062 3.164062 -2.265625 3.75 -1.859375 C 4.332031 -1.460938 4.925781 -1.265625 5.53125 -1.265625 C 6.113281 -1.265625 6.613281 -1.359375 7.03125 -1.546875 C 7.425781 -1.710938 7.785156 -1.945312 8.109375 -2.25 C 8.773438 -2.894531 9.109375 -3.679688 9.109375 -4.609375 C 9.109375 -5.503906 8.78125 -6.296875 8.125 -6.984375 C 7.476562 -7.660156 6.726562 -8 5.875 -8 C 5 -8 4.253906 -7.769531 3.640625 -7.3125 L 2.015625 -8.03125 L 3.6875 -14.578125 L 10.09375 -14.578125 L 10.09375 -13.078125 L 4.828125 -13.078125 Z M 3.84375 -9.171875 "/></g></g></g><g fill="#000000" fill-opacity="1"><g transform="translate(134.333706, 188.602733)"><g/></g></g><g fill="#000000" fill-opacity="1"><g transform="translate(140.1229, 188.602733)"><g><path d="M 12.921875 -7.28125 C 12.921875 -6.226562 12.726562 -5.257812 12.34375 -4.375 C 11.945312 -3.46875 11.410156 -2.695312 10.734375 -2.0625 C 10.066406 -1.414062 9.273438 -0.914062 8.359375 -0.5625 C 7.441406 -0.1875 6.460938 0 5.421875 0 L 1.609375 0 L 1.609375 -14.578125 L 5.421875 -14.578125 C 6.460938 -14.578125 7.441406 -14.398438 8.359375 -14.046875 C 9.273438 -13.671875 10.066406 -13.160156 10.734375 -12.515625 C 11.410156 -11.878906 11.945312 -11.113281 12.34375 -10.21875 C 12.726562 -9.320312 12.921875 -8.34375 12.921875 -7.28125 Z M 11.46875 -7.28125 C 11.46875 -8.945312 10.882812 -10.335938 9.71875 -11.453125 C 8.570312 -12.535156 7.15625 -13.078125 5.46875 -13.078125 L 3.109375 -13.078125 L 3.109375 -1.5 L 5.46875 -1.5 C 7.15625 -1.5 8.570312 -2.039062 9.71875 -3.125 C 10.882812 -4.238281 11.46875 -5.625 11.46875 -7.28125 Z M 11.46875 -7.28125 "/></g></g></g><g fill="#000000" fill-opacity="1"><g transform="translate(154.016975, 188.602733)"><g><path d="M 9.109375 -4.71875 C 9.109375 -5.632812 8.796875 -6.4375 8.171875 -7.125 C 7.523438 -7.800781 6.726562 -8.140625 5.78125 -8.140625 C 4.84375 -8.140625 4.0625 -7.800781 3.4375 -7.125 C 2.789062 -6.4375 2.46875 -5.632812 2.46875 -4.71875 C 2.46875 -3.800781 2.789062 -3 3.4375 -2.3125 C 4.0625 -1.625 4.84375 -1.28125 5.78125 -1.28125 C 6.726562 -1.28125 7.523438 -1.625 8.171875 -2.3125 C 8.796875 -3 9.109375 -3.800781 9.109375 -4.71875 Z M 10.609375 0 L 9.109375 0 L 9.109375 -1.609375 C 9.023438 -1.492188 8.941406 -1.382812 8.859375 -1.28125 C 7.953125 -0.28125 6.847656 0.21875 5.546875 0.21875 C 4.242188 0.21875 3.148438 -0.28125 2.265625 -1.28125 C 1.398438 -2.257812 0.96875 -3.40625 0.96875 -4.71875 C 0.96875 -6.03125 1.398438 -7.171875 2.265625 -8.140625 C 3.148438 -9.140625 4.242188 -9.640625 5.546875 -9.640625 C 6.847656 -9.640625 7.953125 -9.140625 8.859375 -8.140625 C 8.941406 -8.046875 9.023438 -7.941406 9.109375 -7.828125 L 9.109375 -9.4375 L 10.609375 -9.4375 Z M 10.609375 0 "/></g></g></g><g fill="#000000" fill-opacity="1"><g transform="translate(166.238605, 188.602733)"><g><path d="M 2.8125 5.359375 L 0.984375 5.359375 L 4.15625 -1.546875 L 0.21875 -9.4375 L 1.921875 -9.4375 L 4.953125 -3.109375 L 7.65625 -9.4375 L 9.328125 -9.4375 Z M 2.8125 5.359375 "/></g></g></g><g fill="#000000" fill-opacity="1"><g transform="translate(175.351222, 188.602733)"><g><path d="M 2.984375 -1.34375 C 3.347656 -1.09375 3.832031 -0.96875 4.4375 -0.96875 C 5.8125 -0.96875 6.5 -1.484375 6.5 -2.515625 C 6.5 -3.109375 6.003906 -3.5625 5.015625 -3.875 C 4.597656 -4.019531 4.15625 -4.148438 3.6875 -4.265625 C 3.195312 -4.378906 2.75 -4.53125 2.34375 -4.71875 C 1.851562 -4.945312 1.488281 -5.234375 1.25 -5.578125 C 1 -5.921875 0.875 -6.328125 0.875 -6.796875 C 0.875 -7.734375 1.203125 -8.441406 1.859375 -8.921875 C 2.515625 -9.398438 3.300781 -9.640625 4.21875 -9.640625 C 5.132812 -9.640625 5.894531 -9.457031 6.5 -9.09375 C 7.09375 -8.71875 7.5 -8.050781 7.71875 -7.09375 L 6.109375 -7.09375 C 5.941406 -7.625 5.691406 -7.972656 5.359375 -8.140625 C 5.046875 -8.316406 4.65625 -8.40625 4.1875 -8.40625 C 3.707031 -8.40625 3.304688 -8.304688 2.984375 -8.109375 C 2.640625 -7.890625 2.46875 -7.570312 2.46875 -7.15625 C 2.46875 -6.726562 2.609375 -6.414062 2.890625 -6.21875 C 3.160156 -6.03125 3.503906 -5.863281 3.921875 -5.71875 C 4.335938 -5.59375 4.789062 -5.476562 5.28125 -5.375 C 5.75 -5.257812 6.195312 -5.101562 6.625 -4.90625 C 7.59375 -4.445312 8.078125 -3.710938 8.078125 -2.703125 C 8.078125 -1.679688 7.710938 -0.929688 6.984375 -0.453125 C 6.617188 -0.203125 6.210938 -0.015625 5.765625 0.109375 C 5.335938 0.222656 4.867188 0.28125 4.359375 0.28125 C 2.171875 0.28125 0.910156 -0.691406 0.578125 -2.640625 L 2.171875 -2.640625 C 2.328125 -2.023438 2.597656 -1.59375 2.984375 -1.34375 Z M 2.984375 -1.34375 "/></g></g></g><g fill="#000000" fill-opacity="1"><g transform="translate(183.970692, 188.602733)"><g/></g></g><g fill="#000000" fill-opacity="1"><g transform="translate(189.759886, 188.602733)"><g><path d="M 3.109375 0 L 1.609375 0 L 1.609375 -14.578125 L 3.109375 -14.578125 Z M 3.109375 0 "/></g></g></g><g fill="#000000" fill-opacity="1"><g transform="translate(194.477005, 188.602733)"><g><path d="M 8.125 0 L 8.125 -5.890625 C 8.125 -6.503906 7.988281 -7.035156 7.71875 -7.484375 C 7.425781 -7.910156 6.960938 -8.125 6.328125 -8.125 C 5.679688 -8.125 5.160156 -8.003906 4.765625 -7.765625 C 4.359375 -7.515625 4.035156 -7.195312 3.796875 -6.8125 C 3.335938 -6.101562 3.109375 -5.144531 3.109375 -3.9375 L 3.109375 0 L 1.609375 0 L 1.609375 -9.4375 L 3.109375 -9.4375 L 3.109375 -7.796875 C 3.421875 -8.328125 3.820312 -8.765625 4.3125 -9.109375 C 4.820312 -9.453125 5.414062 -9.625 6.09375 -9.625 C 6.757812 -9.625 7.300781 -9.53125 7.71875 -9.34375 C 8.132812 -9.144531 8.484375 -8.878906 8.765625 -8.546875 C 9.335938 -7.878906 9.625 -6.992188 9.625 -5.890625 L 9.625 0 Z M 8.125 0 "/></g></g></g><g fill="#000000" fill-opacity="1"><g transform="translate(205.390708, 188.602733)"><g><path d="M 2.984375 -1.34375 C 3.347656 -1.09375 3.832031 -0.96875 4.4375 -0.96875 C 5.8125 -0.96875 6.5 -1.484375 6.5 -2.515625 C 6.5 -3.109375 6.003906 -3.5625 5.015625 -3.875 C 4.597656 -4.019531 4.15625 -4.148438 3.6875 -4.265625 C 3.195312 -4.378906 2.75 -4.53125 2.34375 -4.71875 C 1.851562 -4.945312 1.488281 -5.234375 1.25 -5.578125 C 1 -5.921875 0.875 -6.328125 0.875 -6.796875 C 0.875 -7.734375 1.203125 -8.441406 1.859375 -8.921875 C 2.515625 -9.398438 3.300781 -9.640625 4.21875 -9.640625 C 5.132812 -9.640625 5.894531 -9.457031 6.5 -9.09375 C 7.09375 -8.71875 7.5 -8.050781 7.71875 -7.09375 L 6.109375 -7.09375 C 5.941406 -7.625 5.691406 -7.972656 5.359375 -8.140625 C 5.046875 -8.316406 4.65625 -8.40625 4.1875 -8.40625 C 3.707031 -8.40625 3.304688 -8.304688 2.984375 -8.109375 C 2.640625 -7.890625 2.46875 -7.570312 2.46875 -7.15625 C 2.46875 -6.726562 2.609375 -6.414062 2.890625 -6.21875 C 3.160156 -6.03125 3.503906 -5.863281 3.921875 -5.71875 C 4.335938 -5.59375 4.789062 -5.476562 5.28125 -5.375 C 5.75 -5.257812 6.195312 -5.101562 6.625 -4.90625 C 7.59375 -4.445312 8.078125 -3.710938 8.078125 -2.703125 C 8.078125 -1.679688 7.710938 -0.929688 6.984375 -0.453125 C 6.617188 -0.203125 6.210938 -0.015625 5.765625 0.109375 C 5.335938 0.222656 4.867188 0.28125 4.359375 0.28125 C 2.171875 0.28125 0.910156 -0.691406 0.578125 -2.640625 L 2.171875 -2.640625 C 2.328125 -2.023438 2.597656 -1.59375 2.984375 -1.34375 Z M 2.984375 -1.34375 "/></g></g></g><g fill="#000000" fill-opacity="1"><g transform="translate(214.010179, 188.602733)"><g><path d="M 0.421875 -8.03125 L 0.421875 -9.4375 L 2.78125 -9.4375 L 2.78125 -13.09375 L 4.28125 -13.09375 L 4.28125 -9.4375 L 6.625 -9.4375 L 6.625 -8.03125 L 4.28125 -8.03125 L 4.28125 0 L 2.78125 0 L 2.78125 -8.03125 Z M 0.421875 -8.03125 "/></g></g></g><g fill="#000000" fill-opacity="1"><g transform="translate(221.064415, 188.602733)"><g><path d="M 9.109375 -4.71875 C 9.109375 -5.632812 8.796875 -6.4375 8.171875 -7.125 C 7.523438 -7.800781 6.726562 -8.140625 5.78125 -8.140625 C 4.84375 -8.140625 4.0625 -7.800781 3.4375 -7.125 C 2.789062 -6.4375 2.46875 -5.632812 2.46875 -4.71875 C 2.46875 -3.800781 2.789062 -3 3.4375 -2.3125 C 4.0625 -1.625 4.84375 -1.28125 5.78125 -1.28125 C 6.726562 -1.28125 7.523438 -1.625 8.171875 -2.3125 C 8.796875 -3 9.109375 -3.800781 9.109375 -4.71875 Z M 10.609375 0 L 9.109375 0 L 9.109375 -1.609375 C 9.023438 -1.492188 8.941406 -1.382812 8.859375 -1.28125 C 7.953125 -0.28125 6.847656 0.21875 5.546875 0.21875 C 4.242188 0.21875 3.148438 -0.28125 2.265625 -1.28125 C 1.398438 -2.257812 0.96875 -3.40625 0.96875 -4.71875 C 0.96875 -6.03125 1.398438 -7.171875 2.265625 -8.140625 C 3.148438 -9.140625 4.242188 -9.640625 5.546875 -9.640625 C 6.847656 -9.640625 7.953125 -9.140625 8.859375 -8.140625 C 8.941406 -8.046875 9.023438 -7.941406 9.109375 -7.828125 L 9.109375 -9.4375 L 10.609375 -9.4375 Z M 10.609375 0 "/></g></g></g><g fill="#000000" fill-opacity="1"><g transform="translate(233.286045, 188.602733)"><g><path d="M 3.109375 0 L 1.609375 0 L 1.609375 -16.078125 L 3.109375 -16.078125 Z M 3.109375 0 "/></g></g></g><g fill="#000000" fill-opacity="1"><g transform="translate(238.003165, 188.602733)"><g><path d="M 3.109375 0 L 1.609375 0 L 1.609375 -16.078125 L 3.109375 -16.078125 Z M 3.109375 0 "/></g></g></g><g fill="#000000" fill-opacity="1"><g transform="translate(242.720284, 188.602733)"><g><path d="M 9.109375 -4.71875 C 9.109375 -5.632812 8.796875 -6.4375 8.171875 -7.125 C 7.523438 -7.800781 6.726562 -8.140625 5.78125 -8.140625 C 4.84375 -8.140625 4.0625 -7.800781 3.4375 -7.125 C 2.789062 -6.4375 2.46875 -5.632812 2.46875 -4.71875 C 2.46875 -3.800781 2.789062 -3 3.4375 -2.3125 C 4.0625 -1.625 4.84375 -1.28125 5.78125 -1.28125 C 6.726562 -1.28125 7.523438 -1.625 8.171875 -2.3125 C 8.796875 -3 9.109375 -3.800781 9.109375 -4.71875 Z M 10.609375 0 L 9.109375 0 L 9.109375 -1.609375 C 9.023438 -1.492188 8.941406 -1.382812 8.859375 -1.28125 C 7.953125 -0.28125 6.847656 0.21875 5.546875 0.21875 C 4.242188 0.21875 3.148438 -0.28125 2.265625 -1.28125 C 1.398438 -2.257812 0.96875 -3.40625 0.96875 -4.71875 C 0.96875 -6.03125 1.398438 -7.171875 2.265625 -8.140625 C 3.148438 -9.140625 4.242188 -9.640625 5.546875 -9.640625 C 6.847656 -9.640625 7.953125 -9.140625 8.859375 -8.140625 C 8.941406 -8.046875 9.023438 -7.941406 9.109375 -7.828125 L 9.109375 -9.4375 L 10.609375 -9.4375 Z M 10.609375 0 "/></g></g></g><g fill="#000000" fill-opacity="1"><g transform="translate(254.941914, 188.602733)"><g><path d="M 0.421875 -8.03125 L 0.421875 -9.4375 L 2.78125 -9.4375 L 2.78125 -13.09375 L 4.28125 -13.09375 L 4.28125 -9.4375 L 6.625 -9.4375 L 6.625 -8.03125 L 4.28125 -8.03125 L 4.28125 0 L 2.78125 0 L 2.78125 -8.03125 Z M 0.421875 -8.03125 "/></g></g></g><g fill="#000000" fill-opacity="1"><g transform="translate(261.99615, 188.602733)"><g><path d="M 3.125 -12.6875 C 3.3125 -12.5 3.40625 -12.28125 3.40625 -12.03125 C 3.40625 -11.757812 3.3125 -11.53125 3.125 -11.34375 C 2.9375 -11.15625 2.71875 -11.0625 2.46875 -11.0625 C 2.195312 -11.0625 1.96875 -11.15625 1.78125 -11.34375 C 1.59375 -11.53125 1.5 -11.757812 1.5 -12.03125 C 1.5 -12.28125 1.59375 -12.5 1.78125 -12.6875 C 1.96875 -12.875 2.195312 -12.96875 2.46875 -12.96875 C 2.71875 -12.96875 2.9375 -12.875 3.125 -12.6875 Z M 3.21875 0 L 1.71875 0 L 1.71875 -9.4375 L 3.21875 -9.4375 Z M 3.21875 0 "/></g></g></g><g fill="#000000" fill-opacity="1"><g transform="translate(266.90625, 188.602733)"><g><path d="M 9.328125 -4.765625 C 9.328125 -5.703125 8.988281 -6.507812 8.3125 -7.1875 C 7.644531 -7.851562 6.835938 -8.1875 5.890625 -8.1875 C 4.953125 -8.1875 4.144531 -7.851562 3.46875 -7.1875 C 2.800781 -6.507812 2.46875 -5.703125 2.46875 -4.765625 C 2.46875 -3.828125 2.800781 -3.023438 3.46875 -2.359375 C 4.144531 -1.679688 4.953125 -1.34375 5.890625 -1.34375 C 6.835938 -1.34375 7.644531 -1.679688 8.3125 -2.359375 C 8.988281 -3.023438 9.328125 -3.828125 9.328125 -4.765625 Z M 10.828125 -4.765625 C 10.828125 -3.390625 10.347656 -2.226562 9.390625 -1.28125 C 8.398438 -0.320312 7.234375 0.15625 5.890625 0.15625 C 4.546875 0.15625 3.390625 -0.320312 2.421875 -1.28125 C 1.453125 -2.226562 0.96875 -3.390625 0.96875 -4.765625 C 0.96875 -6.117188 1.453125 -7.28125 2.421875 -8.25 C 3.378906 -9.207031 4.535156 -9.6875 5.890625 -9.6875 C 7.253906 -9.6875 8.421875 -9.207031 9.390625 -8.25 C 10.347656 -7.28125 10.828125 -6.117188 10.828125 -4.765625 Z M 10.828125 -4.765625 "/></g></g></g><g fill="#000000" fill-opacity="1"><g transform="translate(278.69906, 188.602733)"><g><path d="M 8.125 0 L 8.125 -5.890625 C 8.125 -6.503906 7.988281 -7.035156 7.71875 -7.484375 C 7.425781 -7.910156 6.960938 -8.125 6.328125 -8.125 C 5.679688 -8.125 5.160156 -8.003906 4.765625 -7.765625 C 4.359375 -7.515625 4.035156 -7.195312 3.796875 -6.8125 C 3.335938 -6.101562 3.109375 -5.144531 3.109375 -3.9375 L 3.109375 0 L 1.609375 0 L 1.609375 -9.4375 L 3.109375 -9.4375 L 3.109375 -7.796875 C 3.421875 -8.328125 3.820312 -8.765625 4.3125 -9.109375 C 4.820312 -9.453125 5.414062 -9.625 6.09375 -9.625 C 6.757812 -9.625 7.300781 -9.53125 7.71875 -9.34375 C 8.132812 -9.144531 8.484375 -8.878906 8.765625 -8.546875 C 9.335938 -7.878906 9.625 -6.992188 9.625 -5.890625 L 9.625 0 Z M 8.125 0 "/></g></g></g><g fill="#000000" fill-opacity="1"><g transform="translate(116.387196, 257.510604)"><g><path d="M 3.109375 0 L 1.609375 0 L 1.609375 -14.578125 L 3.109375 -14.578125 Z M 3.109375 0 "/></g></g></g><g fill="#000000" fill-opacity="1"><g transform="translate(121.104315, 257.510604)"><g><path d="M 8.125 0 L 8.125 -5.890625 C 8.125 -6.503906 7.988281 -7.035156 7.71875 -7.484375 C 7.425781 -7.910156 6.960938 -8.125 6.328125 -8.125 C 5.679688 -8.125 5.160156 -8.003906 4.765625 -7.765625 C 4.359375 -7.515625 4.035156 -7.195312 3.796875 -6.8125 C 3.335938 -6.101562 3.109375 -5.144531 3.109375 -3.9375 L 3.109375 0 L 1.609375 0 L 1.609375 -9.4375 L 3.109375 -9.4375 L 3.109375 -7.796875 C 3.421875 -8.328125 3.820312 -8.765625 4.3125 -9.109375 C 4.820312 -9.453125 5.414062 -9.625 6.09375 -9.625 C 6.757812 -9.625 7.300781 -9.53125 7.71875 -9.34375 C 8.132812 -9.144531 8.484375 -8.878906 8.765625 -8.546875 C 9.335938 -7.878906 9.625 -6.992188 9.625 -5.890625 L 9.625 0 Z M 8.125 0 "/></g></g></g><g fill="#000000" fill-opacity="1"><g transform="translate(132.018019, 257.510604)"><g><path d="M 9.109375 -4.71875 C 9.109375 -5.632812 8.796875 -6.4375 8.171875 -7.125 C 7.523438 -7.800781 6.726562 -8.140625 5.78125 -8.140625 C 4.84375 -8.140625 4.0625 -7.800781 3.4375 -7.125 C 2.789062 -6.4375 2.46875 -5.632812 2.46875 -4.71875 C 2.46875 -3.800781 2.789062 -3 3.4375 -2.3125 C 4.0625 -1.625 4.84375 -1.28125 5.78125 -1.28125 C 6.726562 -1.28125 7.523438 -1.625 8.171875 -2.3125 C 8.796875 -3 9.109375 -3.800781 9.109375 -4.71875 Z M 10.609375 0 L 9.109375 0 L 9.109375 -1.609375 C 9.023438 -1.492188 8.941406 -1.382812 8.859375 -1.28125 C 7.953125 -0.28125 6.847656 0.21875 5.546875 0.21875 C 4.242188 0.21875 3.148438 -0.28125 2.265625 -1.28125 C 1.398438 -2.257812 0.96875 -3.40625 0.96875 -4.71875 C 0.96875 -6.03125 1.398438 -7.171875 2.265625 -8.140625 C 3.148438 -9.140625 4.242188 -9.640625 5.546875 -9.640625 C 6.847656 -9.640625 7.953125 -9.140625 8.859375 -8.140625 C 8.941406 -8.046875 9.023438 -7.941406 9.109375 -7.828125 L 9.109375 -16.078125 L 10.609375 -16.078125 Z M 10.609375 0 "/></g></g></g><g fill="#000000" fill-opacity="1"><g transform="translate(144.239649, 257.510604)"><g><path d="M 8.125 -1.609375 C 7.425781 -0.410156 6.375 0.1875 4.96875 0.1875 C 3.914062 0.1875 3.085938 -0.160156 2.484375 -0.859375 C 1.898438 -1.554688 1.609375 -2.445312 1.609375 -3.53125 L 1.609375 -9.4375 L 3.109375 -9.4375 L 3.109375 -3.53125 C 3.109375 -2.914062 3.25 -2.394531 3.53125 -1.96875 C 3.800781 -1.53125 4.257812 -1.3125 4.90625 -1.3125 C 6.082031 -1.3125 6.910156 -1.679688 7.390625 -2.421875 C 7.878906 -3.148438 8.125 -4.171875 8.125 -5.484375 L 8.125 -9.4375 L 9.625 -9.4375 L 9.625 0 L 8.125 0 Z M 8.125 -1.609375 "/></g></g></g><g fill="#000000" fill-opacity="1"><g transform="translate(155.153352, 257.510604)"><g><path d="M 2.984375 -1.34375 C 3.347656 -1.09375 3.832031 -0.96875 4.4375 -0.96875 C 5.8125 -0.96875 6.5 -1.484375 6.5 -2.515625 C 6.5 -3.109375 6.003906 -3.5625 5.015625 -3.875 C 4.597656 -4.019531 4.15625 -4.148438 3.6875 -4.265625 C 3.195312 -4.378906 2.75 -4.53125 2.34375 -4.71875 C 1.851562 -4.945312 1.488281 -5.234375 1.25 -5.578125 C 1 -5.921875 0.875 -6.328125 0.875 -6.796875 C 0.875 -7.734375 1.203125 -8.441406 1.859375 -8.921875 C 2.515625 -9.398438 3.300781 -9.640625 4.21875 -9.640625 C 5.132812 -9.640625 5.894531 -9.457031 6.5 -9.09375 C 7.09375 -8.71875 7.5 -8.050781 7.71875 -7.09375 L 6.109375 -7.09375 C 5.941406 -7.625 5.691406 -7.972656 5.359375 -8.140625 C 5.046875 -8.316406 4.65625 -8.40625 4.1875 -8.40625 C 3.707031 -8.40625 3.304688 -8.304688 2.984375 -8.109375 C 2.640625 -7.890625 2.46875 -7.570312 2.46875 -7.15625 C 2.46875 -6.726562 2.609375 -6.414062 2.890625 -6.21875 C 3.160156 -6.03125 3.503906 -5.863281 3.921875 -5.71875 C 4.335938 -5.59375 4.789062 -5.476562 5.28125 -5.375 C 5.75 -5.257812 6.195312 -5.101562 6.625 -4.90625 C 7.59375 -4.445312 8.078125 -3.710938 8.078125 -2.703125 C 8.078125 -1.679688 7.710938 -0.929688 6.984375 -0.453125 C 6.617188 -0.203125 6.210938 -0.015625 5.765625 0.109375 C 5.335938 0.222656 4.867188 0.28125 4.359375 0.28125 C 2.171875 0.28125 0.910156 -0.691406 0.578125 -2.640625 L 2.171875 -2.640625 C 2.328125 -2.023438 2.597656 -1.59375 2.984375 -1.34375 Z M 2.984375 -1.34375 "/></g></g></g><g fill="#000000" fill-opacity="1"><g transform="translate(163.772822, 257.510604)"><g><path d="M 0.421875 -8.03125 L 0.421875 -9.4375 L 2.78125 -9.4375 L 2.78125 -13.09375 L 4.28125 -13.09375 L 4.28125 -9.4375 L 6.625 -9.4375 L 6.625 -8.03125 L 4.28125 -8.03125 L 4.28125 0 L 2.78125 0 L 2.78125 -8.03125 Z M 0.421875 -8.03125 "/></g></g></g><g fill="#000000" fill-opacity="1"><g transform="translate(170.827059, 257.510604)"><g><path d="M 6.453125 -7.484375 C 6.109375 -7.796875 5.738281 -7.953125 5.34375 -7.953125 C 4.957031 -7.953125 4.628906 -7.84375 4.359375 -7.625 C 4.066406 -7.394531 3.828125 -7.125 3.640625 -6.8125 C 3.285156 -6.1875 3.109375 -5.488281 3.109375 -4.71875 L 3.109375 0 L 1.609375 0 L 1.609375 -9.4375 L 3.109375 -9.4375 L 3.109375 -7.484375 L 3.171875 -7.875 C 3.671875 -9.039062 4.453125 -9.625 5.515625 -9.625 C 5.835938 -9.625 6.148438 -9.5625 6.453125 -9.4375 Z M 6.453125 -7.484375 "/></g></g></g><g fill="#000000" fill-opacity="1"><g transform="translate(177.49536, 257.510604)"><g><path d="M 2.8125 5.359375 L 0.984375 5.359375 L 4.15625 -1.546875 L 0.21875 -9.4375 L 1.921875 -9.4375 L 4.953125 -3.109375 L 7.65625 -9.4375 L 9.328125 -9.4375 Z M 2.8125 5.359375 "/></g></g></g><g fill="#000000" fill-opacity="1"><g transform="translate(186.607977, 257.510604)"><g/></g></g><g fill="#000000" fill-opacity="1"><g transform="translate(192.39717, 257.510604)"><g><path d="M 2.984375 -1.34375 C 3.347656 -1.09375 3.832031 -0.96875 4.4375 -0.96875 C 5.8125 -0.96875 6.5 -1.484375 6.5 -2.515625 C 6.5 -3.109375 6.003906 -3.5625 5.015625 -3.875 C 4.597656 -4.019531 4.15625 -4.148438 3.6875 -4.265625 C 3.195312 -4.378906 2.75 -4.53125 2.34375 -4.71875 C 1.851562 -4.945312 1.488281 -5.234375 1.25 -5.578125 C 1 -5.921875 0.875 -6.328125 0.875 -6.796875 C 0.875 -7.734375 1.203125 -8.441406 1.859375 -8.921875 C 2.515625 -9.398438 3.300781 -9.640625 4.21875 -9.640625 C 5.132812 -9.640625 5.894531 -9.457031 6.5 -9.09375 C 7.09375 -8.71875 7.5 -8.050781 7.71875 -7.09375 L 6.109375 -7.09375 C 5.941406 -7.625 5.691406 -7.972656 5.359375 -8.140625 C 5.046875 -8.316406 4.65625 -8.40625 4.1875 -8.40625 C 3.707031 -8.40625 3.304688 -8.304688 2.984375 -8.109375 C 2.640625 -7.890625 2.46875 -7.570312 2.46875 -7.15625 C 2.46875 -6.726562 2.609375 -6.414062 2.890625 -6.21875 C 3.160156 -6.03125 3.503906 -5.863281 3.921875 -5.71875 C 4.335938 -5.59375 4.789062 -5.476562 5.28125 -5.375 C 5.75 -5.257812 6.195312 -5.101562 6.625 -4.90625 C 7.59375 -4.445312 8.078125 -3.710938 8.078125 -2.703125 C 8.078125 -1.679688 7.710938 -0.929688 6.984375 -0.453125 C 6.617188 -0.203125 6.210938 -0.015625 5.765625 0.109375 C 5.335938 0.222656 4.867188 0.28125 4.359375 0.28125 C 2.171875 0.28125 0.910156 -0.691406 0.578125 -2.640625 L 2.171875 -2.640625 C 2.328125 -2.023438 2.597656 -1.59375 2.984375 -1.34375 Z M 2.984375 -1.34375 "/></g></g></g><g fill="#000000" fill-opacity="1"><g transform="translate(201.016641, 257.510604)"><g><path d="M 0.421875 -8.03125 L 0.421875 -9.4375 L 2.78125 -9.4375 L 2.78125 -13.09375 L 4.28125 -13.09375 L 4.28125 -9.4375 L 6.625 -9.4375 L 6.625 -8.03125 L 4.28125 -8.03125 L 4.28125 0 L 2.78125 0 L 2.78125 -8.03125 Z M 0.421875 -8.03125 "/></g></g></g><g fill="#000000" fill-opacity="1"><g transform="translate(208.070877, 257.510604)"><g><path d="M 9.109375 -4.71875 C 9.109375 -5.632812 8.796875 -6.4375 8.171875 -7.125 C 7.523438 -7.800781 6.726562 -8.140625 5.78125 -8.140625 C 4.84375 -8.140625 4.0625 -7.800781 3.4375 -7.125 C 2.789062 -6.4375 2.46875 -5.632812 2.46875 -4.71875 C 2.46875 -3.800781 2.789062 -3 3.4375 -2.3125 C 4.0625 -1.625 4.84375 -1.28125 5.78125 -1.28125 C 6.726562 -1.28125 7.523438 -1.625 8.171875 -2.3125 C 8.796875 -3 9.109375 -3.800781 9.109375 -4.71875 Z M 10.609375 0 L 9.109375 0 L 9.109375 -1.609375 C 9.023438 -1.492188 8.941406 -1.382812 8.859375 -1.28125 C 7.953125 -0.28125 6.847656 0.21875 5.546875 0.21875 C 4.242188 0.21875 3.148438 -0.28125 2.265625 -1.28125 C 1.398438 -2.257812 0.96875 -3.40625 0.96875 -4.71875 C 0.96875 -6.03125 1.398438 -7.171875 2.265625 -8.140625 C 3.148438 -9.140625 4.242188 -9.640625 5.546875 -9.640625 C 6.847656 -9.640625 7.953125 -9.140625 8.859375 -8.140625 C 8.941406 -8.046875 9.023438 -7.941406 9.109375 -7.828125 L 9.109375 -9.4375 L 10.609375 -9.4375 Z M 10.609375 0 "/></g></g></g><g fill="#000000" fill-opacity="1"><g transform="translate(220.292507, 257.510604)"><g><path d="M 8.125 0 L 8.125 -5.890625 C 8.125 -6.503906 7.988281 -7.035156 7.71875 -7.484375 C 7.425781 -7.910156 6.960938 -8.125 6.328125 -8.125 C 5.679688 -8.125 5.160156 -8.003906 4.765625 -7.765625 C 4.359375 -7.515625 4.035156 -7.195312 3.796875 -6.8125 C 3.335938 -6.101562 3.109375 -5.144531 3.109375 -3.9375 L 3.109375 0 L 1.609375 0 L 1.609375 -9.4375 L 3.109375 -9.4375 L 3.109375 -7.796875 C 3.421875 -8.328125 3.820312 -8.765625 4.3125 -9.109375 C 4.820312 -9.453125 5.414062 -9.625 6.09375 -9.625 C 6.757812 -9.625 7.300781 -9.53125 7.71875 -9.34375 C 8.132812 -9.144531 8.484375 -8.878906 8.765625 -8.546875 C 9.335938 -7.878906 9.625 -6.992188 9.625 -5.890625 L 9.625 0 Z M 8.125 0 "/></g></g></g><g fill="#000000" fill-opacity="1"><g transform="translate(231.206211, 257.510604)"><g><path d="M 9.109375 -4.71875 C 9.109375 -5.632812 8.796875 -6.4375 8.171875 -7.125 C 7.523438 -7.800781 6.726562 -8.140625 5.78125 -8.140625 C 4.84375 -8.140625 4.0625 -7.800781 3.4375 -7.125 C 2.789062 -6.4375 2.46875 -5.632812 2.46875 -4.71875 C 2.46875 -3.800781 2.789062 -3 3.4375 -2.3125 C 4.0625 -1.625 4.84375 -1.28125 5.78125 -1.28125 C 6.726562 -1.28125 7.523438 -1.625 8.171875 -2.3125 C 8.796875 -3 9.109375 -3.800781 9.109375 -4.71875 Z M 10.609375 0 L 9.109375 0 L 9.109375 -1.609375 C 9.023438 -1.492188 8.941406 -1.382812 8.859375 -1.28125 C 7.953125 -0.28125 6.847656 0.21875 5.546875 0.21875 C 4.242188 0.21875 3.148438 -0.28125 2.265625 -1.28125 C 1.398438 -2.257812 0.96875 -3.40625 0.96875 -4.71875 C 0.96875 -6.03125 1.398438 -7.171875 2.265625 -8.140625 C 3.148438 -9.140625 4.242188 -9.640625 5.546875 -9.640625 C 6.847656 -9.640625 7.953125 -9.140625 8.859375 -8.140625 C 8.941406 -8.046875 9.023438 -7.941406 9.109375 -7.828125 L 9.109375 -16.078125 L 10.609375 -16.078125 Z M 10.609375 0 "/></g></g></g><g fill="#000000" fill-opacity="1"><g transform="translate(243.427841, 257.510604)"><g><path d="M 9.109375 -4.71875 C 9.109375 -5.632812 8.796875 -6.4375 8.171875 -7.125 C 7.523438 -7.800781 6.726562 -8.140625 5.78125 -8.140625 C 4.84375 -8.140625 4.0625 -7.800781 3.4375 -7.125 C 2.789062 -6.4375 2.46875 -5.632812 2.46875 -4.71875 C 2.46875 -3.800781 2.789062 -3 3.4375 -2.3125 C 4.0625 -1.625 4.84375 -1.28125 5.78125 -1.28125 C 6.726562 -1.28125 7.523438 -1.625 8.171875 -2.3125 C 8.796875 -3 9.109375 -3.800781 9.109375 -4.71875 Z M 10.609375 0 L 9.109375 0 L 9.109375 -1.609375 C 9.023438 -1.492188 8.941406 -1.382812 8.859375 -1.28125 C 7.953125 -0.28125 6.847656 0.21875 5.546875 0.21875 C 4.242188 0.21875 3.148438 -0.28125 2.265625 -1.28125 C 1.398438 -2.257812 0.96875 -3.40625 0.96875 -4.71875 C 0.96875 -6.03125 1.398438 -7.171875 2.265625 -8.140625 C 3.148438 -9.140625 4.242188 -9.640625 5.546875 -9.640625 C 6.847656 -9.640625 7.953125 -9.140625 8.859375 -8.140625 C 8.941406 -8.046875 9.023438 -7.941406 9.109375 -7.828125 L 9.109375 -9.4375 L 10.609375 -9.4375 Z M 10.609375 0 "/></g></g></g><g fill="#000000" fill-opacity="1"><g transform="translate(255.649471, 257.510604)"><g><path d="M 6.453125 -7.484375 C 6.109375 -7.796875 5.738281 -7.953125 5.34375 -7.953125 C 4.957031 -7.953125 4.628906 -7.84375 4.359375 -7.625 C 4.066406 -7.394531 3.828125 -7.125 3.640625 -6.8125 C 3.285156 -6.1875 3.109375 -5.488281 3.109375 -4.71875 L 3.109375 0 L 1.609375 0 L 1.609375 -9.4375 L 3.109375 -9.4375 L 3.109375 -7.484375 L 3.171875 -7.875 C 3.671875 -9.039062 4.453125 -9.625 5.515625 -9.625 C 5.835938 -9.625 6.148438 -9.5625 6.453125 -9.4375 Z M 6.453125 -7.484375 "/></g></g></g><g fill="#000000" fill-opacity="1"><g transform="translate(262.317772, 257.510604)"><g><path d="M 9.109375 -4.71875 C 9.109375 -5.632812 8.796875 -6.4375 8.171875 -7.125 C 7.523438 -7.800781 6.726562 -8.140625 5.78125 -8.140625 C 4.84375 -8.140625 4.0625 -7.800781 3.4375 -7.125 C 2.789062 -6.4375 2.46875 -5.632812 2.46875 -4.71875 C 2.46875 -3.800781 2.789062 -3 3.4375 -2.3125 C 4.0625 -1.625 4.84375 -1.28125 5.78125 -1.28125 C 6.726562 -1.28125 7.523438 -1.625 8.171875 -2.3125 C 8.796875 -3 9.109375 -3.800781 9.109375 -4.71875 Z M 10.609375 0 L 9.109375 0 L 9.109375 -1.609375 C 9.023438 -1.492188 8.941406 -1.382812 8.859375 -1.28125 C 7.953125 -0.28125 6.847656 0.21875 5.546875 0.21875 C 4.242188 0.21875 3.148438 -0.28125 2.265625 -1.28125 C 1.398438 -2.257812 0.96875 -3.40625 0.96875 -4.71875 C 0.96875 -6.03125 1.398438 -7.171875 2.265625 -8.140625 C 3.148438 -9.140625 4.242188 -9.640625 5.546875 -9.640625 C 6.847656 -9.640625 7.953125 -9.140625 8.859375 -8.140625 C 8.941406 -8.046875 9.023438 -7.941406 9.109375 -7.828125 L 9.109375 -16.078125 L 10.609375 -16.078125 Z M 10.609375 0 "/></g></g></g><g fill="#000000" fill-opacity="1"><g transform="translate(274.539402, 257.510604)"><g/></g></g><g fill="#000000" fill-opacity="1"><g transform="translate(280.328596, 257.510604)"><g><path d="M 2.984375 -1.34375 C 3.347656 -1.09375 3.832031 -0.96875 4.4375 -0.96875 C 5.8125 -0.96875 6.5 -1.484375 6.5 -2.515625 C 6.5 -3.109375 6.003906 -3.5625 5.015625 -3.875 C 4.597656 -4.019531 4.15625 -4.148438 3.6875 -4.265625 C 3.195312 -4.378906 2.75 -4.53125 2.34375 -4.71875 C 1.851562 -4.945312 1.488281 -5.234375 1.25 -5.578125 C 1 -5.921875 0.875 -6.328125 0.875 -6.796875 C 0.875 -7.734375 1.203125 -8.441406 1.859375 -8.921875 C 2.515625 -9.398438 3.300781 -9.640625 4.21875 -9.640625 C 5.132812 -9.640625 5.894531 -9.457031 6.5 -9.09375 C 7.09375 -8.71875 7.5 -8.050781 7.71875 -7.09375 L 6.109375 -7.09375 C 5.941406 -7.625 5.691406 -7.972656 5.359375 -8.140625 C 5.046875 -8.316406 4.65625 -8.40625 4.1875 -8.40625 C 3.707031 -8.40625 3.304688 -8.304688 2.984375 -8.109375 C 2.640625 -7.890625 2.46875 -7.570312 2.46875 -7.15625 C 2.46875 -6.726562 2.609375 -6.414062 2.890625 -6.21875 C 3.160156 -6.03125 3.503906 -5.863281 3.921875 -5.71875 C 4.335938 -5.59375 4.789062 -5.476562 5.28125 -5.375 C 5.75 -5.257812 6.195312 -5.101562 6.625 -4.90625 C 7.59375 -4.445312 8.078125 -3.710938 8.078125 -2.703125 C 8.078125 -1.679688 7.710938 -0.929688 6.984375 -0.453125 C 6.617188 -0.203125 6.210938 -0.015625 5.765625 0.109375 C 5.335938 0.222656 4.867188 0.28125 4.359375 0.28125 C 2.171875 0.28125 0.910156 -0.691406 0.578125 -2.640625 L 2.171875 -2.640625 C 2.328125 -2.023438 2.597656 -1.59375 2.984375 -1.34375 Z M 2.984375 -1.34375 "/></g></g></g><g fill="#000000" fill-opacity="1"><g transform="translate(288.948066, 257.510604)"><g><path d="M 10.828125 -4.9375 L 10.828125 -4.140625 L 2.53125 -4.140625 C 2.675781 -3.328125 3.066406 -2.660156 3.703125 -2.140625 C 4.359375 -1.609375 5.085938 -1.34375 5.890625 -1.34375 C 6.429688 -1.34375 6.953125 -1.472656 7.453125 -1.734375 C 7.941406 -1.972656 8.351562 -2.316406 8.6875 -2.765625 L 10.390625 -2.765625 C 9.992188 -1.867188 9.394531 -1.160156 8.59375 -0.640625 C 7.78125 -0.109375 6.957031 0.15625 6.125 0.15625 C 5.28125 0.15625 4.566406 0.0234375 3.984375 -0.234375 C 3.390625 -0.492188 2.867188 -0.84375 2.421875 -1.28125 C 1.453125 -2.226562 0.96875 -3.390625 0.96875 -4.765625 C 0.96875 -6.117188 1.453125 -7.28125 2.421875 -8.25 C 3.378906 -9.207031 4.535156 -9.6875 5.890625 -9.6875 C 7.210938 -9.6875 8.363281 -9.222656 9.34375 -8.296875 C 10.332031 -7.347656 10.828125 -6.226562 10.828125 -4.9375 Z M 9.234375 -5.421875 C 9.066406 -6.222656 8.664062 -6.890625 8.03125 -7.421875 C 7.40625 -7.929688 6.691406 -8.1875 5.890625 -8.1875 C 4.660156 -8.1875 3.695312 -7.632812 3 -6.53125 C 2.78125 -6.195312 2.628906 -5.828125 2.546875 -5.421875 Z M 9.234375 -5.421875 "/></g></g></g><g fill="#000000" fill-opacity="1"><g transform="translate(300.633665, 257.510604)"><g><path d="M 6.453125 -7.484375 C 6.109375 -7.796875 5.738281 -7.953125 5.34375 -7.953125 C 4.957031 -7.953125 4.628906 -7.84375 4.359375 -7.625 C 4.066406 -7.394531 3.828125 -7.125 3.640625 -6.8125 C 3.285156 -6.1875 3.109375 -5.488281 3.109375 -4.71875 L 3.109375 0 L 1.609375 0 L 1.609375 -9.4375 L 3.109375 -9.4375 L 3.109375 -7.484375 L 3.171875 -7.875 C 3.671875 -9.039062 4.453125 -9.625 5.515625 -9.625 C 5.835938 -9.625 6.148438 -9.5625 6.453125 -9.4375 Z M 6.453125 -7.484375 "/></g></g></g><g fill="#000000" fill-opacity="1"><g transform="translate(307.301966, 257.510604)"><g><path d="M 4.5625 0.90625 L 0.21875 -9.4375 L 1.84375 -9.4375 L 4.5625 -2.421875 L 7.265625 -9.4375 L 8.890625 -9.4375 Z M 4.5625 0.90625 "/></g></g></g><g fill="#000000" fill-opacity="1"><g transform="translate(316.414583, 257.510604)"><g><path d="M 3.125 -12.6875 C 3.3125 -12.5 3.40625 -12.28125 3.40625 -12.03125 C 3.40625 -11.757812 3.3125 -11.53125 3.125 -11.34375 C 2.9375 -11.15625 2.71875 -11.0625 2.46875 -11.0625 C 2.195312 -11.0625 1.96875 -11.15625 1.78125 -11.34375 C 1.59375 -11.53125 1.5 -11.757812 1.5 -12.03125 C 1.5 -12.28125 1.59375 -12.5 1.78125 -12.6875 C 1.96875 -12.875 2.195312 -12.96875 2.46875 -12.96875 C 2.71875 -12.96875 2.9375 -12.875 3.125 -12.6875 Z M 3.21875 0 L 1.71875 0 L 1.71875 -9.4375 L 3.21875 -9.4375 Z M 3.21875 0 "/></g></g></g><g fill="#000000" fill-opacity="1"><g transform="translate(321.324682, 257.510604)"><g><path d="M 10.421875 -6.046875 L 8.796875 -6.046875 C 8.535156 -6.648438 8.132812 -7.132812 7.59375 -7.5 C 7.050781 -7.875 6.5 -8.0625 5.9375 -8.0625 C 5.382812 -8.0625 4.90625 -7.972656 4.5 -7.796875 C 4.101562 -7.617188 3.757812 -7.378906 3.46875 -7.078125 C 2.832031 -6.398438 2.515625 -5.613281 2.515625 -4.71875 C 2.515625 -3.800781 2.832031 -3.015625 3.46875 -2.359375 C 4.101562 -1.679688 4.875 -1.34375 5.78125 -1.34375 C 6.382812 -1.34375 6.941406 -1.503906 7.453125 -1.828125 C 7.953125 -2.140625 8.347656 -2.5625 8.640625 -3.09375 L 10.328125 -3.09375 C 9.804688 -1.570312 8.785156 -0.554688 7.265625 -0.046875 C 6.796875 0.128906 6.257812 0.21875 5.65625 0.21875 C 5.0625 0.21875 4.46875 0.0820312 3.875 -0.1875 C 3.289062 -0.445312 2.785156 -0.804688 2.359375 -1.265625 C 1.429688 -2.234375 0.96875 -3.382812 0.96875 -4.71875 C 0.96875 -6.0625 1.429688 -7.210938 2.359375 -8.171875 C 3.296875 -9.140625 4.4375 -9.625 5.78125 -9.625 C 6.875 -9.625 7.851562 -9.289062 8.71875 -8.625 C 9.550781 -7.976562 10.117188 -7.117188 10.421875 -6.046875 Z M 10.421875 -6.046875 "/></g></g></g><g fill="#000000" fill-opacity="1"><g transform="translate(332.49568, 257.510604)"><g><path d="M 10.828125 -4.9375 L 10.828125 -4.140625 L 2.53125 -4.140625 C 2.675781 -3.328125 3.066406 -2.660156 3.703125 -2.140625 C 4.359375 -1.609375 5.085938 -1.34375 5.890625 -1.34375 C 6.429688 -1.34375 6.953125 -1.472656 7.453125 -1.734375 C 7.941406 -1.972656 8.351562 -2.316406 8.6875 -2.765625 L 10.390625 -2.765625 C 9.992188 -1.867188 9.394531 -1.160156 8.59375 -0.640625 C 7.78125 -0.109375 6.957031 0.15625 6.125 0.15625 C 5.28125 0.15625 4.566406 0.0234375 3.984375 -0.234375 C 3.390625 -0.492188 2.867188 -0.84375 2.421875 -1.28125 C 1.453125 -2.226562 0.96875 -3.390625 0.96875 -4.765625 C 0.96875 -6.117188 1.453125 -7.28125 2.421875 -8.25 C 3.378906 -9.207031 4.535156 -9.6875 5.890625 -9.6875 C 7.210938 -9.6875 8.363281 -9.222656 9.34375 -8.296875 C 10.332031 -7.347656 10.828125 -6.226562 10.828125 -4.9375 Z M 9.234375 -5.421875 C 9.066406 -6.222656 8.664062 -6.890625 8.03125 -7.421875 C 7.40625 -7.929688 6.691406 -8.1875 5.890625 -8.1875 C 4.660156 -8.1875 3.695312 -7.632812 3 -6.53125 C 2.78125 -6.195312 2.628906 -5.828125 2.546875 -5.421875 Z M 9.234375 -5.421875 "/></g></g></g><g fill="#000000" fill-opacity="1"><g transform="translate(344.181267, 257.510604)"><g/></g></g><g fill="#000000" fill-opacity="1"><g transform="translate(349.970448, 257.510604)"><g><path d="M 9.234375 -4.71875 C 9.234375 -5.632812 8.921875 -6.4375 8.296875 -7.125 C 7.648438 -7.800781 6.859375 -8.140625 5.921875 -8.140625 C 5.003906 -8.140625 4.21875 -7.800781 3.5625 -7.125 C 2.914062 -6.445312 2.59375 -5.644531 2.59375 -4.71875 C 2.59375 -3.789062 2.914062 -2.988281 3.5625 -2.3125 C 4.21875 -1.625 5.003906 -1.28125 5.921875 -1.28125 C 6.859375 -1.28125 7.648438 -1.625 8.296875 -2.3125 C 8.921875 -3 9.234375 -3.800781 9.234375 -4.71875 Z M 2.546875 1.28125 C 2.691406 1.875 3 2.394531 3.46875 2.84375 C 4.125 3.519531 4.921875 3.859375 5.859375 3.859375 C 6.785156 3.859375 7.582031 3.519531 8.25 2.84375 C 8.90625 2.1875 9.234375 1.394531 9.234375 0.46875 L 9.234375 -1.59375 C 9.160156 -1.488281 9.082031 -1.382812 9 -1.28125 C 8.101562 -0.28125 7.003906 0.21875 5.703125 0.21875 C 4.390625 0.21875 3.289062 -0.28125 2.40625 -1.28125 C 1.53125 -2.257812 1.09375 -3.40625 1.09375 -4.71875 C 1.09375 -6.03125 1.53125 -7.171875 2.40625 -8.140625 C 3.289062 -9.140625 4.390625 -9.640625 5.703125 -9.640625 C 6.960938 -9.640625 8.0625 -9.140625 9 -8.140625 C 9.082031 -8.046875 9.160156 -7.945312 9.234375 -7.84375 L 9.234375 -9.4375 L 10.734375 -9.4375 L 10.734375 0.46875 C 10.734375 1.8125 10.253906 2.960938 9.296875 3.921875 C 8.347656 4.878906 7.203125 5.359375 5.859375 5.359375 C 4.515625 5.359375 3.363281 4.878906 2.40625 3.921875 C 1.644531 3.160156 1.1875 2.28125 1.03125 1.28125 Z M 2.546875 1.28125 "/></g></g></g><g fill="#000000" fill-opacity="1"><g transform="translate(362.320732, 257.510604)"><g><path d="M 8.125 -1.609375 C 7.425781 -0.410156 6.375 0.1875 4.96875 0.1875 C 3.914062 0.1875 3.085938 -0.160156 2.484375 -0.859375 C 1.898438 -1.554688 1.609375 -2.445312 1.609375 -3.53125 L 1.609375 -9.4375 L 3.109375 -9.4375 L 3.109375 -3.53125 C 3.109375 -2.914062 3.25 -2.394531 3.53125 -1.96875 C 3.800781 -1.53125 4.257812 -1.3125 4.90625 -1.3125 C 6.082031 -1.3125 6.910156 -1.679688 7.390625 -2.421875 C 7.878906 -3.148438 8.125 -4.171875 8.125 -5.484375 L 8.125 -9.4375 L 9.625 -9.4375 L 9.625 0 L 8.125 0 Z M 8.125 -1.609375 "/></g></g></g><g fill="#000000" fill-opacity="1"><g transform="translate(373.234447, 257.510604)"><g><path d="M 9.109375 -4.71875 C 9.109375 -5.632812 8.796875 -6.4375 8.171875 -7.125 C 7.523438 -7.800781 6.726562 -8.140625 5.78125 -8.140625 C 4.84375 -8.140625 4.0625 -7.800781 3.4375 -7.125 C 2.789062 -6.4375 2.46875 -5.632812 2.46875 -4.71875 C 2.46875 -3.800781 2.789062 -3 3.4375 -2.3125 C 4.0625 -1.625 4.84375 -1.28125 5.78125 -1.28125 C 6.726562 -1.28125 7.523438 -1.625 8.171875 -2.3125 C 8.796875 -3 9.109375 -3.800781 9.109375 -4.71875 Z M 10.609375 0 L 9.109375 0 L 9.109375 -1.609375 C 9.023438 -1.492188 8.941406 -1.382812 8.859375 -1.28125 C 7.953125 -0.28125 6.847656 0.21875 5.546875 0.21875 C 4.242188 0.21875 3.148438 -0.28125 2.265625 -1.28125 C 1.398438 -2.257812 0.96875 -3.40625 0.96875 -4.71875 C 0.96875 -6.03125 1.398438 -7.171875 2.265625 -8.140625 C 3.148438 -9.140625 4.242188 -9.640625 5.546875 -9.640625 C 6.847656 -9.640625 7.953125 -9.140625 8.859375 -8.140625 C 8.941406 -8.046875 9.023438 -7.941406 9.109375 -7.828125 L 9.109375 -9.4375 L 10.609375 -9.4375 Z M 10.609375 0 "/></g></g></g><g fill="#000000" fill-opacity="1"><g transform="translate(385.456077, 257.510604)"><g><path d="M 6.453125 -7.484375 C 6.109375 -7.796875 5.738281 -7.953125 5.34375 -7.953125 C 4.957031 -7.953125 4.628906 -7.84375 4.359375 -7.625 C 4.066406 -7.394531 3.828125 -7.125 3.640625 -6.8125 C 3.285156 -6.1875 3.109375 -5.488281 3.109375 -4.71875 L 3.109375 0 L 1.609375 0 L 1.609375 -9.4375 L 3.109375 -9.4375 L 3.109375 -7.484375 L 3.171875 -7.875 C 3.671875 -9.039062 4.453125 -9.625 5.515625 -9.625 C 5.835938 -9.625 6.148438 -9.5625 6.453125 -9.4375 Z M 6.453125 -7.484375 "/></g></g></g><g fill="#000000" fill-opacity="1"><g transform="translate(392.124378, 257.510604)"><g><path d="M 9.109375 -4.71875 C 9.109375 -5.632812 8.796875 -6.4375 8.171875 -7.125 C 7.523438 -7.800781 6.726562 -8.140625 5.78125 -8.140625 C 4.84375 -8.140625 4.0625 -7.800781 3.4375 -7.125 C 2.789062 -6.4375 2.46875 -5.632812 2.46875 -4.71875 C 2.46875 -3.800781 2.789062 -3 3.4375 -2.3125 C 4.0625 -1.625 4.84375 -1.28125 5.78125 -1.28125 C 6.726562 -1.28125 7.523438 -1.625 8.171875 -2.3125 C 8.796875 -3 9.109375 -3.800781 9.109375 -4.71875 Z M 10.609375 0 L 9.109375 0 L 9.109375 -1.609375 C 9.023438 -1.492188 8.941406 -1.382812 8.859375 -1.28125 C 7.953125 -0.28125 6.847656 0.21875 5.546875 0.21875 C 4.242188 0.21875 3.148438 -0.28125 2.265625 -1.28125 C 1.398438 -2.257812 0.96875 -3.40625 0.96875 -4.71875 C 0.96875 -6.03125 1.398438 -7.171875 2.265625 -8.140625 C 3.148438 -9.140625 4.242188 -9.640625 5.546875 -9.640625 C 6.847656 -9.640625 7.953125 -9.140625 8.859375 -8.140625 C 8.941406 -8.046875 9.023438 -7.941406 9.109375 -7.828125 L 9.109375 -9.4375 L 10.609375 -9.4375 Z M 10.609375 0 "/></g></g></g><g fill="#000000" fill-opacity="1"><g transform="translate(404.346009, 257.510604)"><g><path d="M 8.125 0 L 8.125 -5.890625 C 8.125 -6.503906 7.988281 -7.035156 7.71875 -7.484375 C 7.425781 -7.910156 6.960938 -8.125 6.328125 -8.125 C 5.679688 -8.125 5.160156 -8.003906 4.765625 -7.765625 C 4.359375 -7.515625 4.035156 -7.195312 3.796875 -6.8125 C 3.335938 -6.101562 3.109375 -5.144531 3.109375 -3.9375 L 3.109375 0 L 1.609375 0 L 1.609375 -9.4375 L 3.109375 -9.4375 L 3.109375 -7.796875 C 3.421875 -8.328125 3.820312 -8.765625 4.3125 -9.109375 C 4.820312 -9.453125 5.414062 -9.625 6.09375 -9.625 C 6.757812 -9.625 7.300781 -9.53125 7.71875 -9.34375 C 8.132812 -9.144531 8.484375 -8.878906 8.765625 -8.546875 C 9.335938 -7.878906 9.625 -6.992188 9.625 -5.890625 L 9.625 0 Z M 8.125 0 "/></g></g></g><g fill="#000000" fill-opacity="1"><g transform="translate(415.259699, 257.510604)"><g><path d="M 0.421875 -8.03125 L 0.421875 -9.4375 L 2.78125 -9.4375 L 2.78125 -13.09375 L 4.28125 -13.09375 L 4.28125 -9.4375 L 6.625 -9.4375 L 6.625 -8.03125 L 4.28125 -8.03125 L 4.28125 0 L 2.78125 0 L 2.78125 -8.03125 Z M 0.421875 -8.03125 "/></g></g></g><g fill="#000000" fill-opacity="1"><g transform="translate(422.313936, 257.510604)"><g><path d="M 10.828125 -4.9375 L 10.828125 -4.140625 L 2.53125 -4.140625 C 2.675781 -3.328125 3.066406 -2.660156 3.703125 -2.140625 C 4.359375 -1.609375 5.085938 -1.34375 5.890625 -1.34375 C 6.429688 -1.34375 6.953125 -1.472656 7.453125 -1.734375 C 7.941406 -1.972656 8.351562 -2.316406 8.6875 -2.765625 L 10.390625 -2.765625 C 9.992188 -1.867188 9.394531 -1.160156 8.59375 -0.640625 C 7.78125 -0.109375 6.957031 0.15625 6.125 0.15625 C 5.28125 0.15625 4.566406 0.0234375 3.984375 -0.234375 C 3.390625 -0.492188 2.867188 -0.84375 2.421875 -1.28125 C 1.453125 -2.226562 0.96875 -3.390625 0.96875 -4.765625 C 0.96875 -6.117188 1.453125 -7.28125 2.421875 -8.25 C 3.378906 -9.207031 4.535156 -9.6875 5.890625 -9.6875 C 7.210938 -9.6875 8.363281 -9.222656 9.34375 -8.296875 C 10.332031 -7.347656 10.828125 -6.226562 10.828125 -4.9375 Z M 9.234375 -5.421875 C 9.066406 -6.222656 8.664062 -6.890625 8.03125 -7.421875 C 7.40625 -7.929688 6.691406 -8.1875 5.890625 -8.1875 C 4.660156 -8.1875 3.695312 -7.632812 3 -6.53125 C 2.78125 -6.195312 2.628906 -5.828125 2.546875 -5.421875 Z M 9.234375 -5.421875 "/></g></g></g><g fill="#000000" fill-opacity="1"><g transform="translate(433.999547, 257.510604)"><g><path d="M 10.828125 -4.9375 L 10.828125 -4.140625 L 2.53125 -4.140625 C 2.675781 -3.328125 3.066406 -2.660156 3.703125 -2.140625 C 4.359375 -1.609375 5.085938 -1.34375 5.890625 -1.34375 C 6.429688 -1.34375 6.953125 -1.472656 7.453125 -1.734375 C 7.941406 -1.972656 8.351562 -2.316406 8.6875 -2.765625 L 10.390625 -2.765625 C 9.992188 -1.867188 9.394531 -1.160156 8.59375 -0.640625 C 7.78125 -0.109375 6.957031 0.15625 6.125 0.15625 C 5.28125 0.15625 4.566406 0.0234375 3.984375 -0.234375 C 3.390625 -0.492188 2.867188 -0.84375 2.421875 -1.28125 C 1.453125 -2.226562 0.96875 -3.390625 0.96875 -4.765625 C 0.96875 -6.117188 1.453125 -7.28125 2.421875 -8.25 C 3.378906 -9.207031 4.535156 -9.6875 5.890625 -9.6875 C 7.210938 -9.6875 8.363281 -9.222656 9.34375 -8.296875 C 10.332031 -7.347656 10.828125 -6.226562 10.828125 -4.9375 Z M 9.234375 -5.421875 C 9.066406 -6.222656 8.664062 -6.890625 8.03125 -7.421875 C 7.40625 -7.929688 6.691406 -8.1875 5.890625 -8.1875 C 4.660156 -8.1875 3.695312 -7.632812 3 -6.53125 C 2.78125 -6.195312 2.628906 -5.828125 2.546875 -5.421875 Z M 9.234375 -5.421875 "/></g></g></g><g fill="#000000" fill-opacity="1"><g transform="translate(445.685134, 257.510604)"><g><path d="M 9.109375 -4.71875 C 9.109375 -5.632812 8.796875 -6.4375 8.171875 -7.125 C 7.523438 -7.800781 6.726562 -8.140625 5.78125 -8.140625 C 4.84375 -8.140625 4.0625 -7.800781 3.4375 -7.125 C 2.789062 -6.4375 2.46875 -5.632812 2.46875 -4.71875 C 2.46875 -3.800781 2.789062 -3 3.4375 -2.3125 C 4.0625 -1.625 4.84375 -1.28125 5.78125 -1.28125 C 6.726562 -1.28125 7.523438 -1.625 8.171875 -2.3125 C 8.796875 -3 9.109375 -3.800781 9.109375 -4.71875 Z M 10.609375 0 L 9.109375 0 L 9.109375 -1.609375 C 9.023438 -1.492188 8.941406 -1.382812 8.859375 -1.28125 C 7.953125 -0.28125 6.847656 0.21875 5.546875 0.21875 C 4.242188 0.21875 3.148438 -0.28125 2.265625 -1.28125 C 1.398438 -2.257812 0.96875 -3.40625 0.96875 -4.71875 C 0.96875 -6.03125 1.398438 -7.171875 2.265625 -8.140625 C 3.148438 -9.140625 4.242188 -9.640625 5.546875 -9.640625 C 6.847656 -9.640625 7.953125 -9.140625 8.859375 -8.140625 C 8.941406 -8.046875 9.023438 -7.941406 9.109375 -7.828125 L 9.109375 -16.078125 L 10.609375 -16.078125 Z M 10.609375 0 "/></g></g></g></svg>