<svg xmlns="http://www.w3.org/2000/svg" xmlns:xlink="http://www.w3.org/1999/xlink" width="957" zoomAndPan="magnify" viewBox="0 0 717.75 363.749991" height="485" preserveAspectRatio="xMidYMid meet" version="1.0"><defs><g/><clipPath id="655ed47fc1"><path d="M 36.472656 127.226562 L 681 127.226562 L 681 236.273438 L 36.472656 236.273438 Z M 36.472656 127.226562 " clip-rule="nonzero"/></clipPath><clipPath id="6b62a9eca9"><path d="M 90.996094 127.226562 L 626.503906 127.226562 C 656.617188 127.226562 681.027344 151.636719 681.027344 181.75 C 681.027344 211.863281 656.617188 236.273438 626.503906 236.273438 L 90.996094 236.273438 C 60.882812 236.273438 36.472656 211.863281 36.472656 181.75 C 36.472656 151.636719 60.882812 127.226562 90.996094 127.226562 Z M 90.996094 127.226562 " clip-rule="nonzero"/></clipPath></defs><g clip-path="url(#655ed47fc1)"><g clip-path="url(#6b62a9eca9)"><path fill="#00bf63" d="M 36.472656 127.226562 L 680.972656 127.226562 L 680.972656 236.273438 L 36.472656 236.273438 Z M 36.472656 127.226562 " fill-opacity="1" fill-rule="nonzero"/></g></g><g fill="#ffffff" fill-opacity="1"><g transform="translate(56.744116, 195.240801)"><g><path d="M 10.546875 -12.828125 C 5.003906 -14.109375 2.234375 -16.476562 2.234375 -19.9375 C 2.234375 -22.5 3.128906 -24.421875 4.921875 -25.703125 C 6.703125 -26.953125 8.789062 -27.578125 11.1875 -27.578125 C 16.488281 -27.578125 19.632812 -25.601562 20.625 -21.65625 L 17.59375 -21.65625 C 17.050781 -24.007812 14.914062 -25.1875 11.1875 -25.1875 C 8.582031 -25.1875 6.757812 -24.410156 5.71875 -22.859375 C 5.3125 -22.273438 5.109375 -21.539062 5.109375 -20.65625 C 5.109375 -18.976562 6.015625 -17.6875 7.828125 -16.78125 C 8.679688 -16.332031 10.492188 -15.75 13.265625 -15.03125 C 16.035156 -14.3125 18.050781 -13.507812 19.3125 -12.625 C 21.039062 -11.40625 21.90625 -9.6875 21.90625 -7.46875 C 21.90625 -4.726562 20.828125 -2.648438 18.671875 -1.234375 C 16.859375 -0.0664062 14.617188 0.515625 11.953125 0.515625 C 5.929688 0.515625 2.441406 -1.773438 1.484375 -6.359375 L 4.796875 -6.359375 C 5.304688 -3.472656 7.691406 -2.03125 11.953125 -2.03125 C 14.984375 -2.03125 17.101562 -2.875 18.3125 -4.5625 C 18.789062 -5.226562 19.03125 -6.132812 19.03125 -7.28125 C 19.03125 -8.394531 18.585938 -9.3125 17.703125 -10.03125 C 16.453125 -11.039062 14.066406 -11.972656 10.546875 -12.828125 Z M 10.546875 -12.828125 "/></g></g></g><g fill="#ffffff" fill-opacity="1"><g transform="translate(79.686065, 195.240801)"><g><path d="M 17.390625 -8.875 C 17.390625 -10.632812 16.765625 -12.140625 15.515625 -13.390625 C 14.253906 -14.640625 12.742188 -15.265625 10.984375 -15.265625 C 9.234375 -15.265625 7.726562 -14.640625 6.46875 -13.390625 C 5.21875 -12.140625 4.59375 -10.632812 4.59375 -8.875 C 4.59375 -7.144531 5.21875 -5.648438 6.46875 -4.390625 C 7.726562 -3.140625 9.234375 -2.515625 10.984375 -2.515625 C 12.742188 -2.515625 14.253906 -3.140625 15.515625 -4.390625 C 16.765625 -5.648438 17.390625 -7.144531 17.390625 -8.875 Z M 20.1875 -8.875 C 20.1875 -6.3125 19.289062 -4.148438 17.5 -2.390625 C 15.664062 -0.609375 13.492188 0.28125 10.984375 0.28125 C 8.484375 0.28125 6.328125 -0.609375 4.515625 -2.390625 C 2.703125 -4.148438 1.796875 -6.3125 1.796875 -8.875 C 1.796875 -11.40625 2.703125 -13.578125 4.515625 -15.390625 C 6.296875 -17.171875 8.453125 -18.0625 10.984375 -18.0625 C 13.515625 -18.0625 15.6875 -17.171875 17.5 -15.390625 C 19.289062 -13.578125 20.1875 -11.40625 20.1875 -8.875 Z M 20.1875 -8.875 "/></g></g></g><g fill="#ffffff" fill-opacity="1"><g transform="translate(101.668766, 195.240801)"><g><path d="M 5.796875 0 L 3 0 L 3 -29.96875 L 5.796875 -29.96875 Z M 5.796875 0 "/></g></g></g><g fill="#ffffff" fill-opacity="1"><g transform="translate(110.461844, 195.240801)"><g><path d="M 16.984375 -8.796875 C 16.984375 -10.492188 16.398438 -11.984375 15.234375 -13.265625 C 14.023438 -14.546875 12.546875 -15.1875 10.796875 -15.1875 C 9.035156 -15.1875 7.566406 -14.546875 6.390625 -13.265625 C 5.191406 -11.984375 4.59375 -10.492188 4.59375 -8.796875 C 4.59375 -7.085938 5.191406 -5.59375 6.390625 -4.3125 C 7.566406 -3.03125 9.035156 -2.390625 10.796875 -2.390625 C 12.546875 -2.390625 14.023438 -3.03125 15.234375 -4.3125 C 16.398438 -5.59375 16.984375 -7.085938 16.984375 -8.796875 Z M 19.78125 0 L 16.984375 0 L 16.984375 -3 C 16.828125 -2.78125 16.664062 -2.578125 16.5 -2.390625 C 14.820312 -0.523438 12.773438 0.40625 10.359375 0.40625 C 7.929688 0.40625 5.890625 -0.523438 4.234375 -2.390625 C 2.609375 -4.203125 1.796875 -6.335938 1.796875 -8.796875 C 1.796875 -11.242188 2.609375 -13.375 4.234375 -15.1875 C 5.890625 -17.050781 7.929688 -17.984375 10.359375 -17.984375 C 12.773438 -17.984375 14.820312 -17.050781 16.5 -15.1875 C 16.664062 -15 16.828125 -14.800781 16.984375 -14.59375 L 16.984375 -17.59375 L 19.78125 -17.59375 Z M 19.78125 0 "/></g></g></g><g fill="#ffffff" fill-opacity="1"><g transform="translate(133.243925, 195.240801)"><g><path d="M 12.03125 -13.953125 C 11.394531 -14.535156 10.703125 -14.828125 9.953125 -14.828125 C 9.234375 -14.828125 8.617188 -14.628906 8.109375 -14.234375 C 7.578125 -13.804688 7.140625 -13.296875 6.796875 -12.703125 C 6.128906 -11.535156 5.796875 -10.234375 5.796875 -8.796875 L 5.796875 0 L 3 0 L 3 -17.59375 L 5.796875 -17.59375 L 5.796875 -13.953125 L 5.921875 -14.671875 C 6.847656 -16.859375 8.296875 -17.953125 10.265625 -17.953125 C 10.878906 -17.953125 11.46875 -17.832031 12.03125 -17.59375 Z M 12.03125 -13.953125 "/></g></g></g><g fill="#ffffff" fill-opacity="1"><g transform="translate(145.674148, 195.240801)"><g/></g></g><g fill="#ffffff" fill-opacity="1"><g transform="translate(156.465661, 195.240801)"><g><path d="M 19.140625 0 L 3 0 L 3 -27.171875 L 19.140625 -27.171875 L 19.140625 -24.578125 L 5.796875 -24.578125 L 5.796875 -14.90625 L 18.75 -14.90625 L 18.75 -12.265625 L 5.796875 -12.265625 L 5.796875 -2.59375 L 19.140625 -2.59375 Z M 19.140625 0 "/></g></g></g><g fill="#ffffff" fill-opacity="1"><g transform="translate(178.608241, 195.240801)"><g><path d="M 5.796875 0 L 3 0 L 3 -29.96875 L 5.796875 -29.96875 Z M 5.796875 0 "/></g></g></g><g fill="#ffffff" fill-opacity="1"><g transform="translate(187.401319, 195.240801)"><g><path d="M 20.1875 -9.1875 L 20.1875 -7.71875 L 4.71875 -7.71875 C 4.976562 -6.195312 5.710938 -4.957031 6.921875 -4 C 8.140625 -3.007812 9.492188 -2.515625 10.984375 -2.515625 C 12.003906 -2.515625 12.976562 -2.753906 13.90625 -3.234375 C 14.8125 -3.691406 15.570312 -4.332031 16.1875 -5.15625 L 19.390625 -5.15625 C 18.640625 -3.476562 17.519531 -2.160156 16.03125 -1.203125 C 14.507812 -0.210938 12.976562 0.28125 11.4375 0.28125 C 9.863281 0.28125 8.53125 0.0390625 7.4375 -0.4375 C 6.3125 -0.914062 5.335938 -1.566406 4.515625 -2.390625 C 2.703125 -4.148438 1.796875 -6.3125 1.796875 -8.875 C 1.796875 -11.40625 2.703125 -13.578125 4.515625 -15.390625 C 6.296875 -17.171875 8.453125 -18.0625 10.984375 -18.0625 C 13.441406 -18.0625 15.585938 -17.195312 17.421875 -15.46875 C 19.265625 -13.707031 20.1875 -11.613281 20.1875 -9.1875 Z M 17.21875 -10.109375 C 16.90625 -11.597656 16.160156 -12.835938 14.984375 -13.828125 C 13.816406 -14.785156 12.484375 -15.265625 10.984375 -15.265625 C 8.691406 -15.265625 6.894531 -14.238281 5.59375 -12.1875 C 5.195312 -11.550781 4.914062 -10.859375 4.75 -10.109375 Z M 17.21875 -10.109375 "/></g></g></g><g fill="#ffffff" fill-opacity="1"><g transform="translate(209.184183, 195.240801)"><g><path d="M 19.421875 -11.265625 L 16.390625 -11.265625 C 15.910156 -12.390625 15.164062 -13.296875 14.15625 -13.984375 C 13.132812 -14.679688 12.109375 -15.03125 11.078125 -15.03125 C 10.035156 -15.03125 9.140625 -14.867188 8.390625 -14.546875 C 7.648438 -14.203125 7.007812 -13.75 6.46875 -13.1875 C 5.269531 -11.9375 4.671875 -10.472656 4.671875 -8.796875 C 4.671875 -7.085938 5.269531 -5.617188 6.46875 -4.390625 C 7.644531 -3.140625 9.085938 -2.515625 10.796875 -2.515625 C 11.910156 -2.515625 12.945312 -2.804688 13.90625 -3.390625 C 14.84375 -3.984375 15.578125 -4.769531 16.109375 -5.75 L 19.265625 -5.75 C 18.273438 -2.925781 16.367188 -1.035156 13.546875 -0.078125 C 12.671875 0.242188 11.671875 0.40625 10.546875 0.40625 C 9.429688 0.40625 8.328125 0.148438 7.234375 -0.359375 C 6.140625 -0.835938 5.191406 -1.503906 4.390625 -2.359375 C 2.660156 -4.171875 1.796875 -6.316406 1.796875 -8.796875 C 1.796875 -11.296875 2.660156 -13.441406 4.390625 -15.234375 C 6.148438 -17.046875 8.285156 -17.953125 10.796875 -17.953125 C 12.816406 -17.953125 14.640625 -17.320312 16.265625 -16.0625 C 17.804688 -14.863281 18.859375 -13.265625 19.421875 -11.265625 Z M 19.421875 -11.265625 "/></g></g></g><g fill="#ffffff" fill-opacity="1"><g transform="translate(230.007798, 195.240801)"><g><path d="M 0.796875 -14.984375 L 0.796875 -17.59375 L 5.203125 -17.59375 L 5.203125 -24.421875 L 8 -24.421875 L 8 -17.59375 L 12.34375 -17.59375 L 12.34375 -14.984375 L 8 -14.984375 L 8 0 L 5.203125 0 L 5.203125 -14.984375 Z M 0.796875 -14.984375 "/></g></g></g><g fill="#ffffff" fill-opacity="1"><g transform="translate(243.157451, 195.240801)"><g><path d="M 12.03125 -13.953125 C 11.394531 -14.535156 10.703125 -14.828125 9.953125 -14.828125 C 9.234375 -14.828125 8.617188 -14.628906 8.109375 -14.234375 C 7.578125 -13.804688 7.140625 -13.296875 6.796875 -12.703125 C 6.128906 -11.535156 5.796875 -10.234375 5.796875 -8.796875 L 5.796875 0 L 3 0 L 3 -17.59375 L 5.796875 -17.59375 L 5.796875 -13.953125 L 5.921875 -14.671875 C 6.847656 -16.859375 8.296875 -17.953125 10.265625 -17.953125 C 10.878906 -17.953125 11.46875 -17.832031 12.03125 -17.59375 Z M 12.03125 -13.953125 "/></g></g></g><g fill="#ffffff" fill-opacity="1"><g transform="translate(255.587674, 195.240801)"><g><path d="M 5.828125 -23.65625 C 6.179688 -23.3125 6.359375 -22.898438 6.359375 -22.421875 C 6.359375 -21.910156 6.179688 -21.484375 5.828125 -21.140625 C 5.484375 -20.796875 5.070312 -20.625 4.59375 -20.625 C 4.09375 -20.625 3.664062 -20.796875 3.3125 -21.140625 C 2.96875 -21.484375 2.796875 -21.910156 2.796875 -22.421875 C 2.796875 -22.898438 2.96875 -23.3125 3.3125 -23.65625 C 3.664062 -24.007812 4.09375 -24.1875 4.59375 -24.1875 C 5.070312 -24.1875 5.484375 -24.007812 5.828125 -23.65625 Z M 6 0 L 3.203125 0 L 3.203125 -17.59375 L 6 -17.59375 Z M 6 0 "/></g></g></g><g fill="#ffffff" fill-opacity="1"><g transform="translate(264.740478, 195.240801)"><g><path d="M 19.421875 -11.265625 L 16.390625 -11.265625 C 15.910156 -12.390625 15.164062 -13.296875 14.15625 -13.984375 C 13.132812 -14.679688 12.109375 -15.03125 11.078125 -15.03125 C 10.035156 -15.03125 9.140625 -14.867188 8.390625 -14.546875 C 7.648438 -14.203125 7.007812 -13.75 6.46875 -13.1875 C 5.269531 -11.9375 4.671875 -10.472656 4.671875 -8.796875 C 4.671875 -7.085938 5.269531 -5.617188 6.46875 -4.390625 C 7.644531 -3.140625 9.085938 -2.515625 10.796875 -2.515625 C 11.910156 -2.515625 12.945312 -2.804688 13.90625 -3.390625 C 14.84375 -3.984375 15.578125 -4.769531 16.109375 -5.75 L 19.265625 -5.75 C 18.273438 -2.925781 16.367188 -1.035156 13.546875 -0.078125 C 12.671875 0.242188 11.671875 0.40625 10.546875 0.40625 C 9.429688 0.40625 8.328125 0.148438 7.234375 -0.359375 C 6.140625 -0.835938 5.191406 -1.503906 4.390625 -2.359375 C 2.660156 -4.171875 1.796875 -6.316406 1.796875 -8.796875 C 1.796875 -11.296875 2.660156 -13.441406 4.390625 -15.234375 C 6.148438 -17.046875 8.285156 -17.953125 10.796875 -17.953125 C 12.816406 -17.953125 14.640625 -17.320312 16.265625 -16.0625 C 17.804688 -14.863281 18.859375 -13.265625 19.421875 -11.265625 Z M 19.421875 -11.265625 "/></g></g></g><g fill="#ffffff" fill-opacity="1"><g transform="translate(285.564094, 195.240801)"><g><path d="M 5.828125 -23.65625 C 6.179688 -23.3125 6.359375 -22.898438 6.359375 -22.421875 C 6.359375 -21.910156 6.179688 -21.484375 5.828125 -21.140625 C 5.484375 -20.796875 5.070312 -20.625 4.59375 -20.625 C 4.09375 -20.625 3.664062 -20.796875 3.3125 -21.140625 C 2.96875 -21.484375 2.796875 -21.910156 2.796875 -22.421875 C 2.796875 -22.898438 2.96875 -23.3125 3.3125 -23.65625 C 3.664062 -24.007812 4.09375 -24.1875 4.59375 -24.1875 C 5.070312 -24.1875 5.484375 -24.007812 5.828125 -23.65625 Z M 6 0 L 3.203125 0 L 3.203125 -17.59375 L 6 -17.59375 Z M 6 0 "/></g></g></g><g fill="#ffffff" fill-opacity="1"><g transform="translate(294.716899, 195.240801)"><g><path d="M 0.796875 -14.984375 L 0.796875 -17.59375 L 5.203125 -17.59375 L 5.203125 -24.421875 L 8 -24.421875 L 8 -17.59375 L 12.34375 -17.59375 L 12.34375 -14.984375 L 8 -14.984375 L 8 0 L 5.203125 0 L 5.203125 -14.984375 Z M 0.796875 -14.984375 "/></g></g></g><g fill="#ffffff" fill-opacity="1"><g transform="translate(307.866552, 195.240801)"><g><path d="M 5.234375 9.984375 L 1.84375 9.984375 L 7.75 -2.875 L 0.40625 -17.59375 L 3.59375 -17.59375 L 9.234375 -5.796875 L 14.265625 -17.59375 L 17.390625 -17.59375 Z M 5.234375 9.984375 "/></g></g></g><g fill="#ffffff" fill-opacity="1"><g transform="translate(324.853198, 195.240801)"><g/></g></g><g fill="#ffffff" fill-opacity="1"><g transform="translate(335.6447, 195.240801)"><g><path d="M 5.796875 0 L 3 0 L 3 -29.96875 L 5.796875 -29.96875 Z M 5.796875 0 "/></g></g></g><g fill="#ffffff" fill-opacity="1"><g transform="translate(344.437789, 195.240801)"><g><path d="M 20.1875 -9.1875 L 20.1875 -7.71875 L 4.71875 -7.71875 C 4.976562 -6.195312 5.710938 -4.957031 6.921875 -4 C 8.140625 -3.007812 9.492188 -2.515625 10.984375 -2.515625 C 12.003906 -2.515625 12.976562 -2.753906 13.90625 -3.234375 C 14.8125 -3.691406 15.570312 -4.332031 16.1875 -5.15625 L 19.390625 -5.15625 C 18.640625 -3.476562 17.519531 -2.160156 16.03125 -1.203125 C 14.507812 -0.210938 12.976562 0.28125 11.4375 0.28125 C 9.863281 0.28125 8.53125 0.0390625 7.4375 -0.4375 C 6.3125 -0.914062 5.335938 -1.566406 4.515625 -2.390625 C 2.703125 -4.148438 1.796875 -6.3125 1.796875 -8.875 C 1.796875 -11.40625 2.703125 -13.578125 4.515625 -15.390625 C 6.296875 -17.171875 8.453125 -18.0625 10.984375 -18.0625 C 13.441406 -18.0625 15.585938 -17.195312 17.421875 -15.46875 C 19.265625 -13.707031 20.1875 -11.613281 20.1875 -9.1875 Z M 17.21875 -10.109375 C 16.90625 -11.597656 16.160156 -12.835938 14.984375 -13.828125 C 13.816406 -14.785156 12.484375 -15.265625 10.984375 -15.265625 C 8.691406 -15.265625 6.894531 -14.238281 5.59375 -12.1875 C 5.195312 -11.550781 4.914062 -10.859375 4.75 -10.109375 Z M 17.21875 -10.109375 "/></g></g></g><g fill="#ffffff" fill-opacity="1"><g transform="translate(366.220653, 195.240801)"><g><path d="M 5.5625 -2.515625 C 6.25 -2.035156 7.15625 -1.796875 8.28125 -1.796875 C 10.832031 -1.796875 12.109375 -2.753906 12.109375 -4.671875 C 12.109375 -5.796875 11.191406 -6.648438 9.359375 -7.234375 C 8.578125 -7.503906 7.75 -7.742188 6.875 -7.953125 C 5.96875 -8.171875 5.128906 -8.453125 4.359375 -8.796875 C 3.453125 -9.222656 2.769531 -9.753906 2.3125 -10.390625 C 1.863281 -11.023438 1.640625 -11.785156 1.640625 -12.671875 C 1.640625 -14.429688 2.253906 -15.75 3.484375 -16.625 C 4.703125 -17.53125 6.164062 -17.984375 7.875 -17.984375 C 9.582031 -17.984375 10.992188 -17.640625 12.109375 -16.953125 C 13.234375 -16.253906 13.992188 -15.015625 14.390625 -13.234375 L 11.390625 -13.234375 C 11.066406 -14.210938 10.597656 -14.863281 9.984375 -15.1875 C 9.398438 -15.507812 8.671875 -15.671875 7.796875 -15.671875 C 6.910156 -15.671875 6.164062 -15.484375 5.5625 -15.109375 C 4.914062 -14.710938 4.59375 -14.125 4.59375 -13.34375 C 4.59375 -12.550781 4.859375 -11.96875 5.390625 -11.59375 C 5.898438 -11.25 6.539062 -10.941406 7.3125 -10.671875 C 8.082031 -10.429688 8.921875 -10.21875 9.828125 -10.03125 C 10.710938 -9.820312 11.550781 -9.53125 12.34375 -9.15625 C 14.15625 -8.300781 15.0625 -6.925781 15.0625 -5.03125 C 15.0625 -3.144531 14.382812 -1.75 13.03125 -0.84375 C 12.332031 -0.382812 11.570312 -0.0351562 10.75 0.203125 C 9.945312 0.410156 9.066406 0.515625 8.109375 0.515625 C 4.035156 0.515625 1.691406 -1.296875 1.078125 -4.921875 L 4.03125 -4.921875 C 4.320312 -3.773438 4.832031 -2.972656 5.5625 -2.515625 Z M 5.5625 -2.515625 "/></g></g></g><g fill="#ffffff" fill-opacity="1"><g transform="translate(382.288009, 195.240801)"><g><path d="M 5.5625 -2.515625 C 6.25 -2.035156 7.15625 -1.796875 8.28125 -1.796875 C 10.832031 -1.796875 12.109375 -2.753906 12.109375 -4.671875 C 12.109375 -5.796875 11.191406 -6.648438 9.359375 -7.234375 C 8.578125 -7.503906 7.75 -7.742188 6.875 -7.953125 C 5.96875 -8.171875 5.128906 -8.453125 4.359375 -8.796875 C 3.453125 -9.222656 2.769531 -9.753906 2.3125 -10.390625 C 1.863281 -11.023438 1.640625 -11.785156 1.640625 -12.671875 C 1.640625 -14.429688 2.253906 -15.75 3.484375 -16.625 C 4.703125 -17.53125 6.164062 -17.984375 7.875 -17.984375 C 9.582031 -17.984375 10.992188 -17.640625 12.109375 -16.953125 C 13.234375 -16.253906 13.992188 -15.015625 14.390625 -13.234375 L 11.390625 -13.234375 C 11.066406 -14.210938 10.597656 -14.863281 9.984375 -15.1875 C 9.398438 -15.507812 8.671875 -15.671875 7.796875 -15.671875 C 6.910156 -15.671875 6.164062 -15.484375 5.5625 -15.109375 C 4.914062 -14.710938 4.59375 -14.125 4.59375 -13.34375 C 4.59375 -12.550781 4.859375 -11.96875 5.390625 -11.59375 C 5.898438 -11.25 6.539062 -10.941406 7.3125 -10.671875 C 8.082031 -10.429688 8.921875 -10.21875 9.828125 -10.03125 C 10.710938 -9.820312 11.550781 -9.53125 12.34375 -9.15625 C 14.15625 -8.300781 15.0625 -6.925781 15.0625 -5.03125 C 15.0625 -3.144531 14.382812 -1.75 13.03125 -0.84375 C 12.332031 -0.382812 11.570312 -0.0351562 10.75 0.203125 C 9.945312 0.410156 9.066406 0.515625 8.109375 0.515625 C 4.035156 0.515625 1.691406 -1.296875 1.078125 -4.921875 L 4.03125 -4.921875 C 4.320312 -3.773438 4.832031 -2.972656 5.5625 -2.515625 Z M 5.5625 -2.515625 "/></g></g></g><g fill="#ffffff" fill-opacity="1"><g transform="translate(398.355364, 195.240801)"><g/></g></g><g fill="#ffffff" fill-opacity="1"><g transform="translate(409.146866, 195.240801)"><g><path d="M 0.796875 -14.984375 L 0.796875 -17.59375 L 5.203125 -17.59375 L 5.203125 -24.421875 L 8 -24.421875 L 8 -17.59375 L 12.34375 -17.59375 L 12.34375 -14.984375 L 8 -14.984375 L 8 0 L 5.203125 0 L 5.203125 -14.984375 Z M 0.796875 -14.984375 "/></g></g></g><g fill="#ffffff" fill-opacity="1"><g transform="translate(422.29652, 195.240801)"><g><path d="M 5.796875 0 L 3 0 L 3 -29.96875 L 5.796875 -29.96875 L 5.796875 -14.546875 C 6.378906 -15.535156 7.125 -16.347656 8.03125 -16.984375 C 8.988281 -17.628906 10.09375 -17.953125 11.34375 -17.953125 C 12.601562 -17.953125 13.617188 -17.773438 14.390625 -17.421875 C 15.160156 -17.046875 15.8125 -16.554688 16.34375 -15.953125 C 17.414062 -14.691406 17.953125 -13.035156 17.953125 -10.984375 L 17.953125 0 L 15.140625 0 L 15.140625 -10.984375 C 15.140625 -12.128906 14.890625 -13.117188 14.390625 -13.953125 C 13.859375 -14.742188 12.992188 -15.140625 11.796875 -15.140625 C 10.585938 -15.140625 9.613281 -14.957031 8.875 -14.59375 C 8.125 -14.1875 7.523438 -13.640625 7.078125 -12.953125 C 6.222656 -11.671875 5.796875 -9.804688 5.796875 -7.359375 Z M 5.796875 0 "/></g></g></g><g fill="#ffffff" fill-opacity="1"><g transform="translate(442.640523, 195.240801)"><g><path d="M 16.984375 -8.796875 C 16.984375 -10.492188 16.398438 -11.984375 15.234375 -13.265625 C 14.023438 -14.546875 12.546875 -15.1875 10.796875 -15.1875 C 9.035156 -15.1875 7.566406 -14.546875 6.390625 -13.265625 C 5.191406 -11.984375 4.59375 -10.492188 4.59375 -8.796875 C 4.59375 -7.085938 5.191406 -5.59375 6.390625 -4.3125 C 7.566406 -3.03125 9.035156 -2.390625 10.796875 -2.390625 C 12.546875 -2.390625 14.023438 -3.03125 15.234375 -4.3125 C 16.398438 -5.59375 16.984375 -7.085938 16.984375 -8.796875 Z M 19.78125 0 L 16.984375 0 L 16.984375 -3 C 16.828125 -2.78125 16.664062 -2.578125 16.5 -2.390625 C 14.820312 -0.523438 12.773438 0.40625 10.359375 0.40625 C 7.929688 0.40625 5.890625 -0.523438 4.234375 -2.390625 C 2.609375 -4.203125 1.796875 -6.335938 1.796875 -8.796875 C 1.796875 -11.242188 2.609375 -13.375 4.234375 -15.1875 C 5.890625 -17.050781 7.929688 -17.984375 10.359375 -17.984375 C 12.773438 -17.984375 14.820312 -17.050781 16.5 -15.1875 C 16.664062 -15 16.828125 -14.800781 16.984375 -14.59375 L 16.984375 -17.59375 L 19.78125 -17.59375 Z M 19.78125 0 "/></g></g></g><g fill="#ffffff" fill-opacity="1"><g transform="translate(465.422593, 195.240801)"><g><path d="M 15.140625 0 L 15.140625 -10.984375 C 15.140625 -12.128906 14.890625 -13.117188 14.390625 -13.953125 C 13.859375 -14.742188 12.992188 -15.140625 11.796875 -15.140625 C 10.585938 -15.140625 9.613281 -14.914062 8.875 -14.46875 C 8.125 -14.019531 7.523438 -13.429688 7.078125 -12.703125 C 6.222656 -11.378906 5.796875 -9.597656 5.796875 -7.359375 L 5.796875 0 L 3 0 L 3 -17.59375 L 5.796875 -17.59375 L 5.796875 -14.546875 C 6.378906 -15.535156 7.125 -16.347656 8.03125 -16.984375 C 8.988281 -17.628906 10.09375 -17.953125 11.34375 -17.953125 C 12.601562 -17.953125 13.617188 -17.773438 14.390625 -17.421875 C 15.160156 -17.046875 15.8125 -16.554688 16.34375 -15.953125 C 17.414062 -14.691406 17.953125 -13.035156 17.953125 -10.984375 L 17.953125 0 Z M 15.140625 0 "/></g></g></g><g fill="#ffffff" fill-opacity="1"><g transform="translate(485.766596, 195.240801)"><g/></g></g><g fill="#ffffff" fill-opacity="1"><g transform="translate(496.558098, 195.240801)"><g><path d="M 5.796875 -13.421875 L 12.109375 -13.421875 C 13.679688 -13.421875 14.972656 -13.957031 15.984375 -15.03125 C 17.023438 -16.125 17.546875 -17.46875 17.546875 -19.0625 C 17.546875 -20.632812 17.050781 -21.941406 16.0625 -22.984375 C 15.082031 -23.992188 13.765625 -24.5 12.109375 -24.5 L 5.796875 -24.5 Z M 20.34375 -18.984375 C 20.34375 -16.609375 19.503906 -14.632812 17.828125 -13.0625 C 16.335938 -11.675781 14.539062 -10.921875 12.4375 -10.796875 L 20.78125 0 L 17.03125 0 L 9.078125 -10.75 L 5.796875 -10.75 L 5.796875 0 L 3 0 L 3 -27.171875 L 11.703125 -27.171875 C 14.128906 -27.171875 16.171875 -26.414062 17.828125 -24.90625 C 19.503906 -23.300781 20.34375 -21.328125 20.34375 -18.984375 Z M 20.34375 -18.984375 "/></g></g></g><g fill="#ffffff" fill-opacity="1"><g transform="translate(518.300981, 195.240801)"><g><path d="M 5.5625 -2.515625 C 6.25 -2.035156 7.15625 -1.796875 8.28125 -1.796875 C 10.832031 -1.796875 12.109375 -2.753906 12.109375 -4.671875 C 12.109375 -5.796875 11.191406 -6.648438 9.359375 -7.234375 C 8.578125 -7.503906 7.75 -7.742188 6.875 -7.953125 C 5.96875 -8.171875 5.128906 -8.453125 4.359375 -8.796875 C 3.453125 -9.222656 2.769531 -9.753906 2.3125 -10.390625 C 1.863281 -11.023438 1.640625 -11.785156 1.640625 -12.671875 C 1.640625 -14.429688 2.253906 -15.75 3.484375 -16.625 C 4.703125 -17.53125 6.164062 -17.984375 7.875 -17.984375 C 9.582031 -17.984375 10.992188 -17.640625 12.109375 -16.953125 C 13.234375 -16.253906 13.992188 -15.015625 14.390625 -13.234375 L 11.390625 -13.234375 C 11.066406 -14.210938 10.597656 -14.863281 9.984375 -15.1875 C 9.398438 -15.507812 8.671875 -15.671875 7.796875 -15.671875 C 6.910156 -15.671875 6.164062 -15.484375 5.5625 -15.109375 C 4.914062 -14.710938 4.59375 -14.125 4.59375 -13.34375 C 4.59375 -12.550781 4.859375 -11.96875 5.390625 -11.59375 C 5.898438 -11.25 6.539062 -10.941406 7.3125 -10.671875 C 8.082031 -10.429688 8.921875 -10.21875 9.828125 -10.03125 C 10.710938 -9.820312 11.550781 -9.53125 12.34375 -9.15625 C 14.15625 -8.300781 15.0625 -6.925781 15.0625 -5.03125 C 15.0625 -3.144531 14.382812 -1.75 13.03125 -0.84375 C 12.332031 -0.382812 11.570312 -0.0351562 10.75 0.203125 C 9.945312 0.410156 9.066406 0.515625 8.109375 0.515625 C 4.035156 0.515625 1.691406 -1.296875 1.078125 -4.921875 L 4.03125 -4.921875 C 4.320312 -3.773438 4.832031 -2.972656 5.5625 -2.515625 Z M 5.5625 -2.515625 "/></g></g></g><g fill="#ffffff" fill-opacity="1"><g transform="translate(534.368336, 195.240801)"><g><path d="M 5.3125 0.40625 C 4.695312 0.40625 4.164062 0.175781 3.71875 -0.28125 C 3.238281 -0.707031 3 -1.226562 3 -1.84375 C 3 -2.457031 3.222656 -2.988281 3.671875 -3.4375 C 4.128906 -3.882812 4.675781 -4.109375 5.3125 -4.109375 C 5.957031 -4.109375 6.519531 -3.898438 7 -3.484375 C 7.445312 -3.023438 7.671875 -2.488281 7.671875 -1.875 C 7.671875 -1.238281 7.429688 -0.707031 6.953125 -0.28125 C 6.472656 0.175781 5.925781 0.40625 5.3125 0.40625 Z M 5.3125 0.40625 "/></g></g></g><g fill="#ffffff" fill-opacity="1"><g transform="translate(545.039941, 195.240801)"><g><path d="M 10.3125 -14.828125 C 9.4375 -14.828125 8.609375 -14.664062 7.828125 -14.34375 C 7.054688 -14 6.378906 -13.546875 5.796875 -12.984375 C 4.546875 -11.785156 3.921875 -10.335938 3.921875 -8.640625 C 3.921875 -6.898438 4.546875 -5.429688 5.796875 -4.234375 C 7.078125 -2.984375 8.566406 -2.359375 10.265625 -2.359375 C 12.023438 -2.359375 13.503906 -2.957031 14.703125 -4.15625 C 15.929688 -5.382812 16.546875 -6.835938 16.546875 -8.515625 C 16.546875 -10.222656 15.945312 -11.703125 14.75 -12.953125 C 13.519531 -14.203125 12.039062 -14.828125 10.3125 -14.828125 Z M 19.390625 -8.71875 C 19.390625 -7.382812 19.148438 -6.171875 18.671875 -5.078125 C 18.191406 -3.984375 17.535156 -3.023438 16.703125 -2.203125 C 14.941406 -0.441406 12.785156 0.4375 10.234375 0.4375 C 7.722656 0.4375 5.5625 -0.453125 3.75 -2.234375 C 1.96875 -3.972656 1.078125 -6.109375 1.078125 -8.640625 C 1.078125 -10.816406 1.757812 -12.71875 3.125 -14.34375 L 13.75 -27.171875 L 17.421875 -27.171875 L 9.109375 -17.1875 L 9.90625 -17.703125 C 12.625 -17.597656 14.851562 -16.757812 16.59375 -15.1875 C 18.457031 -13.507812 19.390625 -11.351562 19.390625 -8.71875 Z M 19.390625 -8.71875 "/></g></g></g><g fill="#ffffff" fill-opacity="1"><g transform="translate(565.503841, 195.240801)"><g><path d="M 20.21875 -29.96875 L 4.71875 8.03125 L 1.71875 8.03125 L 17.21875 -29.96875 Z M 20.21875 -29.96875 "/></g></g></g><g fill="#ffffff" fill-opacity="1"><g transform="translate(587.00693, 195.240801)"><g><path d="M 15.140625 -3 C 13.835938 -0.757812 11.878906 0.359375 9.265625 0.359375 C 7.296875 0.359375 5.753906 -0.289062 4.640625 -1.59375 C 3.546875 -2.90625 3 -4.570312 3 -6.59375 L 3 -17.59375 L 5.796875 -17.59375 L 5.796875 -6.59375 C 5.796875 -5.445312 6.0625 -4.472656 6.59375 -3.671875 C 7.101562 -2.847656 7.957031 -2.4375 9.15625 -2.4375 C 11.34375 -2.4375 12.890625 -3.128906 13.796875 -4.515625 C 14.691406 -5.878906 15.140625 -7.785156 15.140625 -10.234375 L 15.140625 -17.59375 L 17.953125 -17.59375 L 17.953125 0 L 15.140625 0 Z M 15.140625 -3 "/></g></g></g><g fill="#ffffff" fill-opacity="1"><g transform="translate(607.350933, 195.240801)"><g><path d="M 15.140625 0 L 15.140625 -10.984375 C 15.140625 -12.128906 14.890625 -13.117188 14.390625 -13.953125 C 13.859375 -14.742188 12.992188 -15.140625 11.796875 -15.140625 C 10.585938 -15.140625 9.613281 -14.914062 8.875 -14.46875 C 8.125 -14.019531 7.523438 -13.429688 7.078125 -12.703125 C 6.222656 -11.378906 5.796875 -9.597656 5.796875 -7.359375 L 5.796875 0 L 3 0 L 3 -17.59375 L 5.796875 -17.59375 L 5.796875 -14.546875 C 6.378906 -15.535156 7.125 -16.347656 8.03125 -16.984375 C 8.988281 -17.628906 10.09375 -17.953125 11.34375 -17.953125 C 12.601562 -17.953125 13.617188 -17.773438 14.390625 -17.421875 C 15.160156 -17.046875 15.8125 -16.554688 16.34375 -15.953125 C 17.414062 -14.691406 17.953125 -13.035156 17.953125 -10.984375 L 17.953125 0 Z M 15.140625 0 "/></g></g></g><g fill="#ffffff" fill-opacity="1"><g transform="translate(627.694936, 195.240801)"><g><path d="M 5.828125 -23.65625 C 6.179688 -23.3125 6.359375 -22.898438 6.359375 -22.421875 C 6.359375 -21.910156 6.179688 -21.484375 5.828125 -21.140625 C 5.484375 -20.796875 5.070312 -20.625 4.59375 -20.625 C 4.09375 -20.625 3.664062 -20.796875 3.3125 -21.140625 C 2.96875 -21.484375 2.796875 -21.910156 2.796875 -22.421875 C 2.796875 -22.898438 2.96875 -23.3125 3.3125 -23.65625 C 3.664062 -24.007812 4.09375 -24.1875 4.59375 -24.1875 C 5.070312 -24.1875 5.484375 -24.007812 5.828125 -23.65625 Z M 6 0 L 3.203125 0 L 3.203125 -17.59375 L 6 -17.59375 Z M 6 0 "/></g></g></g><g fill="#ffffff" fill-opacity="1"><g transform="translate(636.847763, 195.240801)"><g><path d="M 0.796875 -14.984375 L 0.796875 -17.59375 L 5.203125 -17.59375 L 5.203125 -24.421875 L 8 -24.421875 L 8 -17.59375 L 12.34375 -17.59375 L 12.34375 -14.984375 L 8 -14.984375 L 8 0 L 5.203125 0 L 5.203125 -14.984375 Z M 0.796875 -14.984375 "/></g></g></g><g fill="#ffffff" fill-opacity="1"><g transform="translate(650.00821, 195.240801)"><g/></g></g></svg>