<svg xmlns="http://www.w3.org/2000/svg" xmlns:xlink="http://www.w3.org/1999/xlink" width="957" zoomAndPan="magnify" viewBox="0 0 717.75 363.749991" height="485" preserveAspectRatio="xMidYMid meet" version="1.0"><defs><g/><clipPath id="c9ac660259"><path d="M 36.472656 127.226562 L 681 127.226562 L 681 236.273438 L 36.472656 236.273438 Z M 36.472656 127.226562 " clip-rule="nonzero"/></clipPath><clipPath id="1b0bac9aeb"><path d="M 90.996094 127.226562 L 626.503906 127.226562 C 656.617188 127.226562 681.027344 151.636719 681.027344 181.75 C 681.027344 211.863281 656.617188 236.273438 626.503906 236.273438 L 90.996094 236.273438 C 60.882812 236.273438 36.472656 211.863281 36.472656 181.75 C 36.472656 151.636719 60.882812 127.226562 90.996094 127.226562 Z M 90.996094 127.226562 " clip-rule="nonzero"/></clipPath></defs><g clip-path="url(#c9ac660259)"><g clip-path="url(#1b0bac9aeb)"><path fill="#00bf63" d="M 36.472656 127.226562 L 680.972656 127.226562 L 680.972656 236.273438 L 36.472656 236.273438 Z M 36.472656 127.226562 " fill-opacity="1" fill-rule="nonzero"/></g></g><g fill="#ffffff" fill-opacity="1"><g transform="translate(183.63607, 195.240801)"><g><path d="M 15.953125 -24.140625 L 5.5625 -8.4375 L 15.953125 -8.4375 Z M 18.859375 -5.5625 L 18.859375 0 L 15.953125 0 L 15.953125 -5.5625 L 0.59375 -5.5625 L 14.90625 -27.171875 L 18.828125 -27.171875 L 18.859375 -8.4375 L 22.296875 -8.4375 L 22.296875 -5.5625 Z M 18.859375 -5.5625 "/></g></g></g><g fill="#ffffff" fill-opacity="1"><g transform="translate(207.817043, 195.240801)"><g/></g></g><g fill="#ffffff" fill-opacity="1"><g transform="translate(218.608556, 195.240801)"><g><path d="M 5.234375 9.984375 L 1.84375 9.984375 L 7.75 -2.875 L 0.40625 -17.59375 L 3.59375 -17.59375 L 9.234375 -5.796875 L 14.265625 -17.59375 L 17.390625 -17.59375 Z M 5.234375 9.984375 "/></g></g></g><g fill="#ffffff" fill-opacity="1"><g transform="translate(235.59519, 195.240801)"><g><path d="M 20.1875 -9.1875 L 20.1875 -7.71875 L 4.71875 -7.71875 C 4.976562 -6.195312 5.710938 -4.957031 6.921875 -4 C 8.140625 -3.007812 9.492188 -2.515625 10.984375 -2.515625 C 12.003906 -2.515625 12.976562 -2.753906 13.90625 -3.234375 C 14.8125 -3.691406 15.570312 -4.332031 16.1875 -5.15625 L 19.390625 -5.15625 C 18.640625 -3.476562 17.519531 -2.160156 16.03125 -1.203125 C 14.507812 -0.210938 12.976562 0.28125 11.4375 0.28125 C 9.863281 0.28125 8.53125 0.0390625 7.4375 -0.4375 C 6.3125 -0.914062 5.335938 -1.566406 4.515625 -2.390625 C 2.703125 -4.148438 1.796875 -6.3125 1.796875 -8.875 C 1.796875 -11.40625 2.703125 -13.578125 4.515625 -15.390625 C 6.296875 -17.171875 8.453125 -18.0625 10.984375 -18.0625 C 13.441406 -18.0625 15.585938 -17.195312 17.421875 -15.46875 C 19.265625 -13.707031 20.1875 -11.613281 20.1875 -9.1875 Z M 17.21875 -10.109375 C 16.90625 -11.597656 16.160156 -12.835938 14.984375 -13.828125 C 13.816406 -14.785156 12.484375 -15.265625 10.984375 -15.265625 C 8.691406 -15.265625 6.894531 -14.238281 5.59375 -12.1875 C 5.195312 -11.550781 4.914062 -10.859375 4.75 -10.109375 Z M 17.21875 -10.109375 "/></g></g></g><g fill="#ffffff" fill-opacity="1"><g transform="translate(257.378054, 195.240801)"><g><path d="M 16.984375 -8.796875 C 16.984375 -10.492188 16.398438 -11.984375 15.234375 -13.265625 C 14.023438 -14.546875 12.546875 -15.1875 10.796875 -15.1875 C 9.035156 -15.1875 7.566406 -14.546875 6.390625 -13.265625 C 5.191406 -11.984375 4.59375 -10.492188 4.59375 -8.796875 C 4.59375 -7.085938 5.191406 -5.59375 6.390625 -4.3125 C 7.566406 -3.03125 9.035156 -2.390625 10.796875 -2.390625 C 12.546875 -2.390625 14.023438 -3.03125 15.234375 -4.3125 C 16.398438 -5.59375 16.984375 -7.085938 16.984375 -8.796875 Z M 19.78125 0 L 16.984375 0 L 16.984375 -3 C 16.828125 -2.78125 16.664062 -2.578125 16.5 -2.390625 C 14.820312 -0.523438 12.773438 0.40625 10.359375 0.40625 C 7.929688 0.40625 5.890625 -0.523438 4.234375 -2.390625 C 2.609375 -4.203125 1.796875 -6.335938 1.796875 -8.796875 C 1.796875 -11.242188 2.609375 -13.375 4.234375 -15.1875 C 5.890625 -17.050781 7.929688 -17.984375 10.359375 -17.984375 C 12.773438 -17.984375 14.820312 -17.050781 16.5 -15.1875 C 16.664062 -15 16.828125 -14.800781 16.984375 -14.59375 L 16.984375 -17.59375 L 19.78125 -17.59375 Z M 19.78125 0 "/></g></g></g><g fill="#ffffff" fill-opacity="1"><g transform="translate(280.160136, 195.240801)"><g><path d="M 12.03125 -13.953125 C 11.394531 -14.535156 10.703125 -14.828125 9.953125 -14.828125 C 9.234375 -14.828125 8.617188 -14.628906 8.109375 -14.234375 C 7.578125 -13.804688 7.140625 -13.296875 6.796875 -12.703125 C 6.128906 -11.535156 5.796875 -10.234375 5.796875 -8.796875 L 5.796875 0 L 3 0 L 3 -17.59375 L 5.796875 -17.59375 L 5.796875 -13.953125 L 5.921875 -14.671875 C 6.847656 -16.859375 8.296875 -17.953125 10.265625 -17.953125 C 10.878906 -17.953125 11.46875 -17.832031 12.03125 -17.59375 Z M 12.03125 -13.953125 "/></g></g></g><g fill="#ffffff" fill-opacity="1"><g transform="translate(292.590359, 195.240801)"><g><path d="M 5.5625 -2.515625 C 6.25 -2.035156 7.15625 -1.796875 8.28125 -1.796875 C 10.832031 -1.796875 12.109375 -2.753906 12.109375 -4.671875 C 12.109375 -5.796875 11.191406 -6.648438 9.359375 -7.234375 C 8.578125 -7.503906 7.75 -7.742188 6.875 -7.953125 C 5.96875 -8.171875 5.128906 -8.453125 4.359375 -8.796875 C 3.453125 -9.222656 2.769531 -9.753906 2.3125 -10.390625 C 1.863281 -11.023438 1.640625 -11.785156 1.640625 -12.671875 C 1.640625 -14.429688 2.253906 -15.75 3.484375 -16.625 C 4.703125 -17.53125 6.164062 -17.984375 7.875 -17.984375 C 9.582031 -17.984375 10.992188 -17.640625 12.109375 -16.953125 C 13.234375 -16.253906 13.992188 -15.015625 14.390625 -13.234375 L 11.390625 -13.234375 C 11.066406 -14.210938 10.597656 -14.863281 9.984375 -15.1875 C 9.398438 -15.507812 8.671875 -15.671875 7.796875 -15.671875 C 6.910156 -15.671875 6.164062 -15.484375 5.5625 -15.109375 C 4.914062 -14.710938 4.59375 -14.125 4.59375 -13.34375 C 4.59375 -12.550781 4.859375 -11.96875 5.390625 -11.59375 C 5.898438 -11.25 6.539062 -10.941406 7.3125 -10.671875 C 8.082031 -10.429688 8.921875 -10.21875 9.828125 -10.03125 C 10.710938 -9.820312 11.550781 -9.53125 12.34375 -9.15625 C 14.15625 -8.300781 15.0625 -6.925781 15.0625 -5.03125 C 15.0625 -3.144531 14.382812 -1.75 13.03125 -0.84375 C 12.332031 -0.382812 11.570312 -0.0351562 10.75 0.203125 C 9.945312 0.410156 9.066406 0.515625 8.109375 0.515625 C 4.035156 0.515625 1.691406 -1.296875 1.078125 -4.921875 L 4.03125 -4.921875 C 4.320312 -3.773438 4.832031 -2.972656 5.5625 -2.515625 Z M 5.5625 -2.515625 "/></g></g></g><g fill="#ffffff" fill-opacity="1"><g transform="translate(308.657714, 195.240801)"><g/></g></g><g fill="#ffffff" fill-opacity="1"><g transform="translate(319.449228, 195.240801)"><g><path d="M 16.984375 -8.796875 C 16.984375 -10.492188 16.398438 -11.984375 15.234375 -13.265625 C 14.023438 -14.546875 12.546875 -15.1875 10.796875 -15.1875 C 9.035156 -15.1875 7.566406 -14.546875 6.390625 -13.265625 C 5.191406 -11.984375 4.59375 -10.492188 4.59375 -8.796875 C 4.59375 -7.085938 5.191406 -5.59375 6.390625 -4.3125 C 7.566406 -3.03125 9.035156 -2.390625 10.796875 -2.390625 C 12.546875 -2.390625 14.023438 -3.03125 15.234375 -4.3125 C 16.398438 -5.59375 16.984375 -7.085938 16.984375 -8.796875 Z M 19.78125 0 L 16.984375 0 L 16.984375 -3 C 16.828125 -2.78125 16.664062 -2.578125 16.5 -2.390625 C 14.820312 -0.523438 12.773438 0.40625 10.359375 0.40625 C 7.929688 0.40625 5.890625 -0.523438 4.234375 -2.390625 C 2.609375 -4.203125 1.796875 -6.335938 1.796875 -8.796875 C 1.796875 -11.242188 2.609375 -13.375 4.234375 -15.1875 C 5.890625 -17.050781 7.929688 -17.984375 10.359375 -17.984375 C 12.773438 -17.984375 14.820312 -17.050781 16.5 -15.1875 C 16.664062 -15 16.828125 -14.800781 16.984375 -14.59375 L 16.984375 -17.59375 L 19.78125 -17.59375 Z M 19.78125 0 "/></g></g></g><g fill="#ffffff" fill-opacity="1"><g transform="translate(342.231309, 195.240801)"><g><path d="M 8.515625 1.671875 L 0.40625 -17.59375 L 3.4375 -17.59375 L 8.515625 -4.515625 L 13.546875 -17.59375 L 16.59375 -17.59375 Z M 8.515625 1.671875 "/></g></g></g><g fill="#ffffff" fill-opacity="1"><g transform="translate(359.217943, 195.240801)"><g><path d="M 20.1875 -9.1875 L 20.1875 -7.71875 L 4.71875 -7.71875 C 4.976562 -6.195312 5.710938 -4.957031 6.921875 -4 C 8.140625 -3.007812 9.492188 -2.515625 10.984375 -2.515625 C 12.003906 -2.515625 12.976562 -2.753906 13.90625 -3.234375 C 14.8125 -3.691406 15.570312 -4.332031 16.1875 -5.15625 L 19.390625 -5.15625 C 18.640625 -3.476562 17.519531 -2.160156 16.03125 -1.203125 C 14.507812 -0.210938 12.976562 0.28125 11.4375 0.28125 C 9.863281 0.28125 8.53125 0.0390625 7.4375 -0.4375 C 6.3125 -0.914062 5.335938 -1.566406 4.515625 -2.390625 C 2.703125 -4.148438 1.796875 -6.3125 1.796875 -8.875 C 1.796875 -11.40625 2.703125 -13.578125 4.515625 -15.390625 C 6.296875 -17.171875 8.453125 -18.0625 10.984375 -18.0625 C 13.441406 -18.0625 15.585938 -17.195312 17.421875 -15.46875 C 19.265625 -13.707031 20.1875 -11.613281 20.1875 -9.1875 Z M 17.21875 -10.109375 C 16.90625 -11.597656 16.160156 -12.835938 14.984375 -13.828125 C 13.816406 -14.785156 12.484375 -15.265625 10.984375 -15.265625 C 8.691406 -15.265625 6.894531 -14.238281 5.59375 -12.1875 C 5.195312 -11.550781 4.914062 -10.859375 4.75 -10.109375 Z M 17.21875 -10.109375 "/></g></g></g><g fill="#ffffff" fill-opacity="1"><g transform="translate(381.000807, 195.240801)"><g><path d="M 12.03125 -13.953125 C 11.394531 -14.535156 10.703125 -14.828125 9.953125 -14.828125 C 9.234375 -14.828125 8.617188 -14.628906 8.109375 -14.234375 C 7.578125 -13.804688 7.140625 -13.296875 6.796875 -12.703125 C 6.128906 -11.535156 5.796875 -10.234375 5.796875 -8.796875 L 5.796875 0 L 3 0 L 3 -17.59375 L 5.796875 -17.59375 L 5.796875 -13.953125 L 5.921875 -14.671875 C 6.847656 -16.859375 8.296875 -17.953125 10.265625 -17.953125 C 10.878906 -17.953125 11.46875 -17.832031 12.03125 -17.59375 Z M 12.03125 -13.953125 "/></g></g></g><g fill="#ffffff" fill-opacity="1"><g transform="translate(393.43103, 195.240801)"><g><path d="M 16.984375 -8.796875 C 16.984375 -10.492188 16.398438 -11.984375 15.234375 -13.265625 C 14.023438 -14.546875 12.546875 -15.1875 10.796875 -15.1875 C 9.035156 -15.1875 7.566406 -14.546875 6.390625 -13.265625 C 5.191406 -11.984375 4.59375 -10.492188 4.59375 -8.796875 C 4.59375 -7.085938 5.191406 -5.59375 6.390625 -4.3125 C 7.566406 -3.03125 9.035156 -2.390625 10.796875 -2.390625 C 12.546875 -2.390625 14.023438 -3.03125 15.234375 -4.3125 C 16.398438 -5.59375 16.984375 -7.085938 16.984375 -8.796875 Z M 19.78125 0 L 16.984375 0 L 16.984375 -3 C 16.828125 -2.78125 16.664062 -2.578125 16.5 -2.390625 C 14.820312 -0.523438 12.773438 0.40625 10.359375 0.40625 C 7.929688 0.40625 5.890625 -0.523438 4.234375 -2.390625 C 2.609375 -4.203125 1.796875 -6.335938 1.796875 -8.796875 C 1.796875 -11.242188 2.609375 -13.375 4.234375 -15.1875 C 5.890625 -17.050781 7.929688 -17.984375 10.359375 -17.984375 C 12.773438 -17.984375 14.820312 -17.050781 16.5 -15.1875 C 16.664062 -15 16.828125 -14.800781 16.984375 -14.59375 L 16.984375 -17.59375 L 19.78125 -17.59375 Z M 19.78125 0 "/></g></g></g><g fill="#ffffff" fill-opacity="1"><g transform="translate(416.2131, 195.240801)"><g><path d="M 17.21875 -8.796875 C 17.21875 -10.492188 16.632812 -11.984375 15.46875 -13.265625 C 14.269531 -14.546875 12.789062 -15.1875 11.03125 -15.1875 C 9.320312 -15.1875 7.859375 -14.546875 6.640625 -13.265625 C 5.441406 -12.015625 4.84375 -10.523438 4.84375 -8.796875 C 4.84375 -7.054688 5.441406 -5.5625 6.640625 -4.3125 C 7.859375 -3.03125 9.320312 -2.390625 11.03125 -2.390625 C 12.789062 -2.390625 14.269531 -3.03125 15.46875 -4.3125 C 16.632812 -5.59375 17.21875 -7.085938 17.21875 -8.796875 Z M 4.75 2.390625 C 5.019531 3.484375 5.59375 4.457031 6.46875 5.3125 C 7.695312 6.5625 9.175781 7.1875 10.90625 7.1875 C 12.644531 7.1875 14.140625 6.5625 15.390625 5.3125 C 16.609375 4.09375 17.21875 2.613281 17.21875 0.875 L 17.21875 -2.953125 C 17.09375 -2.765625 16.945312 -2.578125 16.78125 -2.390625 C 15.101562 -0.523438 13.050781 0.40625 10.625 0.40625 C 8.175781 0.40625 6.125 -0.523438 4.46875 -2.390625 C 2.84375 -4.203125 2.03125 -6.335938 2.03125 -8.796875 C 2.03125 -11.242188 2.84375 -13.375 4.46875 -15.1875 C 6.125 -17.050781 8.175781 -17.984375 10.625 -17.984375 C 12.976562 -17.984375 15.03125 -17.050781 16.78125 -15.1875 C 16.945312 -15 17.09375 -14.8125 17.21875 -14.625 L 17.21875 -17.59375 L 20.03125 -17.59375 L 20.03125 0.875 C 20.03125 3.382812 19.132812 5.53125 17.34375 7.3125 C 15.5625 9.09375 13.414062 9.984375 10.90625 9.984375 C 8.40625 9.984375 6.257812 9.09375 4.46875 7.3125 C 3.0625 5.90625 2.210938 4.265625 1.921875 2.390625 Z M 4.75 2.390625 "/></g></g></g><g fill="#ffffff" fill-opacity="1"><g transform="translate(439.234988, 195.240801)"><g><path d="M 20.1875 -9.1875 L 20.1875 -7.71875 L 4.71875 -7.71875 C 4.976562 -6.195312 5.710938 -4.957031 6.921875 -4 C 8.140625 -3.007812 9.492188 -2.515625 10.984375 -2.515625 C 12.003906 -2.515625 12.976562 -2.753906 13.90625 -3.234375 C 14.8125 -3.691406 15.570312 -4.332031 16.1875 -5.15625 L 19.390625 -5.15625 C 18.640625 -3.476562 17.519531 -2.160156 16.03125 -1.203125 C 14.507812 -0.210938 12.976562 0.28125 11.4375 0.28125 C 9.863281 0.28125 8.53125 0.0390625 7.4375 -0.4375 C 6.3125 -0.914062 5.335938 -1.566406 4.515625 -2.390625 C 2.703125 -4.148438 1.796875 -6.3125 1.796875 -8.875 C 1.796875 -11.40625 2.703125 -13.578125 4.515625 -15.390625 C 6.296875 -17.171875 8.453125 -18.0625 10.984375 -18.0625 C 13.441406 -18.0625 15.585938 -17.195312 17.421875 -15.46875 C 19.265625 -13.707031 20.1875 -11.613281 20.1875 -9.1875 Z M 17.21875 -10.109375 C 16.90625 -11.597656 16.160156 -12.835938 14.984375 -13.828125 C 13.816406 -14.785156 12.484375 -15.265625 10.984375 -15.265625 C 8.691406 -15.265625 6.894531 -14.238281 5.59375 -12.1875 C 5.195312 -11.550781 4.914062 -10.859375 4.75 -10.109375 Z M 17.21875 -10.109375 "/></g></g></g><g fill="#ffffff" fill-opacity="1"><g transform="translate(461.017852, 195.240801)"><g/></g></g><g fill="#ffffff" fill-opacity="1"><g transform="translate(471.809377, 195.240801)"><g><path d="M 5.796875 -13.421875 L 12.109375 -13.421875 C 13.679688 -13.421875 14.972656 -13.957031 15.984375 -15.03125 C 17.023438 -16.125 17.546875 -17.46875 17.546875 -19.0625 C 17.546875 -20.632812 17.050781 -21.941406 16.0625 -22.984375 C 15.082031 -23.992188 13.765625 -24.5 12.109375 -24.5 L 5.796875 -24.5 Z M 20.34375 -18.984375 C 20.34375 -16.609375 19.503906 -14.632812 17.828125 -13.0625 C 16.335938 -11.675781 14.539062 -10.921875 12.4375 -10.796875 L 20.78125 0 L 17.03125 0 L 9.078125 -10.75 L 5.796875 -10.75 L 5.796875 0 L 3 0 L 3 -27.171875 L 11.703125 -27.171875 C 14.128906 -27.171875 16.171875 -26.414062 17.828125 -24.90625 C 19.503906 -23.300781 20.34375 -21.328125 20.34375 -18.984375 Z M 20.34375 -18.984375 "/></g></g></g><g fill="#ffffff" fill-opacity="1"><g transform="translate(493.55226, 195.240801)"><g><path d="M 26.9375 -13.671875 C 26.9375 -16.734375 25.84375 -19.359375 23.65625 -21.546875 C 21.476562 -23.734375 18.84375 -24.828125 15.75 -24.828125 C 12.6875 -24.828125 10.0625 -23.734375 7.875 -21.546875 C 5.6875 -19.359375 4.59375 -16.734375 4.59375 -13.671875 C 4.59375 -10.578125 5.6875 -7.9375 7.875 -5.75 C 10.0625 -3.570312 12.6875 -2.484375 15.75 -2.484375 C 18.84375 -2.484375 21.476562 -3.570312 23.65625 -5.75 C 25.84375 -7.9375 26.9375 -10.578125 26.9375 -13.671875 Z M 29.734375 -13.671875 C 29.734375 -11.753906 29.375 -9.941406 28.65625 -8.234375 C 27.90625 -6.523438 26.90625 -5.046875 25.65625 -3.796875 C 24.375 -2.515625 22.882812 -1.515625 21.1875 -0.796875 C 19.476562 -0.0546875 17.664062 0.3125 15.75 0.3125 C 13.832031 0.3125 12.035156 -0.0546875 10.359375 -0.796875 C 8.648438 -1.515625 7.171875 -2.515625 5.921875 -3.796875 C 4.640625 -5.046875 3.640625 -6.523438 2.921875 -8.234375 C 2.171875 -9.941406 1.796875 -11.753906 1.796875 -13.671875 C 1.796875 -15.585938 2.171875 -17.398438 2.921875 -19.109375 C 3.640625 -20.804688 4.640625 -22.285156 5.921875 -23.546875 C 7.171875 -24.796875 8.648438 -25.796875 10.359375 -26.546875 C 12.035156 -27.265625 13.832031 -27.625 15.75 -27.625 C 17.664062 -27.625 19.476562 -27.265625 21.1875 -26.546875 C 22.882812 -25.796875 24.375 -24.796875 25.65625 -23.546875 C 26.90625 -22.285156 27.90625 -20.804688 28.65625 -19.109375 C 29.375 -17.398438 29.734375 -15.585938 29.734375 -13.671875 Z M 29.734375 -13.671875 "/></g></g></g><g fill="#ffffff" fill-opacity="1"><g transform="translate(525.087439, 195.240801)"><g><path d="M 5.796875 0 L 3 0 L 3 -27.171875 L 5.796875 -27.171875 Z M 5.796875 0 "/></g></g></g></svg>