<svg xmlns="http://www.w3.org/2000/svg" xmlns:xlink="http://www.w3.org/1999/xlink" width="957" zoomAndPan="magnify" viewBox="0 0 717.75 363.749991" height="485" preserveAspectRatio="xMidYMid meet" version="1.0"><defs><g/></defs><g fill="#00bf63" fill-opacity="1"><g transform="translate(172.981924, 195.240801)"><g><path d="M 10.546875 -12.828125 C 5.003906 -14.109375 2.234375 -16.476562 2.234375 -19.9375 C 2.234375 -22.5 3.128906 -24.421875 4.921875 -25.703125 C 6.703125 -26.953125 8.789062 -27.578125 11.1875 -27.578125 C 16.488281 -27.578125 19.632812 -25.601562 20.625 -21.65625 L 17.59375 -21.65625 C 17.050781 -24.007812 14.914062 -25.1875 11.1875 -25.1875 C 8.582031 -25.1875 6.757812 -24.410156 5.71875 -22.859375 C 5.3125 -22.273438 5.109375 -21.539062 5.109375 -20.65625 C 5.109375 -18.976562 6.015625 -17.6875 7.828125 -16.78125 C 8.679688 -16.332031 10.492188 -15.75 13.265625 -15.03125 C 16.035156 -14.3125 18.050781 -13.507812 19.3125 -12.625 C 21.039062 -11.40625 21.90625 -9.6875 21.90625 -7.46875 C 21.90625 -4.726562 20.828125 -2.648438 18.671875 -1.234375 C 16.859375 -0.0664062 14.617188 0.515625 11.953125 0.515625 C 5.929688 0.515625 2.441406 -1.773438 1.484375 -6.359375 L 4.796875 -6.359375 C 5.304688 -3.472656 7.691406 -2.03125 11.953125 -2.03125 C 14.984375 -2.03125 17.101562 -2.875 18.3125 -4.5625 C 18.789062 -5.226562 19.03125 -6.132812 19.03125 -7.28125 C 19.03125 -8.394531 18.585938 -9.3125 17.703125 -10.03125 C 16.453125 -11.039062 14.066406 -11.972656 10.546875 -12.828125 Z M 10.546875 -12.828125 "/></g></g></g><g fill="#00bf63" fill-opacity="1"><g transform="translate(195.923873, 195.240801)"><g><path d="M 17.390625 -8.875 C 17.390625 -10.632812 16.765625 -12.140625 15.515625 -13.390625 C 14.253906 -14.640625 12.742188 -15.265625 10.984375 -15.265625 C 9.234375 -15.265625 7.726562 -14.640625 6.46875 -13.390625 C 5.21875 -12.140625 4.59375 -10.632812 4.59375 -8.875 C 4.59375 -7.144531 5.21875 -5.648438 6.46875 -4.390625 C 7.726562 -3.140625 9.234375 -2.515625 10.984375 -2.515625 C 12.742188 -2.515625 14.253906 -3.140625 15.515625 -4.390625 C 16.765625 -5.648438 17.390625 -7.144531 17.390625 -8.875 Z M 20.1875 -8.875 C 20.1875 -6.3125 19.289062 -4.148438 17.5 -2.390625 C 15.664062 -0.609375 13.492188 0.28125 10.984375 0.28125 C 8.484375 0.28125 6.328125 -0.609375 4.515625 -2.390625 C 2.703125 -4.148438 1.796875 -6.3125 1.796875 -8.875 C 1.796875 -11.40625 2.703125 -13.578125 4.515625 -15.390625 C 6.296875 -17.171875 8.453125 -18.0625 10.984375 -18.0625 C 13.515625 -18.0625 15.6875 -17.171875 17.5 -15.390625 C 19.289062 -13.578125 20.1875 -11.40625 20.1875 -8.875 Z M 20.1875 -8.875 "/></g></g></g><g fill="#00bf63" fill-opacity="1"><g transform="translate(217.906573, 195.240801)"><g><path d="M 5.796875 0 L 3 0 L 3 -29.96875 L 5.796875 -29.96875 Z M 5.796875 0 "/></g></g></g><g fill="#00bf63" fill-opacity="1"><g transform="translate(226.699651, 195.240801)"><g><path d="M 16.984375 -8.796875 C 16.984375 -10.492188 16.398438 -11.984375 15.234375 -13.265625 C 14.023438 -14.546875 12.546875 -15.1875 10.796875 -15.1875 C 9.035156 -15.1875 7.566406 -14.546875 6.390625 -13.265625 C 5.191406 -11.984375 4.59375 -10.492188 4.59375 -8.796875 C 4.59375 -7.085938 5.191406 -5.59375 6.390625 -4.3125 C 7.566406 -3.03125 9.035156 -2.390625 10.796875 -2.390625 C 12.546875 -2.390625 14.023438 -3.03125 15.234375 -4.3125 C 16.398438 -5.59375 16.984375 -7.085938 16.984375 -8.796875 Z M 19.78125 0 L 16.984375 0 L 16.984375 -3 C 16.828125 -2.78125 16.664062 -2.578125 16.5 -2.390625 C 14.820312 -0.523438 12.773438 0.40625 10.359375 0.40625 C 7.929688 0.40625 5.890625 -0.523438 4.234375 -2.390625 C 2.609375 -4.203125 1.796875 -6.335938 1.796875 -8.796875 C 1.796875 -11.242188 2.609375 -13.375 4.234375 -15.1875 C 5.890625 -17.050781 7.929688 -17.984375 10.359375 -17.984375 C 12.773438 -17.984375 14.820312 -17.050781 16.5 -15.1875 C 16.664062 -15 16.828125 -14.800781 16.984375 -14.59375 L 16.984375 -17.59375 L 19.78125 -17.59375 Z M 19.78125 0 "/></g></g></g><g fill="#00bf63" fill-opacity="1"><g transform="translate(249.481733, 195.240801)"><g><path d="M 12.03125 -13.953125 C 11.394531 -14.535156 10.703125 -14.828125 9.953125 -14.828125 C 9.234375 -14.828125 8.617188 -14.628906 8.109375 -14.234375 C 7.578125 -13.804688 7.140625 -13.296875 6.796875 -12.703125 C 6.128906 -11.535156 5.796875 -10.234375 5.796875 -8.796875 L 5.796875 0 L 3 0 L 3 -17.59375 L 5.796875 -17.59375 L 5.796875 -13.953125 L 5.921875 -14.671875 C 6.847656 -16.859375 8.296875 -17.953125 10.265625 -17.953125 C 10.878906 -17.953125 11.46875 -17.832031 12.03125 -17.59375 Z M 12.03125 -13.953125 "/></g></g></g><g fill="#00bf63" fill-opacity="1"><g transform="translate(261.911956, 195.240801)"><g/></g></g><g fill="#00bf63" fill-opacity="1"><g transform="translate(272.703469, 195.240801)"><g><path d="M 5.796875 -13.46875 L 12.109375 -13.46875 C 13.679688 -13.46875 14.972656 -14 15.984375 -15.0625 C 17.023438 -16.132812 17.546875 -17.46875 17.546875 -19.0625 C 17.546875 -20.664062 17.050781 -21.972656 16.0625 -22.984375 C 15.082031 -23.992188 13.765625 -24.5 12.109375 -24.5 L 5.796875 -24.5 Z M 20.34375 -18.984375 C 20.34375 -16.609375 19.503906 -14.632812 17.828125 -13.0625 C 16.171875 -11.519531 14.128906 -10.75 11.703125 -10.75 L 5.796875 -10.75 L 5.796875 0 L 3 0 L 3 -27.171875 L 11.703125 -27.171875 C 14.109375 -27.171875 16.148438 -26.414062 17.828125 -24.90625 C 19.503906 -23.351562 20.34375 -21.378906 20.34375 -18.984375 Z M 20.34375 -18.984375 "/></g></g></g><g fill="#00bf63" fill-opacity="1"><g transform="translate(293.846831, 195.240801)"><g><path d="M 17.390625 -8.875 C 17.390625 -10.632812 16.765625 -12.140625 15.515625 -13.390625 C 14.253906 -14.640625 12.742188 -15.265625 10.984375 -15.265625 C 9.234375 -15.265625 7.726562 -14.640625 6.46875 -13.390625 C 5.21875 -12.140625 4.59375 -10.632812 4.59375 -8.875 C 4.59375 -7.144531 5.21875 -5.648438 6.46875 -4.390625 C 7.726562 -3.140625 9.234375 -2.515625 10.984375 -2.515625 C 12.742188 -2.515625 14.253906 -3.140625 15.515625 -4.390625 C 16.765625 -5.648438 17.390625 -7.144531 17.390625 -8.875 Z M 20.1875 -8.875 C 20.1875 -6.3125 19.289062 -4.148438 17.5 -2.390625 C 15.664062 -0.609375 13.492188 0.28125 10.984375 0.28125 C 8.484375 0.28125 6.328125 -0.609375 4.515625 -2.390625 C 2.703125 -4.148438 1.796875 -6.3125 1.796875 -8.875 C 1.796875 -11.40625 2.703125 -13.578125 4.515625 -15.390625 C 6.296875 -17.171875 8.453125 -18.0625 10.984375 -18.0625 C 13.515625 -18.0625 15.6875 -17.171875 17.5 -15.390625 C 19.289062 -13.578125 20.1875 -11.40625 20.1875 -8.875 Z M 20.1875 -8.875 "/></g></g></g><g fill="#00bf63" fill-opacity="1"><g transform="translate(315.829531, 195.240801)"><g><path d="M 20.1875 2.234375 L 14.46875 -11.953125 L 8.828125 2.234375 L 0.40625 -17.59375 L 3.515625 -17.59375 L 8.796875 -4.03125 L 14.46875 -18.5 L 20.140625 -4.03125 L 25.421875 -17.59375 L 28.53125 -17.59375 Z M 20.1875 2.234375 "/></g></g></g><g fill="#00bf63" fill-opacity="1"><g transform="translate(344.766764, 195.240801)"><g><path d="M 20.1875 -9.1875 L 20.1875 -7.71875 L 4.71875 -7.71875 C 4.976562 -6.195312 5.710938 -4.957031 6.921875 -4 C 8.140625 -3.007812 9.492188 -2.515625 10.984375 -2.515625 C 12.003906 -2.515625 12.976562 -2.753906 13.90625 -3.234375 C 14.8125 -3.691406 15.570312 -4.332031 16.1875 -5.15625 L 19.390625 -5.15625 C 18.640625 -3.476562 17.519531 -2.160156 16.03125 -1.203125 C 14.507812 -0.210938 12.976562 0.28125 11.4375 0.28125 C 9.863281 0.28125 8.53125 0.0390625 7.4375 -0.4375 C 6.3125 -0.914062 5.335938 -1.566406 4.515625 -2.390625 C 2.703125 -4.148438 1.796875 -6.3125 1.796875 -8.875 C 1.796875 -11.40625 2.703125 -13.578125 4.515625 -15.390625 C 6.296875 -17.171875 8.453125 -18.0625 10.984375 -18.0625 C 13.441406 -18.0625 15.585938 -17.195312 17.421875 -15.46875 C 19.265625 -13.707031 20.1875 -11.613281 20.1875 -9.1875 Z M 17.21875 -10.109375 C 16.90625 -11.597656 16.160156 -12.835938 14.984375 -13.828125 C 13.816406 -14.785156 12.484375 -15.265625 10.984375 -15.265625 C 8.691406 -15.265625 6.894531 -14.238281 5.59375 -12.1875 C 5.195312 -11.550781 4.914062 -10.859375 4.75 -10.109375 Z M 17.21875 -10.109375 "/></g></g></g><g fill="#00bf63" fill-opacity="1"><g transform="translate(366.549628, 195.240801)"><g><path d="M 12.03125 -13.953125 C 11.394531 -14.535156 10.703125 -14.828125 9.953125 -14.828125 C 9.234375 -14.828125 8.617188 -14.628906 8.109375 -14.234375 C 7.578125 -13.804688 7.140625 -13.296875 6.796875 -12.703125 C 6.128906 -11.535156 5.796875 -10.234375 5.796875 -8.796875 L 5.796875 0 L 3 0 L 3 -17.59375 L 5.796875 -17.59375 L 5.796875 -13.953125 L 5.921875 -14.671875 C 6.847656 -16.859375 8.296875 -17.953125 10.265625 -17.953125 C 10.878906 -17.953125 11.46875 -17.832031 12.03125 -17.59375 Z M 12.03125 -13.953125 "/></g></g></g><g fill="#ffffff" fill-opacity="1"><g transform="translate(378.984862, 195.240801)"><g/></g></g><g fill="#1d4dd7" fill-opacity="1"><g transform="translate(389.782128, 195.240801)"><g><path d="M 10.546875 -12.828125 C 5.003906 -14.109375 2.234375 -16.476562 2.234375 -19.9375 C 2.234375 -22.5 3.128906 -24.421875 4.921875 -25.703125 C 6.703125 -26.953125 8.789062 -27.578125 11.1875 -27.578125 C 16.488281 -27.578125 19.632812 -25.601562 20.625 -21.65625 L 17.59375 -21.65625 C 17.050781 -24.007812 14.914062 -25.1875 11.1875 -25.1875 C 8.582031 -25.1875 6.757812 -24.410156 5.71875 -22.859375 C 5.3125 -22.273438 5.109375 -21.539062 5.109375 -20.65625 C 5.109375 -18.976562 6.015625 -17.6875 7.828125 -16.78125 C 8.679688 -16.332031 10.492188 -15.75 13.265625 -15.03125 C 16.035156 -14.3125 18.050781 -13.507812 19.3125 -12.625 C 21.039062 -11.40625 21.90625 -9.6875 21.90625 -7.46875 C 21.90625 -4.726562 20.828125 -2.648438 18.671875 -1.234375 C 16.859375 -0.0664062 14.617188 0.515625 11.953125 0.515625 C 5.929688 0.515625 2.441406 -1.773438 1.484375 -6.359375 L 4.796875 -6.359375 C 5.304688 -3.472656 7.691406 -2.03125 11.953125 -2.03125 C 14.984375 -2.03125 17.101562 -2.875 18.3125 -4.5625 C 18.789062 -5.226562 19.03125 -6.132812 19.03125 -7.28125 C 19.03125 -8.394531 18.585938 -9.3125 17.703125 -10.03125 C 16.453125 -11.039062 14.066406 -11.972656 10.546875 -12.828125 Z M 10.546875 -12.828125 "/></g></g></g><g fill="#1d4dd7" fill-opacity="1"><g transform="translate(412.724077, 195.240801)"><g><path d="M 17.390625 -8.875 C 17.390625 -10.632812 16.765625 -12.140625 15.515625 -13.390625 C 14.253906 -14.640625 12.742188 -15.265625 10.984375 -15.265625 C 9.234375 -15.265625 7.726562 -14.640625 6.46875 -13.390625 C 5.21875 -12.140625 4.59375 -10.632812 4.59375 -8.875 C 4.59375 -7.144531 5.21875 -5.648438 6.46875 -4.390625 C 7.726562 -3.140625 9.234375 -2.515625 10.984375 -2.515625 C 12.742188 -2.515625 14.253906 -3.140625 15.515625 -4.390625 C 16.765625 -5.648438 17.390625 -7.144531 17.390625 -8.875 Z M 20.1875 -8.875 C 20.1875 -6.3125 19.289062 -4.148438 17.5 -2.390625 C 15.664062 -0.609375 13.492188 0.28125 10.984375 0.28125 C 8.484375 0.28125 6.328125 -0.609375 4.515625 -2.390625 C 2.703125 -4.148438 1.796875 -6.3125 1.796875 -8.875 C 1.796875 -11.40625 2.703125 -13.578125 4.515625 -15.390625 C 6.296875 -17.171875 8.453125 -18.0625 10.984375 -18.0625 C 13.515625 -18.0625 15.6875 -17.171875 17.5 -15.390625 C 19.289062 -13.578125 20.1875 -11.40625 20.1875 -8.875 Z M 20.1875 -8.875 "/></g></g></g><g fill="#1d4dd7" fill-opacity="1"><g transform="translate(434.706778, 195.240801)"><g><path d="M 5.796875 0 L 3 0 L 3 -29.96875 L 5.796875 -29.96875 Z M 5.796875 0 "/></g></g></g><g fill="#1d4dd7" fill-opacity="1"><g transform="translate(443.499856, 195.240801)"><g><path d="M 15.140625 -3 C 13.835938 -0.757812 11.878906 0.359375 9.265625 0.359375 C 7.296875 0.359375 5.753906 -0.289062 4.640625 -1.59375 C 3.546875 -2.90625 3 -4.570312 3 -6.59375 L 3 -17.59375 L 5.796875 -17.59375 L 5.796875 -6.59375 C 5.796875 -5.445312 6.0625 -4.472656 6.59375 -3.671875 C 7.101562 -2.847656 7.957031 -2.4375 9.15625 -2.4375 C 11.34375 -2.4375 12.890625 -3.128906 13.796875 -4.515625 C 14.691406 -5.878906 15.140625 -7.785156 15.140625 -10.234375 L 15.140625 -17.59375 L 17.953125 -17.59375 L 17.953125 0 L 15.140625 0 Z M 15.140625 -3 "/></g></g></g><g fill="#1d4dd7" fill-opacity="1"><g transform="translate(463.843848, 195.240801)"><g><path d="M 0.796875 -14.984375 L 0.796875 -17.59375 L 5.203125 -17.59375 L 5.203125 -24.421875 L 8 -24.421875 L 8 -17.59375 L 12.34375 -17.59375 L 12.34375 -14.984375 L 8 -14.984375 L 8 0 L 5.203125 0 L 5.203125 -14.984375 Z M 0.796875 -14.984375 "/></g></g></g><g fill="#1d4dd7" fill-opacity="1"><g transform="translate(476.993501, 195.240801)"><g><path d="M 5.828125 -23.65625 C 6.179688 -23.3125 6.359375 -22.898438 6.359375 -22.421875 C 6.359375 -21.910156 6.179688 -21.484375 5.828125 -21.140625 C 5.484375 -20.796875 5.070312 -20.625 4.59375 -20.625 C 4.09375 -20.625 3.664062 -20.796875 3.3125 -21.140625 C 2.96875 -21.484375 2.796875 -21.910156 2.796875 -22.421875 C 2.796875 -22.898438 2.96875 -23.3125 3.3125 -23.65625 C 3.664062 -24.007812 4.09375 -24.1875 4.59375 -24.1875 C 5.070312 -24.1875 5.484375 -24.007812 5.828125 -23.65625 Z M 6 0 L 3.203125 0 L 3.203125 -17.59375 L 6 -17.59375 Z M 6 0 "/></g></g></g><g fill="#1d4dd7" fill-opacity="1"><g transform="translate(486.146305, 195.240801)"><g><path d="M 17.390625 -8.875 C 17.390625 -10.632812 16.765625 -12.140625 15.515625 -13.390625 C 14.253906 -14.640625 12.742188 -15.265625 10.984375 -15.265625 C 9.234375 -15.265625 7.726562 -14.640625 6.46875 -13.390625 C 5.21875 -12.140625 4.59375 -10.632812 4.59375 -8.875 C 4.59375 -7.144531 5.21875 -5.648438 6.46875 -4.390625 C 7.726562 -3.140625 9.234375 -2.515625 10.984375 -2.515625 C 12.742188 -2.515625 14.253906 -3.140625 15.515625 -4.390625 C 16.765625 -5.648438 17.390625 -7.144531 17.390625 -8.875 Z M 20.1875 -8.875 C 20.1875 -6.3125 19.289062 -4.148438 17.5 -2.390625 C 15.664062 -0.609375 13.492188 0.28125 10.984375 0.28125 C 8.484375 0.28125 6.328125 -0.609375 4.515625 -2.390625 C 2.703125 -4.148438 1.796875 -6.3125 1.796875 -8.875 C 1.796875 -11.40625 2.703125 -13.578125 4.515625 -15.390625 C 6.296875 -17.171875 8.453125 -18.0625 10.984375 -18.0625 C 13.515625 -18.0625 15.6875 -17.171875 17.5 -15.390625 C 19.289062 -13.578125 20.1875 -11.40625 20.1875 -8.875 Z M 20.1875 -8.875 "/></g></g></g><g fill="#1d4dd7" fill-opacity="1"><g transform="translate(508.129006, 195.240801)"><g><path d="M 15.140625 0 L 15.140625 -10.984375 C 15.140625 -12.128906 14.890625 -13.117188 14.390625 -13.953125 C 13.859375 -14.742188 12.992188 -15.140625 11.796875 -15.140625 C 10.585938 -15.140625 9.613281 -14.914062 8.875 -14.46875 C 8.125 -14.019531 7.523438 -13.429688 7.078125 -12.703125 C 6.222656 -11.378906 5.796875 -9.597656 5.796875 -7.359375 L 5.796875 0 L 3 0 L 3 -17.59375 L 5.796875 -17.59375 L 5.796875 -14.546875 C 6.378906 -15.535156 7.125 -16.347656 8.03125 -16.984375 C 8.988281 -17.628906 10.09375 -17.953125 11.34375 -17.953125 C 12.601562 -17.953125 13.617188 -17.773438 14.390625 -17.421875 C 15.160156 -17.046875 15.8125 -16.554688 16.34375 -15.953125 C 17.414062 -14.691406 17.953125 -13.035156 17.953125 -10.984375 L 17.953125 0 Z M 15.140625 0 "/></g></g></g><g fill="#1d4dd7" fill-opacity="1"><g transform="translate(528.472998, 195.240801)"><g><path d="M 5.5625 -2.515625 C 6.25 -2.035156 7.15625 -1.796875 8.28125 -1.796875 C 10.832031 -1.796875 12.109375 -2.753906 12.109375 -4.671875 C 12.109375 -5.796875 11.191406 -6.648438 9.359375 -7.234375 C 8.578125 -7.503906 7.75 -7.742188 6.875 -7.953125 C 5.96875 -8.171875 5.128906 -8.453125 4.359375 -8.796875 C 3.453125 -9.222656 2.769531 -9.753906 2.3125 -10.390625 C 1.863281 -11.023438 1.640625 -11.785156 1.640625 -12.671875 C 1.640625 -14.429688 2.253906 -15.75 3.484375 -16.625 C 4.703125 -17.53125 6.164062 -17.984375 7.875 -17.984375 C 9.582031 -17.984375 10.992188 -17.640625 12.109375 -16.953125 C 13.234375 -16.253906 13.992188 -15.015625 14.390625 -13.234375 L 11.390625 -13.234375 C 11.066406 -14.210938 10.597656 -14.863281 9.984375 -15.1875 C 9.398438 -15.507812 8.671875 -15.671875 7.796875 -15.671875 C 6.910156 -15.671875 6.164062 -15.484375 5.5625 -15.109375 C 4.914062 -14.710938 4.59375 -14.125 4.59375 -13.34375 C 4.59375 -12.550781 4.859375 -11.96875 5.390625 -11.59375 C 5.898438 -11.25 6.539062 -10.941406 7.3125 -10.671875 C 8.082031 -10.429688 8.921875 -10.21875 9.828125 -10.03125 C 10.710938 -9.820312 11.550781 -9.53125 12.34375 -9.15625 C 14.15625 -8.300781 15.0625 -6.925781 15.0625 -5.03125 C 15.0625 -3.144531 14.382812 -1.75 13.03125 -0.84375 C 12.332031 -0.382812 11.570312 -0.0351562 10.75 0.203125 C 9.945312 0.410156 9.066406 0.515625 8.109375 0.515625 C 4.035156 0.515625 1.691406 -1.296875 1.078125 -4.921875 L 4.03125 -4.921875 C 4.320312 -3.773438 4.832031 -2.972656 5.5625 -2.515625 Z M 5.5625 -2.515625 "/></g></g></g></svg>