<svg xmlns="http://www.w3.org/2000/svg" xmlns:xlink="http://www.w3.org/1999/xlink" width="957" zoomAndPan="magnify" viewBox="0 0 717.75 363.749991" height="485" preserveAspectRatio="xMidYMid meet" version="1.0"><defs><g/></defs><g fill="#00bf63" fill-opacity="1"><g transform="translate(215.228921, 195.240801)"><g><path d="M 10.546875 -12.828125 C 5.003906 -14.109375 2.234375 -16.476562 2.234375 -19.9375 C 2.234375 -22.5 3.128906 -24.421875 4.921875 -25.703125 C 6.703125 -26.953125 8.789062 -27.578125 11.1875 -27.578125 C 16.488281 -27.578125 19.632812 -25.601562 20.625 -21.65625 L 17.59375 -21.65625 C 17.050781 -24.007812 14.914062 -25.1875 11.1875 -25.1875 C 8.582031 -25.1875 6.757812 -24.410156 5.71875 -22.859375 C 5.3125 -22.273438 5.109375 -21.539062 5.109375 -20.65625 C 5.109375 -18.976562 6.015625 -17.6875 7.828125 -16.78125 C 8.679688 -16.332031 10.492188 -15.75 13.265625 -15.03125 C 16.035156 -14.3125 18.050781 -13.507812 19.3125 -12.625 C 21.039062 -11.40625 21.90625 -9.6875 21.90625 -7.46875 C 21.90625 -4.726562 20.828125 -2.648438 18.671875 -1.234375 C 16.859375 -0.0664062 14.617188 0.515625 11.953125 0.515625 C 5.929688 0.515625 2.441406 -1.773438 1.484375 -6.359375 L 4.796875 -6.359375 C 5.304688 -3.472656 7.691406 -2.03125 11.953125 -2.03125 C 14.984375 -2.03125 17.101562 -2.875 18.3125 -4.5625 C 18.789062 -5.226562 19.03125 -6.132812 19.03125 -7.28125 C 19.03125 -8.394531 18.585938 -9.3125 17.703125 -10.03125 C 16.453125 -11.039062 14.066406 -11.972656 10.546875 -12.828125 Z M 10.546875 -12.828125 "/></g></g></g><g fill="#00bf63" fill-opacity="1"><g transform="translate(238.17087, 195.240801)"><g><path d="M 20.1875 -9.1875 L 20.1875 -7.71875 L 4.71875 -7.71875 C 4.976562 -6.195312 5.710938 -4.957031 6.921875 -4 C 8.140625 -3.007812 9.492188 -2.515625 10.984375 -2.515625 C 12.003906 -2.515625 12.976562 -2.753906 13.90625 -3.234375 C 14.8125 -3.691406 15.570312 -4.332031 16.1875 -5.15625 L 19.390625 -5.15625 C 18.640625 -3.476562 17.519531 -2.160156 16.03125 -1.203125 C 14.507812 -0.210938 12.976562 0.28125 11.4375 0.28125 C 9.863281 0.28125 8.53125 0.0390625 7.4375 -0.4375 C 6.3125 -0.914062 5.335938 -1.566406 4.515625 -2.390625 C 2.703125 -4.148438 1.796875 -6.3125 1.796875 -8.875 C 1.796875 -11.40625 2.703125 -13.578125 4.515625 -15.390625 C 6.296875 -17.171875 8.453125 -18.0625 10.984375 -18.0625 C 13.441406 -18.0625 15.585938 -17.195312 17.421875 -15.46875 C 19.265625 -13.707031 20.1875 -11.613281 20.1875 -9.1875 Z M 17.21875 -10.109375 C 16.90625 -11.597656 16.160156 -12.835938 14.984375 -13.828125 C 13.816406 -14.785156 12.484375 -15.265625 10.984375 -15.265625 C 8.691406 -15.265625 6.894531 -14.238281 5.59375 -12.1875 C 5.195312 -11.550781 4.914062 -10.859375 4.75 -10.109375 Z M 17.21875 -10.109375 "/></g></g></g><g fill="#00bf63" fill-opacity="1"><g transform="translate(259.953734, 195.240801)"><g><path d="M 19.421875 -11.265625 L 16.390625 -11.265625 C 15.910156 -12.390625 15.164062 -13.296875 14.15625 -13.984375 C 13.132812 -14.679688 12.109375 -15.03125 11.078125 -15.03125 C 10.035156 -15.03125 9.140625 -14.867188 8.390625 -14.546875 C 7.648438 -14.203125 7.007812 -13.75 6.46875 -13.1875 C 5.269531 -11.9375 4.671875 -10.472656 4.671875 -8.796875 C 4.671875 -7.085938 5.269531 -5.617188 6.46875 -4.390625 C 7.644531 -3.140625 9.085938 -2.515625 10.796875 -2.515625 C 11.910156 -2.515625 12.945312 -2.804688 13.90625 -3.390625 C 14.84375 -3.984375 15.578125 -4.769531 16.109375 -5.75 L 19.265625 -5.75 C 18.273438 -2.925781 16.367188 -1.035156 13.546875 -0.078125 C 12.671875 0.242188 11.671875 0.40625 10.546875 0.40625 C 9.429688 0.40625 8.328125 0.148438 7.234375 -0.359375 C 6.140625 -0.835938 5.191406 -1.503906 4.390625 -2.359375 C 2.660156 -4.171875 1.796875 -6.316406 1.796875 -8.796875 C 1.796875 -11.296875 2.660156 -13.441406 4.390625 -15.234375 C 6.148438 -17.046875 8.285156 -17.953125 10.796875 -17.953125 C 12.816406 -17.953125 14.640625 -17.320312 16.265625 -16.0625 C 17.804688 -14.863281 18.859375 -13.265625 19.421875 -11.265625 Z M 19.421875 -11.265625 "/></g></g></g><g fill="#00bf63" fill-opacity="1"><g transform="translate(280.77735, 195.240801)"><g><path d="M 0.796875 -14.984375 L 0.796875 -17.59375 L 5.203125 -17.59375 L 5.203125 -24.421875 L 8 -24.421875 L 8 -17.59375 L 12.34375 -17.59375 L 12.34375 -14.984375 L 8 -14.984375 L 8 0 L 5.203125 0 L 5.203125 -14.984375 Z M 0.796875 -14.984375 "/></g></g></g><g fill="#00bf63" fill-opacity="1"><g transform="translate(293.927003, 195.240801)"><g><path d="M 17.390625 -8.875 C 17.390625 -10.632812 16.765625 -12.140625 15.515625 -13.390625 C 14.253906 -14.640625 12.742188 -15.265625 10.984375 -15.265625 C 9.234375 -15.265625 7.726562 -14.640625 6.46875 -13.390625 C 5.21875 -12.140625 4.59375 -10.632812 4.59375 -8.875 C 4.59375 -7.144531 5.21875 -5.648438 6.46875 -4.390625 C 7.726562 -3.140625 9.234375 -2.515625 10.984375 -2.515625 C 12.742188 -2.515625 14.253906 -3.140625 15.515625 -4.390625 C 16.765625 -5.648438 17.390625 -7.144531 17.390625 -8.875 Z M 20.1875 -8.875 C 20.1875 -6.3125 19.289062 -4.148438 17.5 -2.390625 C 15.664062 -0.609375 13.492188 0.28125 10.984375 0.28125 C 8.484375 0.28125 6.328125 -0.609375 4.515625 -2.390625 C 2.703125 -4.148438 1.796875 -6.3125 1.796875 -8.875 C 1.796875 -11.40625 2.703125 -13.578125 4.515625 -15.390625 C 6.296875 -17.171875 8.453125 -18.0625 10.984375 -18.0625 C 13.515625 -18.0625 15.6875 -17.171875 17.5 -15.390625 C 19.289062 -13.578125 20.1875 -11.40625 20.1875 -8.875 Z M 20.1875 -8.875 "/></g></g></g><g fill="#00bf63" fill-opacity="1"><g transform="translate(315.909704, 195.240801)"><g><path d="M 12.03125 -13.953125 C 11.394531 -14.535156 10.703125 -14.828125 9.953125 -14.828125 C 9.234375 -14.828125 8.617188 -14.628906 8.109375 -14.234375 C 7.578125 -13.804688 7.140625 -13.296875 6.796875 -12.703125 C 6.128906 -11.535156 5.796875 -10.234375 5.796875 -8.796875 L 5.796875 0 L 3 0 L 3 -17.59375 L 5.796875 -17.59375 L 5.796875 -13.953125 L 5.921875 -14.671875 C 6.847656 -16.859375 8.296875 -17.953125 10.265625 -17.953125 C 10.878906 -17.953125 11.46875 -17.832031 12.03125 -17.59375 Z M 12.03125 -13.953125 "/></g></g></g><g fill="#00bf63" fill-opacity="1"><g transform="translate(328.339926, 195.240801)"><g/></g></g><g fill="#00bf63" fill-opacity="1"><g transform="translate(339.13144, 195.240801)"><g><path d="M 24.578125 2.203125 L 15.671875 -21.46875 L 6.75 2.203125 L 0.40625 -27.171875 L 3.28125 -27.171875 L 7.46875 -7.4375 L 15.671875 -28.78125 L 23.828125 -7.4375 L 28.0625 -27.171875 L 30.890625 -27.171875 Z M 24.578125 2.203125 "/></g></g></g><g fill="#00bf63" fill-opacity="1"><g transform="translate(370.426823, 195.240801)"><g><path d="M 20.1875 -9.1875 L 20.1875 -7.71875 L 4.71875 -7.71875 C 4.976562 -6.195312 5.710938 -4.957031 6.921875 -4 C 8.140625 -3.007812 9.492188 -2.515625 10.984375 -2.515625 C 12.003906 -2.515625 12.976562 -2.753906 13.90625 -3.234375 C 14.8125 -3.691406 15.570312 -4.332031 16.1875 -5.15625 L 19.390625 -5.15625 C 18.640625 -3.476562 17.519531 -2.160156 16.03125 -1.203125 C 14.507812 -0.210938 12.976562 0.28125 11.4375 0.28125 C 9.863281 0.28125 8.53125 0.0390625 7.4375 -0.4375 C 6.3125 -0.914062 5.335938 -1.566406 4.515625 -2.390625 C 2.703125 -4.148438 1.796875 -6.3125 1.796875 -8.875 C 1.796875 -11.40625 2.703125 -13.578125 4.515625 -15.390625 C 6.296875 -17.171875 8.453125 -18.0625 10.984375 -18.0625 C 13.441406 -18.0625 15.585938 -17.195312 17.421875 -15.46875 C 19.265625 -13.707031 20.1875 -11.613281 20.1875 -9.1875 Z M 17.21875 -10.109375 C 16.90625 -11.597656 16.160156 -12.835938 14.984375 -13.828125 C 13.816406 -14.785156 12.484375 -15.265625 10.984375 -15.265625 C 8.691406 -15.265625 6.894531 -14.238281 5.59375 -12.1875 C 5.195312 -11.550781 4.914062 -10.859375 4.75 -10.109375 Z M 17.21875 -10.109375 "/></g></g></g><g fill="#ffffff" fill-opacity="1"><g transform="translate(392.212744, 195.240801)"><g/></g></g><g fill="#1d4dd7" fill-opacity="1"><g transform="translate(403.01001, 195.240801)"><g><path d="M 27.9375 -8.3125 C 26.925781 -5.695312 25.273438 -3.601562 22.984375 -2.03125 C 20.660156 -0.40625 18.113281 0.40625 15.34375 0.40625 C 11.59375 0.40625 8.382812 -0.976562 5.71875 -3.75 C 3.101562 -6.46875 1.796875 -9.734375 1.796875 -13.546875 C 1.796875 -15.441406 2.144531 -17.238281 2.84375 -18.9375 C 3.53125 -20.625 4.488281 -22.101562 5.71875 -23.375 C 8.382812 -26.144531 11.59375 -27.53125 15.34375 -27.53125 C 18.113281 -27.53125 20.644531 -26.75 22.9375 -25.1875 C 25.226562 -23.582031 26.878906 -21.488281 27.890625 -18.90625 L 24.828125 -18.90625 C 23.359375 -21.59375 21.171875 -23.378906 18.265625 -24.265625 C 17.304688 -24.523438 16.203125 -24.65625 14.953125 -24.65625 C 13.691406 -24.65625 12.410156 -24.363281 11.109375 -23.78125 C 9.804688 -23.164062 8.675781 -22.351562 7.71875 -21.34375 C 5.632812 -19.1875 4.59375 -16.585938 4.59375 -13.546875 C 4.59375 -10.535156 5.632812 -7.953125 7.71875 -5.796875 C 9.820312 -3.585938 12.363281 -2.484375 15.34375 -2.484375 C 17.375 -2.484375 19.238281 -3.015625 20.9375 -4.078125 C 22.625 -5.140625 23.929688 -6.550781 24.859375 -8.3125 Z M 27.9375 -8.3125 "/></g></g></g><g fill="#1d4dd7" fill-opacity="1"><g transform="translate(432.14709, 195.240801)"><g><path d="M 16.984375 -8.796875 C 16.984375 -10.492188 16.398438 -11.984375 15.234375 -13.265625 C 14.023438 -14.546875 12.546875 -15.1875 10.796875 -15.1875 C 9.035156 -15.1875 7.566406 -14.546875 6.390625 -13.265625 C 5.191406 -11.984375 4.59375 -10.492188 4.59375 -8.796875 C 4.59375 -7.085938 5.191406 -5.59375 6.390625 -4.3125 C 7.566406 -3.03125 9.035156 -2.390625 10.796875 -2.390625 C 12.546875 -2.390625 14.023438 -3.03125 15.234375 -4.3125 C 16.398438 -5.59375 16.984375 -7.085938 16.984375 -8.796875 Z M 19.78125 0 L 16.984375 0 L 16.984375 -3 C 16.828125 -2.78125 16.664062 -2.578125 16.5 -2.390625 C 14.820312 -0.523438 12.773438 0.40625 10.359375 0.40625 C 7.929688 0.40625 5.890625 -0.523438 4.234375 -2.390625 C 2.609375 -4.203125 1.796875 -6.335938 1.796875 -8.796875 C 1.796875 -11.242188 2.609375 -13.375 4.234375 -15.1875 C 5.890625 -17.050781 7.929688 -17.984375 10.359375 -17.984375 C 12.773438 -17.984375 14.820312 -17.050781 16.5 -15.1875 C 16.664062 -15 16.828125 -14.800781 16.984375 -14.59375 L 16.984375 -17.59375 L 19.78125 -17.59375 Z M 19.78125 0 "/></g></g></g><g fill="#1d4dd7" fill-opacity="1"><g transform="translate(454.929172, 195.240801)"><g><path d="M 0.796875 -14.984375 L 0.796875 -17.59375 L 5.203125 -17.59375 L 5.203125 -24.421875 L 8 -24.421875 L 8 -17.59375 L 12.34375 -17.59375 L 12.34375 -14.984375 L 8 -14.984375 L 8 0 L 5.203125 0 L 5.203125 -14.984375 Z M 0.796875 -14.984375 "/></g></g></g><g fill="#1d4dd7" fill-opacity="1"><g transform="translate(468.078825, 195.240801)"><g><path d="M 20.1875 -9.1875 L 20.1875 -7.71875 L 4.71875 -7.71875 C 4.976562 -6.195312 5.710938 -4.957031 6.921875 -4 C 8.140625 -3.007812 9.492188 -2.515625 10.984375 -2.515625 C 12.003906 -2.515625 12.976562 -2.753906 13.90625 -3.234375 C 14.8125 -3.691406 15.570312 -4.332031 16.1875 -5.15625 L 19.390625 -5.15625 C 18.640625 -3.476562 17.519531 -2.160156 16.03125 -1.203125 C 14.507812 -0.210938 12.976562 0.28125 11.4375 0.28125 C 9.863281 0.28125 8.53125 0.0390625 7.4375 -0.4375 C 6.3125 -0.914062 5.335938 -1.566406 4.515625 -2.390625 C 2.703125 -4.148438 1.796875 -6.3125 1.796875 -8.875 C 1.796875 -11.40625 2.703125 -13.578125 4.515625 -15.390625 C 6.296875 -17.171875 8.453125 -18.0625 10.984375 -18.0625 C 13.441406 -18.0625 15.585938 -17.195312 17.421875 -15.46875 C 19.265625 -13.707031 20.1875 -11.613281 20.1875 -9.1875 Z M 17.21875 -10.109375 C 16.90625 -11.597656 16.160156 -12.835938 14.984375 -13.828125 C 13.816406 -14.785156 12.484375 -15.265625 10.984375 -15.265625 C 8.691406 -15.265625 6.894531 -14.238281 5.59375 -12.1875 C 5.195312 -11.550781 4.914062 -10.859375 4.75 -10.109375 Z M 17.21875 -10.109375 "/></g></g></g><g fill="#1d4dd7" fill-opacity="1"><g transform="translate(489.861689, 195.240801)"><g><path d="M 12.03125 -13.953125 C 11.394531 -14.535156 10.703125 -14.828125 9.953125 -14.828125 C 9.234375 -14.828125 8.617188 -14.628906 8.109375 -14.234375 C 7.578125 -13.804688 7.140625 -13.296875 6.796875 -12.703125 C 6.128906 -11.535156 5.796875 -10.234375 5.796875 -8.796875 L 5.796875 0 L 3 0 L 3 -17.59375 L 5.796875 -17.59375 L 5.796875 -13.953125 L 5.921875 -14.671875 C 6.847656 -16.859375 8.296875 -17.953125 10.265625 -17.953125 C 10.878906 -17.953125 11.46875 -17.832031 12.03125 -17.59375 Z M 12.03125 -13.953125 "/></g></g></g></svg>