<svg xmlns="http://www.w3.org/2000/svg" xmlns:xlink="http://www.w3.org/1999/xlink" width="957" zoomAndPan="magnify" viewBox="0 0 717.75 363.749991" height="485" preserveAspectRatio="xMidYMid meet" version="1.0"><defs><g/></defs><g fill="#00bf63" fill-opacity="1"><g transform="translate(212.054017, 195.240801)"><g><path d="M 10.546875 -12.828125 C 5.003906 -14.109375 2.234375 -16.476562 2.234375 -19.9375 C 2.234375 -22.5 3.128906 -24.421875 4.921875 -25.703125 C 6.703125 -26.953125 8.789062 -27.578125 11.1875 -27.578125 C 16.488281 -27.578125 19.632812 -25.601562 20.625 -21.65625 L 17.59375 -21.65625 C 17.050781 -24.007812 14.914062 -25.1875 11.1875 -25.1875 C 8.582031 -25.1875 6.757812 -24.410156 5.71875 -22.859375 C 5.3125 -22.273438 5.109375 -21.539062 5.109375 -20.65625 C 5.109375 -18.976562 6.015625 -17.6875 7.828125 -16.78125 C 8.679688 -16.332031 10.492188 -15.75 13.265625 -15.03125 C 16.035156 -14.3125 18.050781 -13.507812 19.3125 -12.625 C 21.039062 -11.40625 21.90625 -9.6875 21.90625 -7.46875 C 21.90625 -4.726562 20.828125 -2.648438 18.671875 -1.234375 C 16.859375 -0.0664062 14.617188 0.515625 11.953125 0.515625 C 5.929688 0.515625 2.441406 -1.773438 1.484375 -6.359375 L 4.796875 -6.359375 C 5.304688 -3.472656 7.691406 -2.03125 11.953125 -2.03125 C 14.984375 -2.03125 17.101562 -2.875 18.3125 -4.5625 C 18.789062 -5.226562 19.03125 -6.132812 19.03125 -7.28125 C 19.03125 -8.394531 18.585938 -9.3125 17.703125 -10.03125 C 16.453125 -11.039062 14.066406 -11.972656 10.546875 -12.828125 Z M 10.546875 -12.828125 "/></g></g></g><g fill="#00bf63" fill-opacity="1"><g transform="translate(234.995966, 195.240801)"><g><path d="M 19.421875 -11.265625 L 16.390625 -11.265625 C 15.910156 -12.390625 15.164062 -13.296875 14.15625 -13.984375 C 13.132812 -14.679688 12.109375 -15.03125 11.078125 -15.03125 C 10.035156 -15.03125 9.140625 -14.867188 8.390625 -14.546875 C 7.648438 -14.203125 7.007812 -13.75 6.46875 -13.1875 C 5.269531 -11.9375 4.671875 -10.472656 4.671875 -8.796875 C 4.671875 -7.085938 5.269531 -5.617188 6.46875 -4.390625 C 7.644531 -3.140625 9.085938 -2.515625 10.796875 -2.515625 C 11.910156 -2.515625 12.945312 -2.804688 13.90625 -3.390625 C 14.84375 -3.984375 15.578125 -4.769531 16.109375 -5.75 L 19.265625 -5.75 C 18.273438 -2.925781 16.367188 -1.035156 13.546875 -0.078125 C 12.671875 0.242188 11.671875 0.40625 10.546875 0.40625 C 9.429688 0.40625 8.328125 0.148438 7.234375 -0.359375 C 6.140625 -0.835938 5.191406 -1.503906 4.390625 -2.359375 C 2.660156 -4.171875 1.796875 -6.316406 1.796875 -8.796875 C 1.796875 -11.296875 2.660156 -13.441406 4.390625 -15.234375 C 6.148438 -17.046875 8.285156 -17.953125 10.796875 -17.953125 C 12.816406 -17.953125 14.640625 -17.320312 16.265625 -16.0625 C 17.804688 -14.863281 18.859375 -13.265625 19.421875 -11.265625 Z M 19.421875 -11.265625 "/></g></g></g><g fill="#00bf63" fill-opacity="1"><g transform="translate(255.819582, 195.240801)"><g><path d="M 17.390625 -8.875 C 17.390625 -10.632812 16.765625 -12.140625 15.515625 -13.390625 C 14.253906 -14.640625 12.742188 -15.265625 10.984375 -15.265625 C 9.234375 -15.265625 7.726562 -14.640625 6.46875 -13.390625 C 5.21875 -12.140625 4.59375 -10.632812 4.59375 -8.875 C 4.59375 -7.144531 5.21875 -5.648438 6.46875 -4.390625 C 7.726562 -3.140625 9.234375 -2.515625 10.984375 -2.515625 C 12.742188 -2.515625 14.253906 -3.140625 15.515625 -4.390625 C 16.765625 -5.648438 17.390625 -7.144531 17.390625 -8.875 Z M 20.1875 -8.875 C 20.1875 -6.3125 19.289062 -4.148438 17.5 -2.390625 C 15.664062 -0.609375 13.492188 0.28125 10.984375 0.28125 C 8.484375 0.28125 6.328125 -0.609375 4.515625 -2.390625 C 2.703125 -4.148438 1.796875 -6.3125 1.796875 -8.875 C 1.796875 -11.40625 2.703125 -13.578125 4.515625 -15.390625 C 6.296875 -17.171875 8.453125 -18.0625 10.984375 -18.0625 C 13.515625 -18.0625 15.6875 -17.171875 17.5 -15.390625 C 19.289062 -13.578125 20.1875 -11.40625 20.1875 -8.875 Z M 20.1875 -8.875 "/></g></g></g><g fill="#00bf63" fill-opacity="1"><g transform="translate(277.802282, 195.240801)"><g><path d="M 5.796875 9.984375 L 3 9.984375 L 3 -17.59375 L 5.796875 -17.59375 L 5.796875 -14.59375 C 5.953125 -14.800781 6.125 -15 6.3125 -15.1875 C 7.96875 -17.050781 10.007812 -17.984375 12.4375 -17.984375 C 14.851562 -17.984375 16.898438 -17.050781 18.578125 -15.1875 C 20.179688 -13.375 20.984375 -11.242188 20.984375 -8.796875 C 20.984375 -6.335938 20.179688 -4.203125 18.578125 -2.390625 C 16.898438 -0.523438 14.851562 0.40625 12.4375 0.40625 C 10.007812 0.40625 7.96875 -0.523438 6.3125 -2.390625 C 6.125 -2.578125 5.953125 -2.78125 5.796875 -3 Z M 18.1875 -8.796875 C 18.1875 -10.492188 17.597656 -11.984375 16.421875 -13.265625 C 15.222656 -14.546875 13.742188 -15.1875 11.984375 -15.1875 C 10.234375 -15.1875 8.769531 -14.546875 7.59375 -13.265625 C 6.394531 -11.984375 5.796875 -10.492188 5.796875 -8.796875 C 5.796875 -7.085938 6.394531 -5.59375 7.59375 -4.3125 C 8.769531 -3.03125 10.234375 -2.390625 11.984375 -2.390625 C 13.742188 -2.390625 15.222656 -3.03125 16.421875 -4.3125 C 17.597656 -5.59375 18.1875 -7.085938 18.1875 -8.796875 Z M 18.1875 -8.796875 "/></g></g></g><g fill="#00bf63" fill-opacity="1"><g transform="translate(300.584364, 195.240801)"><g><path d="M 20.1875 -9.1875 L 20.1875 -7.71875 L 4.71875 -7.71875 C 4.976562 -6.195312 5.710938 -4.957031 6.921875 -4 C 8.140625 -3.007812 9.492188 -2.515625 10.984375 -2.515625 C 12.003906 -2.515625 12.976562 -2.753906 13.90625 -3.234375 C 14.8125 -3.691406 15.570312 -4.332031 16.1875 -5.15625 L 19.390625 -5.15625 C 18.640625 -3.476562 17.519531 -2.160156 16.03125 -1.203125 C 14.507812 -0.210938 12.976562 0.28125 11.4375 0.28125 C 9.863281 0.28125 8.53125 0.0390625 7.4375 -0.4375 C 6.3125 -0.914062 5.335938 -1.566406 4.515625 -2.390625 C 2.703125 -4.148438 1.796875 -6.3125 1.796875 -8.875 C 1.796875 -11.40625 2.703125 -13.578125 4.515625 -15.390625 C 6.296875 -17.171875 8.453125 -18.0625 10.984375 -18.0625 C 13.441406 -18.0625 15.585938 -17.195312 17.421875 -15.46875 C 19.265625 -13.707031 20.1875 -11.613281 20.1875 -9.1875 Z M 17.21875 -10.109375 C 16.90625 -11.597656 16.160156 -12.835938 14.984375 -13.828125 C 13.816406 -14.785156 12.484375 -15.265625 10.984375 -15.265625 C 8.691406 -15.265625 6.894531 -14.238281 5.59375 -12.1875 C 5.195312 -11.550781 4.914062 -10.859375 4.75 -10.109375 Z M 17.21875 -10.109375 "/></g></g></g><g fill="#00bf63" fill-opacity="1"><g transform="translate(322.367228, 195.240801)"><g/></g></g><g fill="#00bf63" fill-opacity="1"><g transform="translate(333.158742, 195.240801)"><g><path d="M 17.390625 -8.875 C 17.390625 -10.632812 16.765625 -12.140625 15.515625 -13.390625 C 14.253906 -14.640625 12.742188 -15.265625 10.984375 -15.265625 C 9.234375 -15.265625 7.726562 -14.640625 6.46875 -13.390625 C 5.21875 -12.140625 4.59375 -10.632812 4.59375 -8.875 C 4.59375 -7.144531 5.21875 -5.648438 6.46875 -4.390625 C 7.726562 -3.140625 9.234375 -2.515625 10.984375 -2.515625 C 12.742188 -2.515625 14.253906 -3.140625 15.515625 -4.390625 C 16.765625 -5.648438 17.390625 -7.144531 17.390625 -8.875 Z M 20.1875 -8.875 C 20.1875 -6.3125 19.289062 -4.148438 17.5 -2.390625 C 15.664062 -0.609375 13.492188 0.28125 10.984375 0.28125 C 8.484375 0.28125 6.328125 -0.609375 4.515625 -2.390625 C 2.703125 -4.148438 1.796875 -6.3125 1.796875 -8.875 C 1.796875 -11.40625 2.703125 -13.578125 4.515625 -15.390625 C 6.296875 -17.171875 8.453125 -18.0625 10.984375 -18.0625 C 13.515625 -18.0625 15.6875 -17.171875 17.5 -15.390625 C 19.289062 -13.578125 20.1875 -11.40625 20.1875 -8.875 Z M 20.1875 -8.875 "/></g></g></g><g fill="#00bf63" fill-opacity="1"><g transform="translate(355.141442, 195.240801)"><g><path d="M 12.4375 -27.375 L 10.03125 -27.375 C 9.101562 -27.375 8.488281 -27.160156 8.1875 -26.734375 C 7.894531 -26.304688 7.75 -25.789062 7.75 -25.1875 L 7.75 -17.59375 L 12.4375 -17.59375 L 12.4375 -14.984375 L 7.75 -14.984375 L 7.75 0 L 4.953125 0 L 4.953125 -14.984375 L 1.40625 -14.984375 L 1.40625 -17.59375 L 4.953125 -17.59375 L 4.953125 -24.375 C 4.953125 -26.164062 5.378906 -27.550781 6.234375 -28.53125 C 7.054688 -29.488281 8.457031 -29.96875 10.4375 -29.96875 L 12.4375 -29.96875 Z M 12.4375 -27.375 "/></g></g></g><g fill="#00bf63" fill-opacity="1"><g transform="translate(368.770719, 195.240801)"><g/></g></g><g fill="#1e4ed7" fill-opacity="1"><g transform="translate(379.563879, 195.240801)"><g><path d="M 10.546875 -12.828125 C 5.003906 -14.109375 2.234375 -16.476562 2.234375 -19.9375 C 2.234375 -22.5 3.128906 -24.421875 4.921875 -25.703125 C 6.703125 -26.953125 8.789062 -27.578125 11.1875 -27.578125 C 16.488281 -27.578125 19.632812 -25.601562 20.625 -21.65625 L 17.59375 -21.65625 C 17.050781 -24.007812 14.914062 -25.1875 11.1875 -25.1875 C 8.582031 -25.1875 6.757812 -24.410156 5.71875 -22.859375 C 5.3125 -22.273438 5.109375 -21.539062 5.109375 -20.65625 C 5.109375 -18.976562 6.015625 -17.6875 7.828125 -16.78125 C 8.679688 -16.332031 10.492188 -15.75 13.265625 -15.03125 C 16.035156 -14.3125 18.050781 -13.507812 19.3125 -12.625 C 21.039062 -11.40625 21.90625 -9.6875 21.90625 -7.46875 C 21.90625 -4.726562 20.828125 -2.648438 18.671875 -1.234375 C 16.859375 -0.0664062 14.617188 0.515625 11.953125 0.515625 C 5.929688 0.515625 2.441406 -1.773438 1.484375 -6.359375 L 4.796875 -6.359375 C 5.304688 -3.472656 7.691406 -2.03125 11.953125 -2.03125 C 14.984375 -2.03125 17.101562 -2.875 18.3125 -4.5625 C 18.789062 -5.226562 19.03125 -6.132812 19.03125 -7.28125 C 19.03125 -8.394531 18.585938 -9.3125 17.703125 -10.03125 C 16.453125 -11.039062 14.066406 -11.972656 10.546875 -12.828125 Z M 10.546875 -12.828125 "/></g></g></g><g fill="#1e4ed7" fill-opacity="1"><g transform="translate(402.505828, 195.240801)"><g><path d="M 20.1875 -9.1875 L 20.1875 -7.71875 L 4.71875 -7.71875 C 4.976562 -6.195312 5.710938 -4.957031 6.921875 -4 C 8.140625 -3.007812 9.492188 -2.515625 10.984375 -2.515625 C 12.003906 -2.515625 12.976562 -2.753906 13.90625 -3.234375 C 14.8125 -3.691406 15.570312 -4.332031 16.1875 -5.15625 L 19.390625 -5.15625 C 18.640625 -3.476562 17.519531 -2.160156 16.03125 -1.203125 C 14.507812 -0.210938 12.976562 0.28125 11.4375 0.28125 C 9.863281 0.28125 8.53125 0.0390625 7.4375 -0.4375 C 6.3125 -0.914062 5.335938 -1.566406 4.515625 -2.390625 C 2.703125 -4.148438 1.796875 -6.3125 1.796875 -8.875 C 1.796875 -11.40625 2.703125 -13.578125 4.515625 -15.390625 C 6.296875 -17.171875 8.453125 -18.0625 10.984375 -18.0625 C 13.441406 -18.0625 15.585938 -17.195312 17.421875 -15.46875 C 19.265625 -13.707031 20.1875 -11.613281 20.1875 -9.1875 Z M 17.21875 -10.109375 C 16.90625 -11.597656 16.160156 -12.835938 14.984375 -13.828125 C 13.816406 -14.785156 12.484375 -15.265625 10.984375 -15.265625 C 8.691406 -15.265625 6.894531 -14.238281 5.59375 -12.1875 C 5.195312 -11.550781 4.914062 -10.859375 4.75 -10.109375 Z M 17.21875 -10.109375 "/></g></g></g><g fill="#1e4ed7" fill-opacity="1"><g transform="translate(424.288692, 195.240801)"><g><path d="M 12.03125 -13.953125 C 11.394531 -14.535156 10.703125 -14.828125 9.953125 -14.828125 C 9.234375 -14.828125 8.617188 -14.628906 8.109375 -14.234375 C 7.578125 -13.804688 7.140625 -13.296875 6.796875 -12.703125 C 6.128906 -11.535156 5.796875 -10.234375 5.796875 -8.796875 L 5.796875 0 L 3 0 L 3 -17.59375 L 5.796875 -17.59375 L 5.796875 -13.953125 L 5.921875 -14.671875 C 6.847656 -16.859375 8.296875 -17.953125 10.265625 -17.953125 C 10.878906 -17.953125 11.46875 -17.832031 12.03125 -17.59375 Z M 12.03125 -13.953125 "/></g></g></g><g fill="#1e4ed7" fill-opacity="1"><g transform="translate(436.718915, 195.240801)"><g><path d="M 8.515625 1.671875 L 0.40625 -17.59375 L 3.4375 -17.59375 L 8.515625 -4.515625 L 13.546875 -17.59375 L 16.59375 -17.59375 Z M 8.515625 1.671875 "/></g></g></g><g fill="#1e4ed7" fill-opacity="1"><g transform="translate(453.705549, 195.240801)"><g><path d="M 5.828125 -23.65625 C 6.179688 -23.3125 6.359375 -22.898438 6.359375 -22.421875 C 6.359375 -21.910156 6.179688 -21.484375 5.828125 -21.140625 C 5.484375 -20.796875 5.070312 -20.625 4.59375 -20.625 C 4.09375 -20.625 3.664062 -20.796875 3.3125 -21.140625 C 2.96875 -21.484375 2.796875 -21.910156 2.796875 -22.421875 C 2.796875 -22.898438 2.96875 -23.3125 3.3125 -23.65625 C 3.664062 -24.007812 4.09375 -24.1875 4.59375 -24.1875 C 5.070312 -24.1875 5.484375 -24.007812 5.828125 -23.65625 Z M 6 0 L 3.203125 0 L 3.203125 -17.59375 L 6 -17.59375 Z M 6 0 "/></g></g></g><g fill="#1e4ed7" fill-opacity="1"><g transform="translate(462.858353, 195.240801)"><g><path d="M 19.421875 -11.265625 L 16.390625 -11.265625 C 15.910156 -12.390625 15.164062 -13.296875 14.15625 -13.984375 C 13.132812 -14.679688 12.109375 -15.03125 11.078125 -15.03125 C 10.035156 -15.03125 9.140625 -14.867188 8.390625 -14.546875 C 7.648438 -14.203125 7.007812 -13.75 6.46875 -13.1875 C 5.269531 -11.9375 4.671875 -10.472656 4.671875 -8.796875 C 4.671875 -7.085938 5.269531 -5.617188 6.46875 -4.390625 C 7.644531 -3.140625 9.085938 -2.515625 10.796875 -2.515625 C 11.910156 -2.515625 12.945312 -2.804688 13.90625 -3.390625 C 14.84375 -3.984375 15.578125 -4.769531 16.109375 -5.75 L 19.265625 -5.75 C 18.273438 -2.925781 16.367188 -1.035156 13.546875 -0.078125 C 12.671875 0.242188 11.671875 0.40625 10.546875 0.40625 C 9.429688 0.40625 8.328125 0.148438 7.234375 -0.359375 C 6.140625 -0.835938 5.191406 -1.503906 4.390625 -2.359375 C 2.660156 -4.171875 1.796875 -6.316406 1.796875 -8.796875 C 1.796875 -11.296875 2.660156 -13.441406 4.390625 -15.234375 C 6.148438 -17.046875 8.285156 -17.953125 10.796875 -17.953125 C 12.816406 -17.953125 14.640625 -17.320312 16.265625 -16.0625 C 17.804688 -14.863281 18.859375 -13.265625 19.421875 -11.265625 Z M 19.421875 -11.265625 "/></g></g></g><g fill="#1e4ed7" fill-opacity="1"><g transform="translate(483.681969, 195.240801)"><g><path d="M 20.1875 -9.1875 L 20.1875 -7.71875 L 4.71875 -7.71875 C 4.976562 -6.195312 5.710938 -4.957031 6.921875 -4 C 8.140625 -3.007812 9.492188 -2.515625 10.984375 -2.515625 C 12.003906 -2.515625 12.976562 -2.753906 13.90625 -3.234375 C 14.8125 -3.691406 15.570312 -4.332031 16.1875 -5.15625 L 19.390625 -5.15625 C 18.640625 -3.476562 17.519531 -2.160156 16.03125 -1.203125 C 14.507812 -0.210938 12.976562 0.28125 11.4375 0.28125 C 9.863281 0.28125 8.53125 0.0390625 7.4375 -0.4375 C 6.3125 -0.914062 5.335938 -1.566406 4.515625 -2.390625 C 2.703125 -4.148438 1.796875 -6.3125 1.796875 -8.875 C 1.796875 -11.40625 2.703125 -13.578125 4.515625 -15.390625 C 6.296875 -17.171875 8.453125 -18.0625 10.984375 -18.0625 C 13.441406 -18.0625 15.585938 -17.195312 17.421875 -15.46875 C 19.265625 -13.707031 20.1875 -11.613281 20.1875 -9.1875 Z M 17.21875 -10.109375 C 16.90625 -11.597656 16.160156 -12.835938 14.984375 -13.828125 C 13.816406 -14.785156 12.484375 -15.265625 10.984375 -15.265625 C 8.691406 -15.265625 6.894531 -14.238281 5.59375 -12.1875 C 5.195312 -11.550781 4.914062 -10.859375 4.75 -10.109375 Z M 17.21875 -10.109375 "/></g></g></g></svg>